<?xml version="1.0" encoding="UTF-8"?>
<svg id="Capa_2" data-name="Capa 2" xmlns="http://www.w3.org/2000/svg" viewBox="0 0 109.47 105.65">
  <defs>
    <style>
      .cls-1 {
        fill: #dcdcdb;
      }

      .cls-2 {
        fill: none;
      }

      .cls-3 {
        fill: #1f2957;
      }

      .cls-4 {
        fill: #bb2032;
      }
    </style>
  </defs>
  <g id="Capa_2-2" data-name="Capa 2">
    <g>
      <g>
        <path class="cls-3" d="M99.35,91.1h-8.38v-2.05l2.82-2.85c.81-.84,1.33-1.42,1.58-1.73s.42-.57,.52-.79,.15-.45,.15-.7c0-.3-.1-.54-.29-.71s-.47-.26-.82-.26-.73,.1-1.1,.31c-.37,.21-.79,.51-1.26,.92l-1.71-2.01c.6-.53,1.1-.91,1.5-1.14s.85-.4,1.32-.53c.48-.12,1.01-.18,1.61-.18,.75,0,1.42,.13,2,.4,.59,.26,1.04,.64,1.37,1.13,.32,.49,.49,1.03,.49,1.64,0,.45-.06,.87-.17,1.26-.11,.38-.29,.76-.53,1.13s-.55,.76-.94,1.17-1.23,1.19-2.51,2.34v.08h4.37v2.58Z"/>
        <path class="cls-3" d="M109.16,91.1h-8.38v-2.05l2.82-2.85c.81-.84,1.33-1.42,1.58-1.73s.42-.57,.52-.79,.15-.45,.15-.7c0-.3-.1-.54-.29-.71s-.47-.26-.82-.26-.73,.1-1.1,.31c-.37,.21-.79,.51-1.26,.92l-1.71-2.01c.6-.53,1.1-.91,1.5-1.14s.85-.4,1.32-.53c.48-.12,1.01-.18,1.61-.18,.75,0,1.42,.13,2,.4,.59,.26,1.04,.64,1.37,1.13,.32,.49,.49,1.03,.49,1.64,0,.45-.06,.87-.17,1.26-.11,.38-.29,.76-.53,1.13-.24,.37-.55,.76-.94,1.17s-1.23,1.19-2.51,2.34v.08h4.37v2.58Z"/>
        <path class="cls-3" d="M98.33,105.49h-8.38v-2.05l2.82-2.85c.81-.84,1.33-1.42,1.58-1.73s.42-.57,.52-.79,.15-.45,.15-.7c0-.3-.1-.54-.29-.71s-.47-.26-.82-.26-.73,.1-1.1,.31c-.37,.21-.79,.51-1.26,.92l-1.71-2.01c.6-.53,1.1-.91,1.5-1.14s.85-.4,1.32-.53c.48-.12,1.01-.18,1.61-.18,.75,0,1.42,.13,2,.4,.59,.26,1.04,.64,1.37,1.13,.32,.49,.49,1.03,.49,1.64,0,.45-.06,.87-.17,1.26-.11,.38-.29,.76-.53,1.13s-.55,.76-.94,1.17c-.39,.41-1.23,1.19-2.51,2.34v.08h4.37v2.58Z"/>
        <path class="cls-3" d="M99.82,100.61c0-1.61,.23-2.92,.69-3.92,.46-1,1.14-1.73,2.04-2.21,.9-.47,2.01-.71,3.32-.71,.47,0,1.02,.04,1.64,.13v2.44c-.53-.1-1.1-.15-1.71-.15-1.04,0-1.82,.23-2.33,.69s-.79,1.21-.84,2.24h.09c.47-.9,1.24-1.34,2.28-1.34s1.82,.33,2.39,.99c.57,.66,.85,1.58,.85,2.76,0,1.27-.36,2.27-1.07,3.01-.72,.73-1.72,1.1-3,1.1-1.36,0-2.43-.44-3.2-1.33-.77-.88-1.15-2.12-1.15-3.71Zm4.28,2.57c.33,0,.6-.13,.81-.38,.21-.25,.31-.65,.31-1.2,0-.94-.36-1.41-1.09-1.41-.36,0-.65,.12-.87,.36-.22,.24-.34,.54-.34,.88,0,.51,.11,.92,.32,1.24s.5,.49,.85,.49Z"/>
      </g>
      <g>
        <g>
          <path class="cls-3" d="M13.45,105.02l-3.31-8.23h-2.18v8.23H2.35v-25.02h7.89c4.47,0,8.36,3.82,8.36,8.4,0,2.56-1.26,4.92-3.21,6.52l4.1,10.11h-6.04Zm-5.5-12.49h1.91c2.15,0,3.31-1.78,3.41-4.13,.1-2.05-1.09-4.13-3.41-4.13h-1.91v8.26Z"/>
          <path class="cls-3" d="M29.62,105.02h-5.6v-25.02h5.6v25.02Z"/>
          <path class="cls-3" d="M56.12,101.71c-2.32,2.29-5.46,3.65-9.01,3.65-6.9-.1-12.6-5.56-12.87-12.77,0-6.55,5.6-12.94,12.87-12.94,3,0,5.74,.99,7.92,2.73l-1.78,4.03c-1.47-1.23-3.24-1.95-5.29-1.95-4.27,0-8.12,3.59-8.12,8.13s3.69,8.12,8.12,8.12c1.81,0,3.79-.61,5.26-1.95l2.9,2.94Z"/>
          <path class="cls-3" d="M71.51,101.71h-7.07l-1.33,3.31h-4.61l10.21-25.23,10.17,25.23h-6.01l-1.37-3.31Zm-1.71-4.27l-1.81-4.51-1.81,4.51h3.62Z"/>
        </g>
        <g>
          <path class="cls-1" d="M9.77,57.01c-.31-1.67-.48-3.4-.48-5.19,0-.05,0-.1,0-.16-.91,.28-1.78,.65-2.59,1.12-.04,.67-.08,1.34-.08,2.02,0,1.63,.13,3.22,.38,4.76,.72-1.05,1.67-1.92,2.77-2.55Z"/>
          <path class="cls-3" d="M18.98,70.24c-.4,.36-.83,.66-1.29,.92-1.24,.7-2.65,1.03-3.97,1.03-.38,0-.75-.04-1.12-.09-3.92-.57-7.01-4.07-7.01-8.03,0-1.67,.53-3.22,1.4-4.5-.25-1.54-.38-3.13-.38-4.76,0-.68,.03-1.35,.08-2.02-2.48,1.42-4.43,3.65-5.57,6.2-.72,1.6-1.13,3.33-1.13,5.08,.16,4.33,2.3,8.02,5.47,10.31,2.1,1.52,4.65,2.42,7.4,2.46,1.57,0,3.05-.28,4.43-.78,1.58-.57,3.01-1.44,4.23-2.56,.12-.11,.24-.2,.35-.31l-2.9-2.94Z"/>
          <path class="cls-4" d="M9.77,57.01c1.19-.68,2.55-1.08,3.95-1.08,.63,0,1.23,.08,1.81,.21-.72-1.56-1.32-3.22-1.73-4.98-.31-.02-.62-.04-.93-.04-1.25,0-2.44,.2-3.57,.55,0,.05,0,.1,0,.16,0,1.79,.18,3.52,.48,5.19Z"/>
          <path class="cls-1" d="M19.03,57.85c-1.34-1.88-2.46-4.03-3.26-6.4-.64-.15-1.3-.25-1.97-.29,.42,1.76,1.01,3.43,1.73,4.98,1.3,.29,2.47,.89,3.48,1.74v-.03Z"/>
          <path class="cls-3" d="M20.74,53.81c-1.44-1.14-3.13-1.94-4.96-2.36,.8,2.37,1.91,4.52,3.26,6.4l1.75-3.97s-.03-.04-.04-.07Z"/>
          <path class="cls-3" d="M20.78,53.88v-.03s-.02-.03-.04-.04c.01,.02,.03,.05,.04,.07Zm26.12,2.07c-.05-.07-.11-.13-.16-.2-.46-.54-.97-1.05-1.51-1.51-.81-.69-1.7-1.28-2.66-1.76-1.24-.62-2.57-1.05-3.97-1.24-.53-.07-1.06-.12-1.6-.12-5.2,0-9.78,3.34-11.76,7.87-.54,1.23-.88,2.55-.99,3.91-.03,.34-.05,.67-.05,1.01,0,.63,.06,1.25,.15,1.85,.51,3.46,2.43,6.42,5.08,8.39,.14,.1,.27,.2,.41,.3,.79,.54,1.64,1,2.53,1.35,1.46,.59,3.03,.91,4.63,.91,6.96-.17,12.8-5.8,12.8-12.8,0-1-.14-1.97-.37-2.91-.46-1.87-1.34-3.6-2.54-5.06Zm-2.95,8.29c-.15,4.21-3.09,7.97-6.95,7.97-.13,0-.26-.03-.39-.05-.29-.03-.56-.08-.83-.15-1.14-.28-2.14-.83-2.97-1.58-.91-.82-1.62-1.87-2.09-3.04-.29-.71-.48-1.46-.59-2.22-.06-.42-.09-.84-.09-1.26,0-.49,.04-.98,.12-1.46,.57-3.66,3.23-6.83,6.85-6.83,.53,0,1.04,.07,1.52,.2,1.62,.43,2.93,1.53,3.86,2.92,.38,.58,.7,1.2,.95,1.86,.06,.15,.11,.3,.16,.45,.05,.15,.09,.29,.13,.44,.22,.81,.34,1.63,.34,2.43,0,.11-.01,.22-.01,.32Zm19.33-2.68c-2.08-1.19-4.06-2.32-4.06-3.41,0-1.33,1.4-1.84,2.59-1.84,.99,0,1.95,.41,3.14,1.2l3.62-3.79c-1.54-1.43-4.3-2.66-6.76-2.66-3.86,0-7.85,2.42-7.85,7.17,0,4.2,3.62,6.11,6.35,7.75,1.91,1.09,3.76,1.84,3.76,3.52,0,.78-1.13,2.15-2.77,2.15-2.01,0-3.69-1.47-4.81-3.11l-4.3,3.04c2.15,2.97,5.29,5.22,9.12,5.33h.03c3.82-.1,7.99-3.18,7.99-7.44s-3.31-6.35-6.04-7.89Zm36.01-10.31l-10.21,25.23h4.61l1.33-3.31h7.07l1.37,3.31h6.01l-10.17-25.23Zm-2.53,17.65l1.81-4.51,1.81,4.51h-3.62Zm-7.68-17.45h-16.01l-.34,4.27h5.51l.02,1.26v19.5h5.6v-20.76h5.56l-.34-4.27Z"/>
        </g>
        <g>
          <path class="cls-2" d="M13.01,43.21s0,.05,0,.07c0-.02,0-.05,0-.07Z"/>
          <path class="cls-2" d="M13.03,42.74s0,.04,0,.06c0-.02,0-.04,0-.06Z"/>
          <path class="cls-2" d="M10.24,41.02l-.09,.18c.03-.06,.06-.12,.09-.18Z"/>
          <path class="cls-2" d="M9.29,42.87l-.15,.29c.05-.1,.1-.19,.15-.29Z"/>
          <path class="cls-2" d="M9.71,42.06l-.07,.14s.05-.1,.07-.14Z"/>
          <path class="cls-2" d="M13.26,40.63c0,.06-.02,.12-.03,.17,.03-.19,.06-.38,.1-.56-.02,.1-.04,.2-.05,.3,0,.03,0,.06-.01,.09Z"/>
          <path class="cls-2" d="M13.18,41.21c-.02,.17-.04,.35-.06,.51,0,.01,0,.02,0,.04-.02,.17-.03,.33-.05,.49,.01-.16,.03-.33,.05-.49,.03-.25,.06-.5,.1-.75,0,.05-.01,.09-.02,.14,0,.02,0,.04,0,.07Z"/>
          <path class="cls-2" d="M13.03,42.8s0,0,0,0c.01-.18,.02-.35,.04-.53-.01,.16-.02,.31-.03,.46,0,.02,0,.04,0,.06Z"/>
          <path class="cls-2" d="M14.29,41.5c-.03,1,.01,2.04,.19,3.21,.04,.23,.08,.47,.12,.71-.25-1.29-.34-2.6-.32-3.92Z"/>
          <path class="cls-4" d="M83.36,25.48c-5.39-10.38-17.73-17.08-30.72-16.68-3.08,.03-6.2,.47-9.25,1.26-5.44,1.73-10.65,4.57-15.08,8.22-1.61,1.32-3.11,2.75-4.48,4.26-.79,.87-1.54,1.78-2.24,2.71-.25,.34-.5,.68-.75,1.03-.25,.32-.48,.65-.72,.98-.12,.16-.23,.33-.34,.49-.39,.7-.75,1.38-1.07,2.04-.2,.42-.39,.82-.57,1.22-.05,.1-.09,.2-.14,.3-.05,.11-.09,.21-.13,.32,.4-.44,.8-.87,1.21-1.29,.19-.2,.39-.39,.58-.58,.99-1,2.04-1.94,3.13-2.81,3.49-2.78,7.46-4.88,11.61-6.17,3.85-1.2,7.86-1.7,11.81-1.43,9.44,.52,18.14,5.68,22.16,13.15,2.42,4.23,3.38,9.27,2.91,14.19h1.38c.47-5.23-.57-10.57-3.13-15.05-4.25-7.88-13.37-13.33-23.25-13.88-3.24-.22-6.52,.06-9.72,.81,3.69-1.12,7.52-1.64,11.26-1.47,10.22,.31,19.61,5.72,23.94,13.81,2.64,4.61,3.61,10.34,2.95,15.78h1.44c.67-5.72-.4-11.7-3.22-16.64-4.55-8.51-14.38-14.21-25.05-14.54-3.41-.16-6.9,.25-10.3,1.14,3.87-1.26,7.89-1.89,11.86-1.8,11.03,.09,21.13,5.76,25.76,14.49,2.91,5.06,3.89,11.44,3.01,17.34h1.39c.86-6.21-.19-12.89-3.24-18.19-4.85-9.16-15.42-15.13-26.9-15.22-3.19-.08-6.42,.31-9.58,1.1,3.6-1.13,7.32-1.75,10.96-1.75,.07,0,.14,0,.21,0,.14,0,.28,0,.41,0,11.52,0,22.41,6.06,27.21,15.2,3.17,5.53,4.16,12.56,3.07,18.87h1.38c1.08-6.63,.02-13.95-3.29-19.71-5.02-9.57-16.38-15.94-28.36-15.94-.14,0-.28,0-.43,0-.07,0-.14,0-.22,0-3.28,0-6.61,.48-9.87,1.38,3.82-1.27,7.79-1.99,11.71-2.03,12.52-.37,24.38,6,29.54,15.94,3.39,5.91,4.35,13.66,3.04,20.36h1.46c1.31-6.99,.24-14.96-3.34-21.2ZM14.9,34.65c-.04,.07-.08,.14-.13,.21-.27,.45-.54,.9-.8,1.36-.8,1.38-1.57,2.81-2.24,4.21-.34,.7-.65,1.4-.92,2.08-.38,.92-.7,1.93-.99,2.91h3.25s0-.06,0-.08c0-.05,0-.1-.01-.16,0,0,0,0,0,0,0,0,0,0,0,0,0-.05,0-.11-.01-.17,0-.06,0-.12-.01-.18,0-.03,0-.05,0-.08,0,0,0,0,0-.01,0-.08,0-.18,0-.27,0-.01,0-.02,0-.04,0-.1,0-.2,0-.3,0-.02,0-.04,0-.05,0-.11,0-.22,0-.34,0-.02,0-.04,0-.06,0-.12,0-.24,0-.37,0-.02,0-.05,0-.07,0-.13,.01-.27,.02-.4,0,0,0,0,0,0,0-.02,0-.04,0-.06,0-.15,.02-.3,.03-.46,0-.01,0-.02,0-.04,.01-.16,.03-.32,.05-.49,0-.01,0-.02,0-.04,.02-.17,.04-.34,.06-.51,0-.02,0-.04,0-.07,0-.05,.01-.09,.02-.14,0-.07,.02-.14,.03-.21,0-.06,.02-.12,.03-.17,0-.03,0-.06,.01-.09,.02-.1,.04-.2,.05-.3,.01-.07,.03-.15,.04-.22,0,0,0,0,0,0,0-.03,.01-.06,.02-.09,.04-.18,.08-.36,.12-.55,0-.01,0-.02,0-.04,.03-.11,.06-.23,.09-.34,.02-.09,.05-.19,.07-.28,0-.03,.01-.05,.02-.08,0-.02,0-.03,.01-.05,.04-.13,.08-.26,.11-.39,.02-.05,.03-.1,.05-.16,0-.02,.01-.04,.02-.05,.01-.04,.03-.08,.04-.12,.05-.14,.09-.29,.14-.43,.01-.03,.02-.06,.03-.09,.02-.06,.05-.12,.07-.18,.06-.16,.12-.31,.18-.47,0-.01,0-.02,.01-.03,.03-.06,.06-.13,.08-.19,.07-.16,.13-.32,.21-.48,.11-.24,.22-.47,.34-.71,.14-.28,.3-.56,.47-.83,.04-.14,.08-.28,.13-.42,.03-.09,.05-.17,.08-.26,.08-.25,.16-.49,.24-.73-.32,.51-.65,1.03-.97,1.56-.01,.02-.02,.04-.03,.05Z"/>
          <path class="cls-3" d="M9.58,40.63c-1.73,1.81-3.21,3.53-3.96,4.78h2.37l.02-.04,.02-.05s.03-.06,.06-.11l.1-.2,.23-.46c.03-.07,.07-.14,.11-.21l.23-.44,.24-.48c.05-.09,.1-.19,.14-.28l.15-.29c.12-.23,.23-.45,.34-.67l.07-.14,.2-.4s.04-.09,.06-.13l.17-.34,.09-.18s.02-.04,.03-.06c.6-.97,1.41-2.27,2.06-3.17,0-.01,.02-.02,.02-.03-1.05,1.03-1.97,2-2.78,2.88ZM97.53,20.03C91.03,6.89,75.12-1.28,58.86,.16c-15.17,.94-30.44,10.21-38.18,23.09-.5,.73-1.18,1.79-1.88,3.12-.08,.15-.15,.29-.23,.44-.48,.93-.98,1.97-1.46,3.09-.04,.1-.09,.21-.13,.31-.15,.36-.3,.73-.45,1.11-.21,.55-.42,1.12-.62,1.7-.08,.24-.16,.48-.24,.73-.03,.09-.05,.17-.08,.26-.04,.14-.09,.28-.13,.42-.05,.18-.11,.37-.16,.55-.05,.17-.09,.34-.13,.5-.02,.07-.04,.14-.05,.2-.04,.16-.08,.32-.12,.49-.02,.07-.03,.14-.05,.21-.02,.07-.03,.15-.05,.22-.07,.32-.14,.64-.2,.96-.01,.06-.02,.11-.03,.17-.06,.34-.12,.69-.17,1.04-.13,.9-.2,1.81-.22,2.72-.03,1.32,.06,2.63,.32,3.92h2.41s-1.18-1.47-1.19-5.33c0-1.3,.19-2.88,.72-4.76,4.06-2.98,8.59-4.79,13.44-5.24,9.36-.88,18.57,3.69,22.4,11.1,.91,1.76,1.48,3.6,1.71,5.49h1.4c-.24-2.17-.88-4.29-1.92-6.31-4.16-8.04-13.68-12.81-23.7-11.87-.86,.08-1.7,.2-2.54,.36,3.9-1.17,8.08-1.43,12.46-.5,7.66,1.37,14.25,6.68,16.79,13.51,.5,1.35,.93,2.97,1.07,4.8h1.37c-.13-1.83-.52-3.65-1.18-5.43-2.73-7.33-9.73-13-17.82-14.45-3.1-.66-6.29-.71-9.46-.2,3.69-.95,7.39-1.12,10.85-.48,8.22,1.06,15.67,6.85,18.55,14.39,.77,2.02,1.19,4.1,1.25,6.17h1.38c-.06-2.28-.52-4.57-1.37-6.81-3.12-8.17-10.83-14.18-19.62-15.32-3.54-.65-7.27-.49-10.98,.41-3.22,1.04-6.36,2.66-9.32,4.84-.71,.52-1.4,1.07-2.09,1.65-.39,.33-.78,.68-1.16,1.03-.28,.26-.56,.52-.83,.79,.19-.53,.42-1.08,.66-1.65,.05-.11,.09-.21,.13-.32,.04-.1,.09-.2,.14-.3,.18-.4,.37-.8,.57-1.22,.32-.65,.68-1.33,1.07-2.04,.31-.57,.65-1.15,1.01-1.75,.01-.02,.02-.03,.03-.05,.93-1.44,1.91-2.85,3-4.16,1.04-1.27,2.15-2.5,3.34-3.66,2.66-2.59,5.67-4.88,8.91-6.8,6.32-3.74,13.48-6.05,20.54-6.37,.26-.02,.52-.03,.78-.04,14.18-.7,27.92,6.58,33.63,17.92,3,5.29,4.4,12.13,3.84,18.77-.15,1.79-.44,3.49-.84,5.08h1.45c1.85-7.79,.86-17.41-3.27-24.69C86.45,10.61,72.98,3.14,58.88,3.28c14.72-.76,28.9,6.75,34.79,18.55,3.82,6.76,5.06,16.93,3,24.85h1.44c2.01-7.98,1.04-18.05-3.27-25.68C88.94,9.17,75.07,1.47,60.45,1.64c15.24-.79,29.84,6.95,35.9,19.22,3.75,6.66,5.08,15.71,3.46,23.62-.16,.76-.34,1.49-.54,2.2h1.44c.16-.6,.31-1.2,.43-1.83,1.7-8.32,.31-17.84-3.62-24.81Z"/>
          <path class="cls-1" d="M14.65,35.98c-.07,.16-.14,.32-.21,.48-.03,.08-.06,.15-.1,.23-.06,.16-.12,.31-.18,.47-.03,.09-.07,.18-.1,.27-.05,.14-.1,.28-.14,.43-.03,.11-.07,.22-.1,.33-.04,.13-.08,.26-.11,.39-.04,.14-.07,.27-.11,.41-.02,.1-.05,.19-.07,.29,0,.02,0,.04-.01,.06-.05,.23-.1,.45-.15,.68-.01,.08-.03,.15-.04,.22-.03,.19-.07,.37-.1,.56-.01,.07-.02,.14-.03,.21-.04,.25-.07,.5-.1,.75-.02,.16-.03,.33-.05,.49,0,.01,0,.02,0,.04-.01,.17-.02,.35-.04,.53,0,.14-.01,.27-.02,.4,0,.02,0,.05,0,.07,0,.13,0,.25,0,.37,0,.02,0,.04,0,.06,0,.12,0,.23,0,.34,0,.02,0,.04,0,.05,0,.11,0,.21,0,.3,0,.01,0,.02,0,.04,0,.1,0,.19,0,.27,0,0,0,0,0,.01,0,.1,0,.19,.01,.26,.01,.14,.02,.28,.03,.41h1.55c-.05-.24-.09-.48-.12-.71-.18-1.17-.22-2.21-.19-3.21,.02-.91,.09-1.82,.22-2.72,.05-.35,.11-.69,.17-1.04,.01-.06,.02-.11,.03-.17,.06-.32,.13-.64,.2-.96,0-.04,.01-.07,.02-.11,0-.04,.02-.08,.03-.11,.02-.07,.03-.14,.05-.21,.04-.16,.08-.33,.12-.49,.02-.07,.04-.14,.05-.2,0-.04,.02-.07,.03-.11,.07-.27,.21-.69,.26-.94-.17,.28-.32,.55-.47,.83-.12,.23-.23,.47-.34,.71Zm.12-1.12c.04-.07,.08-.14,.13-.21,.01-.02,.02-.04,.03-.05-.01,.01-.87,1.02-1.25,1.48-.35,.43-.69,.86-1.02,1.3-.11,.14-.22,.28-.33,.42-.65,.9-1.47,2.2-2.06,3.17l-.03,.06c-.03,.06-.06,.11-.09,.18l-.44,.86s-.05,.1-.07,.14l-.34,.67c-.05,.1-.1,.19-.15,.29l-.14,.28c-.08,.16-.17,.32-.24,.48l-.57,1.11c-.04,.08-.07,.15-.1,.2l-.06,.11s-.02,.03-.02,.05l-.02,.04h1.83c.28-.98,.61-1.99,.99-2.91,.28-.68,.59-1.38,.92-2.08,.67-1.4,1.44-2.83,2.24-4.21,.27-.46,.53-.91,.8-1.36Zm29.94-14.85c-3.41-.32-6.9-.05-10.31,.76-4.16,1.29-8.12,3.38-11.61,6.17-1.09,.87-2.14,1.81-3.13,2.81-.2,.19-.39,.38-.58,.58-.41,.42-.81,.85-1.21,1.29-.24,.57-.47,1.12-.66,1.65,.27-.27,.55-.53,.83-.79,.38-.35,.77-.69,1.16-1.03,.68-.58,1.38-1.13,2.09-1.65,2.96-2.18,6.1-3.8,9.32-4.84,2.3-.74,4.68-1.19,7.09-1.32,2.42-.13,4.91,.11,7.3,.5,1.88,.3,3.72,.84,5.48,1.58,3.42,1.45,6.49,3.72,8.88,6.62,1.41,1.72,2.57,3.65,3.44,5.71,1.18,2.82,1.74,5.73,1.7,8.62h1.35c.05-3.15-.55-6.3-1.8-9.31-1.46-3.48-3.7-6.59-6.52-9.04-2.84-2.47-6.22-4.25-9.81-5.22-2.14-.58-4.39-.85-6.59-1.02-2.34-.17-4.71-.04-7.02,.38,3.47-.9,7.04-1.22,10.52-.89,8.82,.74,16.65,5.53,20.44,12.52,2.15,3.77,3.07,8.18,2.79,12.57h1.38c.28-4.69-.72-9.4-3.01-13.43-4.01-7.4-12.24-12.47-21.49-13.25Zm44.49,3.03c-2.19-4.14-4.92-7.81-8.63-10.62-6.64-5.04-14.96-7.57-23.19-7.5-.26,.01-.52,.02-.78,.04-7.05,.32-14.22,2.63-20.54,6.37-3.24,1.92-6.25,4.21-8.91,6.8-1.19,1.16-2.31,2.38-3.34,3.66-.61,.75-1.2,1.53-1.75,2.32-.31,.45-.62,.9-.91,1.35-.12,.17-.24,.34-.35,.51,0,.01-.01,.02-.02,.03-.36,.6-.69,1.18-1.01,1.75,.11-.16,.22-.33,.34-.49,.23-.33,.47-.65,.72-.98,.24-.35,.49-.69,.75-1.03,.7-.93,1.45-1.83,2.24-2.71,1.37-1.52,2.88-2.94,4.48-4.26,4.43-3.64,9.64-6.48,15.08-8.22,3.59-1.14,7.27-1.81,10.89-1.9,11.38-.55,23.26,4.32,29.77,14.24,2.35,3.57,3.69,7.58,4.44,11.83,.37,2.12,.53,4.28,.49,6.43-.01,.54-.29,6.02-.71,6.02h1.68c2.6-12.61-2.3-26.27-12.66-33.56-6.26-4.4-13.88-6.63-21.44-6.59,11.41-.55,23.39,4.29,30.23,13.95,5.29,7.47,7.23,17.21,5.05,26.19h1.43c1.77-7.98,.44-16.51-3.34-23.65Z"/>
        </g>
      </g>
    </g>
  </g>
</svg>