<?xml version="1.0" encoding="UTF-8"?>
<svg id="Capa_2" data-name="Capa 2" xmlns="http://www.w3.org/2000/svg" viewBox="0 0 174.01 109.36">
  <defs>
    <style>
      .cls-1 {
        fill: #f9af16;
      }

      .cls-2 {
        fill: #233e82;
      }

      .cls-3 {
        fill: #cc1c1f;
      }

      .cls-4 {
        fill: #f3651c;
      }

      .cls-5 {
        fill: #e50006;
      }

      .cls-6 {
        fill: #2a8828;
      }

      .cls-7 {
        fill: #9fc614;
      }

      .cls-8 {
        fill: #3680a6;
      }

      .cls-9 {
        fill: #529db0;
      }
    </style>
  </defs>
  <g id="Capa_2-2" data-name="Capa 2">
    <g>
      <path class="cls-3" d="M122.14,9.58c3.29,4.15,5.41,9.12,6.15,14.36,1.04-.37,2.1-.7,3.17-.96-.99-6.21-3.72-12.06-7.91-16.8-6.33,.39-12.4,2.61-17.5,6.32,.58,.94,1.08,1.92,1.57,2.91,4.23-3.19,9.26-5.21,14.52-5.82"/>
      <path class="cls-1" d="M149.97,45.56c5.25,.74,10.23,2.86,14.39,6.15-.61,5.26-2.62,10.27-5.79,14.49,.99,.49,1.97,.99,2.91,1.56,3.7-5.08,5.9-11.16,6.3-17.46-4.75-4.19-10.62-6.94-16.85-7.92-.17,.72-.36,1.43-.59,2.14-.11,.35-.23,.68-.36,1.03"/>
      <path class="cls-9" d="M174.01,81.53c-2.79-5.7-7.15-10.48-12.54-13.76-.65,.89-1.35,1.74-2.09,2.56,4.56,2.69,8.35,6.56,10.94,11.2-2.58,4.62-6.37,8.49-10.93,11.18,.73,.82,1.44,1.67,2.09,2.55,5.37-3.28,9.74-8.04,12.51-13.73"/>
      <path class="cls-1" d="M62.49,9.66c5.26,.61,10.28,2.62,14.51,5.8,.49-.99,.99-1.97,1.57-2.91-5.09-3.7-11.17-5.91-17.48-6.3-4.2,4.76-6.93,10.63-7.9,16.87,1.06,.25,2.11,.59,3.15,.95,.73-5.25,2.86-10.24,6.15-14.41"/>
      <path class="cls-8" d="M89.65,26.64c.23,.56,.44,1.12,.64,1.7,.06,.18,.13,.36,.18,.54,.06,.17,.12,.35,.18,.52h-.01c.59,0,1.17-.03,1.77-.03,.53,0,1.05,.02,1.57,.04v-.02s-.01,0-.01,0c.06-.21,.14-.42,.21-.62,.05-.16,.1-.31,.16-.47,.21-.58,.42-1.16,.66-1.73,1.96-4.74,4.92-8.76,8.5-11.98-2.7-4.55-6.56-8.33-11.17-10.9-4.64,2.59-8.51,6.38-11.2,10.96,3.59,3.21,6.56,7.24,8.53,11.99"/>
      <path class="cls-4" d="M56.33,24.07c4.55,1.59,8.83,4.18,12.47,7.82,.7,.69,1.35,1.41,1.97,2.14-.2,.09-.38,.19-.58,.29,1.21-.57,2.44-1.09,3.69-1.57h0s-.02,0-.02,0c-.01-.18-.02-.37-.03-.56-.01-.2-.03-.41-.04-.61-.03-.6-.06-1.2-.06-1.81,0-1.58,.12-3.12,.33-4.64,.47-3.41,1.5-6.66,2.93-9.67-4.23-3.17-9.25-5.19-14.51-5.8-3.29,4.16-5.41,9.16-6.15,14.41"/>
      <path class="cls-5" d="M110.91,29.77h0c0,.61-.02,1.2-.05,1.79-.01,.21-.03,.41-.05,.61-.01,.17-.01,.34-.03,.51h-.01c1.04,.4,2.07,.83,3.08,1.29v-.02s0,0,0,0c.07-.07,.14-.15,.21-.22,.57-.67,1.16-1.33,1.79-1.96h0c.12-.13,.24-.23,.37-.35,2.54-2.47,5.39-4.46,8.42-5.94,1.19-.59,2.41-1.09,3.65-1.53-.74-5.23-2.86-10.2-6.15-14.35-5.27,.62-10.29,2.63-14.52,5.82,2.1,4.34,3.29,9.21,3.29,14.36"/>
      <path class="cls-7" d="M150.05,23.84c-6-2.05-12.46-2.34-18.59-.85,.1,.65,.17,1.3,.24,1.96,.02,.21,.04,.42,.05,.62,.01,.23,.04,.46,.05,.69h-.01s.01,0,.01,0c.02,0,.05,0,.06-.01,.47-.12,.96-.22,1.44-.32,.16-.04,.32-.07,.47-.11,.53-.09,1.05-.16,1.57-.24,.13-.02,.25-.04,.37-.06,.54-.07,1.09-.11,1.63-.14,.12,0,.22-.02,.32-.02,.55-.03,1.1-.04,1.66-.04,.1,0,.21,0,.31,0,.55,0,1.09,.03,1.63,.07,.12,0,.22,0,.33,.02,.53,.04,1.06,.1,1.58,.18,.12,.01,.25,.03,.38,.04,.53,.08,1.05,.17,1.57,.28,.13,.03,.25,.05,.37,.07,.64,.14,1.29,.3,1.92,.47,1.44,5.1,1.5,10.49,.19,15.61h0c1.09,.06,2.19,.15,3.28,.33,1.47-6.11,1.19-12.56-.87-18.55"/>
      <path class="cls-4" d="M142.15,58.04c-.62,.62-1.28,1.2-1.93,1.77-.06,.05-.12,.11-.19,.16h0s0,0,0,0c.46,1.02,.9,2.06,1.3,3.11h.01v-.02c.17-.01,.33-.02,.51-.03,.2-.01,.4-.02,.6-.04,.59-.03,1.2-.06,1.8-.06,5.14,0,9.98,1.18,14.32,3.27,3.17-4.22,5.18-9.23,5.79-14.5-4.16-3.29-9.14-5.41-14.39-6.15-1.17,3.33-2.88,6.52-5.14,9.41-.82,1.06-1.71,2.09-2.69,3.07"/>
      <path class="cls-8" d="M147.38,78.87c-.55,.23-1.12,.44-1.69,.64-.17,.06-.35,.12-.53,.18-.15,.05-.29,.1-.45,.15h0s-.01,0-.01,0c.02,.63,.05,1.25,.05,1.89,0,.5-.03,1-.04,1.51,.92,.28,1.83,.61,2.73,.99,4.74,1.97,8.76,4.91,11.97,8.49,4.55-2.68,8.33-6.56,10.92-11.18-2.59-4.63-6.38-8.5-10.95-11.19-3.21,3.59-7.25,6.56-12.01,8.53"/>
      <path class="cls-9" d="M92.32,0c-5.7,2.79-10.48,7.16-13.77,12.55h0c.88,.65,1.73,1.36,2.56,2.09,2.69-4.56,6.56-8.36,11.2-10.95,4.62,2.58,8.48,6.36,11.17,10.91,.83-.73,1.67-1.45,2.56-2.09-3.29-5.36-8.05-9.72-13.73-12.5"/>
      <path class="cls-6" d="M147.44,26.45c-.63-.18-1.28-.34-1.92-.48-.12-.02-.24-.04-.37-.07-.53-.1-1.05-.2-1.57-.28-.12-.02-.25-.03-.38-.04-.52-.07-1.06-.14-1.58-.18-.11-.01-.22-.01-.33-.02-.54-.04-1.09-.07-1.63-.07-.1,0-.21,0-.31,0-.55,0-1.1,0-1.66,.03-.1,0-.21,.03-.32,.03-.54,.04-1.09,.08-1.63,.15-.13,0-.25,.03-.37,.05-.52,.06-1.05,.14-1.57,.24-.16,.03-.32,.07-.47,.11-.48,.09-.96,.19-1.44,.32-.02,0-.04,.01-.06,.02h-.01s0,0,0,0c.01,.22,.03,.43,.04,.65,.01,.27,.01,.53,.02,.8,0,.46-.01,.93-.02,1.39,0,.23,0,.45-.02,.68-.04,.66-.09,1.33-.16,2-.02,.2-.05,.4-.08,.6-.06,.49-.14,.98-.21,1.46-.05,.27-.11,.54-.16,.8-.09,.43-.18,.85-.29,1.28-.06,.27-.13,.54-.21,.82-.12,.44-.26,.88-.39,1.33-.08,.24-.14,.48-.23,.71h0c-.23,.68-.48,1.35-.76,2.02-.34,.81-.71,1.59-1.1,2.37-.05,.08-.09,.16-.14,.25-.06-.06-.13-.11-.19-.17,.06,.06,.12,.12,.19,.19h0c.81,.76,1.61,1.55,2.37,2.36h.01s0-.02,0-.02c.09-.05,.19-.09,.28-.14,.79-.4,1.58-.78,2.4-1.13,4.74-1.96,9.68-2.72,14.48-2.46,1.32-5.12,1.25-10.51-.19-15.61"/>
      <path class="cls-5" d="M90.65,29.39c-.06-.17-.12-.34-.18-.52-.06-.18-.12-.36-.18-.54-.21-.57-.41-1.13-.64-1.7-1.98-4.76-4.93-8.79-8.53-11.99h0c-.82-.74-1.67-1.44-2.55-2.09-.58,.94-1.08,1.91-1.57,2.91-1.44,3-2.46,6.25-2.94,9.67-.21,1.52-.32,3.07-.32,4.64,0,.61,.03,1.21,.06,1.8,0,.21,.02,.4,.04,.61,.02,.19,.03,.38,.05,.56h.01s0,0,0,0c.08-.02,.15-.06,.23-.09,.32-.12,.65-.24,.97-.35,.42-.14,.83-.28,1.25-.42,.24-.08,.49-.15,.73-.23,.1-.03,.2-.06,.31-.1,.42-.12,.84-.24,1.25-.35,.35-.09,.69-.2,1.05-.28,.47-.12,.95-.23,1.43-.33,.3-.07,.59-.14,.89-.2,.75-.15,1.5-.29,2.25-.4,.31-.05,.62-.09,.93-.13,.5-.07,.98-.14,1.48-.19,.21-.02,.42-.04,.63-.06,.13-.02,.27-.03,.4-.04,.48-.04,.95-.08,1.44-.11,.35-.02,.69-.04,1.03-.05,.16,0,.32,0,.49-.01,0,0,0,0,0-.01h.01"/>
      <path class="cls-8" d="M68.8,31.89c-3.63-3.64-7.92-6.23-12.47-7.82-1.04-.37-2.09-.69-3.15-.95h-.02c-.04,.26-.06,.52-.09,.78-.05,.38-.11,.75-.14,1.14-.03,.37-.06,.75-.07,1.12-.02,.38-.05,.75-.06,1.13-.01,.39,0,.77,0,1.16,0,.37,0,.73,.02,1.1,.02,.4,.05,.81,.09,1.21,.03,.36,.05,.71,.09,1.07,.05,.42,.11,.85,.17,1.27,.06,.33,.1,.67,.16,1.01,.09,.46,.19,.91,.29,1.36,.07,.3,.13,.6,.21,.9,.13,.53,.3,1.05,.45,1.57,.07,.23,.13,.46,.21,.69,.25,.76,.53,1.5,.84,2.25l.02,.05c.35,.83,.73,1.63,1.13,2.43,.03,.07,.07,.14,.1,.22h.01s.01,0,.01,0c.09-.09,.17-.18,.27-.27,.29-.26,.57-.52,.86-.77,.3-.27,.6-.52,.9-.78,.17-.14,.33-.27,.5-.4,.13-.11,.25-.23,.39-.33,.32-.25,.65-.51,.98-.77,.28-.22,.57-.44,.86-.66,.39-.29,.79-.57,1.19-.85,.24-.16,.47-.33,.71-.49,.62-.42,1.26-.83,1.91-1.23,.24-.14,.49-.28,.73-.42,.44-.26,.88-.52,1.33-.77,.28-.15,.56-.3,.84-.45,.42-.22,.84-.44,1.27-.65,.3-.14,.59-.28,.89-.42,.2-.09,.39-.19,.58-.28-.62-.73-1.27-1.46-1.97-2.14"/>
      <path class="cls-7" d="M107.62,15.41c-.49-1-.99-1.97-1.57-2.9-.89,.63-1.73,1.35-2.56,2.08-3.59,3.21-6.54,7.23-8.5,11.98-.24,.57-.46,1.15-.65,1.73-.05,.16-.1,.32-.16,.47-.06,.2-.15,.41-.21,.62h.02c.2,.02,.4,.02,.6,.03,.34,.02,.68,.03,1.01,.05,.5,.03,1.01,.07,1.51,.12,.08,0,.16,.01,.24,.02,.24,.03,.47,.04,.71,.06,.59,.07,1.17,.14,1.75,.23,.22,.03,.44,.05,.66,.09,.77,.11,1.53,.25,2.29,.4,.3,.06,.58,.13,.88,.19,.48,.11,.97,.22,1.45,.34,.33,.08,.66,.17,.99,.26,.45,.12,.88,.25,1.32,.37,.06,.02,.12,.04,.18,.06,.27,.08,.54,.17,.8,.25,.46,.15,.91,.3,1.36,.46,.29,.1,.58,.2,.87,.3,.05,.02,.1,.04,.16,.07h0s.01,0,.01,0c.02-.17,.02-.34,.03-.51,.02-.2,.03-.41,.05-.62,.03-.59,.05-1.18,.05-1.78h0c0-5.16-1.19-10.02-3.29-14.37"/>
      <path class="cls-4" d="M131.83,26.92c-.01-.22-.03-.44-.04-.65-.15,.04-.24,.06,0,0h.01c-.01-.23-.04-.47-.05-.7v-.03c-.02-.2-.04-.39-.05-.58h0c-.07-.67-.14-1.33-.24-1.98-1.07,.26-2.13,.59-3.17,.96-.13,.04-.27,.1-.42,.16-.44,.16-.88,.33-1.32,.5-.24,.1-.49,.22-.73,.33-.34,.15-.68,.3-1.02,.46-.05,.03-.1,.05-.15,.07-.1,.05-.2,.11-.31,.17-.57,.29-1.13,.59-1.69,.92-.13,.07-.27,.15-.4,.23-1.4,.84-2.75,1.79-4.04,2.85,0,0-.02,.01-.02,.01-.79,.66-1.55,1.33-2.28,2.06,0,0-.03,.03-.04,.04h0c-.64,.64-1.22,1.3-1.8,1.96h0c-.07,.08-.14,.16-.2,.23h.01c.23,.12,.47,.23,.7,.34,.3,.14,.58,.27,.86,.41,.44,.22,.88,.44,1.31,.67,.05,.02,.09,.04,.14,.07,.23,.12,.44,.24,.67,.35,.51,.28,1.01,.57,1.51,.86,.28,.17,.58,.35,.86,.52,.54,.33,1.06,.66,1.58,1.01,.3,.2,.58,.4,.88,.61,.35,.24,.69,.48,1.03,.73,.31,.23,.62,.47,.92,.71,.31,.24,.61,.47,.91,.72,.11,.09,.22,.18,.33,.27,.2,.16,.4,.32,.59,.48,.29,.26,.58,.5,.86,.75,.3,.27,.6,.53,.9,.8,.06,.06,.13,.11,.19,.18,.04-.08,.09-.17,.14-.25,.39-.77,.76-1.57,1.1-2.38,.28-.67,.53-1.33,.76-2.01,.08-.24,.15-.47,.23-.71,.14-.44,.28-.89,.39-1.33,.07-.27,.14-.54,.21-.81,.11-.43,.2-.85,.29-1.28,.05-.26,.11-.54,.16-.81,.08-.48,.16-.97,.22-1.46,.02-.19,.06-.4,.08-.59,.08-.67,.13-1.34,.16-2.01,.01-.23,.01-.45,.02-.68,.01-.46,.02-.92,.02-1.39,0-.27-.01-.53-.02-.8m-14.96,8.52h0s-.02-.02,0,0h0"/>
      <path class="cls-9" d="M147.64,42.06h0c-4.81-.26-9.74,.5-14.48,2.46-.82,.34-1.62,.72-2.4,1.12-.09,.05-.19,.09-.28,.13h.01s-.01,.02-.01,.02c.12,.12,.23,.24,.35,.36,.23,.25,.47,.51,.7,.77,.3,.33,.58,.66,.87,1,.1,.13,.21,.26,.32,.39,.11,.14,.23,.27,.34,.41,.28,.35,.57,.71,.84,1.07,.2,.26,.4,.52,.6,.78,.34,.46,.66,.92,.99,1.4,.2,.29,.4,.58,.6,.87,.33,.51,.67,1.03,.99,1.55,.17,.28,.33,.55,.5,.84,.23,.39,.47,.79,.69,1.2,.09,.17,.19,.35,.28,.53,.07,.13,.14,.26,.21,.39,.21,.39,.42,.79,.61,1.19,.16,.31,.31,.62,.45,.94,.08,.16,.15,.34,.23,.5h0s0,0,0,0c.07-.05,.12-.12,.19-.16,.66-.57,1.3-1.14,1.92-1.77,.46-.45,.88-.92,1.3-1.39-.42,.47-.84,.94-1.3,1.39,.98-.98,1.87-2,2.69-3.06,2.26-2.89,3.98-6.08,5.14-9.41,.12-.35,.25-.68,.36-1.04,.23-.7,.42-1.41,.59-2.13-1.09-.17-2.18-.26-3.28-.33"/>
      <path class="cls-5" d="M158.57,66.21c-4.34-2.08-9.19-3.27-14.32-3.27-.61,0-1.21,.02-1.8,.06-.21,.01-.4,.03-.61,.04-.17,.01-.35,.02-.51,.03h.01s-.01,.02-.01,.02c.03,.08,.07,.17,.1,.24,.13,.36,.26,.72,.39,1.09,.13,.38,.26,.76,.39,1.14,.07,.24,.14,.47,.23,.72,.03,.13,.08,.26,.12,.39,.12,.39,.23,.79,.33,1.19,.1,.36,.2,.73,.3,1.1,.11,.45,.21,.9,.31,1.36,.12,.55,.23,1.1,.33,1.65,.09,.49,.19,.99,.27,1.5,.06,.38,.11,.77,.17,1.15,.05,.4,.11,.82,.16,1.23,.02,.21,.04,.41,.06,.62,.02,.2,.04,.39,.06,.59,.04,.4,.07,.81,.1,1.23,.02,.4,.05,.8,.06,1.21,0,.11,0,.23,0,.33h.02c.14-.04,.3-.09,.45-.14,.17-.06,.34-.12,.52-.18,.57-.2,1.13-.41,1.69-.64,4.76-1.97,8.79-4.95,12.01-8.53,.73-.84,1.44-1.68,2.09-2.57-.94-.57-1.91-1.08-2.91-1.56"/>
      <path class="cls-7" d="M161.5,95.25c-.65-.88-1.35-1.73-2.09-2.55-3.21-3.59-7.23-6.53-11.97-8.49-.9-.38-1.81-.71-2.73-.99h-.01c-.13,4.51-.87,9.08-2.22,13.57-.32,1.06-.68,2.13-1.07,3.2v.02s.02,0,.05,0c.91,.08,1.84,.11,2.78,.11,4.09,0,8-.74,11.62-2.1h.02c.7-.28,1.39-.56,2.07-.86,.07-.04,.14-.07,.21-.11,.61-.28,1.21-.58,1.8-.91,.12-.06,.23-.12,.34-.18,.4-.22,.81-.44,1.21-.69h0"/>
      <path class="cls-2" d="M0,107.65l1.63-1.75c.54,.5,1.04,.96,2,.96,1.16,0,1.91-.71,1.91-2.63v-21.38h2.92v21.34c0,3.42-1.87,5.17-4.62,5.17-1.84,0-3.04-.84-3.84-1.71m4.92-31.83c0-1.21,1.01-2.08,2.09-2.08s2.08,.87,2.08,2.08-.99,2.04-2.08,2.04-2.09-.83-2.09-2.04"/>
      <path class="cls-2" d="M11.21,93.43v-10.58h2.92v10.29c0,3,1.42,4.66,4.25,4.66,3.25,0,5.38-2.08,5.38-5.45v-9.51h2.92v17.25h-2.92l.09-3.5c-1.13,2.41-3.38,3.87-6.17,3.87-3.84,0-6.46-2.62-6.46-7.04"/>
      <path class="cls-2" d="M27.47,82.85h3.21l4.58,9.97c.54,1.16,.96,2.96,.96,2.96,0,0,.38-1.8,.91-2.96l4.5-9.97h3l-8.25,17.58h-.54l-8.38-17.58Z"/>
      <path class="cls-2" d="M53.05,97.97c2.58,0,4.34-1.04,5.46-2.29l1.79,1.74c-1.58,1.8-3.87,3.01-7.25,3.01-5.67,0-9.33-3.92-9.33-8.96s3.87-9,8.92-9c5.54,0,8.87,4.25,8.66,9.96h-14.66c.37,3.29,2.62,5.54,6.41,5.54m5.34-7.75c-.25-2.96-2.13-5.29-5.75-5.29-3.3,0-5.51,2.12-5.96,5.29h11.71Z"/>
      <path class="cls-2" d="M62.97,82.85h2.92l-.08,3.54c1.12-2.45,3.41-3.92,6.21-3.92,3.84,0,6.45,2.63,6.45,7.13v10.51h-2.91v-10.17c0-3.04-1.42-4.79-4.29-4.79-3.21,0-5.38,2.04-5.38,5.46v9.5h-2.92v-17.26Z"/>
      <path class="cls-2" d="M81.93,94.9v-9.59h-2.67v-2.46h2.67v-3.38h2.88v3.38h4.82v2.46h-4.82v9.63c0,2.29,.79,3,2.04,3,1.16,0,1.79-.51,2.33-1l1.58,1.83c-.75,.8-2.09,1.72-4.21,1.72-2.62,0-4.62-1.5-4.62-5.59"/>
      <path class="cls-2" d="M91.43,93.43v-10.58h2.91v10.29c0,3,1.42,4.66,4.26,4.66,3.25,0,5.37-2.08,5.37-5.45v-9.51h2.92v17.25h-2.92l.08-3.5c-1.12,2.41-3.37,3.87-6.16,3.87-3.84,0-6.46-2.62-6.46-7.04"/>
      <path class="cls-2" d="M108.64,91.44c0-5.13,3.67-8.96,8.34-8.96,3.29,0,5.37,1.62,6.62,3.92v-16.38h2.88v30.08h-2.88l.08-3.7c-1.16,2.37-3.58,4.04-6.66,4.04-4.71,0-8.38-3.83-8.38-9m15.08,0c0-3.71-2.45-6.37-6.13-6.37s-5.96,2.66-5.96,6.37,2.33,6.46,5.96,6.46,6.13-2.71,6.13-6.46"/>
      <path class="cls-2" d="M13.84,69.27c0-5.04,3.88-9,8.96-9,3.08,0,5.21,1.17,6.79,3.09l-2.09,1.71c-1.04-1.38-2.54-2.21-4.71-2.21-3.66,0-5.96,2.75-5.96,6.41s2.3,6.42,5.96,6.42c2.38,0,3.87-.96,4.96-2.25l2,1.7c-1.63,1.96-3.75,3.09-6.96,3.09-5.08,0-8.96-3.92-8.96-8.96"/>
      <path class="cls-2" d="M31.72,71.23v-10.59h2.92v10.29c0,3,1.42,4.67,4.25,4.67,3.25,0,5.37-2.09,5.37-5.46v-9.49h2.92v17.25h-2.92l.09-3.5c-1.13,2.41-3.37,3.87-6.16,3.87-3.84,0-6.46-2.62-6.46-7.03"/>
      <rect class="cls-2" x="51.06" y="51.44" width="2.91" height="26.46"/>
      <path class="cls-2" d="M58.85,72.69v-9.58h-2.67v-2.46h2.67v-9h2.88v9h4.83v2.46h-4.83v9.63c0,2.29,.79,3,2.04,3,1.17,0,1.8-.5,2.33-1l1.58,1.84c-.75,.79-2.09,1.7-4.21,1.7-2.63,0-4.63-1.5-4.63-5.58"/>
      <path class="cls-2" d="M69.18,71.23v-10.59h2.91v10.29c0,3,1.42,4.67,4.26,4.67,3.25,0,5.37-2.09,5.37-5.46v-9.49h2.92v17.25h-2.92l.08-3.5c-1.13,2.41-3.37,3.87-6.16,3.87-3.84,0-6.46-2.62-6.46-7.03"/>
      <path class="cls-2" d="M88.31,60.65h2.92l-.08,3.37c1.08-2.63,3-3.71,5.04-3.71,1.29,0,2.21,.29,3,.83l-1.12,2.54c-.54-.38-1.29-.67-2.38-.67-2.46,0-4.46,1.75-4.46,5.79v9.08h-2.92v-17.25Z"/>
      <path class="cls-2" d="M110.77,67.35c0-3.33-1.5-4.63-4.04-4.63s-3.96,1.05-5.04,2.51l-1.79-1.63c1.5-2.05,3.75-3.33,7.04-3.33,3.84,0,6.75,2.25,6.75,7.04v10.59h-2.92l.13-2.58c-1.17,1.75-2.96,2.91-5.71,2.91-3.67,0-6.33-1.66-6.33-5.25s2.9-5.22,6.54-5.22h5.37v-.41Zm-5.17,2.62c-2.2,0-3.91,.8-3.91,2.88,0,1.96,1.46,3.01,4.16,3.01s4.92-1.47,4.92-3.71v-2.17h-5.17Z"/>
      <path class="cls-2" d="M66.06,49.64h.1l3.02,3.77,3-3.77h.1v6.58h-.67v-4.3c0-.29,.04-.75,.04-.75,0,0-.25,.42-.46,.68l-1.97,2.49h-.12l-1.94-2.49c-.21-.26-.47-.68-.47-.68,0,0,.05,.45,.05,.75v4.3h-.67v-6.58Z"/>
      <rect class="cls-2" x="73.71" y="49.72" width=".69" height="6.5"/>
      <path class="cls-2" d="M76.88,51.7c-.18-.22-.45-.6-.45-.6,0,0,.05,.46,.05,.74v4.39h-.65v-6.57h.12l3.88,4.59c.18,.22,.44,.61,.44,.61,0,0-.05-.47-.05-.74v-4.38h.65v6.57h-.12l-3.88-4.59Z"/>
      <rect class="cls-2" x="82.3" y="49.72" width=".7" height="6.5"/>
      <path class="cls-2" d="M83.82,54.98l.57-.31c.31,.54,.76,1.01,1.67,1.01,.76,0,1.35-.42,1.35-1.1s-.41-1-1.22-1.36l-.52-.24c-.92-.42-1.43-.87-1.43-1.78s.74-1.56,1.72-1.56c.87,0,1.42,.41,1.76,.98l-.56,.35c-.25-.4-.59-.71-1.2-.71-.65,0-1.03,.38-1.03,.93s.31,.84,1.03,1.17l.52,.24c1.07,.48,1.63,1.02,1.63,1.99,0,1.08-.85,1.72-2.02,1.72-1.25,0-1.92-.63-2.27-1.32"/>
      <polygon class="cls-2" points="90.41 50.33 88.4 50.33 88.4 49.72 93.1 49.72 93.1 50.33 91.1 50.33 91.1 56.22 90.41 56.22 90.41 50.33"/>
      <polygon class="cls-2" points="93.92 49.72 97.87 49.72 97.87 50.34 94.6 50.34 94.6 53.38 97.53 53.38 97.53 53.98 94.6 53.98 94.6 55.61 98.01 55.61 98.01 56.22 93.92 56.22 93.92 49.72"/>
      <path class="cls-2" d="M103.3,56.22h-.81l-1.25-1.78c-.22,.04-.46,.06-.69,.06h-.77v1.71h-.69v-6.5h1.46c1.77,0,2.69,.99,2.69,2.4,0,.98-.45,1.74-1.36,2.1l1.41,2Zm-2.79-2.32c1.47,0,2.02-.76,2.02-1.78s-.55-1.79-2.02-1.79h-.73v3.57h.73Z"/>
      <rect class="cls-2" x="104.43" y="49.72" width=".7" height="6.5"/>
      <path class="cls-2" d="M106.19,52.97c0-1.96,1.49-3.32,3.34-3.32s3.34,1.37,3.34,3.32-1.5,3.33-3.34,3.33-3.34-1.38-3.34-3.33m5.96,0c0-1.55-1.11-2.71-2.62-2.71s-2.62,1.16-2.62,2.71,1.11,2.71,2.62,2.71,2.62-1.16,2.62-2.71"/>
      <path class="cls-2" d="M115.78,49.72h1.58c2.17,0,3.52,1.28,3.52,3.25s-1.34,3.25-3.52,3.25h-1.58v-6.5Zm1.53,5.88c1.93,0,2.84-1.08,2.84-2.63s-.91-2.63-2.84-2.63h-.84v5.26h.84Z"/>
      <polygon class="cls-2" points="121.91 49.72 125.87 49.72 125.87 50.34 122.59 50.34 122.59 53.38 125.51 53.38 125.51 53.98 122.59 53.98 122.59 55.61 126 55.61 126 56.22 121.91 56.22 121.91 49.72"/>
      <path class="cls-2" d="M120.61,65.35l-2.46-4.46h.77l1.77,3.22c.14,.25,.28,.66,.28,.66,0,0,.14-.4,.28-.66l1.76-3.22h.72l-2.41,4.43v2.06h-.7v-2.03Z"/>
    </g>
  </g>
</svg>