<?xml version="1.0" encoding="UTF-8"?>
<svg id="Capa_2" data-name="Capa 2" xmlns="http://www.w3.org/2000/svg" xmlns:xlink="http://www.w3.org/1999/xlink" viewBox="0 0 1157.76 269.52">
  <defs>
    <style>
      .cls-1 {
        fill: #77635b;
      }

      .cls-2 {
        fill: #1e100b;
      }

      .cls-3 {
        opacity: .48;
      }

      .cls-4 {
        clip-path: url(#clippath);
      }

      .cls-5 {
        fill: none;
      }

      .cls-6 {
        fill: #5e4a40;
      }
    </style>
    <clipPath id="clippath">
      <rect class="cls-5" x="33.16" y="66.4" width="1077.47" height="203.12"/>
    </clipPath>
  </defs>
  <g id="Layer_1" data-name="Layer 1">
    <g class="cls-4">
      <path class="cls-6" d="M100.97,96.03c-.58,.46-1.7,.99-1.65,1.36,.28,2.03,.85,4.02,.99,6.16-1.87-6.31-5.23-11.45-11.03-14.93,3.8,11.3,6.35,23.19,15.67,31.97-2.15-1.88-4.3-3.76-6.45-5.63-2.02,11.5,.62,17.86,10.98,26.91-2.02-1.23-5.07,.37-6.44-3.04-1.03-2.58-3.03-4.76-4.65-7.2-3.35,4.77-4.89,12.93-5.08,26.04-1.27,.2-3.08,.02-3.39,.61-1.75,3.36-3.43,6.81-4.54,10.42-.63,2.03-.11,4.41-.43,6.6-1.27-7.65-1.46-15.02,5.67-20.42,.78-.59,1.19-2.02,1.29-3.1,.34-3.68,.46-7.38,.73-12.26-3.84,5.22-7.08,9.63-10.33,14.04-4.54-2.95-7.8,.76-11.43,2.65-.19-.43-.38-.86-.57-1.29,3.37-1.5,6.78-2.93,10.11-4.51,1.48-.7,3.18-1.42,4.15-2.63,3-3.74,6.03-7.53,8.39-11.68,1.48-2.6,2.5-5.91,2.42-8.86-.16-6-1.21-11.98-1.9-17.97-.42,.06-.83,.12-1.25,.18-1.77,6.21-3.55,12.42-5.32,18.63-.51-.11-1.02-.22-1.53-.33,3.92-10.18,6.01-20.42,1.47-32.02-2.78,5.03-5.99,9-7.18,13.5-1.16,4.39-.25,9.32-.25,13.52-.56-2.38-1.24-5.28-1.92-8.18-5.53,8.04-9.7,16.2-10.01,25.85v-5.71c-1.22,.4-2.01,.66-2.57,.84,6.12-13.7,12.22-27.37,18.32-41.03-.3-.24-.6-.47-.9-.71-3.16,3.37-6.32,6.74-9.48,10.12-.3-.26-.6-.51-.9-.77,3.28-3.67,6.37-7.54,9.93-10.92,1.77-1.68,2.08-2.91,1.8-5.3-.85-7.13-1.82-14.06-6.37-20.04-1.18-1.56-1.32-3.9-1.98-6.01-3.15,4.71-3.31,8.58-.85,20.62-.79-.63-1.21-.97-2.07-1.66-3.45,8.78-6.84,17.41-10.24,26.05,2.6-8,3.55-16.18,1.32-24.3-2.25-8.21-3.48-16.38-1.82-24.98-5.46,3.1-6.5,5.94-4.22,11.22,2.23,5.18,3.84,10.39,1.27,16,1.38-5.92-.41-11.06-3.01-15.3-2.31,5.15-4.11,10.84-7.23,15.67-3.08,4.75-7.44,8.71-12.5,9.88,4.14-4.5,8.87-9.5,13.41-14.67,.9-1.02,1.09-2.66,1.8-4.52-1.5,.31-2.4,.5-3.53,.74,.25-.48,.3-.79,.46-.86,2.78-1.25,3.75-3.28,3.74-6.39-.02-5.84,2.38-10.98,6.81-14.66,3.63-3.02,6.57-6.31,8.86-10.44,1.7-3.07,4.2-5.69,6.35-8.51l-.51-1.33c-3.96,1.21-8.18,1.93-11.76,3.84-1.69,.9-2.42,4-3.11,6.26-.86,2.81-1.24,5.77-2.54,8.55,.33-2.9,.67-5.81,1.13-9.83-1.8,1.57-2.72,2.38-3.65,3.19l-.55-.28c1.52-2.49,3.05-4.99,4.6-7.54-14.58,3.48-19.08,6.22-16.77,25.49-.67-2.23-1.74-4.44-1.91-6.71-.2-2.64,.38-5.35,.66-8.41-8.66,8.8-16.99,17.26-24.66,25.05-6.41-1.25-9.98,3.41-14.82,4.17,6.4-3.79,13.33-6.94,19.07-11.56,5.82-4.7,10.47-10.85,15.62-16.37-.46-.63-.93-1.25-1.39-1.88-3.3,1.5-6.61,3.01-9.91,4.51-.18-.32-.35-.64-.53-.96,3.63-1.8,7.27-3.59,10.89-5.41,1.96-.98,4.14-1.71,5.79-3.08,8.36-6.91,18.08-10.68,28.63-12.15,5.57-.78,8.92-3.3,9.84-8.73,.44-2.58,1.83-3.01,4.06-2.96,4.8,.1,9.62,.15,14.42-.02,2.43-.09,3.47,.83,3.96,3.14,2.13,10.1,8.77,17.7,16.19,23.75,4.42,3.6,11.8,3.76,17.78,5.45-.01,.05-.1,.14-.27,.21-1.84,.67-2.49,.49-3.85,.45-2.76-.68-6-1.48-10.4-2.56,15.86,20.15,35.91,17.88,56.42,14.81-4.52,.94-9.04,1.88-13.73,2.86,3.15,4.23,7.1,2.75,10.93,2.52-1.42,.52-2.84,1.04-5.05,1.86,2.31,2.43,4.4,4.62,6.49,6.81-.17,.27-.34,.53-.51,.8-1.44-1.27-2.93-2.48-4.31-3.8-5.57-5.34-11.81-8.63-20.27-6.67,1.04,1.39,1.97,2.62,2.73,3.64-9.72-4.11-19.52-8.25-29.05-12.29-.06,3.16,0,3.26,6.24,8.52-.76,.14-1.34,.26-2.2,.42,.86,1.26,1.65,2.41,2.43,3.56-4.91-3.49-7.75-8.34-9.95-13.76-1.03-2.53-2.65-4.96-4.49-7-4.13-4.56-8.49-8.91-12.91-13.2-1.64-1.59-3.69-2.76-5.55-4.12-.36,.3-.72,.59-1.09,.89,.75,1.45,1.66,2.84,2.22,4.37,3.39,9.28,8.05,17.6,15.6,24.33,3,2.67,4.82,6.67,6.91,9.67-.55,4.79,2.47,8,5.11,12.17-1.36-.74-2.08-1.12-3.72-2.02,.99,2.79,1.7,4.78,2.4,6.78-.27,.12-.53,.24-.8,.35-.84-2.43-1.92-4.81-2.49-7.31-2.41-10.5-7.93-18.88-16.53-25.49q-1.62,4.54,5.61,13.99c-1.01-.72-2.05-1.4-3.01-2.18-1.03-.83-1.98-1.75-3.38-2.35,2.6,10.86,13.82,16.77,16.49,28.86-1.34-2.27-2.1-3.56-3.18-5.4-.78,2.17-1.36,3.77-1.94,5.37,3.74-11.06-7.13-14.19-10.96-21.35-3.99,4.73-4.52,10.36-1.97,15.09,.54,1.01,.08,2.51,.48,3.65,.87,2.49,1.99,4.9,2.79,7.92-1.58-1.77-3.16-3.55-4.75-5.33,.16-.92,.62-1.88,.46-2.72-.74-3.91-1.61-7.8-2.52-11.67-.22-.96-.57-2.01-1.19-2.72-2.21-2.55-4.56-4.97-6.86-7.44-3.03,3.87-2.74,11.42,.6,14.85,3.18,3.27,6.38,6.52,9.57,9.78Zm-23.71-46.45c-9.28,.72-12.44,2.61-12.78,9.8-.46,9.67,.6,19.41,1.01,29.12,.78,.09,1.56,.18,2.34,.27,1.04-3.43,3.01-6.89,2.93-10.3-.22-9.95-.73-19.79,6.5-28.9Zm7.46,19.76c3.99-5.59,7.2-11.38,6.2-18.54-.18-1.28-1.18-3.5-1.73-3.48-1.91,.08-4.51,.36-5.54,1.62-4.29,5.26-3.61,14.82,1.08,20.4Zm14.57-19.64c-.22,.11-.43,.22-.65,.33-1.3,4.71-2.22,9.57-3.99,14.1-2.24,5.74-1.05,10.02,5.07,13.7,.64-2.79,1.65-5.42,1.75-8.08,.12-3.07-.53-6.17-.89-9.25-.41-3.6-.87-7.2-1.3-10.81Zm-30.29-5.26c.49,.5,.98,.99,1.47,1.49,5.98-.18,10.19-3.11,12.67-8.52,.35-.77,0-1.85-.03-2.79-.95,.17-2.14,.03-2.81,.55-3.83,3-7.54,6.16-11.29,9.27Z"/>
      <g class="cls-3">
        <path class="cls-2" d="M586.36,118.48c-.73,.58-2.13,1.25-2.07,1.71,.35,2.56,1.07,5.06,1.25,7.76-2.35-7.93-6.58-14.41-13.88-18.78,4.78,14.21,7.99,29.17,19.71,40.22-2.71-2.36-5.41-4.73-8.12-7.09-2.54,14.46,17.34,39.99,30.38,51.37-2.54-1.54-6.38,.47-8.1-3.82-1.3-3.24-20.38-23.51-22.42-26.58-4.22,6-6.15,16.27-6.39,32.76-1.6,.25-3.66,.18-4.26,.77-5.36,5.24-9.56,29.57-10.96,34.1-.79,2.55-.14,5.55-.54,8.3-1.59-9.62,3.41-39.89,12.38-46.68,.98-.74,1.49-2.54,1.62-3.9,.43-4.63,.58-9.29,.92-15.42-4.83,6.57-8.91,12.11-12.99,17.66-5.71-3.71-21.69,7.9-26.26,10.29-.24-.54-.48-1.08-.72-1.62,4.25-1.88,20.41-10.64,24.6-12.63,1.86-.89,4-1.79,5.22-3.31,3.77-4.7,7.59-9.47,10.55-14.69,1.86-3.28,3.15-7.43,3.04-11.15-.21-7.55-1.53-15.07-2.39-22.6-.52,.07-1.05,.15-1.57,.22-2.23,7.81-4.46,15.62-6.69,23.44-.64-.14-1.29-.28-1.93-.41,4.94-12.81,7.56-25.69,1.85-40.28-3.5,6.33-7.54,11.32-9.04,16.98-1.46,5.52-.32,11.72-.32,17.01-.7-2.99-1.56-6.64-2.42-10.29-6.96,10.11-12.2,20.37-12.59,32.51v-7.19c-1.53,.5-2.53,.82-3.23,1.06,7.69-17.24,15.37-34.43,23.04-51.62-.38-.3-.75-.59-1.13-.89-3.98,4.24-7.95,8.48-11.93,12.73-.38-.32-.75-.65-1.13-.97,4.13-4.62,8.01-9.49,12.49-13.74,2.22-2.11,2.62-3.67,2.26-6.67-1.07-8.97-2.29-17.69-8.01-25.21-1.49-1.96-1.67-4.91-2.5-7.57-3.96,5.93-4.17,10.79-1.06,25.93-.99-.79-1.52-1.22-2.61-2.08-4.34,11.05-8.61,21.91-12.88,32.76,3.27-10.06,4.46-20.35,1.67-30.58-2.83-10.33-4.37-20.6-2.29-31.43-6.87,3.89-8.17,7.47-5.31,14.11,2.81,6.51,4.83,13.07,1.59,20.12,1.73-7.44-.51-13.91-3.78-19.25-2.9,6.48-5.89,13.23-9.1,19.71-5.98,12.06-34.67,35.47-41.04,36.94,5.21-5.66,26.83-23.26,42.18-42.96,1.13-1.28,1.37-3.35,2.27-5.68-1.89,.39-3.02,.63-4.44,.93,.31-.61,.38-1,.58-1.09,3.49-1.57,4.72-4.13,4.71-8.03-.02-7.35,3-13.82,8.57-18.44,4.57-3.8,8.27-7.94,11.15-13.13,2.14-3.86,5.28-7.16,7.98-10.71l-.65-1.68c-4.98,1.52-10.29,2.43-14.8,4.83-2.12,1.13-3.05,5.04-3.92,7.87-1.09,3.54-1.55,7.26-3.19,10.76,.42-3.65,.84-7.31,1.42-12.37-2.26,1.98-3.43,2.99-4.59,4.01l-.69-.35c1.92-3.14,3.83-6.28,5.79-9.48-18.34,4.38-24,7.82-21.1,32.06-.84-2.81-2.18-5.58-2.4-8.44-.25-3.33,.48-6.73,.83-10.58-10.89,11.07-21.37,21.72-31.02,31.52-8.06-1.57-12.56,4.28-18.64,5.25,8.06-4.77,16.77-8.73,23.99-14.54,7.32-5.91,13.17-13.65,19.66-20.6-.58-.79-1.17-1.57-1.75-2.36-4.16,1.89-8.31,3.79-12.47,5.68-.22-.4-.45-.8-.67-1.2,4.57-2.26,9.14-4.51,13.7-6.8,2.46-1.24,5.21-2.16,7.28-3.87,10.51-8.7,22.75-13.43,36.02-15.29,7-.98,11.22-4.15,12.38-10.98,.55-3.25,2.3-3.78,5.11-3.72,6.04,.13,12.1,.19,18.14-.02,3.06-.11,4.37,1.04,4.98,3.94,2.68,12.71,11.03,22.27,20.37,29.88,5.56,4.53,16.51,4.43,24.03,6.56,.1-.5,.48,4.81-1.44,1.78-1.78,.8-3.66-1.43-5.4-.66-3.48-.86-7.55-1.86-13.08-3.22,19.95,25.35,45.18,22.49,70.97,18.63-5.68,1.18-11.37,2.36-17.27,3.59,3.97,5.32,8.93,3.46,13.75,3.16-1.79,.66-3.57,1.31-6.35,2.33,2.91,3.06,5.53,5.81,8.16,8.57-.21,.33-.43,.67-.64,1-1.81-1.59-3.68-3.12-5.42-4.79-7.01-6.71-14.86-10.86-25.5-8.39,1.31,1.75,2.47,3.3,3.44,4.58-12.23-5.17-24.55-10.38-36.55-15.46-.07,3.98,0,4.1,7.86,10.71-.96,.18-1.69,.32-2.77,.53,1.08,1.58,2.07,3.03,3.06,4.47-6.17-4.39-9.75-10.49-12.52-17.31-1.29-3.19-3.33-6.24-5.65-8.8-5.19-5.74-10.68-11.21-16.24-16.6-2.06-2-4.64-3.47-6.98-5.18-.46,.37-.91,.75-1.37,1.12,.94,1.83,2.09,3.58,2.79,5.49,4.26,11.67,10.13,22.15,19.62,30.6,3.78,3.36,6.07,8.39,8.69,12.17-.69,6.02,3.11,10.06,6.43,15.31-1.71-.93-2.61-1.41-4.68-2.54,1.24,3.5,2.13,6.02,3.03,8.53-.33,.15-.67,.3-1,.44-1.06-3.06-2.42-6.05-3.14-9.19-3.03-13.21-9.98-23.75-20.79-32.06q-2.04,5.72,7.06,17.59c-1.27-.91-2.58-1.76-3.79-2.74-1.29-1.04-2.49-2.2-4.26-2.96,3.27,13.66,17.38,21.1,20.75,36.31-1.68-2.85-2.64-4.48-4-6.8-.99,2.73-1.71,4.74-2.44,6.75,4.71-13.92-8.97-17.85-13.79-26.86-5.02,5.95-5.68,13.04-2.47,18.98,.68,1.27,.1,3.16,.6,4.59,1.09,3.14,2.51,6.16,3.51,9.96-1.99-2.23-3.98-4.46-5.98-6.71,.21-1.15,.78-2.36,.58-3.42-.93-4.92-2.03-9.81-3.17-14.68-.28-1.2-.72-2.52-1.5-3.43-2.78-3.21-5.74-6.26-8.63-9.37-3.82,4.86-3.45,14.37,.75,18.69,4,4.11,8.02,8.2,12.04,12.3Zm-29.82-58.43c-11.67,.91-15.65,3.28-16.08,12.33-.58,12.16,.75,24.42,1.27,36.64,.98,.12,1.96,.23,2.94,.35,1.3-4.32,3.79-8.67,3.69-12.96-.28-12.52-.92-24.9,8.18-36.35Zm9.38,24.86c5.02-7.04,9.06-14.32,7.79-23.33-.23-1.61-1.49-4.41-2.18-4.38-2.4,.1-5.67,.45-6.97,2.04-5.39,6.61-4.54,18.64,1.35,25.66Zm18.32-24.71c-.27,.14-.55,.28-.82,.42-1.63,5.93-2.79,12.04-5.01,17.74-2.82,7.22-1.33,12.6,6.38,17.24,.81-3.51,2.07-6.81,2.2-10.16,.15-3.86-.67-7.76-1.11-11.64-.52-4.53-1.09-9.06-1.64-13.59Zm-38.1-6.62c.61,.63,1.23,1.25,1.84,1.88,7.53-.22,12.82-3.91,15.94-10.72,.44-.96,0-2.33-.04-3.51-1.2,.21-2.7,.03-3.54,.69-4.82,3.78-9.49,7.75-14.2,11.66Z"/>
      </g>
      <path class="cls-6" d="M648.24,134.54c-3.16-3.9-4.48-8.46-3.96-13.46,.23-2.21,.75-4.46,1.55-6.53,1.24-3.21,4.06-6.34,3.93-9.41-.12-2.93-3.14-5.74-4.89-8.61-.06-.11-.12-.22-.15-.34-1.81-9.1-3.62-18.2-5.39-27.14-7.74,2.88-11.07,12.02-8.07,22.79-.94-2.6-1.89-5.2-3.02-8.31-1.01,4.42-1.37,8.24,.44,12.02,3.82,7.98,7.63,15.95,11.4,23.95,.51,1.08,.77,2.28,.63,3.62-1.32-2.7-2.64-5.41-3.96-8.11l-1.16-.2c-1.9,5.7-3.8,11.41-5.69,17.11-.18-.05-.36-.1-.54-.15,1.69-5.46,3.22-10.98,5.17-16.35,.7-1.93,.94-3.33-.17-5.14-2.14-3.49-4.02-7.14-6.95-10.57,.26,3.07,.58,6.15,.78,9.22,.68,10.07-.1,19.93-4.09,29.35-3.8,8.98-10.44,15.04-19.21,18.96-.95,.42-2.06,.49-3.27,.19,1.98-.99,4.04-1.84,5.93-2.98,11.23-6.8,16.62-17.31,16.89-29.93,.24-11.38-1.07-22.78-1.77-35.41-3.96,3.13-7.01,5.4-9.85,7.92-.64,.57-.71,1.99-.71,3.01-.01,3.48,.11,6.96,.22,10.44,.03,.84,.11,1.73,.39,2.52,3.96,11.17,2.37,21.47-5.27,30.81,1.03-2.01,2.21-3.97,3.04-6.06,.69-1.73,2.13-3.62,.77-6.23,2.35-2.59,3.33-9.89,1.16-14-.21-.39-1.07-.44-1.73-.68v-16.51c-.36-.13-.71-.27-1.07-.4-1.87,2.54-3.74,5.07-5.6,7.61-.22-.14-.45-.27-.67-.41,2.38-3.62,4.55-7.41,7.21-10.82,2.73-3.51,5.93-6.65,9.03-10.07-6.74-.75-12.55,1.15-17.02,6.74,4.2-8.22,11.97-9.1,19.06-9.3,3.5-10.14,6.83-19.82,10.04-29.14-1.85,1.19-4.49,2.68-6.85,4.54-.76,.6-.93,2.15-1.04,3.3-.57,5.91-3.48,10.89-9.24,14.72,4.01-4.83,6.87-9.25,6.18-15.03-10.29,1.92-17.55,10.08-19.72,22.03-.32-.08-.64-.15-.96-.23,1.14-4.73,2.28-9.46,3.35-13.89-7.92,1.32-11.3,7.12-11.61,20.39-.41-3.25-.82-6.49-1.29-10.18-3.88,4.09-5.72,8.91-5.2,13.94,.5,4.76,2.54,9.35,3.75,13.48,.33,.21-.22-.14-.62-.39v12.93c.19-.05,.38-.11,.57-.16l-5.93-25.58c-.41-.15-.82-.3-1.23-.45-1.29,2.31-3.46,4.56-3.62,6.95-.17,2.62,1.51,5.36,1.83,8.23-.47-1.31-.85-2.66-1.43-3.93-.38-.82-1.04-1.5-1.95-1.94-.43-3.99,1.83-7.35,4.62-10.56,.99-1.13,1.48-2.7,2.19-4.08,2.26-4.38,4.47-8.79,6.82-13.13,.61-1.12,1.66-2.01,2.05-3.72-5.61,1.54-11.28,2.86-16.8,4.68-4.43,1.46-7.47,7.84-6.68,13.08,.31,2.07,.79,4.11,.73,6.27-.78-2.62-1.56-5.25-2.34-7.86-7.2,3.64-7.31,9.07-.46,24.15-3.46-2.95-5.86-8.47-6.83-16.02-.93,.37-1.81,.63-2.61,1.05-.84,.44-1.61,1.02-2.08,1.71,5.13-6.39,10.26-12.78,15.39-19.17-.38-.39-.76-.77-1.13-1.16-8.75,2.68-16.86,6.52-23.33,13.39-.22-.3-.45-.59-.67-.89,3.49-2.72,6.62-6.25,10.55-8,10.43-4.66,21.02-9.15,31.89-12.6,14.49-4.6,28.55-9.75,40.51-19.46,.87-.71,1.68-1.49,2.55-2.19,.58-.46,1.23-.83,1.85-1.24-.15-.28-.29-.55-.44-.83-4.16-.18-8.31-.48-12.47-.45-.84,0-1.65,1.28-2.51,1.9-3.19,2.32-6.32,4.74-9.63,6.88-2.43,1.58-5.09,2.78-7.52,4.09-.1-.3-.4-1.21-.74-2.25,6.2-1.77,12.81-3.99,17.34-11.14-9.33-.57-18.2-4.44-27.27,1.45,.4-.91,.64-1.47,1.16-2.65-3.6,.92-6.76,1.73-9.91,2.53,6.84-3.62,14.17-4.91,21.77-4.67,4.35,.13,8.7,.79,13.05,.84,1.22,.01,3.08-1,3.6-2.06,4.74-9.66,12.26-15.25,23.01-16.16,2.49-.21,3.18-1.6,3.53-3.52,.54-3.02,2.22-3.93,5.24-3.72,4.22,.29,8.47,.07,12.73,.07,1.62,4.17,3.16,8.2,4.74,12.21,2.44,6.19,6.84,9.71,13.66,9.48,5.71-.19,11.4-.7,17.1-1.02,5.56-.32,11.12-.58,16.69-.36-7.21,1.09-14.41,2.19-22.61,3.43,4.67,2.66,8.31,4.74,11.95,6.82l-.34,.6c-2.62-1.32-5.11-3.12-7.89-3.85-4.15-1.09-8.49-1.49-12.78-2.04-4.55-.59-9.12-1-13.79-1.17,16.38,13.38,36.37,14.59,56.27,16.38h-9.17c-.04,.17-.07,.34-.11,.51,3.65,1.7,7.48,3.11,10.9,5.19,3.43,2.08,6.46,4.83,9.17,7.96-3.29-2.36-6.58-4.73-10.2-7.34,.89,6.02,1.68,11.41,2.48,16.81-.1-.01-.21-.03-.31-.04-1.44-5.07-2.79-10.17-4.4-15.19-.37-1.17-1.43-2.58-2.51-2.99-9.12-3.45-18.65-4.99-28.28-5.94l-.64,1.34c6.92,4.12,13.85,8.24,20.77,12.35l-.38,.71c-2.47-1.33-4.95-2.66-7.42-3.99,3.84,4.54,7.21,9.2,8.44,15.06-5.16-9.54-8.38-13.1-16.74-17.15,1.3,2.93,2.59,5.87,4.08,9.24-.94-.81-1.64-1.42-2.47-2.13-.79,3.28-1.37,6.41-2.31,9.42-.93,2.96-2.22,5.8-3.41,8.84,5.39,4.42,10.64,9.23,16.44,13.23,2.09,1.44,5.51,1.13,8.34,1.3,6.92,.41,13.84,.63,20.77,.92-.02,.46-.05,.92-.07,1.38-1.92-.19-3.84-.38-6.02-.6,.52,.79,.84,1.27,.59,.89h-19.33c7.24,11.25,27.62,21.32,45.55,23.04-4.19-.46-8.42-.67-12.54-1.45-4.11-.78-8.35-.83-12.2-3.23-3.66-2.28-7.88-3.65-11.59-5.3,.25,4.79,.03,9.75,.89,14.53,1.08,6.03,5.26,10.42,9.9,14.1,3.39,2.69,7.24,4.8,10.8,7.52-2.24-.92-4.55-1.71-6.7-2.81-2.31-1.18-4.48-2.64-7.18-4.26-.73,2.85-1.4,5.42-2.11,8.17-.11-.48-.28-.87-.26-1.24,.14-2.95,1.19-6.22,.25-8.75-1.01-2.71-3.9-4.72-5.93-6.98-5.84,12.77-12,21.06-3.69,39.96-5.03-6.08-6.21-13.24-4.52-28.25-1.4,.64-2.63,1.2-3.85,1.75,5.1-2.71,6.5-7.6,8.17-12.58,3.84-11.43,1.42-21.19-7.26-29.3-3.51-3.28-7.66-5.88-11.47-8.85-3.19-2.5-6.3-5.1-10.42-8.45-.86,5.89-1.56,10.72-2.27,15.55-.23-.03-.46-.06-.69-.09,.53-4.12,.79-8.31,1.71-12.35,.54-2.38,.14-3.62-1.9-4.85-4.15-2.49-8.17-5.21-11.91-7.61-.8,20.53,10.27,32.48,29.05,38.69-10.92-2.85-20.65-7.26-27.14-17.75-1.77,7.43-4.54,14.15-1.22,20.91,3.03,6.16,6.83,11.94,9.91,18.14-2.12-2.8-4.24-5.59-6.82-9-.87,3.86-1.57,6.95-2.26,10.04,1.9-7.12,.41-13.59-3.13-20.03-2.49-4.52-1.45-9.66-.51-14.65,1.97-10.42,.18-20.28-5.02-29.87-1.39,3.03-2.64,5.76-3.89,8.49-.19-.07-.38-.13-.57-.2,.46-1.81,1.05-3.59,1.36-5.42,.61-3.62,.16-6.82-3.15-9.29-3.18-2.37-6.06-5.15-9.29-7.95-3.08,3.21-5.98,7.79-6.55,13.14-.22,2.06,2.31,4.41,3.4,6.31-.82-.56-2.16-1.47-3.5-2.39-.33,.09-.67,.18-1,.27,.64,3.13,.8,6.48,2.05,9.34,1.53,3.49,3.96,6.58,6.03,9.83,4.34,6.81,8.92,13.48,12.95,20.48,2.66,4.62,2.91,9.92,2.07,15.65-.7-12.77-6.23-23.99-16.43-33.71-6.77,5.9-8.19,16.35-3.9,27.14Zm10.34-98.41c-.28,.36-.66,.71-.87,1.14-4.42,8.74-2.63,16.96,2.39,24.73,8.09,12.53,21.01,19.44,32.8,28.3,3.13-5.76,4.88-11.39,5.01-17.43,.12-5.59-1.08-10.95-6.43-13.82-7.27-3.89-14.81-7.26-22.31-10.89-1.01,2.76-.19,4.45,2.17,5.99,6.08,3.97,9.61,7.73,10.31,9.97-3.66-2.89-7.77-6.13-11.88-9.37-.45,.3-.89,.6-1.34,.89,1.52,5.11,3.03,10.23,4.68,15.79-4.63-5.57-6.83-11.83-7.13-18.38-.31-6.78-2.89-12.11-7.39-16.93Zm-13.4-7.23c-10.49-2.13-22.16,6.71-24.01,14.42,12.01,3.01,22.22-3.12,24.01-14.42Zm3.49,29.72c-.87-2.99-1.77-6.09-2.8-9.62-5.85,6.22-10.33,12.66-13.39,20.21,5.46-3.58,10.64-6.97,16.18-10.59Zm2.18,4.57c-8.31,.79-12.2,8.19-8.03,14.72,2.63-4.83,5.33-9.77,8.03-14.72Z"/>
      <g class="cls-3">
        <path class="cls-2" d="M263.63,146.19c-3.54-4.36-5.01-9.47-4.44-15.06,.25-2.48,.84-4.99,1.73-7.31,1.39-3.59,4.54-7.09,4.4-10.53-.13-3.28-3.52-6.43-5.47-9.64-.07-.12-.14-.25-.16-.38-2.03-10.18-4.05-20.36-6.04-30.37-8.67,3.22-12.39,13.45-9.03,25.51-1.06-2.91-2.11-5.82-3.38-9.3-1.13,4.94-1.53,9.22,.5,13.45,4.27,8.93,8.54,17.85,12.76,26.8,.57,1.21,.86,2.55,.7,4.05-1.48-3.02-2.95-6.05-4.43-9.07l-1.3-.22c-2.12,6.38-4.25,12.76-6.37,19.15-.2-.06-.4-.11-.6-.17,1.9-6.11,3.6-12.29,5.79-18.29,.79-2.16,1.05-3.73-.19-5.76-2.39-3.91-4.5-7.99-7.78-11.83,.3,3.44,.64,6.88,.88,10.32,.76,11.26-.11,22.3-4.57,32.85-4.25,10.04-11.69,16.84-21.49,21.22-1.06,.47-2.3,.55-3.66,.21,2.22-1.1,4.52-2.06,6.64-3.33,12.57-7.61,18.6-19.37,18.9-33.5,.27-12.73-1.2-25.5-1.98-39.62-4.43,3.51-7.85,6.05-11.03,8.86-.71,.63-.8,2.22-.8,3.37-.01,3.89,.12,7.79,.25,11.68,.03,.95,.13,1.94,.44,2.82,4.44,12.5,2.65,24.03-5.9,34.47,1.15-2.25,2.47-4.44,3.4-6.78,.77-1.93,2.38-4.05,.86-6.98,2.63-2.89,3.73-11.07,1.3-15.67-.23-.44-1.2-.49-1.94-.76v-18.47c-.4-.15-.8-.3-1.2-.45-2.09,2.84-4.18,5.68-6.27,8.52-.25-.15-.5-.3-.75-.46,2.67-4.05,5.09-8.29,8.06-12.11,3.05-3.92,6.63-7.44,10.11-11.27-7.54-.84-14.05,1.29-19.05,7.54,4.7-9.2,13.39-10.18,21.32-10.41,3.91-11.35,7.65-22.18,11.24-32.61-2.07,1.33-5.03,3-7.66,5.08-.85,.67-1.04,2.41-1.17,3.69-.64,6.61-3.89,12.19-10.34,16.47,4.49-5.41,7.68-10.36,6.92-16.82-11.52,2.15-19.64,11.28-22.06,24.66-.36-.09-.72-.17-1.08-.26,1.28-5.29,2.55-10.58,3.75-15.54-8.86,1.48-12.64,7.97-12.99,22.81-.46-3.63-.92-7.26-1.44-11.39-4.35,4.57-6.41,9.97-5.82,15.6,.55,5.32,2.84,10.47,4.19,15.08,.37,.23-.25-.16-.69-.44v14.47c.21-.06,.42-.12,.63-.18-2.21-9.54-4.43-19.09-6.64-28.63-.46-.17-.92-.33-1.38-.5-1.44,2.59-3.87,5.11-4.05,7.77-.19,2.93,1.69,6,2.04,9.21-.52-1.47-.95-2.98-1.6-4.39-.42-.91-1.17-1.68-2.18-2.17-.48-4.46,2.04-8.22,5.17-11.81,1.1-1.27,1.65-3.02,2.45-4.56,2.53-4.9,5.01-9.84,7.64-14.69,.68-1.26,1.85-2.25,2.29-4.17-6.27,1.72-12.63,3.2-18.8,5.24-4.96,1.63-8.36,8.77-7.48,14.64,.35,2.31,.88,4.6,.82,7.02-.87-2.93-1.75-5.87-2.62-8.8-8.06,4.07-8.18,10.15-.51,27.02-3.88-3.3-6.56-9.48-7.64-17.92-1.04,.41-2.02,.71-2.92,1.17-.94,.49-1.8,1.14-2.33,1.91,5.74-7.15,11.48-14.3,17.22-21.45-.42-.43-.85-.86-1.27-1.3-9.79,3-18.87,7.29-26.1,14.98-.25-.33-.5-.66-.75-.99,3.91-3.04,7.41-6.99,11.8-8.95,11.67-5.21,23.52-10.24,35.69-14.1,16.21-5.15,31.95-10.91,45.33-21.78,.97-.79,1.88-1.67,2.86-2.45,.65-.52,1.38-.93,2.07-1.39-.16-.31-.33-.62-.49-.93-4.65-.2-9.3-.54-13.95-.51-.94,0-1.84,1.43-2.81,2.13-3.57,2.6-7.07,5.3-10.77,7.7-2.72,1.76-5.7,3.11-8.42,4.57-.11-.33-.45-1.36-.83-2.52,6.94-1.99,14.34-4.46,19.4-12.46-10.45-.64-20.36-4.96-30.51,1.62,.44-1.02,.72-1.65,1.29-2.97-4.03,1.03-7.56,1.93-11.09,2.84,7.65-4.05,15.86-5.49,24.36-5.23,4.87,.15,9.73,.89,14.6,.94,1.37,.02,3.45-1.12,4.03-2.3,5.3-10.81,13.72-17.06,25.75-18.08,2.78-.24,3.56-1.79,3.95-3.94,.61-3.38,2.48-4.4,5.87-4.16,4.72,.32,9.48,.08,14.24,.08,1.81,4.66,3.54,9.17,5.31,13.66,2.73,6.92,7.65,10.87,15.29,10.61,6.39-.21,12.76-.78,19.14-1.14,6.22-.35,12.44-.65,18.67-.41-8.06,1.22-16.13,2.45-25.31,3.84,5.22,2.98,9.3,5.31,13.37,7.63l-.38,.67c-2.93-1.48-5.72-3.5-8.83-4.31-4.65-1.22-9.51-1.67-14.3-2.29-5.09-.65-10.2-1.12-15.43-1.31,18.33,14.97,40.7,16.33,62.97,18.33h-10.26c-.04,.19-.08,.38-.12,.57,4.09,1.91,8.37,3.48,12.2,5.81,3.84,2.33,7.23,5.41,10.26,8.91-3.68-2.65-7.36-5.29-11.42-8.21,.99,6.74,1.89,12.77,2.78,18.81-.12-.01-.23-.03-.35-.04-1.62-5.67-3.13-11.38-4.93-17-.42-1.31-1.6-2.88-2.81-3.34-10.21-3.86-20.87-5.58-31.64-6.65l-.72,1.5c7.75,4.61,15.5,9.22,23.25,13.82l-.42,.8c-2.77-1.49-5.53-2.98-8.3-4.47,4.3,5.08,8.07,10.29,9.45,16.85-5.78-10.68-9.37-14.66-18.73-19.19,1.45,3.28,2.9,6.56,4.57,10.34-1.05-.91-1.84-1.58-2.77-2.38-.88,3.67-1.53,7.17-2.59,10.54-1.04,3.31-2.49,6.49-3.82,9.89,6.03,4.95,11.91,10.32,18.4,14.8,2.34,1.61,6.16,1.27,9.33,1.46,7.74,.46,15.49,.7,23.24,1.03-.03,.52-.05,1.03-.08,1.55-2.15-.21-4.29-.42-6.74-.67,.58,.88,.93,1.42,.66,1h-21.63c8.1,12.59,30.91,23.85,50.97,25.78-4.68-.52-9.42-.75-14.04-1.62-4.6-.87-9.34-.92-13.65-3.62-4.09-2.56-8.82-4.09-12.97-5.94,.28,5.36,.04,10.92,.99,16.26,1.21,6.75,5.89,11.66,11.08,15.77,3.8,3.01,8.1,5.38,12.08,8.42-2.51-1.03-5.09-1.92-7.5-3.14-2.59-1.32-5.01-2.95-8.04-4.76-.82,3.19-1.56,6.06-2.36,9.15-.12-.54-.31-.97-.29-1.38,.16-3.3,1.33-6.96,.27-9.8-1.13-3.03-4.36-5.28-6.63-7.82-6.53,14.29-13.42,23.56-4.13,44.72-5.63-6.81-6.94-14.81-5.05-31.61-1.57,.71-2.94,1.34-4.31,1.96,5.71-3.04,7.27-8.5,9.14-14.07,4.3-12.79,1.59-23.71-8.12-32.79-3.93-3.67-8.58-6.58-12.83-9.91-3.57-2.8-7.05-5.71-11.66-9.45-.96,6.59-1.75,12-2.54,17.41-.26-.03-.51-.06-.77-.1,.6-4.62,.88-9.3,1.91-13.82,.6-2.66,.16-4.05-2.12-5.42-4.65-2.79-9.15-5.83-13.33-8.52-.89,22.97,11.49,36.35,32.51,43.29-12.22-3.19-23.11-8.13-30.37-19.86-1.98,8.32-5.08,15.84-1.37,23.39,3.39,6.89,7.65,13.36,11.09,20.3-2.37-3.13-4.74-6.26-7.63-10.07-.97,4.32-1.75,7.77-2.53,11.23,2.12-7.97,.46-15.21-3.51-22.41-2.79-5.06-1.62-10.81-.57-16.4,2.21-11.66,.2-22.7-5.62-33.43-1.56,3.39-2.95,6.45-4.35,9.5-.21-.07-.42-.15-.63-.22,.52-2.02,1.17-4.02,1.52-6.07,.68-4.05,.18-7.63-3.53-10.4-3.56-2.65-6.78-5.77-10.39-8.89-3.45,3.59-6.7,8.72-7.33,14.7-.24,2.31,2.58,4.94,3.81,7.06-.92-.63-2.41-1.65-3.91-2.67-.37,.1-.75,.2-1.12,.31,.72,3.5,.89,7.25,2.3,10.45,1.71,3.9,4.44,7.36,6.75,11,4.85,7.63,9.99,15.09,14.49,22.91,2.97,5.17,3.26,11.1,2.32,17.51-.78-14.29-6.97-26.84-18.38-37.73-7.58,6.6-9.17,18.29-4.36,30.37Zm11.58-110.12c-.32,.41-.74,.79-.98,1.27-4.94,9.78-2.94,18.98,2.67,27.68,9.05,14.03,23.51,21.75,36.7,31.67,3.5-6.45,5.46-12.75,5.6-19.51,.13-6.26-1.21-12.26-7.2-15.46-8.13-4.35-16.57-8.12-24.96-12.18-1.13,3.08-.22,4.98,2.42,6.7,6.8,4.44,10.75,8.65,11.54,11.16-4.1-3.23-8.7-6.86-13.29-10.48-.5,.33-1,.67-1.5,1,1.7,5.72,3.39,11.45,5.24,17.67-5.18-6.23-7.64-13.24-7.97-20.57-.34-7.59-3.24-13.56-8.27-18.95Zm-14.99-8.09c-11.74-2.39-24.79,7.51-26.87,16.13,13.44,3.37,24.87-3.49,26.87-16.13Zm3.91,33.26c-.97-3.34-1.98-6.81-3.13-10.76-6.54,6.96-11.56,14.17-14.98,22.62,6.11-4,11.91-7.8,18.11-11.86Zm2.44,5.12c-9.3,.88-13.65,9.16-8.98,16.47,2.95-5.4,5.96-10.94,8.98-16.47Z"/>
      </g>
      <g class="cls-3">
        <path class="cls-2" d="M134.45,108.77c-10.7,10.21-16.51,21.98-17.24,35.37-.88-6.02-.61-11.57,2.17-16.42,4.22-7.34,9.03-14.34,13.58-21.49,2.17-3.41,4.73-6.65,6.33-10.31,1.32-3.01,1.48-6.52,2.15-9.8-.35-.1-.7-.19-1.05-.29-1.4,.96-2.81,1.92-3.67,2.5,1.15-1.99,3.8-4.46,3.57-6.62-.59-5.61-3.64-10.42-6.87-13.79-3.39,2.93-6.4,5.85-9.74,8.34-3.48,2.59-3.95,5.95-3.31,9.75,.32,1.92,.94,3.8,1.42,5.69-.2,.07-.4,.14-.59,.21-1.31-2.86-2.62-5.73-4.08-8.91-5.45,10.06-7.34,20.42-5.27,31.35,.99,5.24,2.08,10.63-.53,15.38-3.72,6.75-5.28,13.55-3.29,21.02-.73-3.24-1.46-6.48-2.37-10.53-2.71,3.58-4.94,6.51-7.16,9.45,3.23-6.51,7.22-12.57,10.4-19.03,3.48-7.08,.58-14.13-1.28-21.94-6.81,11-17.02,15.63-28.48,18.63,19.71-6.51,31.32-19.06,30.48-40.59-3.92,2.53-8.14,5.37-12.5,7.99-2.14,1.28-2.56,2.59-1.99,5.09,.96,4.24,1.23,8.63,1.79,12.96-.24,.03-.48,.06-.72,.09-.74-5.07-1.48-10.14-2.38-16.32-4.32,3.51-7.58,6.24-10.93,8.87-3.99,3.13-8.35,5.85-12.03,9.29-9.11,8.51-11.65,18.75-7.62,30.75,1.75,5.22,3.22,10.35,8.57,13.2-1.29-.59-2.57-1.17-4.04-1.84,1.77,15.75,.55,23.26-4.74,29.64,8.72-19.84,2.26-28.53-3.87-41.93-2.13,2.38-5.16,4.49-6.22,7.33-.99,2.66,.11,6.09,.26,9.19,.02,.39-.16,.79-.27,1.3-.75-2.89-1.44-5.59-2.21-8.58-2.84,1.7-5.11,3.23-7.54,4.47-2.26,1.15-4.68,1.98-7.03,2.95,3.74-2.85,7.77-5.07,11.33-7.89,4.87-3.86,9.26-8.46,10.39-14.79,.9-5.01,.67-10.22,.93-15.24-3.89,1.73-8.32,3.17-12.16,5.57-4.04,2.52-8.49,2.58-12.8,3.39-4.33,.82-8.77,1.04-13.16,1.52,18.81-1.81,40.2-12.37,47.8-24.17-6.91,0-13.86,0-20.28,0-.26,.39,.07-.11,.62-.93-2.29,.23-4.3,.43-6.32,.62-.02-.48-.05-.97-.07-1.45,7.26-.31,14.53-.54,21.79-.97,2.97-.18,6.55,.15,8.75-1.37,6.09-4.2,11.6-9.24,17.25-13.88-1.25-3.18-2.61-6.17-3.58-9.27-.99-3.17-1.6-6.45-2.43-9.89-.87,.75-1.61,1.38-2.59,2.23,1.57-3.54,2.93-6.62,4.29-9.7-8.78,4.24-12.15,7.98-17.57,17.99,1.29-6.15,4.83-11.04,8.86-15.8-2.59,1.4-5.19,2.79-7.78,4.19l-.4-.75c7.27-4.32,14.53-8.64,21.8-12.96l-.67-1.4c-10.1,1-20.1,2.61-29.67,6.23-1.13,.43-2.24,1.91-2.64,3.13-1.69,5.27-3.11,10.62-4.62,15.94-.11,.01-.22,.03-.33,.04,.84-5.66,1.67-11.32,2.6-17.64-3.81,2.74-7.26,5.22-10.7,7.7,2.84-3.28,6.02-6.16,9.62-8.35,3.59-2.18,7.61-3.66,11.44-5.45-.04-.18-.07-.36-.11-.53-3.21,0-6.42,0-9.63,0,20.88-1.87,41.86-3.15,59.04-17.18-4.9,.18-9.7,.62-14.47,1.23-4.49,.58-9.05,1.01-13.4,2.14-2.91,.76-5.53,2.65-8.28,4.04l-.36-.63c3.82-2.18,7.64-4.36,12.54-7.16-8.6-1.31-16.17-2.45-23.73-3.6,5.84-.22,11.67,.05,17.51,.38,5.98,.34,11.96,.87,17.95,1.07,7.16,.24,11.77-3.46,14.33-9.95,1.66-4.21,3.28-8.44,4.98-12.81,4.47,0,8.93,.23,13.35-.08,3.17-.22,4.93,.73,5.5,3.9,.36,2.01,1.09,3.47,3.7,3.69,11.28,.96,19.18,6.82,24.15,16.96,.54,1.11,2.49,2.17,3.78,2.16,4.57-.05,9.12-.74,13.69-.88,7.97-.24,15.67,1.1,22.84,4.91-3.31-.85-6.61-1.69-10.4-2.66,.54,1.24,.8,1.83,1.21,2.78-9.52-6.18-18.82-2.12-28.61-1.52,4.75,7.5,11.69,9.82,18.19,11.69-.36,1.09-.67,2.05-.78,2.36-2.55-1.37-5.35-2.64-7.9-4.29-3.47-2.25-6.75-4.79-10.1-7.22-.91-.66-1.75-1.99-2.64-2-4.36-.03-8.72,.28-13.08,.47-.15,.29-.31,.58-.46,.87,.65,.43,1.34,.82,1.94,1.3,.92,.73,1.77,1.55,2.68,2.3,12.55,10.19,27.3,15.6,42.51,20.42,11.41,3.62,22.52,8.33,33.46,13.22,4.12,1.84,7.4,5.54,11.07,8.39-.24,.31-.47,.62-.71,.93-6.78-7.21-15.3-11.24-24.48-14.05-.4,.41-.79,.81-1.19,1.22,5.38,6.7,10.76,13.41,16.14,20.11-.5-.72-1.3-1.34-2.19-1.8-.84-.44-1.75-.71-2.73-1.1-1.01,7.92-3.53,13.71-7.16,16.81,7.19-15.82,7.07-21.52-.48-25.34-.82,2.74-1.64,5.5-2.46,8.25-.06-2.27,.44-4.41,.77-6.58,.83-5.5-2.36-12.19-7.01-13.73-5.79-1.91-11.74-3.3-17.62-4.91,.41,1.8,1.51,2.73,2.15,3.91,2.47,4.55,4.78,9.18,7.16,13.77,.74,1.44,1.26,3.09,2.29,4.28,2.93,3.37,5.3,6.89,4.85,11.08-.95,.46-1.65,1.18-2.05,2.04-.61,1.32-1.01,2.74-1.5,4.12,.33-3.01,2.1-5.89,1.92-8.64-.17-2.5-2.45-4.87-3.8-7.29-.43,.16-.86,.31-1.29,.47-2.08,8.95-4.15,17.9-6.23,26.84,.2,.06,.4,.11,.59,.17,0-4.51,0-9.02,0-13.56-.41,.26-.99,.63-.65,.41,1.27-4.33,3.41-9.15,3.93-14.14,.55-5.28-1.38-10.34-5.46-14.63-.49,3.87-.92,7.27-1.35,10.68-.33-13.92-3.87-20.01-12.18-21.39,1.12,4.65,2.32,9.61,3.51,14.57-.34,.08-.67,.16-1.01,.24-2.28-12.55-9.89-21.1-20.69-23.12-.72,6.06,2.28,10.7,6.49,15.77-6.05-4.02-9.1-9.25-9.7-15.45-.12-1.21-.3-2.84-1.1-3.46-2.47-1.95-5.25-3.51-7.18-4.76,3.37,9.77,6.87,19.93,10.54,30.58,7.44,.21,15.59,1.14,20,9.76-4.69-5.87-10.79-7.86-17.86-7.07,3.26,3.59,6.61,6.89,9.48,10.56,2.78,3.58,5.06,7.55,7.56,11.35-.23,.14-.47,.29-.7,.43-1.96-2.66-3.92-5.32-5.88-7.98-.37,.14-.75,.28-1.12,.42,0,5.92,0,11.83,0,17.32-.69,.26-1.6,.3-1.82,.72-2.27,4.31-1.24,11.98,1.22,14.69-1.43,2.74,.09,4.73,.81,6.54,.87,2.19,2.11,4.24,3.19,6.36-8.02-9.79-9.69-20.6-5.53-32.32,.29-.83,.38-1.76,.41-2.64,.12-3.65,.24-7.3,.23-10.95,0-1.08-.08-2.57-.75-3.16-2.98-2.64-6.19-5.02-10.34-8.31-.73,13.24-2.11,25.22-1.86,37.15,.28,13.25,5.93,24.28,17.72,31.41,1.98,1.2,4.14,2.09,6.22,3.13-1.27,.32-2.44,.25-3.43-.2-9.19-4.11-16.17-10.48-20.15-19.9-4.18-9.89-5-20.24-4.29-30.8,.22-3.23,.55-6.45,.82-9.68-3.07,3.6-5.05,7.43-7.29,11.09-1.17,1.9-.92,3.37-.18,5.4,2.05,5.63,3.65,11.42,5.43,17.15-.19,.05-.38,.1-.56,.15-1.99-5.98-3.98-11.97-5.97-17.95l-1.22,.21c-1.38,2.84-2.77,5.67-4.15,8.51-.15-1.41,.12-2.66,.66-3.8,3.96-8.39,7.96-16.76,11.97-25.13,1.9-3.97,1.53-7.98,.46-12.62-1.19,3.27-2.18,5.99-3.16,8.72,3.14-11.3-.35-20.9-8.47-23.92-1.86,9.38-3.76,18.93-5.66,28.48-.02,.13-.09,.25-.15,.36-1.83,3.01-5,5.96-5.13,9.03-.13,3.22,2.82,6.5,4.13,9.87,.84,2.17,1.39,4.53,1.62,6.85,.54,5.25-.84,10.04-4.16,14.13,4.51-11.32,3.02-22.29-4.09-28.48Zm-14.52-57.01c-.31,6.88-2.62,13.44-7.48,19.29,1.73-5.84,3.32-11.2,4.91-16.57-.47-.31-.94-.63-1.41-.94-4.31,3.4-8.62,6.8-12.46,9.83,.74-2.35,4.44-6.3,10.82-10.46,2.47-1.62,3.33-3.39,2.27-6.28-7.87,3.81-15.78,7.34-23.41,11.42-5.61,3-6.87,8.63-6.75,14.5,.13,6.34,1.97,12.25,5.25,18.29,12.37-9.3,25.93-16.54,34.42-29.7,5.26-8.16,7.14-16.78,2.51-25.95-.23-.45-.62-.81-.92-1.19-4.72,5.06-7.43,10.65-7.76,17.77Zm47.01-10.22c-1.95-8.08-14.19-17.37-25.2-15.13,1.88,11.85,12.59,18.28,25.2,15.13Zm-11.88,27.18c-3.21-7.93-7.91-14.68-14.05-21.21-1.08,3.71-2.02,6.96-2.93,10.09,5.81,3.81,11.25,7.36,16.98,11.12Zm-10.85,9.13c4.38-6.85,.3-14.62-8.42-15.44,2.83,5.19,5.66,10.38,8.42,15.44Z"/>
      </g>
      <g class="cls-3">
        <path class="cls-2" d="M950,162.34c-9.38,11.1-.14,17.35,6.14,24.75-1.34-.68-2.68-1.35-4.23-2.13,.84,5.63,1.64,10.99,2.54,17.01-3.6-10.25-6.94-19.76-10.4-29.6-6.16,2.25-9.87,4.41-5.87,11.04-.96-.05-1.92-.11-2.88-.16-1.63-8.94-2.57-18.09-5.1-26.77-2.6-8.93-6.42-17.57-10.36-26.04-3.36-7.23-7.63-14.03-11.48-21.03-.23-.42-.32-.93-.39-1.41-1.47-11.11-2.92-22.22-4.36-33.19-4.95,6.99-5.47,27.15-.44,34.3,7.44,10.58,12.75,21.77,11.49,35.12-.21,2.21-.92,4.37-2.31,6.56,1.65-12.39-.91-23.47-9.07-33.35,3.25,20.8-1.51,40.52-8.24,60.08,.24-2.98-.18-6.2,.84-8.89,6.81-18.03,4.89-36.17,1.73-56.42-1.95,3.77-2.98,5.78-4.65,9.01,1.57-19.83,3.03-38.27,4.47-56.31q-6.75,1.3-11.98,22.69v-17.72c-6.47,4.67-11.61,8.37-16.47,11.87,3.5,6.14,6.96,11.23,9.42,16.76,3.68,8.28,4.23,16.82,1.11,25.67-1.88,5.35-2.51,11.15-3.49,15.74-2.22-3.65-4.55-8.45,.16-14.39,4.68-5.9,3.56-12.78,1.74-20-2.42,.32-4.44,.58-7.36,.96,2.3-1.66,3.84-2.78,6.37-4.6-3.47-5.42-6.9-10.77-11.41-17.82-4.85,8-8.69,14.32-12.52,20.64,.79-8.88,5.74-16.05,11.38-22.71,3.29-3.88,6.93-7.94,11.28-10.34,9.91-5.47,14.5-14.48,18.61-24.67-11.6-.89-21.93,2.39-30.4,9.62-2.33,1.99-1.43,7.76-1.83,10.57-.51-1.43-1.46-4.11-2.41-6.79-.71-.24-1.43-.48-2.14-.72-2.69,5.49-5.37,10.97-7.71,15.76-.14-.18-1.36-1.74-2.89-3.69,4.73-6.2,9.56-12.53,14.14-18.54-22.37,3.05-31.95,15.01-28.99,35.6-1.11-4.45-2.22-8.9-3.33-13.35-.47-.21-.95-.41-1.42-.62-1.3,5.03-3.8,10.09-3.63,15.07,.28,8.45,2.08,16.87,3.55,25.25,1.82,10.34,2.41,20.58-.6,31.46-1.68-2.37-2.87-4.04-4.01-5.69,1.23-.74,3.4-1.42,3.46-2.27,.88-10.89-.12-21.56-4.73-32.64-3.4,3.23-6.17,5.87-8.94,8.5,.07-.23,.07-.54,.22-.69,7.8-7.84,6.81-17.76,7.6-27.72,1.41-17.75,13.52-28.42,28.8-34.75,11.6-4.8,24.04-7.8,36.34-10.55,6.35-1.42,10.92-3.28,11.59-10.27,.63-6.5,4.46-7.28,10.35-7.9,11.98-1.26,20.73,2.03,26.51,12.89,4.53,8.5,12.42,11.54,21.56,12.97,13.36,2.08,25.81,6.67,37.33,14.1,6.68,4.31,14.36,7.03,21.48,10.7,2.21,1.14,4.02,3.04,5.44,5.47-5.75-3.13-11.5-6.26-17.25-9.39,6.85,13.09,4.64,25.83,1.93,38.59v-15.5c-.38-.12-.75-.23-1.13-.35-1.76,3.87-3.52,7.74-5.28,11.6,1.68-5.26,3.11-10.62,5.09-15.76,2.66-6.91,.35-10.72-6.95-10.48-5.19,.17-10.37,.59-16.52,.96,6.28,10.66,.44,25.95,15.31,32.37,.63-.97,1.4-2.15,2.16-3.32,.21,2.97,.42,5.95,.78,10.95-1.63-2.17-2.48-3.68-3.68-4.83-2.25-2.16-4.69-4.12-8.56-7.46,.76,14.23,3.33,26.37,11.54,35.78,5.28,6.06,6.55,12.56,8.19,20.21-11.34-21.07-24.35-40.71-24.88-65.28-.12-5.63-2.56-11.2-3.93-16.77-11.55,2.59-15.37,6.24-13.55,10.11-2.62,1.61-5.1,3.13-8.65,5.31,5.98,5.12,10.72,9.17,15.56,13.32-2.45,2.05-3.55,2.97-3.56,2.97-2.88-3.64-6.03-7.61-9.18-11.58-.9,.58-1.79,1.16-2.69,1.73,.37,22.99,15.93,38.17,30.44,53.89-.71,.45-1.43,.89-2.14,1.34-1.54-2.25-3.01-4.55-4.65-6.72-2.35-3.12-4.82-6.14-8.43-10.71-1.05,4.26-1.41,5.72-1.4,5.68-3.09-6.41-7.1-13.65-10.1-21.28-2.9-7.37-5.77-15.01-6.78-22.78-1.04-7.99-8.13-6.44-11.68-10.11-10.42,11.45-11.69,15.15-6.39,21.09-2.49-.9-4.11-1.48-5.71-2.06-4.94,11.62-4.43,13.68,6.45,18.39,12.18,5.28,21.04,13.13,23.53,26.74,.47,2.56,.74,5.15,.16,7.9-.61-2.38-1.22-4.76-1.93-7.51-2.33,2.64-4.17,4.72-6.02,6.8,5.12-17.84-2.88-28.94-24.86-31.87,6.3,13.01,12.11,24.99,18.22,37.61,3.07-2.67,4.99-4.34,6.91-6.01Zm-15.85-78.12c4.23-9.19,4.6-17.49,1.6-25.78-1.49-4.11-4.17-7.28-9.46-5.31-10.04,3.74-12.62,14.92-4.76,22.21,3.63,3.36,8.13,5.78,12.63,8.89Zm-23.95-11.99c-4.68,14.4-.12,26.11,13.61,32.09,2.98-5.05,6-10.17,8.76-14.84-7.82-6.03-14.99-11.55-22.37-17.24Zm90.58,3.2c-9.94-13.5-23.64-18.09-39.33-21.38,11.03,11.82,19.67,25.54,39.33,21.38Zm-58.82-24.94c.94,6.73,2.35,11.98,2.22,17.19-.14,5.49-1.93,10.93-2.6,16.44-.18,1.51,.6,3.76,1.74,4.7,2.55,2.08,5.61,3.55,8.46,5.27,.82-.26,1.65-.52,2.47-.78-.48-3.18-.8-6.39-1.48-9.53-.9-4.17-3.06-8.31-2.9-12.39,.19-4.91,2.23-9.74,3.61-15.14-3.44-1.72-7.04-3.52-11.52-5.76Zm15.24,34.72c5.19-3.69,10.08-7.18,17.08-12.16-5.42-4.79-10.36-9.14-15.42-13.61-7.43,10.25-7.83,17.27-1.66,25.77Zm-45.3,16.36c-2.85,8.82,3.09,13.06,7.86,18.51q2.15-13.16-7.86-18.51Zm23.37,73.58c7.24-5.09,6.84-7.3-2.29-16.74,.82,6,1.49,10.89,2.29,16.74Z"/>
      </g>
      <path class="cls-6" d="M538.67,86.63c-1.37-2.75-4.03-5.6-3.84-8.24,.49-6.92-4.06-7.98-9.47-9.9,2.36,5.54,5.11,10.2,6.31,15.23,2.25,9.44,6.93,17.05,14.37,23.13,.68,.56,1.12,1.42,1.17,2.61-3.39-3.2-6.78-6.4-10.17-9.6-.4,.21-.8,.43-1.2,.64,1.06,2.73,2.11,5.45,3.24,8.36-.59-.29-1.26-.61-1.94-.95-1.63,7.01-3.22,13.91-4.45,19.19-3.22,2.59-5.56,4.48-7.91,6.37,5.18-6.35,8.33-13.4,9.43-21.65,1.3-9.77-5.03-14.34-11.7-19.6-.83,1.74-1.5,3.16-2.18,4.58,2.3-4.78-.52-7.7-3.53-10.82-1.56-1.62-3.25-3.91-3.36-5.98-.46-8.05-5.56-12.7-11.28-17.13-1.16-.9-2.08-2.12-3.19-3.28-3.25,2.46-3.42,5.21-1.16,8.19,2.39,3.15,4.96,6.17,7.38,9.3,1.98,2.56,3.85,5.2,5.01,8.36-1.58-1.9-3.17-3.8-4.9-5.88,.56,6.71,1.08,12.99,1.61,19.27l-1.26,.1v-8.61c-2.97,2.83-5.18,4.95-7.39,7.06-.27-.22-.53-.43-.8-.65,1.8-2.05,3.89-3.92,5.3-6.21,.97-1.58,1.92-4.16,1.28-5.58-2.49-5.55-5.62-10.82-8.52-16.2-.53,.12-1.06,.24-1.59,.37v21.28c-.41,0-.81,0-1.22,0,0-7.53,0-15.06,0-22.58,0-.98,.24-2.08-.13-2.91-3.35-7.62-4.06-15.35-.56-23.75-10.83,6.26-11.56,11.25-4.46,28.4-1.39-1.2-2.28-1.96-3.41-2.94-.81,1.44-1.51,2.67-1.59,2.81-.46-3.27-1.06-7.47-1.65-11.68-.58,.04-1.15,.09-1.73,.13-2.89,6.12-2.82,12.57-2.16,19.24,.55,5.57,.22,11.21,.59,16.8,.49,7.44,1.45,14.86,1.87,22.31,.18,3.13-.52,6.32-.82,9.48-.46-.01-.91-.03-1.37-.04v-24.79c-.45-.09-.9-.18-1.35-.27-3.49,4.45-6.98,8.9-10.47,13.35-.43-.19-.86-.39-1.28-.58,8.37-9.81,14.69-20.19,10.31-34.04-4.55,3.15-8.76,6.06-12.98,8.98-5.15-.53-9.55,3.19-14.4,5.26-.19-.37-.37-.74-.56-1.11,3.94-2.02,8.05-3.79,11.74-6.19,1.59-1.03,3.38-3.43,3.28-5.1-.72-12.46,2.53-23.34,10.56-33.1,1.54-1.87,.22-6.08,.22-10.14-9.46,4.98-15.48,11.37-18.02,20.44-2.38,8.48-7.03,15.05-14.3,19.88,3.52-4.51,7.04-9.03,10.56-13.54-.38-.48-.77-.95-1.15-1.43-2.17,.37-4.33,.73-6.5,1.1,1.7-.8,3.43-1.56,5.1-2.43,1.21-.63,2.92-1.12,3.42-2.15,2.57-5.31,4.83-10.77,7.88-17.75-6.15,2.27-11.79,3.61-16.63,6.34-4.82,2.72-7.22,12.58-5.22,17.07-.65,4.38-1.33,8.76-1.86,13.15-.03,.22,1.27,.59,1.95,.9-5.04,2.55-2.3,7.59-4.54,11.25,1.09-12.35,2.18-24.71,3.27-37.06-.21,.06-.98,.28-2.78,.79,2.25-2.63,3.84-4.47,5.72-6.67-1.3-.27-2.39-.5-4.38-.91,9.56-2.38,18.25-4.52,26.92-6.71,.95-.24,1.98-.51,2.74-1.08,8.8-6.63,18.83-9.84,29.97-10.71,.38-1.64,.74-3.18,1.13-4.85h20.48c3.86,11.24,5.26,12.43,17.25,13,9.98,.48,19.98,.51,29.96,.9,2.05,.08,4.08,.83,6.76,1.41h-20.31c-.09,.26-.19,.52-.28,.79,2.29,1.13,4.57,2.25,5.56,2.74-7-1.17-15.42-2.57-23.85-3.98-.22,.65-.44,1.3-.66,1.96,1.89,1.05,3.89,1.95,5.65,3.18,9.97,7,20.7,7.89,32.23,4.69,3.39-.94,7.13-.61,10.77-.19-4.44,.68-8.87,1.37-14.36,2.22,3.6,2.63,6.22,4.54,8.84,6.45-5.94-1.64-10.61-7.99-17.65-4.15,6.8,6.3,13.66,12.64,20.61,19.07-.5,.22-1.16,5.64-1.16,6.62-1.48-1.73-3.21-3.75-4.94-5.77,.38-.6,1.24-1.46,1.08-1.75-4.03-7.06-10.09-12.13-17.39-15.2-3.78-1.59-8.38-1.22-12.62-1.74-.35,.76-.71,1.52-1.06,2.28,2.03,1.79,3.79,4.14,6.14,5.27,5.81,2.81,11.9,5.06,17.87,7.54-1.95-.37-3.89-.73-5.51-1.04-.11,1.84-.23,3.65-.3,4.9-1.84-1.92-3.52-4.34-5.79-5.86-2.39-1.6-5.36-2.35-7.69-3.32-2.49,4.93,.55,9.49-1.12,14.48-1.56,4.65-.33,10.24-.33,15.6-1.66-2.24-3.51-4.73-5.35-7.21,1.2,.86,2.4,1.73,4.09,2.94,0-3.83-.35-6.99,.08-10.06,.76-5.48-2.18-6.35-7.9-6.18,1.42,4.9,2.67,9.19,3.91,13.47Zm-71.59-19.89c-5.36,4.59-3.64,10.7-3.21,16.93,3.87-2.86,9.39-6.08,9.62-9.64,.59-9.41,1.46-18.43,5.82-27.07-2.1,1.73-3.51,3.81-4.51,6.05-1.66,3.71-3.07,7.53-4.58,11.3,1.07-3.73,2.14-7.46,3.22-11.19-.66-.25-1.32-.5-1.98-.75-2.09,4.37-4.2,8.74-6.19,13.16-.05,.11,1.18,.8,1.82,1.21Zm50.85-3.45c-3.37,4.76-3.32,7.5-.58,10.81,2.25,2.71,3.97,6.21,4.85,9.63,1.6,6.23,4.4,10.68,10.24,14.07,.45-.21,.9-.42,1.36-.63-5.15-10.98-10.29-21.96-15.88-33.88Zm22.85,.11c.42-.35,.84-.71,1.26-1.06-1.6-2.53-2.63-6.41-4.89-7.35-6.95-2.87-14.37-4.62-21.45-6.76,3.32,12.54,16.72,9.85,25.08,15.17Zm-30.77-14.66c-10.4,6.41-10.54,7.67-2.14,15.39,1.29,1.19,2.62,2.33,3.71,3.29,5.72-6.97,1.34-12.59-1.57-18.69Zm32.53,24.22c.26-4,1.4-7.59-3.22-8.85-6.04-1.65-12.11-3.15-18.17-4.71,4.71,8.26,12.58,10.92,21.39,13.56Zm-66.98-27.01c6.46-4.27,12.39-8.19,18.31-12.11-.21-.41-.42-.83-.62-1.24-.95,0-1.93-.13-2.86,.02-2.93,.5-5.86,.99-8.75,1.7-8.19,2-8.29,2.23-6.09,11.63Zm24.73,6.16c9.2-4.88,10.82-11.1,4.77-18.23-4.46,5.75-6.08,11.94-4.77,18.23Zm14.56-14.41c4.46,7.12,10.72,11.45,19.08,12.52-5.15-6.05-11.01-11-19.08-12.52Zm-20.59,23.76c5.14-5.68,.26-10.13,1.47-14.51h-1.47v14.51Zm22,13.67c-.64,.38-1.27,.75-1.91,1.13,1.79,3.46,3.57,6.93,5.36,10.39l1.88-.96-5.33-10.56Z"/>
      <path class="cls-6" d="M923.24,41.9c2.95,4.83,7.32,9.44,3.17,15.79,1.91-5.53-.66-9.65-4.35-14.25-1.52,2.97-2.8,5.45-4.08,7.94-.32-.13-.64-.26-.95-.38,1.54-3.74,3.08-7.47,5.28-12.81-5.79,2.18-10.46,3.89-15.08,5.74-.54,.21-1.12,1.18-1.1,1.77,.18,5.24,.49,10.48,.71,14.68-2.23,3.26-4.11,6.01-5.99,8.77,3.53-7.18,5.78-14.44,2.97-22.55-6.18,3.37-9.65,8.46-8.97,12.86-.42-.02-.83-.05-1.25-.07,0-1.17-.35-2.49,.06-3.49,2.95-7.25,8.56-11.98,15.27-15.58,1.46-.78,2.97-1.45,5.51-2.67-2.82-.56-4.65-.93-6.49-1.3,.02-.19,.04-.38,.06-.57,3.67,.19,7.37,.74,11.01,.45,3.7-.3,7.32-1.43,10.96-2.6-10.02-.96-19.98-4.42-30.45-1.17,1.3-.58,2.59-1.62,3.91-1.67,6.96-.25,13.93-.52,20.88-.26,9.01,.34,17.58-.61,25.12-6.08,.37-.27,.89-.44,1.09-.8,4.66-8.26,11.14-3.19,17.04-2.34,.43,.06,1.05,.24,1.22,.55,4.23,7.97,12.52,7.12,19.44,8.35,8.92,1.58,18.11,1.64,27.15,2.64,1.5,.17,4.62-.52,4.19,3.23-8.37-4.68-17.21-1.62-26.18-2.62,1.3,3.99,4.21,3.78,6.97,3.81,2.61,.03,5.22,0,7.83,.93h-7.76c-.05,.23-.09,.47-.14,.7,2.66,1.16,5.32,2.31,7.99,3.47-7.23-.34-13.12-3.13-18.24-8.28-1.61-1.62-5.23-1.24-7.93-1.77l-.43,1.15c1.94,1.44,3.89,2.87,5.83,4.31-.1,.19-.2,.38-.29,.56-3.19-1.53-6.39-3.06-9.79-4.68-2.46,2.74-1.54,5.11,1.49,6.26,4.3,1.63,8.84,2.61,13.28,3.87-.09-.45-.18-.91-.27-1.36-1.43,1.45-2.87,2.91-4,4.06-1.4-1.02-3.41-2.47-5.77-4.18-1.71,7.81-1.08,9.39,5.26,10.78,5.27,1.15,10.72,1.99,16.09,1.99,8.65,0,16.06,2.89,22.61,8.17,1,.8,.92,2.94,1.12,4.5-4.27-8.78-12.52-9.09-20.68-10.39,5.31,3.95,10.68,7.25,15.17,11.48,5.11,4.82,5.11,11.34,3.71,18.36-.34-4.12-.64-7.75-.95-11.38l-1.1-.14c-.75,1.56-1.5,3.12-2,4.16,.1-2.31,1.2-5.63,.11-7.87-1.29-2.63-4.18-4.97-6.93-6.27-6.06-2.88-12.47-5.03-18.73-7.47-.32,.56-.64,1.12-.96,1.68,3.79,3.29,7.58,6.58,11.19,9.72q-.99,.39-7.63-3.98c-1.37,5.31,.27,9.56,3.13,13.6-4.49-2.5-4.72-6.99-4.97-11.34-.25-4.46-4.24-10.14-8.62-10.33-4.55-.2-8.21-3.06-13.09-3.46,2.73,9.4,9.58,15.54,14.77,22.94-1.8-1.61-3.61-3.22-5.45-4.87-2.01,4.92-.31,10.99,5.02,18.21-4.36-2.57-7.46-8.69-7.25-16.12,.12-4.14-1.48-6.78-5.27-9.85-.62,4.19-1.12,7.66-1.66,11.31-.36-.08-1.16-.25-1.96-.42,3.94-13.05,1.58-21.93-7.97-26.77,1.22,4.83,2.25,8.93,3.61,14.34-1.35-2.1-1.99-3.1-3.05-4.74-.6,2.06-1.03,3.57-1.47,5.07,.06-7.18,.82-14.51-4.35-21.41-2.9,6.78-2.38,13-.89,19.14,1.07,4.4,2.69,8.68,4.04,13.01,.27,.87,.64,1.77,.62,2.65-.15,5.89,1.68,10.25,7.14,13.65,2.77,1.73,4.94,6.07,5.38,9.49,.55,4.25,2.21,6.53,5.86,8,.81,.33,1.47,1.01,1.97,1.37-.96,1.85-1.82,3.52-2.65,5.11,.38-3.31,.66-6.9-5.09-7.11-.55,3.17-1.13,6.53-1.93,11.16-1.43-7.96,3.01-15.1-1.2-21.64-5.45,2.75-6.67,5.42-4.77,11.04-.89-1.09-1.48-1.81-2.09-2.55-1.23,1.59-2.34,3.02-3.44,4.45-.29-.21-.57-.42-.86-.63,2.92-5.05,5.83-10.1,9.06-15.69-2.04-1.39-4.22-2.87-6.42-4.37-4.28,8.17-8.32,15.92-12.39,23.64-1.89,3.59-.4,6.78,1.18,9.92,.65,1.29,1.58,2.44,1.68,4.2-1.55-1.98-3.09-3.97-4.64-5.95-.36,.04-.72,.09-1.08,.13,.4,4.36,.81,8.71,1.21,13.07-2.08-6.26-2.92-12.62-1.21-19.62-1.1,.53-1.74,.84-2.5,1.2,8.01-13.19,18.09-25.79,10.61-43.9-1.86,2.7-3.18,4.64-4.51,6.57l-.8-.33c.75-1.75,1.5-3.5,2.25-5.25-6.95,1.35-11.29,6.53-11.41,12.83-.15,7.98-.74,15.94-1.7,23.96v-30.97c-6.46,.42-9.66,4.91-8.35,13.28-2.59-6.99-1.34-10.76,5.06-14.19,5.81-3.12,11.76-5.98,18.01-9.14-5.29-12.52-5.25-24.91,.74-38.13-4.28,1.93-7.34,3.1-10.14,4.7-.82,.47-1.37,2.16-1.33,3.27,.23,7.7,.83,15.4,.86,23.09,0,1.64-1.85,3.29-3.18,4.34,.67-3.1,1.35-6.2,2.02-9.29-.39-.14-.77-.29-1.16-.43-5.42,6.08-10.84,12.15-16.26,18.23-.19-.17-.38-.35-.57-.52,1.23-1.81,2.47-3.62,3.78-5.55-.73-.42-1.36-.78-2.12-1.22,12.49-5.79,16.67-15.83,13.46-29.08-2.55,3.22-4.69,5.93-6.82,8.63l-.61-.34c1.35-3.04,2.7-6.08,3.95-8.9-6.19-.76-13.34,1.27-15.37,4.8Zm55.48,8.72c3.41-8.05-4.38-9.6-6.18-14.9-1.95,2.48-3.5,4.46-5.53,7.04,4.14,2.78,7.9,5.3,11.71,7.86Zm-7.52-19.95c-3.35-1.49-6.03-.9-7.22,2.22-.65,1.72,.07,3.96,.17,5.96,.44-.04,.88-.08,1.32-.12,1.88-2.64,3.75-5.28,5.73-8.07Z"/>
      <path class="cls-6" d="M1144.54,46.37c-6.95-4.28-13.81-8.72-20.93-12.72-1.88-1.06-4.53-.74-7.21-1.1,4.65,9.2,15.13,8.91,20.84,15.93-3.08-1.66-6.15-3.31-9.41-5.06,2.89,8.36,5.53,16,8.41,24.3,.64,.09,2.23,.33,4.23,.62-1.95,.27-3.46,.48-5.14,.72-.75,6.13-.85,12.03,2.7,17.39-4.31,5.74,2,10.24,1.39,15.25-.46-.26-1.39-.79-2.36-1.33-.74-3.73-1.8-8.13-2.45-12.6-.77-5.25-.96-10.6-1.9-15.81-.3-1.68-2.02-3.25-3.42-4.53-.52-.47-1.95,.05-3.36,.14-.02-.34-.1-1.59-.18-2.83,1.95,.64,3.91,1.28,7.02,2.3-1.51-5.17-2.73-9.33-3.97-13.58-6.59,3.16-4.64,7.33-2.86,11.47-1.13-.96-2.25-1.91-4.27-3.63v13.48c-3.53-6.95-2.56-14.6,2.93-20.65,2.47-2.72,2.08-4.46,.07-6.95-5.13-6.35-11.3-11.16-18.11-13.87,2.17,6.78,5.82,13.68,6.21,20.75,.37,6.82-2.62,13.83-4.14,20.76-.53-.13-1.06-.26-1.58-.38,1.05-3.38,1.95-6.81,3.17-10.13,2.38-6.45,1.18-12.62-1.76-18.4-.77-1.51-3.53-2.06-5.45-2.85-.16-.06-.94,1.41-1.6,2.41-.47-.4-1.4-1.16-2.53-2.11-4.11,3.69-1.16,7.19-.03,10.69-4.12-3.54-4.81-7.61-2.48-11.62-3.52-2.29-6.88-4.48-10.53-6.86-2.54,3.61-2.06,7.6-.4,11.04,3.4,7.07,7.65,13.73,11.06,20.79,1.13,2.34,.8,5.39,1.07,8.13,.34,3.45-.35,7.38,1.09,10.26,3.91,7.75,8.71,15.04,12.96,22.82-1.6-1.69-3.2-3.38-5.25-5.55-1.6,2.97-2.98,5.54-4.46,8.28-.3-.49-.62-.87-.56-.94,6.04-7.2,1.94-13.03-2.45-18.89-1.31-1.75-2.28-3.76-3.55-5.89-5.83,8.71-11.99,16.9-16.93,25.77-2.06,3.69-1.52,8.82-2.09,12.77-.36-1.24-.98-3.33-1.7-5.75-.72,1.18-1.3,2.14-2.09,3.44-.09-.79-.32-1.3-.16-1.61,3.09-6.11,6.4-12.11,9.24-18.33,.84-1.84,.42-4.27,.57-6.43,4.96,2.71,4.26-1.15,4.53-3.9,1.04-.98,2.4-1.77,3.06-2.96,7.03-12.65,5.71-20.43-6.17-32.68-3.96,4.85-8.18,9.34-11.57,14.38-2.81,4.18-2.44,9.15,.79,13.01,1.73,2.07,4.86,2.99,7.35,4.43h-3.56c1.23,2.07,2.31,3.88,3.38,5.69-4.22-2.95-8.44-5.89-12.66-8.84,.54-.86,1.08-1.72,1.62-2.58-.46,2.63-.92,5.25-1.38,7.88-.36-.07-.73-.13-1.09-.2,1.21-6.85,1.93-13.85,3.84-20.49,.92-3.19,1.69-5.36-.63-8.2-1.55-1.91-2.13-4.61-4.6-7.43-1.43,3.73-2.86,7.45-4.07,10.61,0,0-.33-1.06-.79-2.53-3.49,5.43-3.15,10.64-1.42,16.13,1.74,5.53,3.2,11.15,4.47,16.81,.43,1.91-.1,4.04-.12,4.57-1.93-6.31-3.93-13.75-6.5-20.99-3.85-10.82,.08-21.96,11.12-30.64,2.21-1.74,5.97-2.86,4.07-7.06,2.84,2.46,6.24,1.75,7.32-1.54,1.31-3.99,2.58-7.99,3.84-11.88-9.43-.69-13.23,3.76-11.03,13.55-.99-2.92-1.97-5.83-3.18-9.4-2.96,3.15-6.38,6.77-9.53,10.12-.17-.82-.44-2.1-.55-2.66,2.1-2.02,4-3.85,5.9-5.67-.35-.52-.71-1.04-1.06-1.55-4.69,1-9.38,2.01-14.11,3.02,1.16,7.39,2.22,14.12,3.27,20.85-.32,.04-.64,.09-.97,.13-.21-1.24-.41-2.48-.68-4.09-7.35,9.17-7.41,10.87-1.89,21.37-2.11-3.6-4.23-7.19-6.54-11.12-.98,.88-2.22,1.98-3.46,3.09-.18-.15-.35-.3-.53-.45,2.96-3.89,6.91-7.39,8.6-11.77,1.65-4.3,.99-9.48,1.35-14.27-.89-.31-1.78-.62-2.68-.93-2.33,3.33-4.65,6.66-6.85,9.81,.58-2.26,1.3-5.05,1.95-7.56-6.11,2.55-9.4,7.87-8.75,14.81,.49,5.22-1.15,9.58-5.08,13.13,2.3-4.61,5.09-9.12,2.43-15.16-5.48,7.5-10.6,14.51-15.73,21.53-1.01-1.43-.91-1.36,5.66-10.31,2.73-3.71,4.9-7.83,7.35-11.74,2.45-3.91,4.93-7.79,7.76-12.27-1.74,.22-3,.23-4.18,.56-7.63,2.1-14.28,8.19-17.77,15-1.27,2.47-4.17,4.11-5.79,5.62,1.71-3.31,3.02-7.9,5.94-10.95,4.06-4.23,8.88-8.36,14.18-10.64,10.02-4.3,20.47-7.82,31.02-10.59,8.25-2.17,11.22-8.25,14.36-14.82,1.38-2.88,.81-7.84,6.4-6.81,5.87,1.08,12.97-1.25,16.03,7.04,2.2,5.96,5.27,12.25,11.93,14,5.1,1.34,10.76,.81,16.16,.66,5.1-.14,10.17-.87,15.38-.19-3,.19-5.99,.38-8.99,.58-.06,.33-.12,.66-.18,.99,5.96,1.74,11.91,3.47,19.27,5.62-2.61-.2-3.86-.29-6.16-.46,5.77,6.3,10.83,11.82,15.29,16.69,.59,0-.17,0-1.11,0,.29,4.22,.59,8.46,.88,12.7-1.3-6.47-.77-13.46-7.15-18.52-1.05,1.82-1.87,3.24-2.9,5.02-.69-1.4-1.3-2.62-1.91-3.85,3.39,.28,4.35-1.43,2.26-3.81-4.99-5.69-11.27-9.14-20-9.76,6.19,4.69,11.55,8.75,16.91,12.81Zm-71.16,16.62c3.37-3.17,6.47-6.08,9.7-9.12-1.23-2.95-2.44-5.86-3.67-8.81-12.34,6.83-13.09,9.03-6.03,17.94Zm29.13-24.93c-2.36-3.69-4.36-6.81-6.36-9.93-.66,.49-1.31,.98-1.97,1.47,.87,3.42,1.74,6.84,2.61,10.26,2.14-.68,4.29-1.35,5.72-1.8Zm-16.24-4.87c2.59,1.98,4.61,3.52,6.63,5.07,.41-.33,.81-.66,1.22-.99-.61-2.68-1.22-5.36-2.06-9.04-2.25,1.92-3.68,3.14-5.8,4.96Z"/>
      <path class="cls-1" d="M812.74,106.09c-1.4-5.69-4.2-11.47-3.88-17.06,.53-9.27-4.86-13.2-12.12-17.46-1.86,2.79-3.67,5.51-5.61,8.43,2.36,1.92,4.25,3.45,6.14,4.98-.13,.25-.27,.5-.4,.75-1.79-.86-3.59-1.72-5.91-2.83-2.03,12.54,7.85,20.36,10.42,30.7-1.26-1.88-2.51-3.76-4.07-6.08-1.27,2.25-2.29,4.07-3.31,5.89,4.45-6.68,.34-11.57-3.95-16.99-1.24,1.45-2.43,2.86-2.64,3.11,.09-4.94-.32-11.07,.49-17.04,.61-4.49,2.77-8.77,4.43-13.7-8.12-4-16.65-8.21-25.66-12.65-1.18,1.77-2.34,3.51-4.09,6.14,4.99,3.06,9.76,5.99,14.62,8.97-1.04-.08-2.2-.16-3.96-.29,1.5,3.38,2.89,6.5,4.28,9.63-4.67-5.62-7.8-12.35-16.07-14.75-4.02,13.95-1.12,26.54,7.41,38.88-1.73-.35-3.21-.31-3.36-.73-3.45-9.92-9.75-18.97-9.05-30.19,.09-1.43-1.4-3.18-2.55-4.4-1.73-1.82-3.88-3.24-5.75-4.94-9.7-8.83-10.37-14.9-2.68-25.42-1.51-2.31-3.08-4.69-4.86-7.41-6.22,5.1-7.28,11.6-7,18.98,.31,8.08,6.65,11.93,10.53,17.75-1.7-1.5-3.39-3.01-6.22-5.51,2.17,7.66,3.78,13.99,5.78,20.19,1.43,4.45,1.51,8.32-4.07,12.39,3.81-4.98,4.81-8.98,1.3-13.68-2.99,13.1-10.01,22.05-23.09,26.62,21.85-15.43,25.84-28.85,13.71-49.21-1.05,4.91-1.83,8.52-2.53,11.81-2.2-1.3-2.18-2.45,1.19-13.76-2.88-2.24-5.83-4.53-9.54-7.4-1.62,16.52,5.12,31.08,7.11,46.31-2.84-9.31-5.68-18.61-8.55-28-9.02,2.98-6.13,9.97-5.8,16.34-.79-2.27-1.58-4.54-2.71-7.76-1.74,2.67-3.03,4.65-4.61,7.07-.36-1.21-1.15-2.45-.82-2.92,2.85-4.12,5.48-8.53,9.02-12.01,3.63-3.57,4.98-7.15,3.73-12-.48-1.89-.39-3.93-.6-6.33-5.06,1.95-8.62,4.57-8.77,10.5-.13-.88-.27-1.76-.4-2.63-.43-.2-.85-.39-1.28-.59-3.23,6.03-6.46,12.06-9.69,18.09-.34-.19-.69-.37-1.03-.56,1.22-2.31,2.43-4.62,3.65-6.92-.32-.3-.64-.59-.95-.89-1.9,1.06-3.79,2.12-5.7,3.18,.06-1.13,.11-2.21,.21-4.21,4.98,.12,8.19-3.77,11.33-8.77,3-4.79,7.53-8.63,11.48-12.98-.99-2.89-2.09-6.07-3.35-9.75-3.12,3.69-6.01,7.1-8.9,10.52-.43-.46-.86-.92-1.29-1.38,.98-.78,2.54-1.43,2.76-2.39,.23-1-1.24-3.33-1.28-3.31-4.87,1.89-10.98,1.18-14.18,6.53-.98-.66-1.98-1.34-4.1-2.77,25.59-3.98,39.72-21.44,51.39-42.17,4.31,3.53,8.13,6.53,11.77,9.74,.8,.71,1.18,2.09,1.4,3.22,.34,1.76,.23,3.6,.55,5.37,1.47,8.27,3.1,9.82,11.3,11.37,8.31,1.57,16.67,2.99,24.89,4.95,3.42,.81,6.54,2.86,9.61,4.79-10.39-2.58-20.78-5.15-31.16-7.73,.95,7.67,7.1,4.47,10.59,7.29-2.2,.13-4.12,.25-7.25,.44,2.83,2.35,4.91,4.09,8.34,6.94-2.83-.73-4.53-.67-5.36-1.48-3.45-3.4-6.55-7.15-9.98-10.57-1.16-1.16-2.82-1.99-4.4-2.52-3.52-1.17-7.14-2.06-10.72-3.07-.37,.35-.75,.69-1.12,1.04,4.05,4.61,7.49,10.03,12.29,13.65,8.18,6.16,17.1,11.38,25.97,16.54,2.48,1.44,5.92,1.2,8.88,1.88,8.02,1.83,16.01,3.74,24.02,5.62-.12,.65-.24,1.3-.35,1.95-7.22-1.84-14.44-3.68-22.65-5.77,6.98,6.72,12.97,12.27,18.66,18.11,1.7,1.75,2.97,4.17,3.74,6.51,2.99,9.01,8.9,15.11,17.71,18.56-.29,.45-.59,.91-.88,1.36-4.32-2.64-8.65-5.29-12.95-7.92-1.22,7.66-2.52,15.8-3.6,22.58-1.19-5.02-2.61-10.98-4.02-16.92,1.26,1.99,2.51,3.97,4.34,6.87,.89-10.62,.83-19.76-5.31-27.5-.58,.1-1.16,.2-1.74,.3,.95,6.83,1.9,13.66,2.84,20.49Zm-56.09-37.42c1.95-4.95,3.89-9.9,5.95-15.15-2.41-1.77-5.06-3.61-7.58-5.62-2.51-2-4.88-4.17-7.63-6.54-1.4,1.75-2.58,3.23-3.68,4.61,2.73,2.2,5.11,4.11,7.48,6.03-.18,.21-.36,.43-.54,.64-2.47-1.33-4.94-2.66-7.74-4.17-.57,7.82,4.62,15.06,13.74,20.2Zm-26.88-15.46c.17-.27,.49-.55,.49-.83,.02-.71-.05-1.44-.17-2.14-1.36-7.78,1-14.4,5.53-20.74,1.43-2,2.22-6.9,1.12-7.8-2.95-2.41-6.79-1.15-8.66,2.28-2.39,4.38-4.57,9-5.97,13.78-2.43,8.27-.62,11.4,7.66,15.46Z"/>
      <path class="cls-1" d="M369.89,100.36c-.58-.1-1.16-.2-1.74-.3-6.14,7.74-6.2,16.88-5.31,27.5,1.83-2.9,3.08-4.88,4.34-6.87-1.41,5.94-2.82,11.89-4.02,16.92-1.08-6.79-2.38-14.93-3.6-22.58-4.31,2.64-8.63,5.28-12.95,7.92-.29-.45-.59-.91-.88-1.36,8.81-3.45,14.73-9.55,17.71-18.56,.78-2.34,2.04-4.77,3.74-6.51,5.69-5.84,11.68-11.39,18.66-18.11-8.21,2.09-15.43,3.93-22.65,5.77-.12-.65-.24-1.3-.35-1.95,8-1.88,16-3.79,24.02-5.62,2.96-.68,6.4-.43,8.88-1.88,8.87-5.16,17.79-10.38,25.97-16.54,4.8-3.61,8.24-9.04,12.29-13.65-.37-.35-.75-.69-1.12-1.04-3.58,1-7.2,1.89-10.72,3.07-1.58,.53-3.24,1.36-4.4,2.52-3.43,3.42-6.53,7.18-9.98,10.57-.83,.82-2.54,.75-5.36,1.48,3.43-2.85,5.52-4.59,8.34-6.94-3.12-.19-5.05-.31-7.25-.44,3.5-2.82,9.64,.38,10.59-7.29-10.39,2.58-20.78,5.15-31.16,7.73,3.07-1.94,6.2-3.98,9.61-4.79,8.22-1.96,16.57-3.39,24.89-4.95,8.21-1.55,9.83-3.1,11.3-11.37,.31-1.77,.21-3.61,.55-5.37,.22-1.14,.6-2.52,1.4-3.22,3.64-3.2,7.46-6.21,11.77-9.74,11.67,20.73,25.8,38.19,51.39,42.17-2.12,1.43-3.12,2.11-4.1,2.77-3.2-5.34-9.32-4.64-14.18-6.53-.04-.02-1.51,2.32-1.28,3.31,.22,.96,1.79,1.6,2.76,2.39-.43,.46-.86,.92-1.29,1.38-2.89-3.42-5.78-6.84-8.9-10.52-1.26,3.68-2.36,6.87-3.35,9.75,3.95,4.36,8.47,8.2,11.48,12.98,3.14,5,6.35,8.89,11.33,8.77,.1,2,.15,3.07,.21,4.21-1.91-1.06-3.8-2.12-5.7-3.18-.32,.3-.64,.59-.95,.89,1.22,2.31,2.43,4.62,3.65,6.92-.34,.19-.69,.37-1.03,.56-3.23-6.03-6.46-12.06-9.69-18.09-.43,.2-.85,.39-1.28,.59-.13,.88-.27,1.76-.4,2.63-.15-5.92-3.7-8.55-8.77-10.5-.21,2.4-.12,4.44-.6,6.33-1.24,4.85,.11,8.43,3.73,12,3.53,3.47,6.16,7.89,9.02,12.01,.33,.47-.45,1.72-.82,2.92-1.58-2.42-2.87-4.41-4.61-7.07-1.12,3.22-1.91,5.49-2.71,7.76,.33-6.37,3.22-13.37-5.8-16.34-2.87,9.39-5.71,18.69-8.55,28,1.98-15.23,8.72-29.79,7.11-46.31-3.7,2.87-6.66,5.17-9.54,7.4,3.37,11.31,3.39,12.46,1.19,13.76-.71-3.29-1.48-6.9-2.53-11.81-12.13,20.36-8.14,33.79,13.71,49.21-13.08-4.58-20.1-13.53-23.09-26.62-3.51,4.7-2.51,8.7,1.3,13.68-5.59-4.06-5.5-7.94-4.07-12.39,2-6.2,3.61-12.53,5.78-20.19-2.83,2.51-4.53,4.01-6.22,5.51,3.88-5.82,10.22-9.67,10.53-17.75,.28-7.38-.78-13.88-7-18.98-1.78,2.72-3.34,5.1-4.86,7.41,7.69,10.51,7.03,16.59-2.68,25.42-1.87,1.7-4.02,3.12-5.75,4.94-1.16,1.22-2.64,2.97-2.55,4.4,.7,11.22-5.6,20.27-9.05,30.19-.15,.42-1.62,.38-3.36,.73,8.53-12.34,11.44-24.93,7.41-38.88-8.27,2.41-11.4,9.13-16.07,14.75,1.39-3.13,2.78-6.25,4.28-9.63-1.76,.13-2.92,.22-3.96,.29,4.86-2.98,9.63-5.91,14.62-8.97-1.75-2.62-2.91-4.36-4.09-6.14-9.01,4.44-17.54,8.65-25.66,12.65,1.66,4.92,3.82,9.21,4.43,13.7,.81,5.97,.4,12.1,.49,17.04-.21-.25-1.41-1.66-2.64-3.11-4.28,5.42-8.4,10.31-3.95,16.99-1.02-1.82-2.05-3.64-3.31-5.89-1.55,2.33-2.81,4.2-4.07,6.08,2.58-10.34,12.46-18.16,10.42-30.7-2.33,1.11-4.12,1.97-5.91,2.83-.13-.25-.27-.5-.4-.75,1.89-1.53,3.78-3.07,6.14-4.98-1.94-2.91-3.75-5.63-5.61-8.43-7.26,4.26-12.65,8.19-12.12,17.46,.32,5.6-2.48,11.37-3.88,17.06,.95-6.83,1.9-13.66,2.84-20.49Zm66.98-37.13c-2.8,1.51-5.27,2.84-7.74,4.17-.18-.21-.36-.43-.54-.64,2.38-1.91,4.75-3.83,7.48-6.03-1.1-1.38-2.28-2.86-3.68-4.61-2.76,2.37-5.13,4.54-7.63,6.54-2.52,2.01-5.17,3.84-7.58,5.62,2.06,5.25,4.01,10.2,5.95,15.15,9.12-5.14,14.31-12.37,13.74-20.2Zm20.8-10.72c-1.4-4.77-3.58-9.39-5.97-13.78-1.87-3.43-5.7-4.69-8.66-2.28-1.1,.9-.31,5.8,1.12,7.8,4.53,6.34,6.89,12.96,5.53,20.74-.12,.7-.19,1.43-.17,2.14,0,.28,.32,.55,.49,.83,8.28-4.06,10.09-7.19,7.66-15.46Z"/>
      <path class="cls-1" d="M299.89,49.35c4.17,1.5,8.34,3,12.51,4.5,0,.25,0,.5,0,.75-6.29-.9-12.57-1.81-19.24-2.77,3.65,7.35,6.86,13.83,10.07,20.3-.49,.18-.98,.36-1.47,.54-1.06-2.37-2.13-4.75-3.35-7.49-1.51,1-2.73,1.81-4.56,3.02,4.56-7.95-1.91-16.49-11.7-16.32,1.39,3.86,2.77,7.69,4.16,11.53-5.02-10.35-12.48-16.17-17.7-12.76-1.41-1.61-2.83-3.22-4.25-4.84-.03,6.24-.7,12.11,5.65,16.74,4,2.91,6.27,7.59,9.31,11.48-.48,.27-.95,.53-1.43,.8-.81-1.29-1.41-2.75-2.53-3.81-.59-.56-2.08-.41-3.34-.61,.56-3.67,.52-3.73-6.52-8.25-4.79,14.49-2.25,27.3,11.3,38.87q-6.69-3.1-16.86-21.79c-.9,4.28-1.6,7.63-2.3,10.98-.37-.06-.75-.13-1.12-.19,.91-4.3,1.76-8.62,2.76-12.91,.82-3.52,2.21-6.97,2.64-10.52,.89-7.35-2.22-10.59-10.68-12.43-1.68-.37-3.07-1.76-4.93-2.89,2.09,9.73,4.12,19.16,6.15,28.6-.23,.05-.47,.1-.7,.16-.79-1.85-1.59-3.7-2.46-5.75-2.93,2.77-5.65,5.34-8.37,7.91,3.78-5.5,8.56-10.79,4.81-19.17-2.61,4.27-4.66,7.63-6.71,10.99v-3.64c-1.08,.19-1.95,.34-2.86,.49,1.97-4.76,11.14-6,8.77-12.33-1.98-5.29-3.69-11.39-11.66-13.64v5.66c-3.32-5.82-6.41-11.25-9.5-16.68-.7,.12-1.41,.25-2.11,.37,.78,4.72,1.18,9.52,2.48,14.14,.83,2.93,2.86,5.65,4.61,8.34,4.6,7.07,4.6,14.16-.17,21.04-2.34,3.38-2.66,6.25-.93,10.02,2.61,5.68,4.28,11.55,10.87,15.19,2.05,1.13,2.99,3.76,3.72,6.14-2.9-2.83-5.79-5.65-9.41-9.19-1.04,6.41-1.87,11.53-2.69,16.64-.5-.02-1-.04-1.5-.07,3.02-10.84,1.72-21.1-5.44-32.02-1.82,3.44-3.13,5.91-4.62,8.71-.69,.56-2.14,1.45-3.19,2.62-2.37,2.64-4.54,5.41-7.87,7.43,5.09-7.3,10.25-14.57,15.25-21.91,7.63-11.19,7.25-16.33-1.76-26.76q-3.93,2.94-.84,12.53c-1.66-2.05-2.69-3.32-4.43-5.46-.87,3.02-1.49,5.19-2.02,7.05q-1.96-4.38,2.01-13.31,2.65-5.95,.19-11.96c-14.17,4.43-18.8,21.17-12.9,28.8,7.78,10.07,6.31,20.4-1.4,30.39-2.91,3.76-4.88,8.06-6.44,12.69v-6.13c-2.85,1.92-5.05,3.41-7.25,4.89-.17-.16-.34-.31-.51-.47,3.53-3.2,7.05-6.4,10.58-9.59-.25-.28-.51-.55-.76-.83-1.93,.56-3.86,1.12-5.79,1.68,4.66-3.26,11.39-4.14,12.9-10.54,1.31-5.53,1.87-10.78-1.87-17.5-3.84,5.55-7.01,10.13-10.17,14.71-.28-.15-.56-.3-.85-.45,1.89-3.81,3.79-7.61,5.85-11.77h-10.98c-.71,3.36-1.39,6.6-2.08,9.84-.37-.05-.75-.1-1.12-.14,.36-2.63,.72-5.25,1.1-8.04h-9.25c1.24-.82,2.34-1.55,4.36-2.89-6.1-.58-11.18-1.35-16.26-1.39-1.6-.01-3.23,1.94-4.78,2.96-.03-.2-.17-1.19-.39-2.75-2.83,.59-5.55,1.16-8.27,1.73-.08-.56-.15-1.11-.23-1.67,5.31-.56,10.6-1.49,15.92-1.57,5.69-.09,11.4,.61,18.49,1.05-2.09-7.14-3.97-13.58-5.86-20.02-.6-.01-1.2-.03-1.8-.04-1.13,2.76-2.25,5.53-3.38,8.29-.4-.05-.8-.11-1.2-.16,2.46-7.82,4.92-15.64,7.38-23.47-2.18-.63-4.3-1.91-6.19-1.69-7.81,.89-9.25,2.63-9.83,9.55-.22,2.62-1.14,5.2-2.53,7.6,2.59-3.9,2.31-11-1.67-12.97,10.68-8.18,27.13-6.61,36.48-16.5-9.4-1.68-18.67,.88-25.94,6.75-4.13-.46-7.51-.83-10.89-1.21,.12,.25,.23,.5,.35,.75,6.86-2.33,13.57-5.1,20.62-6.86,6.81-1.7,13.93-2.64,20.99-3.34,3.82-.38,5.91-1.28,7.34-4.59,3.41-7.87,3.68-7.47,13.49-7.89,7.02-.3,12.63,.64,16.78,6.22,2.94,3.95,7.54,5.83,13.39,6.41,10.29,1.01,18.94,5.23,26.77,11.35,4.58,3.58,10.93,5.45,16.26,7.98,.04-.16-.16,.74-.36,1.64-6.74-3.05-13.47-6.1-20.38-9.22-.11,.82-.26,1.87-.47,3.41-3.22-7.92-10.84-11.9-22.06-11.43,5.36,5.55,9.76,11.36,15.55,15.83,9.41,7.26,21.37,7.19,33.2,6.51Zm-112.16,.79c5.13-6.62,9.99-12.88,15.5-19.99-16.99,4.75-24.8,14.14-22.21,25.79,1.53,6.87,3.53,13.65,5.33,20.51,10.31,1.88,11.8,.27,11.35-8.47-.29-5.61,.13-12.12,3.2-16.76,4.06-6.12,4.96-12.27,4.34-19.52-3.84,4.98-7.67,9.96-11.27,14.63-3.41-1.53-3.26,3.09-6.24,3.8Zm59.43-4.13c.57-7.62,.46-14.8-8.49-19.18-8.48,8.6-5.96,14.31,8.49,19.18Zm2.72-13.01c-1.06,9.23-2.87,18.61,11.72,21.39-2.04-7.84-3.79-15.65-11.72-21.39Zm-42.66,9.29c9.4-2.19,9.04-8.37,9.36-14.65-6.53,2.24-9.77,7.51-9.36,14.65Z"/>
      <path class="cls-6" d="M422.92,56.54c-6.95-4.28-13.81-8.72-20.93-12.72-1.88-1.06-4.53-.74-7.21-1.1,4.65,9.2,15.13,8.91,20.84,15.93-3.08-1.66-6.15-3.31-9.41-5.06,2.89,8.36,5.53,16,8.41,24.3,.64,.09,2.23,.33,4.23,.62-1.95,.27-3.46,.48-5.14,.72-.75,6.13-.85,12.03,2.7,17.39-4.31,5.74,2,10.24,1.39,15.25-.46-.26-1.39-.79-2.36-1.33-.74-3.73-1.8-8.13-2.45-12.6-.77-5.25-.96-10.6-1.9-15.81-.3-1.68-2.02-3.25-3.42-4.53-.52-.47-1.95,.05-3.36,.14-.02-.34-.1-1.59-.18-2.83,1.95,.64,3.91,1.28,7.02,2.3-1.51-5.17-2.73-9.33-3.97-13.58-6.59,3.16-4.64,7.33-2.86,11.47-1.13-.96-2.25-1.91-4.27-3.63v13.48c-3.53-6.95-2.56-14.6,2.93-20.65,2.47-2.72,2.08-4.46,.07-6.95-5.13-6.35-11.3-11.16-18.11-13.87,2.17,6.78,5.82,13.68,6.21,20.75,.37,6.82-2.62,13.83-4.14,20.76-.53-.13-1.06-.26-1.58-.38,1.05-3.38,1.95-6.81,3.17-10.13,2.38-6.45,1.18-12.62-1.76-18.4-.77-1.51-3.53-2.06-5.45-2.85-.16-.06-.94,1.41-1.6,2.41-.47-.4-1.4-1.16-2.53-2.11-4.11,3.69-1.16,7.19-.03,10.69-4.12-3.54-4.81-7.61-2.48-11.62-3.52-2.29-6.88-4.48-10.53-6.86-2.54,3.61-2.06,7.6-.4,11.04,3.4,7.07,7.65,13.73,11.06,20.79,1.13,2.34,.8,5.39,1.07,8.13,.34,3.45-.35,7.38,1.09,10.26,3.91,7.75,8.71,15.04,12.96,22.82-1.6-1.69-3.2-3.38-5.25-5.55-1.6,2.97-2.98,5.54-4.46,8.28-.3-.49-.62-.87-.56-.94,6.04-7.2,1.94-13.03-2.45-18.89-1.31-1.75-2.28-3.76-3.55-5.89-5.83,8.71-11.99,16.9-16.93,25.77-2.06,3.69-1.52,8.82-2.09,12.77-.36-1.24-.98-3.33-1.7-5.75-.72,1.18-1.3,2.14-2.09,3.44-.09-.79-.32-1.3-.16-1.61,3.09-6.11,6.4-12.11,9.24-18.33,.84-1.84,.42-4.27,.57-6.43,4.96,2.71,4.26-1.15,4.53-3.9,1.04-.98,2.4-1.77,3.06-2.96,7.03-12.65,5.71-20.43-6.17-32.68-3.96,4.85-8.18,9.34-11.57,14.38-2.81,4.18-2.44,9.15,.79,13.01,1.73,2.07,4.86,2.99,7.35,4.43h-3.56c1.23,2.07,2.31,3.88,3.38,5.69-4.22-2.95-8.44-5.89-12.66-8.84,.54-.86,1.08-1.72,1.62-2.58-.46,2.63-.92,5.25-1.38,7.88-.36-.07-.73-.13-1.09-.2,1.21-6.85,1.93-13.85,3.84-20.49,.92-3.19,1.69-5.36-.63-8.2-1.55-1.91-2.13-4.61-4.6-7.43-1.43,3.73-2.86,7.45-4.07,10.61,0,0-.33-1.06-.79-2.53-3.49,5.43-3.15,10.64-1.42,16.13,1.74,5.53,3.2,11.15,4.47,16.81,.43,1.91-.1,4.04-.12,4.57-1.93-6.31-3.93-13.75-6.5-20.99-3.85-10.82,.08-21.96,11.12-30.64,2.21-1.74,5.97-2.86,4.07-7.06,2.84,2.46,6.24,1.75,7.32-1.54,1.31-3.99,2.58-7.99,3.84-11.88-9.43-.69-13.23,3.76-11.03,13.55-.99-2.92-1.97-5.83-3.18-9.4-2.96,3.15-6.38,6.77-9.53,10.12-.17-.82-.44-2.1-.55-2.66,2.1-2.02,4-3.85,5.9-5.67-.35-.52-.71-1.04-1.06-1.55-4.69,1-9.38,2.01-14.11,3.02,1.16,7.39,2.22,14.12,3.27,20.85-.32,.04-.64,.09-.97,.13-.21-1.24-.41-2.48-.68-4.09-7.35,9.17-7.41,10.87-1.89,21.37-2.11-3.6-4.23-7.19-6.54-11.12-.98,.88-2.22,1.98-3.46,3.09-.18-.15-.35-.3-.53-.45,2.96-3.89,6.91-7.39,8.6-11.77,1.65-4.3,.99-9.48,1.35-14.27-.89-.31-1.78-.62-2.68-.93-2.33,3.33-4.65,6.66-6.85,9.81,.58-2.26,1.3-5.05,1.95-7.56-6.11,2.55-9.4,7.87-8.75,14.81,.49,5.22-1.15,9.58-5.08,13.13,2.3-4.61,5.09-9.12,2.43-15.16-5.48,7.5-10.6,14.51-15.73,21.53-1.01-1.43-.91-1.36,5.66-10.31,2.73-3.71,4.9-7.83,7.35-11.74,2.45-3.91,4.93-7.79,7.76-12.27-1.74,.22-3,.23-4.18,.56-7.63,2.1-14.28,8.19-17.77,15-1.27,2.47-4.17,4.11-5.79,5.62,1.71-3.31,3.02-7.9,5.94-10.95,4.06-4.23,8.88-8.36,14.18-10.64,10.02-4.3,20.47-7.82,31.02-10.59,8.25-2.17,11.22-8.25,14.36-14.82,1.38-2.88,.81-7.84,6.4-6.81,5.87,1.08,12.97-1.25,16.03,7.04,2.2,5.96,5.27,12.25,11.93,14,5.1,1.34,10.76,.81,16.16,.66,5.1-.14,10.17-.87,15.38-.19-3,.19-5.99,.38-8.99,.58-.06,.33-.12,.66-.18,.99,5.96,1.74,11.91,3.47,19.27,5.62-2.61-.2-3.86-.29-6.16-.46,5.77,6.3,10.83,11.82,15.29,16.69,.59,0-.17,0-1.11,0,.29,4.22,.59,8.46,.88,12.7-1.3-6.47-.77-13.46-7.15-18.52-1.05,1.82-1.87,3.24-2.9,5.02-.69-1.4-1.3-2.62-1.91-3.85,3.39,.28,4.35-1.43,2.26-3.81-4.99-5.69-11.27-9.14-20-9.76,6.19,4.69,11.55,8.75,16.91,12.81Zm-71.16,16.62c3.37-3.17,6.47-6.08,9.7-9.12-1.23-2.95-2.44-5.86-3.67-8.81-12.34,6.83-13.09,9.03-6.03,17.94Zm29.13-24.93c-2.36-3.69-4.36-6.81-6.36-9.93-.66,.49-1.31,.98-1.97,1.47,.87,3.42,1.74,6.84,2.61,10.26,2.14-.68,4.29-1.35,5.72-1.8Zm-16.24-4.87c2.59,1.98,4.61,3.52,6.63,5.07,.41-.33,.81-.66,1.22-.99-.61-2.68-1.22-5.36-2.06-9.04-2.25,1.92-3.68,3.14-5.8,4.96Z"/>
      <path class="cls-6" d="M977.15,110.86c-6.59,7.8-.1,12.2,4.32,17.41-.94-.48-1.89-.95-2.97-1.5,.59,3.96,1.15,7.73,1.78,11.96-2.53-7.21-4.88-13.89-7.32-20.82-4.33,1.58-6.94,3.1-4.13,7.76-.67-.04-1.35-.08-2.02-.11-1.15-6.29-1.81-12.72-3.59-18.83-1.83-6.28-4.52-12.36-7.28-18.32-2.36-5.08-5.37-9.87-8.07-14.79-.16-.29-.23-.65-.27-.99-1.03-7.81-2.05-15.63-3.06-23.34-3.48,4.91-3.85,19.1-.31,24.12,5.23,7.44,8.97,15.31,8.08,24.7-.15,1.55-.65,3.07-1.62,4.61,1.16-8.72-.64-16.5-6.38-23.46,2.29,14.63-1.06,28.5-5.79,42.25,.17-2.09-.13-4.36,.59-6.25,4.79-12.68,3.44-25.44,1.21-39.68-1.37,2.65-2.1,4.06-3.27,6.34,1.11-13.95,2.13-26.91,3.14-39.6q-4.75,.91-8.42,15.96v-12.47c-4.55,3.28-8.16,5.88-11.58,8.35,2.46,4.32,4.89,7.9,6.62,11.79,2.59,5.82,2.97,11.83,.78,18.05-1.32,3.77-1.77,7.84-2.46,11.07-1.56-2.57-3.2-5.94,.11-10.12,3.29-4.15,2.51-8.99,1.23-14.06-1.7,.22-3.12,.41-5.18,.68,1.61-1.17,2.7-1.95,4.48-3.24-2.44-3.81-4.85-7.57-8.03-12.54-3.41,5.63-6.11,10.07-8.8,14.52,.55-6.24,4.04-11.29,8-15.97,2.31-2.73,4.87-5.58,7.94-7.27,6.97-3.85,10.2-10.19,13.09-17.35-8.16-.63-15.42,1.68-21.38,6.77-1.64,1.4-1,5.46-1.29,7.44-.36-1-1.02-2.89-1.69-4.77-.5-.17-1.01-.34-1.51-.51-1.89,3.86-3.78,7.72-5.43,11.08-.1-.13-.96-1.22-2.03-2.6,3.33-4.36,6.72-8.81,9.94-13.04-15.74,2.15-22.47,10.56-20.39,25.04-.78-3.13-1.56-6.26-2.35-9.39-.33-.14-.66-.29-1-.43-.91,3.54-2.67,7.1-2.55,10.6,.2,5.94,1.46,11.86,2.5,17.75,1.28,7.27,1.69,14.47-.42,22.12-1.18-1.67-2.02-2.84-2.82-4.01,.87-.52,2.39-1,2.44-1.6,.62-7.66-.09-15.16-3.33-22.96-2.39,2.27-4.34,4.13-6.29,5.98,.05-.16,.05-.38,.16-.49,5.48-5.51,4.79-12.49,5.34-19.49,.99-12.49,9.51-19.99,20.25-24.44,8.16-3.38,16.91-5.49,25.56-7.42,4.47-1,7.68-2.31,8.15-7.22,.44-4.57,3.14-5.12,7.28-5.55,8.42-.89,14.58,1.43,18.65,9.06,3.19,5.98,8.73,8.12,15.16,9.12,9.4,1.46,18.15,4.69,26.26,9.92,4.7,3.03,10.1,4.95,15.1,7.53,1.55,.8,2.83,2.14,3.83,3.85-4.04-2.2-8.09-4.4-12.13-6.6,4.82,9.2,3.26,18.17,1.36,27.14v-10.9c-.26-.08-.53-.16-.79-.24-1.24,2.72-2.48,5.44-3.72,8.16,1.18-3.7,2.18-7.47,3.58-11.09,1.87-4.86,.24-7.54-4.89-7.37-3.65,.12-7.29,.41-11.62,.67,4.42,7.49,.31,18.25,10.77,22.76,.44-.68,.98-1.51,1.52-2.34,.15,2.09,.3,4.18,.55,7.7-1.14-1.52-1.75-2.59-2.59-3.4-1.58-1.52-3.3-2.89-6.02-5.25,.53,10.01,2.34,18.55,8.12,25.17,3.72,4.26,4.6,8.84,5.76,14.21-7.98-14.82-17.13-28.63-17.5-45.91-.09-3.96-1.8-7.88-2.76-11.79-8.12,1.82-10.81,4.39-9.53,7.11-1.84,1.13-3.59,2.2-6.08,3.73,4.21,3.6,7.54,6.45,10.95,9.36-1.72,1.44-2.5,2.09-2.5,2.09-2.03-2.56-4.24-5.35-6.46-8.14-.63,.41-1.26,.81-1.89,1.22,.26,16.17,11.2,26.84,21.41,37.9-.5,.31-1,.63-1.51,.94-1.09-1.58-2.12-3.2-3.27-4.73-1.65-2.19-3.39-4.32-5.93-7.53-.74,3-.99,4.02-.98,3.99-2.17-4.51-4.99-9.6-7.1-14.97-2.04-5.18-4.06-10.56-4.77-16.02-.73-5.62-5.72-4.53-8.21-7.11-7.33,8.05-8.22,10.66-4.5,14.83-1.75-.63-2.89-1.04-4.02-1.45-3.47,8.17-3.11,9.62,4.53,12.94,8.56,3.71,14.79,9.24,16.55,18.8,.33,1.8,.52,3.62,.12,5.56-.43-1.67-.86-3.35-1.36-5.28-1.64,1.85-2.94,3.32-4.23,4.78,3.6-12.55-2.03-20.35-17.49-22.42,4.43,9.15,8.52,17.58,12.82,26.45,2.16-1.88,3.51-3.05,4.86-4.22Zm-11.15-54.94c2.97-6.46,3.23-12.3,1.12-18.13-1.05-2.89-2.93-5.12-6.65-3.73-7.06,2.63-8.88,10.5-3.35,15.62,2.55,2.36,5.72,4.06,8.88,6.25Zm-16.84-8.43c-3.29,10.13-.08,18.36,9.57,22.57,2.1-3.55,4.22-7.16,6.16-10.44-5.5-4.24-10.54-8.13-15.73-12.13Zm63.71,2.25c-6.99-9.49-16.62-12.72-27.66-15.04,7.75,8.31,13.84,17.96,27.66,15.04Zm-41.37-17.54c.66,4.73,1.65,8.43,1.56,12.09-.1,3.86-1.36,7.69-1.83,11.56-.13,1.06,.42,2.65,1.22,3.3,1.8,1.47,3.95,2.5,5.95,3.71,.58-.18,1.16-.37,1.74-.55-.34-2.24-.56-4.5-1.04-6.7-.64-2.93-2.15-5.84-2.04-8.71,.13-3.45,1.57-6.85,2.54-10.65-2.42-1.21-4.95-2.48-8.1-4.05Zm10.72,24.42c3.65-2.6,7.09-5.05,12.01-8.55-3.81-3.37-7.28-6.43-10.84-9.58-5.23,7.21-5.51,12.15-1.17,18.13Zm-31.86,11.51c-2,6.2,2.17,9.19,5.53,13.02q1.51-9.26-5.53-13.02Zm16.44,51.75c5.09-3.58,4.81-5.13-1.61-11.77,.58,4.22,1.05,7.66,1.61,11.77Z"/>
    </g>
  </g>
</svg>