<?xml version="1.0" encoding="UTF-8"?>
<svg id="Capa_2" data-name="Capa 2" xmlns="http://www.w3.org/2000/svg" xmlns:xlink="http://www.w3.org/1999/xlink" viewBox="0 0 538.58 538.58">
  <defs>
    <style>
      .cls-1 {
        fill: #18b2ba;
      }

      .cls-2 {
        fill: #75cae4;
      }

      .cls-3 {
        fill: url(#linear-gradient);
      }
    </style>
    <linearGradient id="linear-gradient" x1="269.29" y1="54.7" x2="269.29" y2="538.58" gradientUnits="userSpaceOnUse">
      <stop offset="0" stop-color="#4cbed1"/>
      <stop offset=".19" stop-color="#4ab9cc"/>
      <stop offset=".41" stop-color="#45adbe"/>
      <stop offset=".64" stop-color="#3c98a7"/>
      <stop offset=".88" stop-color="#317c88"/>
      <stop offset="1" stop-color="#2a6b75"/>
    </linearGradient>
  </defs>
  <g id="Layer_1" data-name="Layer 1">
    <rect class="cls-2" x="0" y="0" width="538.58" height="538.58"/>
    <path class="cls-3" d="M538.58,538.58H0s0-444.49,0-444.5c9.28-7.8,30.25-8.98,41.74-11.87,22.83-5.73,45.62-11.56,68.58-16.71,43.67-9.78,90.14-14.12,135.15-7.96,27.44,3.75,51.24,14.76,76.82,24.69,48.57,18.85,101.64,37.86,155.1,32.79,22.18-3.75,42.53-10.81,61.19-20.94v444.49Z"/>
    <path class="cls-1" d="M538.58,538.58H0s0-335.91,0-336.15c0,6.71,21.23,19,25.99,21.9,38.94,23.66,85.96,30.9,130.3,30.41,40.66-.45,84.34-3.15,120.14-25.67,74.65-46.96,183.88-86.24,262.15-26.63v336.15Z"/>
  </g>
</svg>