<?xml version="1.0" encoding="UTF-8"?>
<svg id="Capa_2" data-name="Capa 2" xmlns="http://www.w3.org/2000/svg" xmlns:xlink="http://www.w3.org/1999/xlink" viewBox="0 0 538.62 538.85">
  <defs>
    <style>
      .cls-1 {
        fill: url(#linear-gradient-2);
      }

      .cls-2 {
        fill: url(#linear-gradient-3);
      }

      .cls-3 {
        fill: url(#linear-gradient);
      }

      .cls-4 {
        fill: url(#linear-gradient-4);
        opacity: .61;
      }
    </style>
    <linearGradient id="linear-gradient" x1="269.33" y1="0" x2="269.33" y2="538.58" gradientUnits="userSpaceOnUse">
      <stop offset="0" stop-color="#84cbca"/>
      <stop offset=".04" stop-color="#80c7c5"/>
      <stop offset=".47" stop-color="#58a198"/>
      <stop offset=".81" stop-color="#3f897c"/>
      <stop offset="1" stop-color="#368172"/>
    </linearGradient>
    <linearGradient id="linear-gradient-2" x1="269.33" y1="79.47" x2="269.33" y2="538.58" gradientTransform="translate(538.66) rotate(-180) scale(1 -1)" gradientUnits="userSpaceOnUse">
      <stop offset="0" stop-color="#84beb2"/>
      <stop offset=".27" stop-color="#70aa9e"/>
      <stop offset=".81" stop-color="#3e786c"/>
      <stop offset="1" stop-color="#2b6659"/>
    </linearGradient>
    <linearGradient id="linear-gradient-3" x1="269.33" y1="229.13" x2="269.33" y2="538.58" gradientTransform="translate(538.66) rotate(-180) scale(1 -1)" gradientUnits="userSpaceOnUse">
      <stop offset="0" stop-color="#549f92"/>
      <stop offset=".12" stop-color="#4a8e82"/>
      <stop offset=".52" stop-color="#2c5e53"/>
      <stop offset=".83" stop-color="#194136"/>
      <stop offset="1" stop-color="#13362c"/>
    </linearGradient>
    <linearGradient id="linear-gradient-4" x1="170.61" y1="345.77" x2="170.61" y2="538.85" gradientUnits="userSpaceOnUse">
      <stop offset="0" stop-color="#0c372f"/>
      <stop offset=".43" stop-color="#0b3a32"/>
      <stop offset=".77" stop-color="#0b443c"/>
      <stop offset="1" stop-color="#0b5048"/>
    </linearGradient>
  </defs>
  <g id="Layer_1" data-name="Layer 1">
    <rect class="cls-3" x=".04" y="0" width="538.58" height="538.58"/>
    <path class="cls-1" d="M.04,538.58H538.62s0-443.29,0-444.5c-.01-2.42-27.97-6.39-30.79-6.89-13.4-2.38-26.9-4.22-40.45-5.52-30.61-2.95-61.32-2.56-92-1.05-36.43,1.8-72.68,6.28-108.63,12.41-35.49,6.06-70.38,15.07-105.77,21.41-4.29,.77-8.8,1.16-13.16,1.65-9.9,1.07-19.85,1.66-29.81,1.87-32.83,.69-66.99-2.08-97.62-14.31C18.06,102.71,.04,96.28,.04,94.09c0,0,0,444.49,0,444.49Z"/>
    <path class="cls-2" d="M.04,538.58H538.62s0-304.13,0-304.34c0,6.08-21.23,17.2-25.99,19.83-38.94,21.42-85.96,27.98-130.3,27.53-40.66-.41-79.25-12.13-120.14-23.25C190.37,238.84,84.36,219.71,.04,234.24v304.34Z"/>
    <path class="cls-4" d="M.06,345.81c37.86-.01,75.71-.03,113.57-.04,2.83,0,5.76,.01,8.37,.88,7,2.33,8.78,9.35,11.75,14.92,7.54,14.12,26.37,21.71,40.53,32.1,25.08,18.4,35.8,46.15,57.64,67.01,29.4,28.08,75.25,40.97,104.65,69.02,2.8,2.67,4.64,9.12,4.64,9.12,0,0-281.47,.07-341.21-.03,.02-64.33,.04-128.66,.06-192.98Z"/>
  </g>
</svg>