<?xml version="1.0" encoding="UTF-8"?>
<svg id="Capa_2" data-name="Capa 2" xmlns="http://www.w3.org/2000/svg" viewBox="0 0 77.73 77.73">
  <defs>
    <style>
      .cls-1 {
        fill: #f89c1c;
      }
    </style>
  </defs>
  <g id="Capa_2-2" data-name="Capa 2">
    <g>
      <path class="cls-1" d="M60.77,43.48c-2.51-1.45-5.56-1.16-7.72,.51l-8.85-5.11,8.85-5.11c2.17,1.67,5.21,1.96,7.73,.51,3.33-1.92,4.47-6.18,2.55-9.51-1.92-3.33-6.18-4.47-9.51-2.55-2.51,1.45-3.78,4.23-3.42,6.94l-8.85,5.11v-10.22c2.53-1.05,4.3-3.53,4.3-6.44,0-3.85-3.12-6.96-6.96-6.96s-6.96,3.12-6.96,6.96c0,2.9,1.78,5.39,4.31,6.44v10.22l-8.85-5.11c.36-2.71-.91-5.49-3.42-6.94-3.33-1.92-7.59-.78-9.51,2.55-1.92,3.33-.78,7.59,2.55,9.51,2.52,1.45,5.56,1.16,7.73-.51l8.85,5.11-8.85,5.11c-2.17-1.66-5.21-1.96-7.72-.51-3.33,1.92-4.47,6.18-2.55,9.51,1.92,3.33,6.18,4.47,9.51,2.55,2.52-1.45,3.78-4.24,3.42-6.95l8.85-5.11v10.22c-2.53,1.04-4.31,3.53-4.31,6.44,0,3.85,3.12,6.96,6.96,6.96,3.85,0,6.96-3.12,6.96-6.96,0-2.9-1.78-5.39-4.3-6.44v-10.22s8.85,5.11,8.85,5.11c-.36,2.71,.91,5.49,3.42,6.95,3.33,1.92,7.59,.78,9.51-2.55,1.92-3.33,.78-7.59-2.55-9.51Z"/>
      <path class="cls-1" d="M38.86,77.73c-5.25,0-10.34-1.03-15.13-3.06-4.63-1.96-8.78-4.76-12.35-8.33-3.57-3.57-6.37-7.72-8.33-12.35-2.03-4.79-3.06-9.88-3.06-15.13s1.03-10.34,3.06-15.13c1.96-4.63,4.76-8.78,8.33-12.35,3.57-3.57,7.72-6.37,12.35-8.33,4.79-2.03,9.88-3.06,15.13-3.06s10.34,1.03,15.13,3.06c4.63,1.96,8.78,4.76,12.35,8.33,3.57,3.57,6.37,7.72,8.33,12.35,2.03,4.79,3.06,9.88,3.06,15.13s-1.03,10.34-3.06,15.13c-1.96,4.63-4.76,8.78-8.33,12.35-3.57,3.57-7.72,6.37-12.35,8.33-4.79,2.03-9.88,3.06-15.13,3.06Zm0-72.34C20.4,5.38,5.38,20.4,5.38,38.86s15.02,33.48,33.48,33.48,33.48-15.02,33.48-33.48S57.33,5.38,38.86,5.38Z"/>
    </g>
  </g>
</svg>