<?xml version="1.0" encoding="UTF-8"?>
<svg id="Capa_2" data-name="Capa 2" xmlns="http://www.w3.org/2000/svg" viewBox="0 0 170.08 255.41">
  <defs>
    <style>
      .cls-1 {
        fill: #fff;
      }

      .cls-2, .cls-3 {
        fill: #702985;
      }

      .cls-4 {
        opacity: .68;
      }

      .cls-4, .cls-5, .cls-6 {
        fill: #13110c;
      }

      .cls-3 {
        stroke: #4c2566;
        stroke-miterlimit: 10;
        stroke-width: 1.83px;
      }

      .cls-5 {
        opacity: .69;
      }

      .cls-7 {
        fill: #f59d25;
      }

      .cls-6 {
        opacity: .78;
      }
    </style>
  </defs>
  <g id="Layer_2" data-name="Layer 2">
    <path class="cls-7" d="M170.08,227.42V19.17c0-14.66-12.95-18.3-16.47-19.01-.55-.12-.87-.16-.87-.16H17.35s-.33,.04-.89,.16C12.92,.88,0,4.54,0,19.17V227.42s-.39,27.99,24.33,27.99h121.43c24.72,0,24.32-27.99,24.32-27.99Z"/>
    <g>
      <g>
        <path class="cls-3" d="M85.45,154.16h.03c1.13-.11,2.03,.12,2.71,.68,.75,.62,1.17,1.42,1.26,2.39,.09,.97-.17,1.83-.79,2.58-.56,.68-1.41,1.08-2.53,1.18h-.03s0,.01,0,.01l-.39,.04-.65-6.85,.39-.04h0Zm.04,.4l.57,6.05h.03c1.02-.1,1.77-.45,2.26-1.05,.55-.67,.79-1.43,.7-2.29-.08-.86-.45-1.57-1.12-2.12-.6-.49-1.4-.69-2.42-.6h-.03Z"/>
        <path class="cls-3" d="M98.87,153.14l.04,.39-3.03,.35,.32,2.84,3.03-.35,.04,.38-3.03,.35,.32,2.84,3.03-.35,.04,.39-3.42,.39-.78-6.84,3.42-.39Z"/>
        <path class="cls-3" d="M106.04,159.15l-1.17-6.78,.38-.07,1.1,6.4,2.63-.45,.07,.38-3.01,.52Z"/>
        <path class="cls-3" d="M123.23,153.63l.37,.12c-.36,.83-.95,1.44-1.78,1.81-.89,.4-1.79,.43-2.7,.09-.91-.34-1.56-.96-1.97-1.85-.4-.89-.43-1.78-.09-2.69,.34-.91,.96-1.57,1.85-1.97,.83-.37,1.67-.42,2.54-.14l-.16,.36c-.75-.23-1.49-.19-2.22,.14-.79,.36-1.33,.94-1.64,1.75-.31,.81-.28,1.61,.08,2.39,.36,.79,.94,1.34,1.75,1.64,.81,.31,1.61,.28,2.39-.08,.72-.33,1.25-.85,1.57-1.57Z"/>
        <path class="cls-3" d="M131.84,144.29c.9,.38,1.53,1.03,1.89,1.93,.36,.9,.36,1.81-.03,2.7-.38,.9-1.03,1.53-1.93,1.89-.9,.36-1.81,.36-2.7-.03-.9-.38-1.53-1.03-1.89-1.93-.36-.9-.36-1.81,.03-2.7,.38-.9,1.03-1.53,1.93-1.89,.9-.36,1.81-.36,2.7,.03Zm-2.56,.34c-.8,.32-1.37,.88-1.71,1.68-.34,.8-.35,1.6-.02,2.4,.32,.8,.88,1.38,1.68,1.72,.8,.34,1.6,.35,2.4,.03,.8-.32,1.37-.88,1.71-1.68,.34-.8,.35-1.6,.02-2.4-.32-.8-.88-1.37-1.68-1.71-.8-.34-1.6-.35-2.4-.02Z"/>
        <path class="cls-3" d="M140.71,145.1l-3.71-5.8,.33-.21,3.5,5.47,2.25-1.44,.21,.33-2.57,1.64Z"/>
        <path class="cls-3" d="M149.68,131.43c.9,.38,1.53,1.02,1.89,1.93,.36,.9,.36,1.81-.03,2.7-.38,.9-1.03,1.53-1.93,1.89-.9,.36-1.81,.36-2.7-.03-.9-.38-1.53-1.03-1.89-1.93-.36-.9-.36-1.81,.03-2.7,.38-.9,1.03-1.53,1.93-1.89,.9-.36,1.81-.36,2.7,.03Zm-2.56,.34c-.8,.32-1.37,.88-1.71,1.68-.34,.8-.35,1.6-.02,2.4,.32,.8,.88,1.38,1.68,1.72,.8,.34,1.6,.35,2.4,.03,.8-.32,1.37-.88,1.71-1.68,.34-.8,.35-1.6,.02-2.4-.32-.8-.88-1.37-1.68-1.71-.8-.34-1.6-.35-2.4-.02Z"/>
        <path class="cls-3" d="M157.04,128.19s-.05,.05-.08,.08l-.88,.77,1.57,1.8-.29,.26-4.54-5.18,1.36-1.19c.44-.29,.92-.42,1.44-.39,.62,.04,1.13,.29,1.54,.76,.41,.47,.6,1.01,.55,1.63-.03,.43-.16,.81-.39,1.14l2.81,.79-.36,.31-2.73-.79Zm-3.67-2.23l2.45,2.79,.88-.77c.38-.34,.59-.76,.63-1.27s-.12-.96-.46-1.35c-.34-.39-.76-.6-1.27-.63-.51-.03-.96,.12-1.34,.46l-.88,.77Z"/>
      </g>
      <g>
        <path class="cls-2" d="M23.7,97.66c-.13,.3-.26,.61-.37,.92,.1-.37,.22-.67,.37-.92Z"/>
        <path class="cls-2" d="M155.18,109.85c-.77,3.36-3.66,5.96-7.36,6.21,.51,1.65,.97,3.34,1,5.06s-.38,3.51-1.46,4.86c-1.39,1.73-3.7,2.52-5.92,2.57s-4.4-.55-6.54-1.14c-.48,3.06-1.32,5.83-4.01,7.69-2.17,1.51-4.61,1.75-7.16,1.41-2.75-.37-2.4,1.18-3.97,3.11-1.57,1.93-3.58,3.4-6.02,3.95-4.31,.99-8.01-.68-11.17-3.43-1.49,1.95-3.21,3.71-5.43,4.82-4.58,2.3-10.24,.84-12.76-3.74,0,.46-.54,.69-.99,.77-1.33,.26-3.37-.4-4.5-.03-1.07,.35-2.38,2.27-3.4,2.97-2.53,1.72-5.77,2.85-8.78,1.74-1.55-.57-2.84-2.27-4.52-2.42-.88-.08-1.71,.34-2.51,.71-2.64,1.23-6.18,2.31-8.78,.41-2.27-1.67-3.1-4.65-4.45-6.99-.08-.14-.17-.29-.32-.37-.12-.06-.26-.06-.4-.06-1.47,.03-2.95,.12-4.41-.02s-3.24-1.18-4.62-1.18c-.71-.32-6.21-4.84-4.96-5.72-1.38,.96-3.15,1.22-4.82,1.05-4.47-.47-8.81-2.94-12.6-5.2-1.18-.71-2.35-1.51-3.16-2.63-2.27-3.15-.51-6.58,1.69-9.14,3.86-4.46,8.11-8.63,9.88-14.42,.97-3.2,2.47-7.44,6.5-5.15,2.67,1.52,4.88,4.78,6.01,7.59,.11,.28,.23,.58,.47,.77,.26,.21,6.05,.13,5.81,.69,1.1-2.58,2.76-4.91,4.84-6.79,1.37-1.24,2.85-1.01,3.7,.72,1,2.03,.53,4.42,.45,6.68-.02,.68,0,1.39,.25,2.02,.91,2.24,4.19,3.08,6.4,2.83,1.99-.22,5.16-2.42,4.48-4.89-.03-.11-.05-.22-.08-.33-.41-2.04-.28-4.18,.52-6.11,1.16-2.79,3.54-5.3,3.31-8.32-.12-1.58-.96-3.24-.26-4.67,.52-1.07,1.73-1.58,2.85-2.01,2.08-.8,4.27-1.61,6.48-1.34,1.9,.23,3.8,1.53,4.3,3.3,.31,.53,.49,1.13,.49,1.76,0,1.01-.47,1.95-1.15,2.68-.76,.81-1.67,1.15-2.62,1.68-.2,.11-.39,.24-.52,.43-.53,.8,.3,1.94,.81,2.53s1.17,1.16,1.58,1.86c.13,.22,.24,.46,.46,.58,.26,.14,.59,.07,.83-.1,.49-.35,.69-.92,.82-1.48,.57-2.45,.78-4.98,1.31-7.44,.29-1.36,.61-2.79,1.52-3.85,1.51-1.76,4.57-1.84,6.17-.16,1.4,1.47,1.84,4.01,3.79,4.61-.81-2.91,1.42-6.27,4.41-6.67,3.23-.43,5.07,1.2,6.04,3.82,1.14,3.1,1.51,5.99,1.22,9.29-.29,3.28-.95,6.78,.43,9.91,.34,.77,.82,1.51,1.49,2.03,1.56,1.2,3.8,.97,5.61,.22,4.08-1.69,7.45-4.35,12.02-2.09-.91-2.03,.51-4.49,2.48-5.51s4.3-1,6.52-.94c3.34,.08,6.69,.16,10.03,.24,3.11,.07,6.4,.2,9.01,1.89,1.99,1.29,3.39,3.44,3.76,5.77,.17,1.08,.13,2.13-.1,3.11Z"/>
        <path class="cls-2" d="M34.92,102.27h0s0-.02-.02-.03l.02,.03Z"/>
        <path class="cls-2" d="M34.9,102.24l-.84-1.37c.31,.44,.59,.9,.84,1.37Z"/>
        <path class="cls-2" d="M35.71,103.97c-.27-.58-.57-1.14-.91-1.68h.12s0,0,0,0c.29,.55,.55,1.11,.78,1.69Z"/>
        <path class="cls-1" d="M78.04,109.98c-3.12,2.19-8.14,2.79-11.39,.38-.84-.62-1.41-1.56-1.79-2.62-1.06-2.09-1.19-5.02-.45-6.9,.23-.58,.49-1.16,.77-1.75,.67-1.93,1.44-4.39,1.51-5.74,.12-2.15,.42-4.26,.2-6.41-.04-.39-.06-.85,.25-1.08,.15-.11,.34-.14,.53-.17,2.35-.34,4.69-.68,7.04-1.02,.29-.04,.58-.08,.86-.03,.87,.16,1.49,1.18,1.85,1.9,.23,.44,.36,.94,.33,1.43-.13,2.16-2.94,1.75-4.39,1.8-.49,.73-.34,2.21-.41,3.07-.16,1.84,.1,2.16-.05,4.01,0,0,.6,.22,1.29,.54,.8,.16,1.72,.4,2.21,.73,.62,.42,.81,3.92,.11,4.17-.46,.16-2.51-.54-4.17-.68l-.07,1.28s4.28,.24,4.3,.24c.91,.05,2.23,.84,2.84,1.47,.36,.37,.55,.75,.61,1.13,.76,.98,.72,2.38-1.98,4.27Z"/>
        <path class="cls-1" d="M101.73,88.68c.06,.61,.05,1.23,.01,1.85-.19,3.17-.34,6.34-.51,9.51-.09,1.6-.18,3.2-.28,4.8-.09,1.41-.03,2.94-.48,4.29-.4,1.21-1.47,2.28-2.8,1.6-.62-.31-1.06-.89-1.42-1.47-1.54-2.48-2.36-5.5-3.39-8.22-.29-.75-.56-1.51-.86-2.25-.18-.47-.5-1.2-1.09-1.21-1.24-.04-1.09,3.35-1.11,4.01-.04,1.63-.15,3.27-.4,4.89-.18,1.18-.36,2.8-1.19,3.7-.18,.2-.4,.36-.63,.51-.78,.49-1.89,.65-2.65,.04-1.92-1.55-2.25-4.56-2.51-6.84-.34-2.99-.39-6.01-.3-9.02,.04-1.51,.12-3.01,.2-4.51,.08-1.34,.07-2.69,.81-3.87,.56-.89,1.55-1.56,2.59-1.5,.99,.06,1.84,.73,2.47,1.5,.9,1.1,1.47,2.42,1.93,3.76,.43,1.24,.62,2.89,1.36,3.99,.18,.27,.46,.49,.78,.52,.56,.05,1.03-.45,1.29-.89,1.15-1.9,.71-4.25,.77-6.35,.03-1.26,.17-3.02,1.42-3.71,2.11-1.18,4.88,1.29,5.59,3.15,.21,.56,.33,1.14,.38,1.74Z"/>
        <path class="cls-1" d="M51.02,117.77c-.71,2.88-.07,5.89-.77,8.78-.63,2.61-2.09,5.02-4.12,6.77-1.04,.9-2.32,1.66-3.7,1.61-1.95-.07-3.48-1.71-4.49-3.38-1.54-2.54-2.5-5.6-1.81-8.49,.4-1.68,1.33-3.21,1.59-4.92,.42-2.87-1.12-5.63-1.65-8.49-.17-.92-.19-1.98,.46-2.65,.7-.72,1.95-.65,2.78-.08s1.32,1.51,1.69,2.45c1.46,3.74,1.81,8.38,1.38,12.35-.05,.41-.1,.84,.05,1.22,.18,.46,.55,.79,1.08,.65,.29-.08,.53-.27,.74-.48,.69-.7,1.07-1.64,1.32-2.6,.8-3.12,.91-6.58,2.59-9.4,.39-.65,.94-1.31,1.69-1.43,1.33-.22,2.08,1.05,2.36,2.16,.42,1.69-.19,3.32-.82,4.87-.14,.35-.25,.7-.34,1.06Z"/>
        <path class="cls-1" d="M45.86,108.82c-.13-.02-.26-.08-.35-.18-.37-.36-.6-1.04-.72-1.53-.2-.82-.14-1.68,.04-2.5,.35-1.61,1.14-3.15,2.07-4.5,.64-.91,.99,.83,1.07,1.21,.17,.83,.22,1.68,.16,2.52-.13,1.68-.72,3.33-1.74,4.68-.08,.11-.17,.22-.3,.27-.07,.03-.15,.04-.23,.03Z"/>
        <path class="cls-1" d="M101.34,134.69c-.14,4.91-5.2,8.3-9.89,8-2.17-.13-3.54-1.27-4.37-2.84-2.73-3.47-.57-10.46-1.86-14.38-.03-.08-.05-.16-.08-.24,0,0,0,0,0,0-.3-.85-.73-1.68-1.08-2.52-.41-.98-.71-1.96-.61-3,.07-.75,.42-1.55,1.12-1.86,.96-.44,2.06,.23,2.74,1.03,.21,.25,.39,.51,.56,.77,.13,.2,.24,.41,.35,.62,.14,.28,.27,.57,.39,.86l.45,1.26,2.1,5.93c.23,.47,.47,.95,.73,1.4,.31,.55,.75,1.16,1.38,1.14,.39,0,.73-.27,1.02-.54,.88-.83,1.55-1.93,1.71-3.12,.23-1.75-.63-3.44-1-5.16-.23-1.08-.27-2.19-.11-3.28,.09-.64,.29-1.34,.85-1.67,.51-.3,1.18-.19,1.67,.15,.48,.33,.8,.86,1.04,1.4,.04,.09,.08,.19,.12,.28,1.05,1.69,1.03,4.8,1.1,6.15,.08,1.62-.02,3.28,.24,4.88,.02,.13,.05,.26,.08,.39,.1,.39,.25,.8,.42,1.22,.43,1.07,.96,2.17,.93,3.14Z"/>
        <path class="cls-1" d="M88.61,121.11c.16,.41,.31,.83,.45,1.26l-.45-1.26Z"/>
        <path class="cls-1" d="M100.41,131.54c-.17-.41-.32-.82-.42-1.22,.14,.41,.29,.81,.42,1.22Z"/>
        <path class="cls-1" d="M115.75,138.02c-1.28,.77-2.71,1.32-3.91,1.66-1.6,.45-3.36,.53-4.91-.08-2.27-.89-3.31-3.27-3.44-5.57-.17-3.09,.57-6.16,.37-9.25-.19-2.9-1.11-5.76-2.65-8.23-.43-.69-.99-1.5-.27-2.16,1.63-1.48,3.6-2.59,5.71-3.22,.87-.26,1.84-.43,2.67-.06,.72,.32,1.24,1.04,1.32,1.82,.09,.96-.49,1.96-1.42,2.29-.4,.14-.79,.36-1.02,.71-.33,.48-.46,.71-.29,1.26,.31,1.02,.76,1.99,1.25,2.92,.38,.72,.61,1.51,1.22,2.08,.1,.1,.22,.19,.36,.2,.18,.02,.34-.09,.49-.17,.75-.4,2.12-2.06,2.77-1.52s1.05,1.89,.97,2.74c-.06,.67,0,2.43-.43,2.94-.44,.52-1.88,.85-2.21,1.47-.39,.73-.61,1.57-.71,2.38-.05,.42-.05,.88,.19,1.22,.33,.45,.97,.53,1.54,.5,1.2-.06,2.41-.4,3.61-.13,1.55,.34,2.47,1.66,1.78,3.16-.58,1.27-1.82,2.33-2.99,3.04Z"/>
        <circle class="cls-5" cx="25.71" cy="117.96" r="1.53"/>
        <circle class="cls-5" cx="139.2" cy="107.54" r="1.26"/>
        <circle class="cls-4" cx="28.82" cy="105.35" r="1.08"/>
        <path class="cls-6" d="M71.18,130.6l2.01,.11s-.31-3.02,1.79-.85c0,0,2.09,1.06,.82-1.22s-4.33-3.4-4.33-3.4c0,0-.89,2.48-.29,5.36Z"/>
        <path class="cls-1" d="M133.66,120.09c-.04,.12-.08,.24-.12,.36-.99,3.07-1.41,6.53-3.02,9.36-1.34,2.35-3.44,4.3-6.07,5.07-1.11,.32-1.52-.02-1.93-1.01-.43-1.05-.84-2.1-1.31-3.13-.32-.74-.68-1.47-1.18-2.1-.52-.65-1.21-1.14-1.72-1.8-.46-.6-.77-1.31-1.02-2.02-.53-1.55-.7-3.18-1.05-4.78-.49-2.24-1.2-4.46-2.12-6.56-.35-.79-.72-1.57-1.12-2.34-.3-.57-1.16-1.5-.3-1.96,4.97-2.65,11.41,.61,15.93,2.8,1,.48,2,.98,2.89,1.65,2.08,1.56,2.93,3.97,2.12,6.47Z"/>
        <path class="cls-2" d="M123.06,116.62l1.25,4.08s5.06-2.13-1.25-4.08Z"/>
        <path class="cls-2" d="M35.9,104.41s-.02,0-.03,.01c-.05-.15-.11-.31-.17-.46,.07,.15,.13,.29,.2,.44Z"/>
        <g>
          <path class="cls-1" d="M34.97,122.12c-1.08,2.97-3.62,5.47-6.73,6.07-3.02,.58-6.08-.61-8.83-1.98-2.2-1.1-4.43-2.4-5.76-4.47-.16-.25-.31-.52-.36-.82-.27-.39-.46-.83-.38-1.29,0-.02,0-.05,.02-.07,.08-.33,.29-.62,.5-.9,3.4-4.52,6.8-9.04,10.2-13.56,.85-1.13,1.7-2.26,2.55-3.39,.44-.59,1.8-2.99,2.46-2.92,.69,.07,1.8,1.93,2.16,2.45,.66,.94,1.23,1.93,1.83,2.91,.26,.42,.52,.87,.67,1.34h0c.39,.75,.65,1.55,.4,2.32-.37,1.11-1.57,1.57-2.76,1.8,1.55,1,3.01,2.14,3.8,3.78,.07,.13,.12,.27,.18,.41,.22,.38,.39,.8,.52,1.27,.59,2.23,.3,4.88-.47,7.03Z"/>
          <path class="cls-1" d="M37.68,115.22c-.11-.31-.23-.67-.33-1.06,.13,.35,.24,.7,.33,1.06Z"/>
          <path class="cls-1" d="M59.89,120.02c.07,.1,.14,.21,.2,.31,1.63,2.54,2.42,5.56,3.62,8.31,.72,1.65,1.31,3.44,1.07,5.22-.16,1.22-.69,2.35-1.25,3.45-1.16,2.3-2.49,3.82-5.1,4.26-2.38,.4-4.31,.78-6.23-.99-1.12-1.03-2.1-2.44-2.73-3.82-.74-1.62,.47-3.07,1.89-3.78,.94-.47,2.01-.64,3.06-.67,.69-.02,1.45,0,1.97-.45,.55-.47,.63-1.3,.49-2.02-.46-2.37-1.19-4.72-1.78-7.06-.47-1.85-1.26-3.65-1.63-5.5-.25-1.26,.2-2.45,1.17-3.27,.67-.57,1.5-.92,2.33-1.21,2.04-.7,4.2-1.01,6.35-.94,.27,0,.55,.03,.78,.16,1.02,.58,.63,4.42-.31,4.98-.15,.09-.34,.09-.51,.08-.7-.03-1.39-.21-2.09-.17-1.21,.07-2.2,1.01-1.74,2.27,.11,.29,.27,.56,.44,.82Z"/>
          <path class="cls-1" d="M81.52,133.62c-.06,.22,.26,.79,.33,1,.23,.75,.37,1.54,.41,2.32,0,.21,0,.44-.12,.61-.25,.34-.79,.21-1.16,.02-.8-.41-1.52-.97-2.11-1.65-.23,.54-.58,1.01-.94,1.48-1.52,2.02-3.37,4.59-6.08,4.88-1.5,.16-3.09-.38-4.28-1.29-.93-.71-1.65-1.73-1.86-2.88-.46-2.62,1.32-5.14,1.51-7.71,.25-3.34-1.79-6.4-2.43-9.69-.54-2.78,1.07-5.63,4.15-5.61,1.15,0,2.23,.47,3.24,.98s2.05,.69,3.07,1.08c1.05,.4,1.95,1.02,2.83,1.7,1.89,1.45,3.44,3.32,4.72,5.33,.32,.5,.41,1.1,.62,1.64,.55,1.42,1.01,2.8,.73,4.35-.21,1.16-.86,2.25-1.83,2.95-.15,.11-.72,.31-.79,.47,0,0,0,.01,0,.02Z"/>
          <path class="cls-1" d="M84.06,122.7c.35,.84,.77,1.67,1.08,2.52-.37-.8-.8-1.7-1.08-2.52Z"/>
          <path class="cls-1" d="M88.36,120.41l.25,.7c-.12-.29-.25-.58-.39-.86,.05,.05,.1,.1,.14,.15Z"/>
          <path class="cls-1" d="M151.36,110.71c-.31,.67-.77,1.39-1.38,1.83-.33,.24-.75,.38-1.14,.28-.43-.1-.74-.45-1.04-.78-.32-.35-1.48-1.85-1.98-1.83-.25,.01-.85,.78-1.04,.96-.5,.47-1.26,.7-1.1,1.53,.08,.4,.32,.75,.54,1.1,1.01,1.62,1.43,3.59,1.22,5.48-.16,1.43-.53,3-1.57,4.05-1.18,1.19-3.16,1.5-4.77,1.46-.76-.02-1.54-.21-2.11-.71-.77-.67-1.01-1.76-1.05-2.78-.08-2.08,.52-4.11,.4-6.18-.06-1.13-.33-2.31-.96-3.27s-1.7-1.64-2.59-2.36c-1.22-.98-2.51-1.87-3.73-2.86-1.13-.91-2.49-2.64-1.93-4.19,1-2.79,5.16-1.73,7.26-1.34,3.34,.62,6.71,1.45,10.13,1.18,1.07-.08,2.14-.28,3.2-.15,2.28,.26,3.62,2.55,4.08,4.61,.3,1.35,.13,2.74-.45,3.97Z"/>
          <path class="cls-2" d="M27.74,116.83c-.05,.84-1.59,3.67-2.43,3.62s-3.71-1.07-3.66-1.91,2.56-4.42,3.4-4.38,2.74,1.82,2.7,2.66Z"/>
          <path class="cls-2" d="M140.82,108.46c-.04,.69-.63,1.23-1.33,1.19s-3.16-2.67-3.12-3.37,3.4-.42,4.09-.39,.4,1.87,.36,2.56Z"/>
          <path class="cls-2" d="M30.26,106.26c-.03,.59-1.52,2.46-2.11,2.42s-1.66-.81-1.63-1.41,2.12-2.19,2.72-2.15,1.05,.54,1.02,1.13Z"/>
          <path class="cls-2" d="M72.44,131.49c.3,.02,.6-.09,.82-.31,.45-.45,.42-1.69,1.38-1.1,.36,.22,1.64,1.55,1.87,.51,.05-.24-.04-.49-.14-.72-.44-.99-1.11-1.88-1.93-2.6-.33-.29-.69-.56-1.11-.7-1.03-.34-1.72,.29-1.89,1.26-.17,.94-.45,2.57,.3,3.34,.19,.2,.45,.3,.7,.32Z"/>
          <path class="cls-2" d="M123.42,117.47l1.25,4.08s5.06-2.13-1.25-4.08Z"/>
        </g>
      </g>
    </g>
  </g>
</svg>