<?xml version="1.0" encoding="UTF-8"?>
<svg id="Capa_2" data-name="Capa 2" xmlns="http://www.w3.org/2000/svg" viewBox="0 0 300.05 325.52">
  <defs>
    <style>
      .cls-1 {
        fill: #939393;
      }

      .cls-2 {
        fill: #fff;
      }

      .cls-3 {
        fill: #bbbbbc;
      }

      .cls-4 {
        fill: #eee;
      }

      .cls-5 {
        fill: #070809;
      }
    </style>
  </defs>
  <g id="Capa_1-2" data-name="Capa 1">
    <g id="Capa_1-2" data-name="Capa 1-2">
      <g>
        <path class="cls-5" d="M290.63,325.31c-86.65,.05-173.31,.16-259.96,.21-24-2.4-30.08-19.44-30.24-38.73C-.12,205.12-.17,123.39,.43,41.72,.59,17.63,13.68,1.55,39.09,1.23,119.39,.16,199.63,.27,279.93,0c14.71,0,19.98,9.03,20.03,21.95,.11,75.59,.11,151.17,0,226.81,0,12.5,.11,22.65-19.22,23.13-11.35,.27-11.89-.48-11.89,16.4,0,13.03,3.09,11.16,12,12.13,17.7,1.87,18.84,11.86,9.83,24.95l-.05-.05Z"/>
        <path class="cls-4" d="M281.94,135.04c0,32.96-.92,66.02,.38,98.93,.65,16.35-5.16,21.05-20.79,20.94-65.21-.43-130.47-.27-195.68,.21-12.54,.11-16.94-4.11-16.89-16.51,.43-68.59,.43-137.12,0-205.71-.11-12.45,3.8-16.51,16.56-16.4,67,.59,134,.75,201,.16,13.68-.11,15.91,5.18,15.69,16.83-.6,33.87-.22,67.68-.22,101.55h-.05Z"/>
        <path class="cls-2" d="M148.87,300.31c-27.26,0-54.57,.43-81.82-.27-6.79-.16-18.62,5.4-19.55-5.72-.81-10.2,6.03-19.87,18.13-21.95,6.84-1.18,14.01-.75,21.07-.75H234.54c10.15,0,20.58-3.1,19.93,14.74-.65,17.63-11.29,13.84-21.07,13.89-28.18,.16-56.3,.05-84.48,.05h-.05Z"/>
        <path class="cls-1" d="M36.32,18.22c0,75.96-.16,149.46,.16,222.91,0,9.72-1.36,20.14-12.54,18.22-8.85-1.5-7.11-11.59-7.17-17.2-.65-63.99-.38-127.99-.38-192.03,0-13.09,0-26.17,19.93-31.89Z"/>
        <path class="cls-3" d="M167.33,95.62c-24.7,0-49.41-1.07-74,.32-20.25,1.18-21.12-10.2-19.98-24.47,.98-12.66-5.65-28.79,18.62-28.31,51.09,1.01,102.24,1.01,153.38,0,24.27-.48,17.65,15.65,18.62,28.31,1.14,14.26,.33,25.59-19.98,24.47-25.46-1.39-51.09-.32-76.66-.32Z"/>
      </g>
    </g>
  </g>
</svg>