<?xml version="1.0" encoding="UTF-8"?>
<svg id="Capa_2" data-name="Capa 2" xmlns="http://www.w3.org/2000/svg" viewBox="0 0 255 336">
  <defs>
    <style>
      .cls-1 {
        fill: #acacad;
      }
    </style>
  </defs>
  <g id="Capa_1-2" data-name="Capa 1">
    <g>
      <g>
        <rect class="cls-1" x="8" y="8" width="104" height="320" rx="39.53" ry="39.53"/>
        <path d="M72.47,336h-24.94c-26.21,0-47.53-21.32-47.53-47.53V47.53C0,21.32,21.32,0,47.53,0h24.94c26.21,0,47.53,21.32,47.53,47.53v240.94c0,26.21-21.32,47.53-47.53,47.53ZM47.53,16c-17.39,0-31.53,14.14-31.53,31.53v240.94c0,17.39,14.14,31.53,31.53,31.53h24.94c17.39,0,31.53-14.14,31.53-31.53V47.53c0-17.39-14.14-31.53-31.53-31.53h-24.94Z"/>
      </g>
      <g>
        <rect class="cls-1" x="143" y="8" width="104" height="320" rx="39.53" ry="39.53"/>
        <path d="M207.47,336h-24.94c-26.21,0-47.53-21.32-47.53-47.53V47.53c0-26.21,21.32-47.53,47.53-47.53h24.94c26.21,0,47.53,21.32,47.53,47.53v240.94c0,26.21-21.32,47.53-47.53,47.53ZM182.53,16c-17.39,0-31.53,14.14-31.53,31.53v240.94c0,17.39,14.14,31.53,31.53,31.53h24.94c17.39,0,31.53-14.14,31.53-31.53V47.53c0-17.39-14.14-31.53-31.53-31.53h-24.94Z"/>
      </g>
    </g>
  </g>
</svg>