<?xml version="1.0" encoding="UTF-8"?>
<svg id="Capa_2" data-name="Capa 2" xmlns="http://www.w3.org/2000/svg" viewBox="0 0 406.44 315.29">
  <defs>
    <style>
      .cls-1 {
        fill: #939393;
      }

      .cls-2 {
        fill: #bbbbbc;
      }
    </style>
  </defs>
  <g id="Capa_1-2" data-name="Capa 1">
    <g>
      <path d="M406.39,174.71c-.8,5.98-1.49,11.95-2.35,17.88-6.35,43.39-23.59,81.92-51.61,115.59-6.99,8.38-17.61,9.39-25.78,2.88-9.82-7.84-11.9-18.25-4.96-27.43,8.81-11.63,17.29-23.37,23.96-36.45,10.19-20.07,16.86-41.2,19.64-63.45,5.44-43.71-3.04-84.64-25.67-122.42-5.92-9.93-13.72-18.68-20.23-28.28-2.29-3.36-4.38-7.42-4.91-11.42-1.07-8.06,5.34-17.08,13.34-20.28,7.47-3.04,15.64-.75,21.51,6.08,28.76,33.41,47.07,71.67,54.06,115.27,1.17,7.47,2.03,15.05,3.04,22.52v29.46l-.05,.05Z"/>
      <g>
        <path class="cls-1" d="M208.19,159.92v118.9c0,10.14-4.06,16.65-12.11,19.53-6.88,2.45-12.91,.69-18.36-3.79-14.41-11.95-28.82-23.85-43.23-35.81-17.18-14.25-34.31-28.55-51.61-42.69-1.71-1.39-4.32-2.29-6.51-2.35-15.37-.21-30.74-.48-46.06,0-13.93,.43-21.03-9.93-20.76-20.55,.53-22.68,.16-45.41,.16-68.15,0-11.79,7.47-19.21,19.37-19.21,15.9,0,31.75,.05,47.66-.11,1.97,0,4.32-.85,5.87-2.08,30.95-25.51,61.85-51.12,92.7-76.79,6.24-5.23,12.81-8.81,21.19-5.5,6.67,2.61,10.57,7.58,11.47,14.73,.27,2.03,.21,4.11,.21,6.19v117.67Z"/>
        <path d="M189.93,309.02c-5.47,0-11.79-1.73-18.28-7.08-7.24-6.01-14.45-11.98-21.66-17.95-7.2-5.96-14.39-11.91-21.59-17.89-4.29-3.56-8.57-7.12-12.86-10.68-12.63-10.49-25.69-21.34-38.61-31.91-.19-.11-.58-.24-.79-.26l-2.97-.04c-14-.2-28.47-.4-42.54,.04-8.77,.27-16.4-2.56-22.06-8.19C2.91,209.46-.2,201.39,.01,192.93c.37-15.91,.3-32.21,.22-47.97-.03-6.53-.06-13.29-.06-19.94,0-8.39,2.78-15.59,8.05-20.81,5.25-5.2,12.46-7.95,20.88-7.95,3.18,0,6.37,0,9.55,0,12.43,0,25.28,.02,37.91-.11,.06-.02,.14-.05,.2-.08,28.91-23.83,59.16-48.89,92.45-76.59,4.24-3.55,15.58-13.05,30.8-7.04,9.89,3.88,16.09,11.83,17.44,22.39,.31,2.37,.3,4.59,.29,6.56v.86s0,236.57,0,236.57c0,14.14-6.55,24.27-18.45,28.53-2.64,.94-5.82,1.67-9.36,1.67ZM49.31,203.9c8.11,0,16.19,.11,24.12,.23l3.17,.05c4.38,.11,8.98,1.78,12.3,4.48,13.03,10.66,26.14,21.55,38.83,32.09,4.28,3.56,8.56,7.11,12.85,10.67,7.19,5.97,14.38,11.92,21.58,17.87,7.22,5.97,14.44,11.95,21.65,17.94,3.77,3.11,6.35,3.11,9.05,2.14,2.79-1,5.77-2.72,5.77-10.54V41.32c0-1.5,.01-2.92-.13-4.01v-.04c-.47-3.65-2.06-5.69-5.49-7.04-2.66-1.05-5.18-1.42-11.57,3.93-33.42,27.81-63.75,52.94-92.76,76.84l-.14,.11c-3.26,2.59-7.65,4.13-11.74,4.15-12.76,.13-25.69,.12-38.18,.11-3.18,0-6.35,0-9.53,0-6.61,0-9.82,3.16-9.82,9.66s.03,13.34,.06,19.85c.08,15.89,.15,32.32-.23,48.52-.08,3.25,.98,6.2,2.92,8.13,1.87,1.86,4.56,2.75,8,2.65,6.41-.2,12.86-.27,19.29-.27Z"/>
      </g>
      <path d="M319.46,159.55c-.37,31.7-9.77,60.3-28.5,85.87-6.14,8.33-16.86,10.25-25.03,4.75-10.19-6.88-13.5-17.88-7.42-27,7.58-11.31,14.3-23,17.56-36.34,7.84-32.07,2.72-61.8-16.54-88.91-2.51-3.52-5.18-7.26-6.4-11.26-2.67-8.54,2.4-18.04,11.31-22.68,7.79-4.06,16.76-2.29,22.57,4.91,17.24,21.35,27.86,45.57,31.01,72.95,.69,5.87,.96,11.79,1.44,17.72Z"/>
      <path class="cls-2" d="M198.6,79.96l-2.39,3.15c-32.52,42.82-34.32,101.54-4.47,146.26l6.86,10.28"/>
    </g>
  </g>
</svg>