<?xml version="1.0" encoding="UTF-8"?>
<svg id="Capa_2" data-name="Capa 2" xmlns="http://www.w3.org/2000/svg" viewBox="0 0 392.1 320.4">
  <defs>
    <style>
      .cls-1 {
        fill: #939393;
      }

      .cls-1, .cls-2 {
        stroke: #000;
        stroke-miterlimit: 10;
        stroke-width: 7px;
      }

      .cls-3 {
        fill: #eee;
      }

      .cls-2 {
        fill: #bbbbbc;
      }
    </style>
  </defs>
  <g id="Capa_1-2" data-name="Capa 1">
    <g>
      <path d="M195.98,320.4c-54.23,0-108.46,0-162.69,0-15.7,0-28.76-10.31-32.34-25.61-.6-2.55-.91-5.24-.92-7.86C0,202.44-.01,117.95,.02,33.46,.03,14.94,14.46,.13,32.61,.05c26.13-.1,52.25-.03,78.38-.03,82.45,0,164.91,0,247.36,0,14.67,0,26.75,8.3,31.68,21.72,1.51,4.13,2.08,8.39,2.08,12.79-.02,68.46-.02,136.93-.02,205.39,0,15.59,.02,31.17,0,46.76-.03,16.29-10.66,29.71-26.24,33.03-2.45,.52-5.02,.65-7.54,.65-54.1,.04-108.21,.03-162.31,.03Zm.04-26.64c53.79,0,107.59,0,161.38,0,.74,0,1.49,.03,2.22-.03,3.53-.31,6.03-2.89,6.32-6.5,.05-.69,.03-1.39,.03-2.08,0-83.29,0-166.58,0-249.87,0-.94,0-1.9-.14-2.83-.41-2.83-2.55-5.08-5.32-5.57-.9-.16-1.84-.18-2.76-.18-107.77,0-215.55,0-323.32,0-.98,0-1.99,.02-2.95,.2-2.88,.54-5.04,3.06-5.26,6.04-.05,.69-.04,1.39-.04,2.08,0,83.48,0,166.96,0,250.44,0,.69,0,1.39,.04,2.08,.21,2.83,2.21,5.31,4.92,5.94,1.07,.25,2.2,.28,3.31,.28,53.86,.01,107.71,.01,161.57,.01Z"/>
      <path class="cls-3" d="M196.02,297.39c-56.53,0-113.05,0-169.58-.01-1.16,0-2.35-.03-3.47-.29-2.84-.65-4.94-3.19-5.17-6.1-.05-.71-.04-1.42-.04-2.14,0-85.75,0-171.51,0-257.26,0-.71-.01-1.43,.04-2.14,.23-3.06,2.5-5.64,5.52-6.2,1.01-.19,2.06-.21,3.09-.21,113.12,0,226.24,0,339.35,0,.97,0,1.95,.02,2.9,.18,2.91,.51,5.15,2.81,5.58,5.73,.14,.96,.15,1.94,.15,2.91,0,85.56,0,171.12,0,256.67,0,.71,.02,1.43-.04,2.14-.3,3.71-2.93,6.36-6.63,6.68-.77,.07-1.55,.03-2.33,.03-56.46,0-112.92,0-169.39,0Zm-150.88-27.63H346.95v-2.07c0-30.59,0-61.18,.03-91.77,0-1.41-.4-2.38-1.4-3.38-28.77-28.71-57.5-57.44-86.22-86.19-.49-.5-.75-1.23-1.28-2.13-37.07,37.1-73.56,73.62-110.22,110.31-11.41-11.42-22.76-22.78-34.14-34.17-.3,.27-.6,.51-.88,.78-22.23,22.22-44.47,44.44-66.66,66.7-.62,.63-.99,1.79-1,2.71-.06,12.38-.04,24.76-.04,37.14,0,.64,0,1.28,0,2.08Zm41.26-136.99c22.74-.07,41.21-18.62,41.09-41.27-.13-22.75-18.62-41.08-41.36-40.99-22.69,.09-41.09,18.65-40.98,41.36,.1,22.58,18.64,40.97,41.25,40.9Z"/>
      <path class="cls-2" d="M45.14,269.76c0-.8,0-1.44,0-2.08,0-12.38-.02-24.76,.04-37.14,0-.92,.37-2.08,1-2.71,22.19-22.27,44.43-44.48,66.66-66.7,.27-.27,.58-.51,.88-.78,11.38,11.39,22.73,22.75,34.14,34.17,36.65-36.68,73.15-73.21,110.22-110.31,.53,.9,.79,1.63,1.28,2.13,28.72,28.75,57.46,57.49,86.22,86.19,1,1,1.4,1.97,1.4,3.38-.04,30.59-.03,61.18-.03,91.77v2.07H45.14Z"/>
      <path class="cls-1" d="M86.4,132.78c-22.61,.06-41.15-18.32-41.25-40.9-.1-22.71,18.29-41.27,40.98-41.36,22.74-.09,41.23,18.25,41.36,40.99,.13,22.65-18.35,41.2-41.09,41.27Z"/>
    </g>
  </g>
</svg>