<?xml version="1.0" encoding="UTF-8"?>
<svg id="Capa_2" data-name="Capa 2" xmlns="http://www.w3.org/2000/svg" viewBox="0 0 399.23 359">
  <defs>
    <style>
      .cls-1 {
        fill: #f0f0f0;
      }

      .cls-2 {
        fill: #52170d;
      }
    </style>
  </defs>
  <g id="Capa_1-2" data-name="Capa 1">
    <g>
      <g>
        <path class="cls-1" d="M35.33,138.65s-28.14-3.31-28.97,27.73c-.83,31.04,0,116.69,0,116.69l9.1,27.73v16.97s7.03,25.24,42.21,25.24h21.52c6.21,0,12.83-1.24,19.04-3.31,12.41-4.14,31.86-12,31.86-17.38v-12s5.79-2.9,23.17-27.31c17.38-24.41,52.55-60,27.73-69.52-31.04-12-29.38-4.97-44.69,21.93v-103.04c0-7.45-2.48-14.9-7.03-20.69-4.97-6.21-12.41-10.76-20.69-.83-5.38,6.21-7.86,14.07-7.86,22.35v-21.1c0-7.45-2.48-14.9-7.03-20.69-4.97-6.21-12.41-10.76-20.69-.83-5.38,6.21-7.86,14.07-7.86,22.35v14.48c0-9.52-.41-21.52-8.28-26.9-2.48-1.66-12-2.9-16.55,2.9-4.55,5.79-4.97,18.62-4.97,26.48v83.59"/>
        <path d="M79.2,359h-21.52c-39.28,0-47.65-28.42-47.99-29.63l-.22-.79v-16.83L.37,284.05v-.93c-.02-.86-.83-86.12,0-116.91,.3-11.4,3.92-20.18,10.76-26.09,6.04-5.23,13.25-6.92,18.36-7.4,.4-8.58,1.79-17.54,6.1-23.03,6.58-8.38,19.67-7.47,24.6-4.18,.69,.47,1.33,.97,1.93,1.5,1.53-3.78,3.64-7.24,6.3-10.32,4.43-5.3,9.37-8.01,14.62-7.91,3.78,.04,9.51,1.61,15.33,8.88,3.9,4.96,6.52,10.85,7.68,17.1,3.89-3.83,8.08-5.73,12.59-5.7,3.78,.04,9.51,1.61,15.33,8.88,5.4,6.87,8.35,15.53,8.35,24.44v80.15c2.97-4.49,6.04-7.65,10.38-9.38,7.53-3.01,16.52-.66,30.48,4.74,7.84,3,10.73,8.12,11.78,11.88,3.94,14.18-11.22,33.6-25.88,52.37-3.98,5.09-7.74,9.91-10.9,14.34-11.54,16.21-18.36,23.49-22.06,26.76v9.07c0,5.15-4.37,9.5-14.63,14.54-8.08,3.98-17.61,7.29-21.34,8.53-7.1,2.37-14.34,3.62-20.93,3.62Zm-57.73-32.21c1.33,3.57,8.99,20.21,36.21,20.21h21.52c5.32,0,11.25-1.04,17.14-3,15.99-5.33,25.48-10.46,27.76-12.77v-15.15l3.17-1.09c1.12-.83,7.08-5.75,21.11-25.47,3.31-4.65,7.15-9.57,11.21-14.77,11.01-14.1,26.1-33.42,23.78-41.77-.18-.66-.67-2.42-4.53-3.9-12.18-4.71-18.46-6.09-21.71-4.8-3.2,1.28-6.08,6.62-10.44,14.69-1.3,2.4-2.74,5.08-4.39,8.01v2.14h-12v-106.76c0-6.14-2.1-12.33-5.75-16.98-2.18-2.72-4.39-4.32-6.04-4.33,0,0-.02,0-.03,0-1.97,0-4.16,2.28-5.29,3.64l-.08,.09c-4.18,4.83-6.4,11.2-6.4,18.42v85.66h-12V122.09c0-6.14-2.1-12.33-5.75-16.98-2.18-2.72-4.39-4.32-6.04-4.33-1.99,.02-4.18,2.27-5.32,3.64l-.08,.09c-4.18,4.83-6.4,11.2-6.4,18.42v95.59h-12v-81.11c0-8.65-.43-18.16-5.49-21.82-1.47-.6-6.63-1-8.62,1.53-1.68,2.14-3.68,7.83-3.68,22.78v83.59h-12v-78.67c-3.16,.45-7.18,1.6-10.42,4.44-4.13,3.62-6.34,9.43-6.55,17.28-.77,28.84-.09,106.17,0,115.55l9.11,27.75v16.96Z"/>
      </g>
      <g>
        <path class="cls-1" d="M363.48,223.48v-83.59c0-7.86,0-20.69-4.97-26.48-4.97-5.79-14.07-4.55-16.55-2.9-7.86,5.38-8.28,17.38-8.28,26.9v-14.48c0-8.28-2.48-16.14-7.86-22.35-8.28-9.93-15.72-5.38-20.69,.83-4.55,5.79-7.03,13.24-7.03,20.69v21.1c0-8.28-2.48-16.14-7.86-22.35-8.28-9.93-15.72-5.38-20.28,.83-4.55,5.79-7.03,13.24-7.03,20.69v103.04c-15.72-26.9-13.66-33.93-44.69-21.93-24.83,9.52,10.35,44.28,27.73,68.69,17.38,24.41,23.17,27.31,23.17,27.31v12c0,5.79,19.45,13.24,31.86,17.38,6.21,2.07,12.41,3.31,19.04,3.31h21.52c35.17,0,42.21-25.24,42.21-25.24v-16.97l9.1-27.73s.83-85.66,0-116.69c-.83-31.04-28.97-27.73-28.97-27.73"/>
        <path d="M341.55,358.17h-21.52c-6.78,0-13.62-1.18-20.93-3.62-31.61-10.54-35.97-17.32-35.97-23.07v-9.07c-3.7-3.26-10.53-10.55-22.06-26.76-3.28-4.61-7.21-9.59-11.37-14.87-15.05-19.09-29.26-37.12-25.43-51.02,1.03-3.75,3.92-8.86,11.81-11.89,13.79-5.33,22.67-7.68,30.09-4.83,4.53,1.74,7.66,5.03,10.75,9.75v-80.43c0-8.87,2.93-17.5,8.26-24.32,4.22-5.71,9.31-8.82,14.73-8.99,4.54-.15,8.88,1.77,12.86,5.69,1.16-6.24,3.77-12.13,7.64-17.05,5.85-7.31,11.58-8.88,15.36-8.92,.05,0,.1,0,.15,0,5.21,0,10.08,2.66,14.47,7.91,2.66,3.08,4.77,6.54,6.3,10.32,.59-.51,1.21-1,1.88-1.45,4.73-3.15,17.24-4.53,24.5,3.94,4.71,5.5,5.96,14.4,6.29,22.36,5.13,.43,12.55,2.07,18.74,7.43,6.83,5.92,10.45,14.69,10.76,26.09,.82,30.79,0,116.05,0,116.91v.93s-9.1,27.7-9.1,27.7v16.83l-.22,.79c-.34,1.21-8.71,29.63-47.99,29.63Zm-66.42-27.63c1.78,1.89,9.29,6.47,27.76,12.62,6.15,2.05,11.59,3,17.14,3h21.52c27.15,0,34.84-16.56,36.21-20.22v-16.95l9.11-27.75c.09-9.38,.76-86.7,0-115.55-.21-7.89-2.44-13.72-6.61-17.34-3.38-2.93-7.58-4.04-10.77-4.44v79.56h-12v-83.59c0-6,0-18.47-3.52-22.58-2.44-2.85-7.43-2.31-8.77-1.74-5.07,3.59-5.5,13.15-5.5,21.83v81.11h-12V122.92c0-7.22-2.21-13.59-6.4-18.42l-.08-.09c-1.13-1.36-3.33-3.64-5.29-3.64h-.03c-1.65,.02-3.86,1.61-6.08,4.38-3.62,4.61-5.72,10.8-5.72,16.94v106.76h-12v-85.66c0-7.22-2.21-13.59-6.4-18.42l-.08-.09c-1.99-2.39-3.87-3.72-5.34-3.64-1.55,.05-3.61,1.61-5.49,4.17l-.12,.16c-3.66,4.65-5.75,10.84-5.75,16.98v106.76h-12v-2.11c-1.83-3.17-3.41-6.04-4.82-8.62-4.29-7.81-7.13-12.97-10.24-14.16-3.2-1.23-9.42,.17-21.47,4.83-3.9,1.5-4.38,3.22-4.56,3.87-2.22,8.06,12.52,26.75,23.29,40.41,4.25,5.39,8.26,10.48,11.72,15.33,14.06,19.75,20.01,24.66,21.12,25.48l3.83,1.37-.67,3.95v11.07Z"/>
      </g>
      <g>
        <path class="cls-2" d="M110.23,46.37c-1.66,.83-3.31,2.07-4.14,3.72-3.31,4.55-2.07,9.93,.41,14.9,6.21,11.59,14.9,21.93,24,31.45,9.1,9.52,18.62,19.45,27.73,29.38,.41-2.9-.83-6.62-1.24-9.52-2.48-13.24-7.45-26.07-13.66-38.07-3.31-6.21-6.62-12-10.35-17.79-2.9-4.97-6.21-12.41-10.76-15.72-3.72-2.9-8.69,0-12,1.66Z"/>
        <path class="cls-2" d="M286.93,46.37c1.66,.83,3.31,2.07,4.14,3.72,3.31,4.55,2.48,9.93-.41,14.9-6.21,11.59-14.9,21.93-24,31.45-9.1,9.52-18.62,19.45-27.73,29.38-.41-2.9,.83-6.62,1.24-9.52,2.48-13.24,7.45-26.07,13.66-38.07,3.31-6.21,6.62-12,10.35-17.79,2.9-4.97,6.21-12.41,10.76-15.72,3.72-2.9,8.69,0,12,1.66Z"/>
        <path class="cls-2" d="M199.61,110.51c2.48-6.21,15.72-77.8,15.72-94.76S199.61,.02,199.61,.02c0,0-15.72-1.24-15.72,15.72s13.24,88.56,15.72,94.76Z"/>
        <path class="cls-2" d="M239.75,60.02c.83,.41,1.66,.83,2.48,1.24,2.07,2.07,2.07,4.55,1.24,7.45-2.07,6.21-4.97,12.41-8.69,17.79-3.72,5.38-7.03,11.59-10.76,17.38-.41-1.24,0-3.31-.41-4.97,0-6.62,1.24-13.66,2.9-19.86,.83-3.31,2.07-6.62,3.31-9.93,.83-2.48,1.66-6.62,3.72-8.69,1.66-2.07,4.55-.83,6.21-.41h0Z"/>
        <path class="cls-2" d="M161.13,60.02c-.83,.41-1.66,.83-2.48,1.24-2.07,2.07-2.07,4.55-1.24,7.45,2.07,6.21,4.97,12.41,8.69,17.79s7.03,11.59,10.76,17.38c.41-1.24,0-3.31,.41-4.97,0-6.62-1.24-13.66-2.9-19.86-.83-3.31-2.07-6.62-3.31-9.93-.83-2.48-1.66-6.62-3.72-8.69-1.66-2.07-4.55-.83-6.21-.41h0Z"/>
      </g>
    </g>
  </g>
</svg>