<?xml version="1.0" encoding="UTF-8"?>
<svg id="Capa_2" data-name="Capa 2" xmlns="http://www.w3.org/2000/svg" viewBox="0 0 338 321">
  <defs>
    <style>
      .cls-1 {
        fill: #fff;
      }

      .cls-2 {
        isolation: isolate;
      }

      .cls-3, .cls-4 {
        fill: #acacad;
      }

      .cls-4 {
        stroke: #acacad;
        stroke-miterlimit: 10;
        stroke-width: 6px;
      }

      .cls-5 {
        fill: #eee;
      }
    </style>
  </defs>
  <g id="Capa_1-2" data-name="Capa 1">
    <g>
      <g>
        <ellipse class="cls-5" cx="169" cy="160.5" rx="158.17" ry="150.22"/>
        <path d="M169,321c-22.81,0-44.95-4.24-65.78-12.61-20.12-8.08-38.2-19.66-53.72-34.39-15.52-14.74-27.7-31.9-36.22-51.02C4.47,203.18,0,182.16,0,160.5s4.47-42.68,13.28-62.48c8.51-19.11,20.7-36.28,36.22-51.02,15.52-14.74,33.59-26.31,53.72-34.39C124.05,4.24,146.19,0,169,0s44.95,4.24,65.78,12.61c20.13,8.08,38.2,19.66,53.72,34.39,15.52,14.74,27.7,31.9,36.22,51.02,8.81,19.79,13.28,40.81,13.28,62.48s-4.47,42.68-13.28,62.48c-8.51,19.11-20.7,36.28-36.22,51.02-15.52,14.74-33.59,26.31-53.72,34.39-20.84,8.37-42.97,12.61-65.78,12.61Zm0-305.76C84.66,15.24,16.05,80.41,16.05,160.5s68.61,145.26,152.95,145.26,152.95-65.16,152.95-145.26S253.34,15.24,169,15.24Z"/>
      </g>
      <g>
        <g class="cls-2">
          <path class="cls-1" d="M99.64,252.1h79.57l74.25-31.53V82.04c0-9.24-7.88-16.73-17.61-16.73H99.64c-9.73,0-17.61,7.49-17.61,16.73V235.37c0,9.24,7.88,16.73,17.61,16.73Z"/>
        </g>
        <g class="cls-2">
          <path class="cls-4" d="M179.88,253.25H100.1c-10.23,0-18.56-7.91-18.56-17.63V82.3c0-9.72,8.33-17.63,18.56-17.63H236.31c10.23,0,18.56,7.91,18.56,17.63V221.41l-1.55,.66v.18h-.42l-73.01,31.01Zm-96.44-31.01v13.38c0,8.73,7.47,15.82,16.66,15.82h79.37l68.77-29.2H83.44Zm0-1.8H252.49l.48-.21v-30.3H83.44v30.5Zm0-32.3H252.97v-30.3H83.44v30.3Zm0-32.1H252.97v-30.87H83.44v30.87Zm0-32.68H252.97v-30.3H83.44v30.3Zm0-32.1H252.97v-8.96c0-8.73-7.47-15.82-16.66-15.82H100.1c-9.19,0-16.66,7.1-16.66,15.82v8.96Z"/>
        </g>
        <g class="cls-2">
          <path class="cls-3" d="M178.61,252.1c1.81,0,77.87-29.81,77.87-29.81l-33.8-11.47-44.06,41.27Z"/>
        </g>
      </g>
    </g>
  </g>
</svg>