<?xml version="1.0" encoding="UTF-8"?>
<svg id="Capa_2" data-name="Capa 2" xmlns="http://www.w3.org/2000/svg" viewBox="0 0 269.86 302.57">
  <defs>
    <style>
      .cls-1 {
        fill: #acacad;
      }
    </style>
  </defs>
  <g id="Capa_1-2" data-name="Capa 1">
    <g>
      <path class="cls-1" d="M251.1,132.63L40.3,10.93C25.95,2.64,8,13,8,29.58v243.4c0,16.58,17.95,26.94,32.3,18.65l210.79-121.7c14.36-8.29,14.36-29.01,0-37.3Z"/>
      <path d="M29.53,302.57c-5.07,0-10.14-1.33-14.77-4-9.25-5.34-14.77-14.9-14.77-25.58V29.58C0,18.9,5.52,9.34,14.77,4c9.25-5.34,20.29-5.34,29.53,0L255.1,125.71c9.25,5.34,14.77,14.9,14.77,25.58s-5.52,20.24-14.77,25.58L44.3,298.56c-4.62,2.67-9.7,4-14.77,4Zm0-286.54c-2.32,0-4.65,.61-6.77,1.83-4.24,2.45-6.77,6.83-6.77,11.72v243.4c0,4.89,2.53,9.27,6.77,11.72,4.24,2.45,9.3,2.45,13.53,0l210.79-121.7c4.24-2.45,6.77-6.83,6.77-11.72s-2.53-9.27-6.77-11.72h0S36.3,17.86,36.3,17.86c-2.12-1.22-4.44-1.83-6.77-1.83Z"/>
    </g>
  </g>
</svg>