<?xml version="1.0" encoding="UTF-8"?>
<svg id="Capa_2" data-name="Capa 2" xmlns="http://www.w3.org/2000/svg" viewBox="0 0 172.53 108.42">
  <defs>
    <style>
      .cls-1 {
        fill: #4b1e0b;
      }
    </style>
  </defs>
  <g id="Capa_2-2" data-name="Capa 2">
    <g>
      <g>
        <path class="cls-1" d="M121.1,9.5c3.25,4.12,5.36,9.04,6.1,14.23,1.04-.36,2.08-.69,3.14-.95-.97-6.16-3.69-11.96-7.84-16.66-6.27,.39-12.3,2.59-17.35,6.27,.57,.93,1.08,1.9,1.55,2.88,4.2-3.16,9.18-5.16,14.41-5.78Z"/>
        <path class="cls-1" d="M148.69,45.17c5.2,.73,10.14,2.84,14.27,6.1-.61,5.21-2.6,10.18-5.74,14.37,.98,.48,1.95,.98,2.88,1.55,3.67-5.04,5.85-11.06,6.24-17.32-4.72-4.16-10.53-6.88-16.71-7.85-.17,.71-.36,1.42-.58,2.12-.11,.34-.24,.68-.36,1.02Z"/>
        <path class="cls-1" d="M172.53,80.83c-2.76-5.65-7.09-10.38-12.43-13.64-.64,.88-1.34,1.72-2.07,2.54,4.53,2.67,8.28,6.5,10.85,11.1-2.56,4.59-6.31,8.42-10.83,11.09,.73,.81,1.43,1.65,2.07,2.53,5.32-3.26,9.66-7.97,12.41-13.61Z"/>
        <path class="cls-1" d="M61.95,9.58c5.22,.61,10.19,2.6,14.39,5.75,.47-.99,.98-1.96,1.55-2.88-5.05-3.67-11.07-5.86-17.33-6.25-4.16,4.72-6.86,10.54-7.83,16.73,1.06,.25,2.1,.58,3.13,.94,.73-5.21,2.83-10.15,6.1-14.29Z"/>
        <path class="cls-1" d="M148.77,23.64c-5.95-2.04-12.36-2.32-18.43-.85,.1,.64,.18,1.29,.24,1.94,.02,.2,.03,.41,.05,.62,.02,.23,.04,.46,.06,.69,0,0-.01,0-.02,0h0s0,0,.02,0h0s.04,0,.06-.02c.47-.12,.95-.22,1.42-.31,.16-.03,.32-.07,.47-.11,.52-.09,1.04-.17,1.56-.24,.12-.02,.25-.04,.37-.05,.54-.06,1.08-.11,1.62-.14,.11,0,.21-.02,.32-.03,.54-.03,1.09-.04,1.64-.04,.11,0,.21,0,.31,0,.54,0,1.08,.03,1.62,.07,.11,0,.22,0,.33,.01,.52,.04,1.05,.11,1.57,.18,.12,.02,.25,.02,.37,.04,.52,.08,1.04,.17,1.55,.28,.12,.03,.25,.04,.37,.07,.64,.14,1.27,.29,1.9,.47,1.43,5.05,1.49,10.4,.19,15.48h0c1.09,.06,2.18,.16,3.25,.33,1.46-6.06,1.18-12.46-.86-18.39Z"/>
        <path class="cls-1" d="M91.53,0c-5.65,2.76-10.39,7.11-13.65,12.45h0c.88,.64,1.72,1.34,2.54,2.07h0c2.67-4.53,6.51-8.3,11.11-10.86,4.58,2.56,8.41,6.3,11.08,10.81,.82-.73,1.65-1.43,2.54-2.07-3.26-5.32-7.98-9.64-13.62-12.4Z"/>
        <path class="cls-1" d="M89.87,29.14c-.05-.17-.12-.34-.18-.52-.06-.18-.12-.36-.18-.54-.2-.56-.41-1.12-.64-1.68-1.95-4.71-4.89-8.71-8.46-11.89h0c-.82-.73-1.66-1.43-2.54-2.07-.57,.93-1.07,1.9-1.55,2.88h0c-1.43,2.97-2.44,6.19-2.92,9.58-.21,1.51-.32,3.04-.32,4.61,0,.6,.02,1.2,.06,1.79,.01,.2,.02,.4,.04,.6,.01,.18,.02,.37,.04,.55,0,0,0,0,.01,0h0c.08-.02,.15-.05,.23-.08,.32-.12,.64-.23,.97-.34,.41-.14,.82-.28,1.24-.42,.24-.08,.49-.15,.73-.23,.1-.03,.2-.06,.3-.1,.41-.12,.83-.24,1.24-.35,.35-.09,.69-.19,1.04-.28,.47-.12,.94-.22,1.42-.33,.3-.06,.59-.14,.89-.2,.74-.15,1.48-.28,2.23-.4,.31-.05,.62-.08,.92-.13,.49-.07,.98-.13,1.47-.19,.21-.02,.42-.04,.62-.06,.13-.02,.27-.03,.4-.04,.47-.04,.95-.08,1.43-.11,.34-.02,.68-.04,1.03-.06,.16,0,.32,0,.47-.01,0,0,0,0,0-.01,0,0,0,0,.01,0Z"/>
        <path class="cls-1" d="M68.21,31.61c-3.61-3.6-7.85-6.17-12.37-7.75-1.03-.36-2.07-.69-3.13-.94,0,0,0,0-.01,0-.04,.26-.06,.52-.1,.78-.05,.38-.1,.75-.14,1.13-.04,.37-.05,.74-.08,1.11-.02,.37-.05,.74-.06,1.12-.01,.38,0,.76,0,1.15,0,.36,0,.73,.01,1.1,.02,.4,.05,.8,.09,1.2,.03,.35,.05,.71,.08,1.06,.05,.42,.12,.84,.18,1.26,.05,.33,.09,.66,.15,1,.08,.45,.19,.9,.29,1.35,.07,.3,.12,.6,.2,.9,.13,.52,.29,1.04,.45,1.55,.07,.23,.13,.46,.2,.69,.25,.75,.52,1.49,.83,2.23,0,.02,.02,.03,.02,.05,.34,.82,.72,1.62,1.12,2.4,.04,.07,.07,.15,.1,.22,0,0,0,0,.01-.01,0,0,0,0,0,.01,.09-.08,.18-.17,.27-.26,.28-.26,.57-.51,.85-.77,.3-.26,.59-.52,.89-.77,.16-.14,.33-.27,.49-.41,.13-.11,.25-.21,.38-.32,.32-.26,.65-.51,.97-.76,.28-.22,.56-.44,.85-.65,.39-.29,.79-.57,1.19-.84,.23-.16,.46-.33,.7-.49,.62-.42,1.25-.82,1.9-1.22,.24-.14,.48-.28,.72-.42,.43-.26,.87-.51,1.31-.75,.28-.15,.56-.3,.84-.45,.42-.22,.83-.43,1.25-.64,.29-.14,.59-.28,.88-.42,.19-.09,.38-.19,.58-.28-.61-.73-1.26-1.44-1.95-2.13Z"/>
        <path class="cls-1" d="M106.69,15.28c-.48-.99-.98-1.96-1.55-2.88-.88,.64-1.72,1.34-2.54,2.07-3.56,3.18-6.49,7.17-8.43,11.88-.24,.57-.45,1.14-.65,1.72-.05,.15-.11,.31-.16,.46-.07,.2-.14,.41-.21,.61,0,0,.01,0,.02,0,0,0,0,.01,0,.02,.2,0,.4,0,.6,.01,.33,.01,.66,.03,.99,.05,.5,.03,1,.07,1.5,.11,.08,0,.15,.01,.23,.02,.24,.02,.47,.04,.71,.06,.58,.06,1.16,.14,1.73,.22,.22,.03,.44,.05,.66,.09,.77,.11,1.52,.25,2.27,.4,.29,.06,.59,.13,.88,.19,.48,.1,.96,.21,1.44,.33,.33,.08,.65,.17,.98,.26,.44,.12,.88,.25,1.32,.37,.06,.02,.11,.04,.17,.05,.26,.08,.53,.16,.8,.24,.45,.15,.9,.3,1.35,.46,.29,.1,.58,.2,.86,.3,.05,.02,.1,.04,.16,.06h0s0,0,.01,0c.01-.17,.02-.33,.03-.5,.01-.2,.03-.4,.04-.61,.03-.59,.05-1.17,.05-1.77h0c0-5.11-1.18-9.94-3.26-14.24Z"/>
        <path class="cls-1" d="M130.7,26.69c0-.22-.02-.43-.04-.65-.14,.04-.24,.06,0,0h0s.01,0,.02,0c-.01-.23-.04-.46-.06-.69v-.03c-.02-.19-.03-.38-.05-.57,0,0,0-.01,0-.02-.07-.65-.14-1.3-.24-1.94h0s0,0,0,0c-1.06,.26-2.1,.59-3.14,.95-.14,.05-.28,.11-.42,.16-.44,.16-.88,.32-1.31,.5-.25,.1-.49,.22-.73,.32-.34,.15-.67,.3-1.01,.46-.05,.02-.1,.04-.15,.07-.1,.05-.2,.11-.3,.17-.57,.28-1.12,.58-1.68,.91-.13,.08-.27,.16-.4,.23-1.39,.83-2.73,1.77-4,2.83-.01,0-.02,.02-.03,.03-.77,.64-1.52,1.31-2.25,2.03-.02,.01-.03,.03-.04,.04h0s0,0,0,0c-.62,.63-1.21,1.28-1.78,1.94,0,0,0,0,0,0-.07,.07-.14,.14-.2,.22,0,0,0,0,.01,0,0,0,0,0-.01,.01,.23,.11,.47,.21,.71,.32,.29,.13,.57,.27,.86,.41,.44,.21,.87,.44,1.3,.66,.05,.03,.09,.05,.13,.07h0c.22,.12,.45,.23,.66,.35,.5,.28,1,.56,1.49,.85,.28,.17,.57,.34,.86,.52,.53,.33,1.05,.66,1.56,1,.29,.2,.58,.4,.87,.61,.34,.24,.68,.48,1.02,.72,.31,.23,.61,.46,.92,.7,.3,.24,.61,.47,.91,.71,.11,.09,.22,.18,.32,.27,.2,.16,.39,.32,.59,.49,.29,.25,.57,.49,.85,.74,.3,.26,.59,.52,.88,.79,.06,.06,.13,.11,.19,.17,.04-.08,.09-.17,.13-.25,.39-.77,.76-1.55,1.09-2.35,.27-.66,.52-1.33,.75-2,.08-.24,.15-.47,.22-.7,.14-.44,.27-.88,.39-1.32,.07-.27,.14-.54,.21-.81,.1-.42,.19-.84,.28-1.27,.05-.26,.11-.53,.16-.79,.08-.48,.15-.97,.22-1.45,.02-.2,.06-.39,.08-.59,.07-.66,.13-1.33,.16-1.99,.01-.22,0-.45,.02-.67,.01-.46,.02-.92,.02-1.38,0-.26-.01-.53-.02-.79Zm-14.83,8.44h0s-.01-.02,0,0t0,0Z"/>
        <path class="cls-1" d="M146.37,41.7h0c-4.76-.27-9.66,.49-14.36,2.44-.82,.34-1.6,.72-2.38,1.11-.09,.05-.19,.09-.28,.13,0,0,0,0,.01,.01,0,0-.01,0-.01,0,.12,.12,.23,.24,.34,.36,.23,.25,.46,.51,.69,.76,.29,.33,.58,.66,.86,.99,.11,.13,.21,.25,.32,.38,.11,.14,.22,.27,.34,.4,.29,.35,.56,.71,.84,1.07,.2,.26,.4,.51,.59,.77,.34,.46,.66,.92,.99,1.39,.2,.29,.39,.57,.58,.86,.34,.51,.66,1.02,.98,1.53,.17,.28,.33,.56,.49,.84,.23,.4,.46,.79,.68,1.19,.09,.17,.19,.35,.28,.52,.07,.13,.14,.26,.21,.39,.2,.39,.41,.78,.6,1.18,.15,.31,.3,.61,.45,.92,.08,.16,.15,.33,.22,.49,0,0,0,0,0,0,0,0,0,0,0,0,.06-.05,.12-.11,.18-.16,.65-.56,1.29-1.14,1.91-1.75,.45-.45,.88-.91,1.29-1.38-.42,.47-.84,.93-1.29,1.38,.97-.97,1.85-1.99,2.67-3.04,2.25-2.87,3.94-6.03,5.09-9.33,.12-.35,.25-.68,.36-1.02,.22-.7,.41-1.4,.58-2.12-1.08-.17-2.16-.27-3.25-.33Z"/>
        <path class="cls-1" d="M157.21,65.64c-4.3-2.07-9.11-3.24-14.2-3.24-.6,0-1.19,.02-1.78,.06-.2,0-.4,.02-.6,.04-.17,.01-.34,.02-.51,.03,0,0,0,0,0,.01,0,0,0,0-.01,0,.03,.08,.07,.16,.1,.24,.13,.36,.26,.71,.38,1.07,.13,.38,.26,.76,.38,1.14,.07,.23,.15,.47,.22,.7,.04,.13,.08,.26,.12,.39,.12,.39,.22,.78,.33,1.17,.1,.36,.2,.72,.29,1.09,.11,.44,.21,.9,.31,1.35,.12,.54,.23,1.09,.33,1.64,.09,.49,.19,.98,.26,1.48,.06,.38,.11,.77,.16,1.15,.06,.41,.11,.81,.15,1.22,.02,.21,.04,.41,.06,.62,.02,.19,.04,.39,.06,.58,.03,.4,.06,.81,.09,1.22,.03,.4,.05,.8,.07,1.2,0,.11,0,.22,0,.33,0,0,0,0,0,0,0,0,0,0,0,.01,.15-.05,.3-.1,.45-.15,.17-.06,.35-.11,.52-.17,.56-.2,1.12-.41,1.68-.63,4.72-1.96,8.72-4.9,11.91-8.46,.73-.82,1.43-1.66,2.07-2.54-.93-.57-1.9-1.07-2.88-1.55Z"/>
        <path class="cls-1" d="M160.11,94.44c-.64-.88-1.34-1.71-2.07-2.53-3.18-3.55-7.17-6.47-11.87-8.42-.89-.37-1.8-.7-2.7-.99,0,0,0,0-.01,0-.13,4.48-.86,9.01-2.2,13.46-.32,1.06-.67,2.12-1.06,3.17,0,0,0,.01,0,.02,.02,0,.04,0,.05,0,.91,.08,1.83,.12,2.75,.12,4.06,0,7.93-.74,11.52-2.09,0,0,.01,0,.02,0,.7-.26,1.38-.54,2.05-.85,.07-.03,.14-.07,.21-.1,.6-.28,1.2-.58,1.79-.9,.11-.06,.22-.12,.33-.19,.4-.22,.81-.44,1.2-.69,0,0,0-.01-.01-.01Z"/>
      </g>
      <g>
        <path class="cls-1" d="M0,106.73l1.61-1.73c.54,.49,1.03,.95,1.98,.95,1.16,0,1.9-.7,1.9-2.61v-21.19h2.89v21.15c0,3.39-1.86,5.13-4.59,5.13-1.82,0-3.02-.83-3.8-1.69m4.88-31.56c0-1.2,.99-2.06,2.06-2.06s2.07,.87,2.07,2.06-.99,2.03-2.07,2.03-2.06-.83-2.06-2.03"/>
        <path class="cls-1" d="M11.11,92.64v-10.5h2.89v10.21c0,2.98,1.41,4.62,4.21,4.62,3.22,0,5.33-2.06,5.33-5.41v-9.42h2.89v17.11h-2.89l.08-3.47c-1.12,2.39-3.35,3.84-6.11,3.84-3.8,0-6.4-2.6-6.4-6.98"/>
        <path class="cls-1" d="M27.23,82.15h3.18l4.55,9.88c.54,1.16,.95,2.93,.95,2.93,0,0,.37-1.78,.91-2.93l4.46-9.88h2.97l-8.18,17.43h-.54l-8.3-17.43Z"/>
        <path class="cls-1" d="M52.59,97.14c2.56,0,4.3-1.03,5.42-2.27l1.78,1.73c-1.57,1.78-3.84,2.97-7.19,2.97-5.62,0-9.25-3.88-9.25-8.88s3.84-8.93,8.84-8.93c5.5,0,8.8,4.22,8.59,9.88h-14.54c.37,3.26,2.6,5.49,6.36,5.49m5.29-7.68c-.25-2.93-2.11-5.25-5.7-5.25-3.26,0-5.45,2.11-5.91,5.25h11.61Z"/>
        <path class="cls-1" d="M62.43,82.15h2.89l-.08,3.51c1.11-2.44,3.39-3.88,6.15-3.88,3.8,0,6.4,2.6,6.4,7.07v10.41h-2.89v-10.08c0-3.02-1.4-4.75-4.25-4.75-3.18,0-5.33,2.02-5.33,5.41v9.42h-2.89v-17.11Z"/>
        <path class="cls-1" d="M81.23,94.09v-9.5h-2.65v-2.44h2.65v-3.35h2.85v3.35h4.79v2.44h-4.79v9.54c0,2.27,.79,2.98,2.02,2.98,1.16,0,1.78-.5,2.31-.99l1.57,1.81c-.74,.79-2.07,1.7-4.17,1.7-2.6,0-4.59-1.49-4.59-5.54"/>
        <path class="cls-1" d="M90.65,92.64v-10.5h2.89v10.21c0,2.98,1.41,4.62,4.21,4.62,3.22,0,5.33-2.06,5.33-5.41v-9.42h2.89v17.11h-2.89l.08-3.47c-1.11,2.39-3.35,3.84-6.11,3.84-3.8,0-6.4-2.6-6.4-6.98"/>
        <path class="cls-1" d="M107.71,90.66c0-5.08,3.64-8.88,8.27-8.88,3.26,0,5.33,1.61,6.57,3.88v-16.24h2.85v29.83h-2.85l.08-3.68c-1.16,2.35-3.55,4-6.61,4-4.67,0-8.31-3.8-8.31-8.92m14.96,0c0-3.68-2.44-6.32-6.07-6.32s-5.91,2.64-5.91,6.32,2.31,6.4,5.91,6.4,6.07-2.69,6.07-6.4"/>
        <path class="cls-1" d="M13.71,68.68c0-5,3.84-8.92,8.88-8.92,3.06,0,5.17,1.16,6.73,3.06l-2.06,1.69c-1.03-1.36-2.52-2.19-4.67-2.19-3.63,0-5.91,2.73-5.91,6.36s2.27,6.36,5.91,6.36c2.36,0,3.84-.95,4.92-2.23l1.98,1.7c-1.61,1.94-3.72,3.06-6.9,3.06-5.04,0-8.88-3.88-8.88-8.88"/>
        <path class="cls-1" d="M31.44,70.63v-10.49h2.89v10.2c0,2.97,1.41,4.63,4.21,4.63,3.22,0,5.33-2.07,5.33-5.41v-9.42h2.89v17.1h-2.89l.08-3.47c-1.11,2.39-3.35,3.84-6.11,3.84-3.8,0-6.41-2.6-6.41-6.98"/>
        <rect class="cls-1" x="50.61" y="51" width="2.89" height="26.23"/>
        <path class="cls-1" d="M58.34,72.07v-9.5h-2.64v-2.44h2.64v-8.92h2.85v8.92h4.79v2.44h-4.79v9.54c0,2.27,.79,2.97,2.02,2.97,1.16,0,1.78-.49,2.32-.99l1.57,1.82c-.74,.79-2.07,1.69-4.17,1.69-2.61,0-4.59-1.49-4.59-5.54"/>
        <path class="cls-1" d="M68.59,70.63v-10.49h2.89v10.2c0,2.97,1.4,4.63,4.21,4.63,3.22,0,5.33-2.07,5.33-5.41v-9.42h2.89v17.1h-2.89l.08-3.47c-1.12,2.39-3.35,3.84-6.12,3.84-3.8,0-6.4-2.6-6.4-6.98"/>
        <path class="cls-1" d="M87.55,60.13h2.89l-.08,3.35c1.07-2.6,2.97-3.67,5-3.67,1.28,0,2.19,.29,2.97,.82l-1.12,2.52c-.54-.37-1.28-.66-2.35-.66-2.44,0-4.42,1.73-4.42,5.74v9.01h-2.89v-17.1Z"/>
        <path class="cls-1" d="M109.82,66.78c0-3.3-1.49-4.58-4.01-4.58s-3.92,1.03-5,2.48l-1.78-1.61c1.49-2.02,3.72-3.31,6.98-3.31,3.8,0,6.69,2.23,6.69,6.98v10.49h-2.89l.12-2.56c-1.16,1.73-2.93,2.89-5.66,2.89-3.64,0-6.28-1.65-6.28-5.21s2.89-5.17,6.49-5.17h5.33v-.41Zm-5.12,2.6c-2.19,0-3.88,.79-3.88,2.85,0,1.94,1.45,2.98,4.13,2.98s4.88-1.45,4.88-3.68v-2.15h-5.12Z"/>
        <path class="cls-1" d="M65.48,49.22h.1l3,3.74,2.98-3.74h.11v6.52h-.67v-4.26c0-.29,.03-.74,.03-.74,0,0-.25,.42-.45,.67l-1.95,2.47h-.11l-1.93-2.47c-.21-.26-.46-.67-.46-.67,0,0,.04,.45,.04,.74v4.26h-.66v-6.52Z"/>
        <rect class="cls-1" x="73.08" y="49.3" width=".69" height="6.45"/>
        <path class="cls-1" d="M76.21,51.26c-.18-.22-.45-.6-.45-.6,0,0,.06,.46,.06,.73v4.35h-.64v-6.51h.11l3.85,4.55c.18,.22,.45,.6,.45,.6,0,0-.05-.46-.05-.73v-4.35h.64v6.52h-.12l-3.85-4.55Z"/>
        <rect class="cls-1" x="81.59" y="49.3" width=".69" height="6.45"/>
        <path class="cls-1" d="M83.09,54.51l.57-.31c.3,.54,.75,1.01,1.66,1.01,.75,0,1.34-.42,1.34-1.1s-.41-.99-1.21-1.35l-.51-.24c-.92-.42-1.42-.86-1.42-1.76s.73-1.55,1.7-1.55c.86,0,1.4,.4,1.75,.97l-.55,.34c-.24-.4-.59-.7-1.19-.7-.64,0-1.02,.37-1.02,.92s.3,.83,1.02,1.16l.51,.24c1.07,.47,1.62,1.01,1.62,1.97,0,1.06-.84,1.71-2,1.71-1.23,0-1.91-.63-2.25-1.31"/>
        <polygon class="cls-1" points="89.63 49.9 87.65 49.9 87.65 49.3 92.29 49.3 92.29 49.9 90.31 49.9 90.31 55.74 89.63 55.74 89.63 49.9"/>
        <polygon class="cls-1" points="93.11 49.3 97.04 49.3 97.04 49.9 93.79 49.9 93.79 52.93 96.69 52.93 96.69 53.53 93.79 53.53 93.79 55.14 97.17 55.14 97.17 55.74 93.11 55.74 93.11 49.3"/>
        <path class="cls-1" d="M102.42,55.74h-.81l-1.24-1.76c-.22,.04-.46,.06-.68,.06h-.77v1.71h-.68v-6.45h1.45c1.77,0,2.68,.99,2.68,2.38,0,.97-.46,1.73-1.35,2.08l1.4,1.98Zm-2.77-2.3c1.46,0,2-.75,2-1.76s-.55-1.77-2-1.77h-.73v3.54h.73Z"/>
        <rect class="cls-1" x="103.54" y="49.3" width=".69" height="6.45"/>
        <path class="cls-1" d="M105.27,52.52c0-1.94,1.48-3.3,3.31-3.3s3.32,1.35,3.32,3.3-1.48,3.3-3.32,3.3-3.31-1.36-3.31-3.3m5.92,0c0-1.54-1.1-2.68-2.61-2.68s-2.6,1.15-2.6,2.68,1.1,2.68,2.6,2.68,2.61-1.15,2.61-2.68"/>
        <path class="cls-1" d="M114.79,49.3h1.57c2.15,0,3.49,1.27,3.49,3.22s-1.33,3.22-3.49,3.22h-1.57v-6.45Zm1.52,5.83c1.91,0,2.82-1.07,2.82-2.61s-.91-2.61-2.82-2.61h-.84v5.22h.84Z"/>
        <polygon class="cls-1" points="120.86 49.3 124.79 49.3 124.79 49.9 121.54 49.9 121.54 52.93 124.43 52.93 124.43 53.53 121.54 53.53 121.54 55.14 124.92 55.14 124.92 55.74 120.86 55.74 120.86 49.3"/>
        <path class="cls-1" d="M119.57,64.79l-2.43-4.43h.77l1.75,3.2c.14,.25,.27,.65,.27,.65,0,0,.14-.4,.28-.65l1.74-3.2h.71l-2.39,4.4v2.05h-.7v-2.02Z"/>
      </g>
    </g>
  </g>
</svg>