<?xml version="1.0" encoding="UTF-8"?>
<svg id="Capa_2" data-name="Capa 2" xmlns="http://www.w3.org/2000/svg" viewBox="0 0 393.81 207.37">
  <defs>
    <style>
      .cls-1 {
        fill: #fff;
      }

      .cls-2, .cls-3 {
        fill: #6f3293;
      }

      .cls-4 {
        opacity: .78;
      }

      .cls-4, .cls-5, .cls-6 {
        fill: #010101;
      }

      .cls-5 {
        opacity: .69;
      }

      .cls-3 {
        stroke: #4c276d;
        stroke-miterlimit: 10;
        stroke-width: 1.83px;
      }

      .cls-6 {
        opacity: .68;
      }
    </style>
  </defs>
  <g id="Layer_1" data-name="Layer 1">
    <g>
      <g>
        <path class="cls-3" d="M196.84,188.4h.08c2.95-.29,5.31,.31,7.08,1.79,1.96,1.63,3.06,3.71,3.3,6.24,.24,2.54-.45,4.78-2.07,6.74-1.46,1.78-3.67,2.81-6.62,3.09h-.08s0,.03,0,.03l-1.01,.1-1.69-17.9,1.01-.1v.02Zm.1,1.03l1.49,15.81h.08c2.65-.26,4.63-1.17,5.92-2.73,1.44-1.74,2.05-3.74,1.84-5.99-.21-2.25-1.19-4.09-2.93-5.54-1.56-1.29-3.67-1.81-6.32-1.56h-.08Z"/>
        <path class="cls-3" d="M231.89,185.73l.11,1.01-7.93,.91,.85,7.43,7.93-.91,.11,1-7.93,.91,.85,7.43,7.93-.91,.11,1.01-8.93,1.02-2.04-17.87,8.93-1.02Z"/>
        <path class="cls-3" d="M250.64,201.43l-3.05-17.72,1-.17,2.88,16.73,6.87-1.18,.17,1-7.86,1.35Z"/>
        <path class="cls-3" d="M295.53,187.02l.98,.31c-.94,2.18-2.49,3.75-4.66,4.73-2.32,1.05-4.67,1.13-7.04,.23-2.37-.89-4.09-2.5-5.14-4.82-1.05-2.31-1.12-4.66-.23-7.04,.89-2.38,2.5-4.09,4.82-5.14,2.16-.98,4.37-1.1,6.63-.37l-.41,.95c-1.97-.61-3.9-.49-5.79,.36-2.05,.93-3.48,2.45-4.28,4.56-.8,2.11-.73,4.2,.2,6.25,.93,2.06,2.46,3.49,4.57,4.29,2.11,.8,4.2,.73,6.25-.2,1.89-.86,3.26-2.23,4.1-4.11Z"/>
        <path class="cls-3" d="M318.04,162.62c2.34,1,3.99,2.68,4.94,5.04,.95,2.36,.93,4.72-.07,7.06-1,2.34-2.68,3.99-5.04,4.95-2.36,.95-4.72,.93-7.06-.07-2.34-1-3.99-2.68-4.94-5.04-.95-2.36-.93-4.72,.07-7.06,1-2.35,2.68-3.99,5.04-4.95,2.36-.95,4.72-.93,7.06,.07Zm-6.68,.89c-2.1,.84-3.59,2.31-4.48,4.39-.89,2.08-.91,4.17-.06,6.27,.84,2.1,2.31,3.59,4.39,4.48,2.08,.89,4.17,.91,6.27,.07,2.1-.85,3.59-2.31,4.48-4.4,.88-2.08,.91-4.18,.06-6.28-.84-2.1-2.31-3.59-4.39-4.48-2.08-.89-4.17-.91-6.27-.06Z"/>
        <path class="cls-3" d="M341.2,164.73l-9.68-15.16,.85-.54,9.13,14.3,5.87-3.75,.54,.85-6.73,4.29Z"/>
        <path class="cls-3" d="M364.64,129.01c2.34,1,3.99,2.68,4.94,5.04,.95,2.36,.93,4.72-.07,7.06-1,2.34-2.68,3.99-5.04,4.94-2.36,.95-4.72,.93-7.06-.07-2.34-1-3.99-2.68-4.95-5.04-.95-2.36-.93-4.72,.07-7.06,1-2.34,2.68-3.99,5.04-4.94,2.36-.95,4.72-.93,7.06,.07Zm-6.68,.89c-2.1,.85-3.59,2.31-4.48,4.39-.89,2.08-.91,4.17-.06,6.27,.85,2.1,2.31,3.59,4.39,4.48,2.08,.89,4.17,.91,6.27,.07,2.1-.84,3.59-2.31,4.48-4.39,.88-2.08,.9-4.18,.06-6.28-.84-2.1-2.31-3.59-4.39-4.48-2.08-.89-4.17-.91-6.27-.06Z"/>
        <path class="cls-3" d="M383.87,120.55c-.07,.07-.14,.14-.22,.21l-2.3,2.02,4.11,4.69-.76,.67-11.85-13.52,3.55-3.11c1.16-.76,2.41-1.1,3.76-1.01,1.62,.11,2.96,.77,4.03,1.99,1.07,1.22,1.56,2.64,1.45,4.26-.07,1.12-.41,2.11-1.02,2.97l7.33,2.08-.94,.82-7.14-2.05Zm-9.59-5.84l6.39,7.29,2.3-2.02c1-.88,1.55-1.99,1.64-3.33s-.31-2.51-1.19-3.52c-.88-1.01-1.99-1.55-3.33-1.64-1.34-.08-2.5,.31-3.51,1.19l-2.3,2.02Z"/>
      </g>
      <g>
        <path class="cls-2" d="M35.52,40.8c-.35,.78-.67,1.59-.96,2.4,.25-.96,.57-1.76,.96-2.4Z"/>
        <path class="cls-2" d="M379.02,72.64c-2.02,8.77-9.57,15.58-19.22,16.23,1.33,4.31,2.52,8.72,2.62,13.22s-1,9.17-3.82,12.69c-3.63,4.53-9.67,6.59-15.47,6.72-5.8,.13-11.5-1.43-17.1-2.97-1.25,7.99-3.46,15.23-10.48,20.09-5.67,3.95-12.05,4.58-18.7,3.68-7.18-.97-6.27,3.07-10.38,8.12-4.09,5.03-9.36,8.87-15.73,10.33-11.26,2.57-20.92-1.76-29.19-8.96-3.89,5.09-8.39,9.69-14.18,12.6-11.96,6-26.76,2.19-33.33-9.78,0,1.19-1.42,1.8-2.59,2.02-3.48,.67-8.79-1.04-11.77-.07-2.8,.91-6.23,5.94-8.89,7.76-6.6,4.49-15.09,7.44-22.93,4.55-4.06-1.5-7.42-5.92-11.8-6.32-2.3-.21-4.48,.89-6.57,1.86-6.88,3.2-16.15,6.05-22.93,1.07-5.94-4.36-8.1-12.15-11.62-18.27-.22-.37-.45-.77-.84-.96-.32-.16-.68-.15-1.04-.15-3.84,.08-7.7,.32-11.52-.04s-8.47-3.07-12.07-3.07c-1.86-.84-16.23-12.64-12.96-14.94-3.59,2.52-8.23,3.19-12.59,2.73-11.67-1.22-23.02-7.69-32.92-13.59-3.1-1.85-6.15-3.94-8.25-6.87-5.93-8.24-1.34-17.2,4.43-23.87,10.08-11.65,21.19-22.55,25.8-37.68,2.55-8.36,6.45-19.44,16.98-13.45,6.99,3.97,12.75,12.49,15.69,19.82,.3,.74,.6,1.52,1.22,2.02,.69,.55,15.8,.35,15.17,1.81,2.89-6.73,7.22-12.82,12.65-17.73,3.59-3.25,7.45-2.64,9.67,1.89,2.6,5.3,1.37,11.55,1.16,17.45-.06,1.79-.02,3.62,.66,5.28,2.38,5.85,10.94,8.04,16.73,7.39,5.21-.59,13.49-6.33,11.71-12.78-.08-.29-.14-.58-.2-.87-1.08-5.33-.73-10.93,1.37-15.97,3.04-7.3,9.25-13.85,8.64-21.73-.32-4.14-2.51-8.47-.69-12.2,1.36-2.79,4.53-4.13,7.44-5.25,5.44-2.08,11.15-4.2,16.93-3.51,4.97,.59,9.94,3.99,11.24,8.63,.81,1.39,1.28,2.94,1.28,4.6,0,2.64-1.23,5.09-3.01,6.99-1.98,2.12-4.37,3-6.84,4.38-.52,.29-1.03,.63-1.36,1.13-1.39,2.09,.78,5.07,2.13,6.61s3.04,3.02,4.12,4.85c.33,.56,.63,1.19,1.2,1.51,.67,.37,1.54,.18,2.16-.27,1.28-.92,1.8-2.41,2.14-3.88,1.5-6.41,2.04-13,3.42-19.44,.76-3.56,1.6-7.29,3.98-10.05,3.95-4.59,11.93-4.8,16.12-.43,3.67,3.84,4.82,10.48,9.9,12.04-2.11-7.6,3.7-16.38,11.51-17.43,8.45-1.13,13.25,3.14,15.77,9.99,2.98,8.09,3.96,15.66,3.2,24.28-.75,8.57-2.49,17.7,1.13,25.88,.9,2.02,2.14,3.95,3.89,5.3,4.06,3.13,9.93,2.53,14.67,.57,10.67-4.4,19.46-11.36,31.41-5.47-2.37-5.3,1.32-11.73,6.47-14.41,5.15-2.68,11.24-2.61,17.04-2.47,8.74,.21,17.47,.42,26.21,.62,8.12,.19,16.72,.53,23.54,4.94,5.19,3.36,8.85,8.98,9.83,15.08,.45,2.81,.33,5.56-.26,8.13Z"/>
        <path class="cls-2" d="M64.83,52.84h-.01s-.02-.06-.04-.08l.05,.08Z"/>
        <path class="cls-2" d="M64.78,52.76l-2.19-3.59c.8,1.16,1.53,2.35,2.19,3.59Z"/>
        <path class="cls-2" d="M66.88,57.26c-.7-1.52-1.5-2.99-2.38-4.4l.32-.02h.01c.77,1.43,1.45,2.9,2.05,4.42Z"/>
        <path class="cls-1" d="M177.47,72.97c-8.16,5.72-21.27,7.28-29.76,.98-2.19-1.63-3.68-4.07-4.68-6.85-2.78-5.45-3.11-13.12-1.18-18.03,.6-1.51,1.29-3.03,2.02-4.56,1.75-5.05,3.75-11.47,3.94-15,.3-5.61,1.11-11.12,.53-16.75-.1-1.01-.16-2.21,.65-2.82,.39-.3,.9-.38,1.38-.45,6.13-.89,12.26-1.77,18.39-2.66,.75-.11,1.51-.22,2.25-.08,2.28,.42,3.89,3.09,4.84,4.96,.59,1.16,.94,2.45,.86,3.75-.35,5.64-7.68,4.58-11.47,4.69-1.29,1.9-.89,5.77-1.08,8.02-.41,4.82,.26,5.64-.12,10.46,0,0,1.56,.57,3.38,1.4,2.1,.42,4.5,1.04,5.77,1.91,1.63,1.1,2.11,10.24,.29,10.9-1.2,.43-6.55-1.42-10.9-1.78l-.19,3.34s11.17,.62,11.23,.62c2.39,.13,5.82,2.2,7.41,3.85,.94,.97,1.44,1.96,1.6,2.94,1.99,2.56,1.88,6.23-5.16,11.16Z"/>
        <path class="cls-1" d="M239.36,17.34c.15,1.6,.13,3.23,.03,4.83-.49,8.28-.88,16.56-1.33,24.84-.22,4.18-.46,8.36-.73,12.54-.24,3.68-.08,7.68-1.25,11.21-1.05,3.17-3.83,5.95-7.31,4.18-1.61-.82-2.77-2.32-3.72-3.85-4.03-6.49-6.16-14.37-8.86-21.48-.75-1.96-1.48-3.93-2.24-5.89-.48-1.22-1.3-3.12-2.86-3.17-3.24-.09-2.84,8.74-2.89,10.49-.11,4.27-.38,8.56-1.04,12.78-.48,3.08-.94,7.31-3.1,9.67-.48,.52-1.05,.95-1.65,1.32-2.04,1.28-4.94,1.7-6.92,.11-5.02-4.04-5.89-11.92-6.57-17.87-.9-7.81-1.01-15.7-.79-23.55,.11-3.93,.3-7.87,.53-11.79,.2-3.5,.18-7.02,2.12-10.11,1.46-2.32,4.04-4.07,6.78-3.91,2.58,.15,4.81,1.91,6.45,3.91,2.36,2.88,3.85,6.33,5.05,9.82,1.12,3.25,1.63,7.54,3.56,10.42,.47,.7,1.2,1.27,2.03,1.35,1.46,.14,2.69-1.17,3.38-2.31,3-4.96,1.86-11.11,2-16.59,.09-3.3,.45-7.88,3.71-9.7,5.52-3.08,12.75,3.37,14.6,8.24,.56,1.46,.86,2.99,1,4.55Z"/>
        <path class="cls-1" d="M106.89,93.33c-1.85,7.51-.19,15.38-2.02,22.94-1.65,6.82-5.45,13.11-10.76,17.7-2.72,2.35-6.06,4.33-9.65,4.21-5.11-.18-9.08-4.48-11.74-8.84-4.04-6.63-6.53-14.64-4.73-22.19,1.05-4.39,3.48-8.4,4.14-12.86,1.11-7.51-2.93-14.72-4.3-22.18-.44-2.4-.5-5.18,1.2-6.94,1.83-1.89,5.08-1.71,7.25-.22s3.45,3.95,4.41,6.4c3.82,9.77,4.74,21.9,3.59,32.27-.12,1.07-.26,2.19,.12,3.2,.46,1.21,1.44,2.07,2.81,1.71,.75-.2,1.38-.69,1.93-1.24,1.8-1.82,2.81-4.3,3.45-6.78,2.1-8.16,2.37-17.18,6.77-24.57,1.02-1.71,2.45-3.41,4.41-3.73,3.48-.57,5.44,2.73,6.17,5.65,1.1,4.41-.51,8.68-2.15,12.73-.37,.91-.66,1.83-.89,2.76Z"/>
        <path class="cls-1" d="M93.41,69.93c-.34-.04-.68-.22-.93-.46-.98-.94-1.56-2.73-1.87-4.01-.53-2.14-.36-4.4,.1-6.53,.91-4.21,2.97-8.23,5.42-11.75,1.67-2.39,2.59,2.16,2.79,3.16,.45,2.16,.58,4.38,.41,6.57-.34,4.39-1.89,8.7-4.55,12.22-.21,.28-.45,.57-.77,.71-.19,.08-.4,.1-.6,.08Z"/>
        <path class="cls-1" d="M238.36,137.52c-.36,12.82-13.58,21.68-25.85,20.91-5.68-.35-9.24-3.32-11.41-7.42-7.14-9.07-1.49-27.34-4.85-37.58-.07-.21-.14-.42-.22-.63,0-.01,0-.02,0-.02-.79-2.22-1.9-4.39-2.81-6.58-1.06-2.55-1.85-5.12-1.59-7.84,.19-1.97,1.11-4.05,2.92-4.87,2.5-1.14,5.39,.6,7.15,2.7,.54,.65,1.02,1.32,1.46,2.02,.33,.52,.63,1.06,.91,1.61,.37,.73,.71,1.48,1.02,2.24l1.17,3.28,5.49,15.5c.6,1.24,1.23,2.47,1.9,3.67,.8,1.43,1.96,3.02,3.6,2.99,1.02-.02,1.92-.7,2.67-1.4,2.3-2.17,4.06-5.03,4.47-8.16,.6-4.58-1.65-8.98-2.61-13.49-.6-2.81-.7-5.72-.3-8.56,.24-1.68,.77-3.51,2.23-4.37,1.32-.79,3.09-.5,4.36,.38,1.26,.87,2.1,2.24,2.73,3.65,.11,.24,.21,.49,.31,.74,2.75,4.41,2.7,12.54,2.88,16.06,.21,4.22-.06,8.57,.63,12.75,.06,.34,.13,.68,.22,1.03,.26,1.03,.66,2.1,1.1,3.18,1.13,2.8,2.5,5.67,2.43,8.21Z"/>
        <path class="cls-1" d="M205.08,102.06c.43,1.07,.81,2.16,1.17,3.28l-1.17-3.28Z"/>
        <path class="cls-1" d="M235.93,129.31c-.44-1.08-.84-2.15-1.1-3.18,.36,1.06,.75,2.12,1.1,3.18Z"/>
        <path class="cls-1" d="M276.01,146.24c-3.33,2.02-7.08,3.44-10.2,4.32-4.19,1.18-8.77,1.39-12.83-.2-5.92-2.32-8.66-8.55-8.99-14.56-.45-8.08,1.49-16.09,.96-24.16-.5-7.59-2.89-15.05-6.91-21.5-1.12-1.79-2.59-3.92-.7-5.63,4.26-3.88,9.4-6.78,14.92-8.42,2.28-.68,4.8-1.12,6.98-.16,1.87,.83,3.24,2.71,3.44,4.75,.25,2.51-1.27,5.13-3.7,5.98-1.05,.37-2.05,.93-2.68,1.86-.85,1.26-1.2,1.84-.76,3.29,.81,2.66,1.98,5.19,3.27,7.64,.99,1.88,1.58,3.93,3.18,5.43,.27,.25,.57,.49,.93,.53,.46,.05,.88-.23,1.29-.45,1.96-1.04,5.53-5.39,7.23-3.97s2.74,4.94,2.53,7.15c-.17,1.75,.01,6.35-1.11,7.69-1.15,1.36-4.91,2.22-5.76,3.83-1.01,1.9-1.6,4.1-1.85,6.23-.13,1.09-.14,2.29,.51,3.18,.86,1.19,2.55,1.38,4.01,1.31,3.13-.15,6.29-1.04,9.42-.34,4.05,.9,6.46,4.35,4.65,8.25-1.53,3.31-4.75,6.1-7.82,7.95Z"/>
        <circle class="cls-5" cx="40.77" cy="93.83" r="3.99"/>
        <circle class="cls-5" cx="337.27" cy="66.6" r="3.29"/>
        <circle class="cls-6" cx="48.89" cy="60.88" r="2.81"/>
        <path class="cls-4" d="M159.56,126.85l5.26,.29s-.81-7.9,4.67-2.22c0,0,5.45,2.78,2.15-3.19-3.3-5.97-11.31-8.89-11.31-8.89,0,0-2.33,6.49-.77,14.01Z"/>
        <path class="cls-1" d="M322.8,99.39c-.1,.32-.2,.63-.31,.95-2.6,8.03-3.67,17.07-7.88,24.44-3.5,6.14-8.98,11.24-15.86,13.24-2.9,.84-3.98-.05-5.03-2.63-1.12-2.73-2.2-5.48-3.42-8.17-.85-1.92-1.78-3.85-3.09-5.5-1.35-1.7-3.16-2.98-4.48-4.71-1.2-1.58-2.02-3.42-2.66-5.28-1.39-4.04-1.84-8.32-2.75-12.48-1.28-5.85-3.13-11.66-5.53-17.14-.91-2.07-1.88-4.1-2.93-6.1-.78-1.5-3.03-3.92-.78-5.12,12.98-6.92,29.81,1.59,41.62,7.31,2.61,1.27,5.24,2.56,7.56,4.3,5.43,4.08,7.64,10.36,5.54,16.9Z"/>
        <path class="cls-2" d="M295.09,90.33l3.27,10.66s13.22-5.56-3.27-10.66Z"/>
        <path class="cls-2" d="M67.39,58.42s-.05,.02-.07,.03c-.14-.4-.29-.8-.44-1.19,.18,.38,.35,.77,.51,1.16Z"/>
        <g>
          <path class="cls-1" d="M64.95,104.68c-2.81,7.76-9.46,14.3-17.57,15.87-7.88,1.52-15.88-1.59-23.06-5.16-5.76-2.87-11.58-6.28-15.04-11.69-.42-.66-.81-1.37-.95-2.13-.7-1.02-1.2-2.17-.99-3.36,.01-.06,.02-.12,.04-.18,.2-.87,.76-1.62,1.3-2.34,8.88-11.81,17.77-23.62,26.65-35.42,2.22-2.95,4.44-5.9,6.66-8.86,1.16-1.53,4.7-7.8,6.44-7.63,1.81,.18,4.69,5.03,5.64,6.39,1.72,2.45,3.22,5.05,4.79,7.6,.68,1.09,1.35,2.28,1.74,3.5h.01c1.03,1.95,1.71,4.05,1.04,6.07-.96,2.89-4.09,4.1-7.22,4.71,4.04,2.6,7.87,5.6,9.93,9.87,.17,.35,.32,.7,.47,1.06,.57,1,1.03,2.1,1.36,3.33,1.55,5.82,.79,12.76-1.24,18.37Z"/>
          <path class="cls-1" d="M72.04,86.66c-.29-.81-.59-1.75-.87-2.76,.33,.91,.63,1.83,.87,2.76Z"/>
          <path class="cls-1" d="M130.06,99.19c.17,.27,.35,.54,.53,.81,4.26,6.62,6.33,14.54,9.46,21.71,1.88,4.31,3.41,8.99,2.8,13.65-.42,3.18-1.81,6.14-3.26,9.01-3.04,6.01-6.52,9.99-13.33,11.13-6.22,1.04-11.26,2.05-16.28-2.59-2.92-2.7-5.48-6.37-7.14-9.99-1.94-4.24,1.22-8.03,4.93-9.87,2.46-1.22,5.25-1.68,8-1.75,1.8-.05,3.78,0,5.15-1.17,1.44-1.23,1.64-3.41,1.28-5.27-1.2-6.19-3.11-12.34-4.66-18.45-1.23-4.84-3.3-9.54-4.25-14.37-.65-3.28,.51-6.39,3.07-8.55,1.76-1.48,3.91-2.41,6.08-3.15,5.32-1.82,10.97-2.65,16.58-2.45,.7,.03,1.43,.08,2.05,.42,2.65,1.52,1.65,11.55-.81,13.02-.39,.23-.88,.24-1.33,.22-1.82-.09-3.63-.55-5.46-.45-3.17,.17-5.76,2.65-4.54,5.92,.28,.76,.71,1.46,1.15,2.15Z"/>
          <path class="cls-1" d="M186.58,134.74c-.17,.57,.69,2.06,.86,2.61,.61,1.97,.97,4.01,1.06,6.07,.03,.55,.02,1.16-.32,1.6-.67,.88-2.06,.55-3.04,.05-2.09-1.07-3.97-2.54-5.51-4.3-.6,1.41-1.53,2.65-2.45,3.87-3.97,5.27-8.81,12-15.88,12.76-3.92,.42-8.08-.99-11.17-3.38-2.42-1.87-4.32-4.52-4.85-7.53-1.19-6.84,3.44-13.43,3.95-20.15,.66-8.73-4.68-16.71-6.36-25.31-1.42-7.25,2.8-14.71,10.84-14.64,3.01,.02,5.83,1.24,8.47,2.57s5.36,1.82,8.02,2.83c2.73,1.04,5.09,2.67,7.4,4.44,4.94,3.8,8.99,8.68,12.33,13.92,.83,1.3,1.06,2.87,1.61,4.29,1.44,3.71,2.65,7.31,1.9,11.36-.56,3.04-2.25,5.88-4.77,7.7-.4,.29-1.89,.82-2.07,1.22,0,.02-.01,.03-.02,.05Z"/>
          <path class="cls-1" d="M193.21,106.2c.91,2.19,2.02,4.36,2.81,6.58-.97-2.1-2.1-4.43-2.81-6.58Z"/>
          <path class="cls-1" d="M204.43,100.22l.65,1.84c-.31-.76-.65-1.51-1.02-2.24,.13,.13,.25,.26,.37,.4Z"/>
          <path class="cls-1" d="M369.03,74.89c-.82,1.75-2,3.63-3.59,4.78-.85,.62-1.95,.99-2.97,.74-1.12-.27-1.94-1.19-2.71-2.03-.85-.92-3.88-4.84-5.17-4.78-.66,.03-2.22,2.03-2.73,2.5-1.31,1.22-3.29,1.82-2.87,4.01,.2,1.05,.85,1.96,1.41,2.87,2.63,4.24,3.74,9.37,3.18,14.33-.43,3.73-1.38,7.84-4.11,10.59-3.08,3.11-8.26,3.91-12.45,3.81-1.98-.05-4.02-.56-5.5-1.86-2-1.76-2.64-4.61-2.74-7.27-.2-5.43,1.37-10.73,1.06-16.15-.17-2.95-.87-6.04-2.51-8.54s-4.45-4.28-6.78-6.16c-3.18-2.57-6.56-4.89-9.75-7.46-2.96-2.39-6.49-6.9-5.03-10.96,2.62-7.28,13.48-4.53,18.95-3.51,8.72,1.63,17.52,3.79,26.46,3.08,2.79-.22,5.59-.72,8.36-.4,5.96,.69,9.45,6.65,10.66,12.04,.79,3.52,.34,7.16-1.17,10.38Z"/>
          <path class="cls-2" d="M46.08,90.86c-.12,2.2-4.16,9.59-6.36,9.47s-9.69-2.79-9.57-4.99c.12-2.2,6.69-11.56,8.89-11.44s7.16,4.76,7.04,6.96Z"/>
          <path class="cls-2" d="M341.5,69c-.1,1.81-1.65,3.21-3.47,3.11-1.81-.1-8.26-6.98-8.16-8.8,.1-1.81,8.87-1.11,10.69-1.01s1.04,4.88,.94,6.7Z"/>
          <path class="cls-2" d="M52.65,63.25c-.09,1.55-3.96,6.42-5.51,6.33s-4.33-2.12-4.25-3.67,5.55-5.71,7.1-5.62,2.74,1.41,2.66,2.96Z"/>
          <path class="cls-2" d="M162.85,129.18c.77,.04,1.56-.23,2.14-.81,1.18-1.18,1.1-4.41,3.6-2.87,.93,.58,4.28,4.04,4.88,1.34,.14-.63-.09-1.29-.36-1.88-1.15-2.6-2.91-4.91-5.03-6.8-.86-.77-1.81-1.48-2.91-1.84-2.69-.89-4.49,.75-4.95,3.3-.44,2.46-1.17,6.72,.79,8.73,.5,.51,1.16,.79,1.84,.82Z"/>
          <path class="cls-2" d="M296.03,92.55l3.27,10.66s13.22-5.56-3.27-10.66Z"/>
        </g>
      </g>
    </g>
  </g>
</svg>