<?xml version="1.0" encoding="UTF-8"?>
<svg id="Capa_2" data-name="Capa 2" xmlns="http://www.w3.org/2000/svg" viewBox="0 0 104.85 107.92">
  <defs>
    <style>
      .cls-1 {
        fill: #f0f0f0;
      }
    </style>
  </defs>
  <g id="Capa_2-2" data-name="Capa 2">
    <g>
      <path class="cls-1" d="M74.24,43.48c-2.51-1.45-5.56-1.16-7.72,.51l-8.85-5.11,8.85-5.11c2.17,1.67,5.21,1.96,7.73,.51,3.33-1.92,4.47-6.18,2.55-9.51-1.92-3.33-6.18-4.47-9.51-2.55-2.51,1.45-3.78,4.23-3.42,6.94l-8.85,5.11v-10.22c2.53-1.05,4.3-3.53,4.3-6.44,0-3.85-3.12-6.96-6.96-6.96s-6.96,3.12-6.96,6.96c0,2.9,1.78,5.39,4.31,6.44v10.22l-8.85-5.11c.36-2.71-.91-5.49-3.42-6.94-3.33-1.92-7.59-.78-9.51,2.55-1.92,3.33-.78,7.59,2.55,9.51,2.52,1.45,5.56,1.16,7.73-.51l8.85,5.11-8.85,5.11c-2.17-1.66-5.21-1.96-7.72-.51-3.33,1.92-4.47,6.18-2.55,9.51,1.92,3.33,6.18,4.47,9.51,2.55,2.52-1.45,3.78-4.24,3.42-6.95l8.85-5.11v10.22c-2.53,1.04-4.31,3.53-4.31,6.44,0,3.85,3.12,6.96,6.96,6.96,3.85,0,6.96-3.12,6.96-6.96,0-2.9-1.78-5.39-4.3-6.44v-10.22s8.85,5.11,8.85,5.11c-.36,2.71,.91,5.49,3.42,6.95,3.33,1.92,7.59,.78,9.51-2.55,1.92-3.33,.78-7.59-2.55-9.51Z"/>
      <g>
        <path class="cls-1" d="M.48,86.06c.01-.08,.06-.07,.11-.01l3.93,4.41,3.87-4.41c.05-.06,.1-.07,.11,.01l.48,8.28h-2.16l-.19-3.5-2.05,2.37s-.07,.04-.11,0l-2.13-2.39-.19,3.51H0l.48-8.28Z"/>
        <path class="cls-1" d="M9.98,91.17v-5.03h2.19v5c0,.93,.43,1.46,1.36,1.46s1.36-.53,1.36-1.46v-5h2.19v5.03c0,2.21-1.51,3.29-3.56,3.29s-3.56-1.09-3.56-3.29Z"/>
        <path class="cls-1" d="M17.77,92.94l1.59-1.19c.4,.49,.89,.89,1.71,.89,.65,0,1.04-.19,1.04-.65,0-.35-.27-.52-.81-.7l-.96-.33c-1.19-.4-2.04-1.12-2.04-2.47,0-1.62,1.34-2.45,2.8-2.45s2.31,.52,2.8,1.09l-1.25,1.31c-.34-.35-.77-.59-1.42-.59-.53,0-.8,.24-.8,.57s.18,.47,.58,.6l1.09,.36c1.64,.54,2.19,1.33,2.19,2.48,0,1.51-.94,2.59-3.11,2.59-1.84,0-2.89-.84-3.4-1.52Z"/>
        <path class="cls-1" d="M25.28,86.14h5.75v1.84h-3.56v1.35h2.97v1.75h-2.97v1.41h3.73v1.84h-5.92v-8.2Z"/>
        <path class="cls-1" d="M31.74,90.24c0-2.47,2.04-4.2,4.4-4.2s4.4,1.72,4.4,4.2-2.04,4.21-4.4,4.21-4.4-1.74-4.4-4.21Zm6.56,0c0-1.29-.78-2.29-2.16-2.29s-2.16,1-2.16,2.29,.78,2.3,2.16,2.3,2.16-1.01,2.16-2.3Z"/>
        <path class="cls-1" d="M46.54,90.25v4.09h-2.06v-8.31c0-.07,.04-.13,.17-.02l5.15,4.24v-4.11h2.06v8.32c0,.1-.04,.13-.17,.02l-5.15-4.23Z"/>
        <path class="cls-1" d="M58.03,93.35h-2.86l-.41,.99h-2.15l3.99-8.34c.04-.08,.11-.08,.14,0l3.98,8.34h-2.27l-.43-.99Zm-2.18-1.59h1.48l-.75-1.74-.74,1.74Z"/>
        <path class="cls-1" d="M64.58,94.45c-2.3,0-4.27-1.74-4.27-4.21s1.95-4.2,4.15-4.2c1.77,0,2.86,.75,3.54,1.76l-1.65,1.12c-.31-.48-.82-.98-1.86-.98-1.21,0-1.94,1-1.94,2.29s.76,2.3,2.01,2.3c1.06,0,1.58-.48,1.93-1.13l1.69,1.09c-.81,1.36-1.94,1.95-3.6,1.95Z"/>
        <path class="cls-1" d="M69.07,86.14h2.19v8.2h-2.19v-8.2Z"/>
        <path class="cls-1" d="M72.34,90.24c0-2.47,2.04-4.2,4.4-4.2s4.4,1.72,4.4,4.2-2.04,4.21-4.4,4.21-4.4-1.74-4.4-4.21Zm6.56,0c0-1.29-.78-2.29-2.16-2.29s-2.16,1-2.16,2.29,.78,2.3,2.16,2.3,2.16-1.01,2.16-2.3Z"/>
        <path class="cls-1" d="M84.23,90.25v4.09h-2.06v-8.31c0-.07,.04-.13,.17-.02l5.15,4.24v-4.11h2.06v8.32c0,.1-.04,.13-.17,.02l-5.15-4.23Z"/>
        <path class="cls-1" d="M95.71,93.35h-2.86l-.41,.99h-2.15l3.99-8.34c.04-.08,.11-.08,.14,0l3.98,8.34h-2.27l-.43-.99Zm-2.18-1.59h1.48l-.75-1.74-.74,1.74Z"/>
        <path class="cls-1" d="M99.17,86.14h2.19v6.35h3.48v1.84h-5.68v-8.2Z"/>
        <path class="cls-1" d="M9.53,99.6h3.17c2.36,0,4.15,1.56,4.15,4.1s-1.78,4.1-4.15,4.1h-3.17v-8.2Zm2.93,6.34c1.33,0,2.15-.88,2.15-2.24s-.82-2.24-2.15-2.24h-.74v4.48h.74Z"/>
        <path class="cls-1" d="M17.82,99.6h5.75v1.84h-3.56v1.35h2.97v1.75h-2.97v1.41h3.73v1.84h-5.92v-8.2Z"/>
        <path class="cls-1" d="M31.59,107.91c-2.3,0-4.27-1.74-4.27-4.21s1.95-4.2,4.15-4.2c1.77,0,2.86,.75,3.54,1.76l-1.65,1.12c-.31-.48-.82-.98-1.86-.98-1.21,0-1.94,1-1.94,2.29s.76,2.3,2.01,2.3c1.06,0,1.58-.48,1.93-1.13l1.69,1.09c-.81,1.36-1.94,1.95-3.6,1.95Z"/>
        <path class="cls-1" d="M35.46,103.7c0-2.47,2.04-4.2,4.4-4.2s4.4,1.72,4.4,4.2-2.04,4.21-4.4,4.21-4.4-1.74-4.4-4.21Zm6.56,0c0-1.29-.78-2.29-2.16-2.29s-2.16,1-2.16,2.29,.78,2.3,2.16,2.3,2.16-1.01,2.16-2.3Z"/>
        <path class="cls-1" d="M44.42,106.4l1.59-1.19c.4,.49,.89,.89,1.71,.89,.65,0,1.04-.19,1.04-.65,0-.35-.27-.52-.81-.7l-.96-.33c-1.19-.4-2.04-1.12-2.04-2.47,0-1.62,1.34-2.45,2.8-2.45s2.31,.52,2.8,1.09l-1.25,1.31c-.34-.35-.77-.59-1.42-.59-.53,0-.8,.24-.8,.57s.18,.47,.58,.6l1.09,.36c1.64,.54,2.19,1.33,2.19,2.48,0,1.51-.94,2.59-3.11,2.59-1.84,0-2.89-.84-3.4-1.52Z"/>
        <path class="cls-1" d="M53.36,101.45h-2.17v-1.84h6.53v1.84h-2.17v6.35h-2.19v-6.35Z"/>
        <path class="cls-1" d="M62.26,106.81h-2.86l-.41,.99h-2.15l3.99-8.34c.04-.08,.11-.08,.14,0l3.98,8.34h-2.27l-.43-.99Zm-2.18-1.59h1.48l-.75-1.74-.74,1.74Z"/>
        <path class="cls-1" d="M70.83,107.8h-2.19v-8.2h3.32c2.09,0,3.24,1.23,3.24,2.91,0,1.09-.52,1.94-1.49,2.39l1.7,2.91h-2.37l-1.45-2.57h-.75v2.57Zm1.01-4.24c.75,0,1.15-.37,1.15-1.05s-.4-1.05-1.15-1.05h-1.01v2.1h1.01Z"/>
        <path class="cls-1" d="M76.48,99.6h2.19v8.2h-2.19v-8.2Z"/>
        <path class="cls-1" d="M84.02,107.91c-2.3,0-4.27-1.74-4.27-4.21s1.95-4.2,4.15-4.2c1.77,0,2.86,.75,3.54,1.76l-1.65,1.12c-.31-.48-.82-.98-1.86-.98-1.21,0-1.94,1-1.94,2.29s.76,2.3,2.01,2.3c1.06,0,1.58-.48,1.93-1.13l1.69,1.09c-.81,1.36-1.94,1.95-3.6,1.95Z"/>
        <path class="cls-1" d="M93.09,106.81h-2.86l-.41,.99h-2.15l3.99-8.34c.04-.08,.11-.08,.14,0l3.98,8.34h-2.27l-.43-.99Zm-2.18-1.59h1.48l-.75-1.74-.74,1.74Z"/>
      </g>
      <path class="cls-1" d="M52.33,77.73c-5.25,0-10.34-1.03-15.13-3.06-4.63-1.96-8.78-4.76-12.35-8.33-3.57-3.57-6.37-7.72-8.33-12.35-2.03-4.79-3.06-9.88-3.06-15.13s1.03-10.34,3.06-15.13c1.96-4.63,4.76-8.78,8.33-12.35,3.57-3.57,7.72-6.37,12.35-8.33,4.79-2.03,9.88-3.06,15.13-3.06s10.34,1.03,15.13,3.06c4.63,1.96,8.78,4.76,12.35,8.33,3.57,3.57,6.37,7.72,8.33,12.35,2.03,4.79,3.06,9.88,3.06,15.13s-1.03,10.34-3.06,15.13c-1.96,4.63-4.76,8.78-8.33,12.35-3.57,3.57-7.72,6.37-12.35,8.33-4.79,2.03-9.88,3.06-15.13,3.06Zm0-72.34c-18.46,0-33.48,15.02-33.48,33.48s15.02,33.48,33.48,33.48,33.48-15.02,33.48-33.48S70.79,5.38,52.33,5.38Z"/>
    </g>
  </g>
</svg>