<?xml version="1.0" encoding="UTF-8"?>
<svg id="Capa_2" data-name="Capa 2" xmlns="http://www.w3.org/2000/svg" viewBox="0 0 706.66 469.07">
  <defs>
    <style>
      .cls-1 {
        fill: #231f20;
        stroke-width: 0px;
      }
    </style>
  </defs>
  <g id="Layer_1" data-name="Layer 1">
    <g>
      <g>
        <g>
          <path class="cls-1" d="m52.23,364.75h12.56c9.54,0,16.73,2.16,21.57,6.46s7.26,10.82,7.26,19.54c0,4.7-.64,8.71-1.93,12.02s-3.15,6.02-5.59,8.13c-2.44,2.11-5.45,3.63-9,4.58-3.56.94-7.61,1.41-12.17,1.41h-12.71v-52.15Zm9.95,9.73v32.68h4.5c5.33,0,9.48-1.32,12.45-3.96,2.98-2.64,4.47-6.87,4.47-12.67,0-5.28-1.62-9.27-4.87-11.98-3.24-2.71-7.65-4.07-13.22-4.07h-3.34Z"/>
          <path class="cls-1" d="m102.92,364.75h9.95v52.15h-9.95v-52.15Z"/>
          <path class="cls-1" d="m129.36,401.86c1.21,2.28,2.51,3.98,3.92,5.12,1.4,1.14,2.98,1.71,4.72,1.71s3.12-.47,4.28-1.42c1.16-.94,1.74-2.09,1.74-3.45,0-.73-.1-1.37-.29-1.93-.2-.56-.51-1.11-.95-1.67-.43-.56-.98-1.14-1.63-1.74-.66-.6-1.42-1.27-2.29-2-2.42-2.03-4.59-3.89-6.5-5.56-1.91-1.67-3.52-3.28-4.83-4.83-1.31-1.55-2.32-3.09-3.01-4.61-.7-1.52-1.05-3.16-1.05-4.9,0-1.84.37-3.56,1.12-5.16.75-1.6,1.78-2.99,3.09-4.18,1.3-1.18,2.83-2.12,4.57-2.8,1.74-.68,3.58-1.01,5.52-1.01,3.29,0,6.11.79,8.46,2.36,2.35,1.57,4.56,3.57,6.65,5.99l-7.19,6.1c-1.36-1.55-2.69-2.76-4-3.63-1.3-.87-2.66-1.3-4.07-1.3-1.3,0-2.37.34-3.2,1.01-.82.68-1.23,1.55-1.23,2.62,0,.58.13,1.14.4,1.67.27.53.72,1.15,1.38,1.85.65.7,1.52,1.5,2.61,2.4s2.46,2,4.1,3.3c1.79,1.45,3.43,2.82,4.9,4.1,1.48,1.28,2.74,2.6,3.81,3.96,1.06,1.35,1.89,2.79,2.47,4.32s.87,3.26.87,5.2c0,2.18-.39,4.17-1.16,5.99s-1.87,3.38-3.27,4.68c-1.41,1.31-3.09,2.33-5.05,3.05-1.96.73-4.13,1.09-6.5,1.09-3.82,0-7.09-.93-9.8-2.8-2.71-1.86-5.04-4.71-6.97-8.53l8.35-5.01Z"/>
          <path class="cls-1" d="m162.54,416.9v-52.15h28.47v9.66h-18.52v9.51h18.52v9.44h-18.52v13.8h18.52v9.73h-28.47Z"/>
          <path class="cls-1" d="m200.24,416.9v-52.15h9.51l22.37,34.21v-34.21h9.95v52.15h-9.59l-22.29-34.13v34.13h-9.95Zm7.55-61.8c2.76-2.33,5.52-3.49,8.28-3.49.82,0,1.63.1,2.43.29.8.2,1.6.43,2.4.69s1.6.5,2.4.69c.8.19,1.59.29,2.36.29,1.02,0,2-.18,2.94-.54.94-.37,1.85-.81,2.72-1.34l3.56,5.95c-1.16,1.02-2.42,1.84-3.78,2.47-1.35.63-2.81.94-4.35.94-.92,0-1.78-.1-2.58-.29-.8-.19-1.59-.42-2.36-.69-.78-.26-1.55-.49-2.32-.69-.78-.2-1.6-.29-2.47-.29-1.11,0-2.14.18-3.09.55-.94.36-1.8.81-2.58,1.34l-3.56-5.88Z"/>
          <path class="cls-1" d="m251.44,390.75c0-3.87.72-7.47,2.18-10.78s3.41-6.2,5.88-8.64,5.35-4.37,8.64-5.77c3.29-1.4,6.78-2.11,10.46-2.11s7.01.69,10.28,2.07c3.27,1.38,6.15,3.29,8.64,5.74,2.49,2.45,4.48,5.35,5.95,8.72,1.48,3.37,2.22,7.03,2.22,11s-.7,7.39-2.11,10.71c-1.4,3.32-3.32,6.19-5.74,8.61-2.42,2.42-5.28,4.33-8.57,5.74-3.29,1.4-6.8,2.11-10.53,2.11s-7.47-.71-10.78-2.14c-3.32-1.43-6.2-3.38-8.64-5.85-2.45-2.47-4.37-5.37-5.78-8.71s-2.1-6.9-2.1-10.68Zm10.02.22c0,2.66.46,5.07,1.38,7.22.92,2.16,2.17,4.01,3.74,5.56,1.57,1.55,3.4,2.75,5.48,3.6s4.28,1.27,6.61,1.27,4.59-.46,6.64-1.38c2.06-.92,3.85-2.18,5.38-3.78,1.52-1.6,2.73-3.47,3.63-5.63.89-2.15,1.34-4.47,1.34-6.94s-.43-4.71-1.27-6.86c-.85-2.16-2.03-4.06-3.56-5.7s-3.34-2.95-5.45-3.92-4.39-1.45-6.86-1.45c-2.33,0-4.53.43-6.61,1.3s-3.9,2.1-5.45,3.67c-1.55,1.57-2.77,3.46-3.67,5.67-.9,2.2-1.34,4.66-1.34,7.37Z"/>
        </g>
        <g>
          <path class="cls-1" d="m357.18,363.52c2.56,0,4.93.22,7.08.66,2.15.43,4.14,1.08,5.95,1.92,1.82.85,3.5,1.87,5.05,3.05,1.55,1.19,3.02,2.56,4.43,4.11l-6.97,6.9c-2.23-2.32-4.59-4.09-7.08-5.3-2.5-1.21-5.29-1.82-8.39-1.82-2.61,0-5.02.47-7.22,1.41-2.21.95-4.11,2.22-5.7,3.82-1.6,1.6-2.84,3.46-3.74,5.59s-1.34,4.4-1.34,6.83.49,4.88,1.45,7.08c.97,2.2,2.29,4.11,3.96,5.73,1.67,1.62,3.64,2.89,5.92,3.82,2.28.92,4.72,1.38,7.34,1.38,3.49,0,6.39-.72,8.71-2.14,2.33-1.43,4.19-3.67,5.59-6.72h-15.11v-9.44h26.29v.07c0,4.21-.62,8.02-1.85,11.44-1.23,3.41-2.98,6.33-5.23,8.75s-4.98,4.28-8.17,5.59c-3.2,1.3-6.75,1.96-10.67,1.96-4.36,0-8.28-.75-11.77-2.25s-6.45-3.51-8.9-6.03c-2.44-2.52-4.32-5.46-5.63-8.82s-1.96-6.89-1.96-10.57.68-7.16,2.03-10.42c1.36-3.27,3.27-6.14,5.74-8.61,2.47-2.47,5.42-4.42,8.86-5.85,3.44-1.43,7.21-2.14,11.33-2.14Z"/>
          <path class="cls-1" d="m405.91,364.75c5.47,0,9.79,1.24,12.96,3.71s4.76,6.27,4.76,11.4c0,6.83-3.34,11.45-10.02,13.87l12.34,23.17h-10.82l-11.7-22.08h-.94v22.08h-9.95v-52.15h13.37Zm-3.41,20.41h4.57c4.55,0,6.83-1.79,6.83-5.37s-2.37-5.3-7.12-5.3h-4.28v10.67Z"/>
          <path class="cls-1" d="m448.18,364.75h10.02l20.12,52.15h-10.31l-3.99-10.75h-21.64l-4,10.75h-10.31l20.12-52.15Zm-2.11,31.67h14.31l-7.19-19.17-7.12,19.17Z"/>
          <path class="cls-1" d="m484.27,416.9v-52.15h25.85v9.73h-16.2v9.29h16.2v9.73h-16.2v23.39h-9.66Z"/>
          <path class="cls-1" d="m518.91,364.75h9.95v52.15h-9.95v-52.15Z"/>
          <path class="cls-1" d="m538.23,390.75c0-4.11.74-7.85,2.21-11.22,1.48-3.37,3.49-6.23,6.03-8.61s5.49-4.21,8.86-5.52c3.36-1.31,6.91-1.96,10.64-1.96,4.26,0,8.35.91,12.27,2.72s7.31,4.39,10.17,7.73l-6.97,6.68c-2.32-2.52-4.77-4.42-7.33-5.7-2.57-1.28-5.35-1.92-8.35-1.92-2.47,0-4.78.45-6.93,1.34-2.16.9-4.03,2.13-5.63,3.71-1.6,1.57-2.87,3.45-3.81,5.63-.94,2.18-1.41,4.55-1.41,7.12s.46,5.11,1.38,7.34c.92,2.23,2.18,4.11,3.78,5.66s3.5,2.76,5.7,3.63c2.2.87,4.59,1.31,7.15,1.31,3.24,0,6.06-.64,8.46-1.93s4.83-3.16,7.3-5.63l6.76,7.04c-1.74,1.7-3.44,3.17-5.09,4.43s-3.37,2.3-5.16,3.12c-1.79.83-3.69,1.44-5.7,1.85-2.01.41-4.25.62-6.72.62-4.07,0-7.79-.68-11.18-2.04s-6.31-3.24-8.75-5.66-4.33-5.31-5.66-8.68c-1.33-3.36-2-7.05-2-11.07Z"/>
          <path class="cls-1" d="m593.43,390.75c0-3.87.72-7.47,2.18-10.78s3.41-6.2,5.88-8.64c2.47-2.44,5.35-4.37,8.64-5.77,3.29-1.4,6.78-2.11,10.46-2.11s7.01.69,10.28,2.07c3.27,1.38,6.15,3.29,8.64,5.74,2.49,2.45,4.48,5.35,5.95,8.72,1.48,3.37,2.22,7.03,2.22,11s-.7,7.39-2.11,10.71c-1.4,3.32-3.32,6.19-5.74,8.61-2.42,2.42-5.28,4.33-8.57,5.74-3.29,1.4-6.8,2.11-10.53,2.11s-7.47-.71-10.78-2.14c-3.32-1.43-6.2-3.38-8.64-5.85-2.45-2.47-4.37-5.37-5.78-8.71-1.4-3.34-2.1-6.9-2.1-10.68Zm10.02.22c0,2.66.46,5.07,1.38,7.22.92,2.16,2.17,4.01,3.74,5.56,1.57,1.55,3.4,2.75,5.48,3.6s4.28,1.27,6.61,1.27,4.59-.46,6.64-1.38c2.06-.92,3.85-2.18,5.38-3.78,1.52-1.6,2.73-3.47,3.63-5.63.89-2.15,1.34-4.47,1.34-6.94s-.43-4.71-1.27-6.86c-.85-2.16-2.03-4.06-3.56-5.7s-3.34-2.95-5.45-3.92-4.39-1.45-6.86-1.45c-2.33,0-4.53.43-6.61,1.3s-3.9,2.1-5.45,3.67c-1.55,1.57-2.77,3.46-3.67,5.67-.9,2.2-1.34,4.66-1.34,7.37Z"/>
        </g>
        <g>
          <path class="cls-1" d="m82.44,452.59c0-2.8.5-5.37,1.49-7.69.99-2.33,2.34-4.34,4.04-6.02,1.7-1.68,3.69-3,5.97-3.94,2.28-.95,4.71-1.42,7.28-1.42s4.98.5,7.12,1.49c2.15.99,3.9,2.24,5.26,3.75l-4.13,4.15c-.95-1-2.16-1.84-3.62-2.5s-3.17-.99-5.13-.99c-1.72,0-3.32.32-4.79.97-1.48.65-2.77,1.54-3.87,2.69s-1.96,2.52-2.6,4.11c-.64,1.59-.95,3.34-.95,5.26,0,1.57.25,3.01.75,4.32.5,1.3,1.22,2.43,2.13,3.37.92.95,2.04,1.68,3.35,2.22,1.32.54,2.79.8,4.42.8,1.78,0,3.4-.26,4.86-.78,1.46-.52,2.94-1.28,4.42-2.29l2.93,4.91c-1.87,1.42-3.83,2.45-5.9,3.09-2.07.65-4.31.97-6.71.97s-4.65-.4-6.66-1.2c-2.01-.8-3.74-1.93-5.17-3.38s-2.55-3.18-3.33-5.19-1.18-4.25-1.18-6.71Z"/>
          <path class="cls-1" d="m117.08,434.37h19.45l-.71,5.76h-6.75l-3.46,28.13h-5.95l3.46-28.13h-6.79l.76-5.76Z"/>
          <path class="cls-1" d="m135.28,468.26l4.57-33.89h7.19c3.32,0,5.94.79,7.88,2.36,1.94,1.57,2.91,3.82,2.91,6.75,0,1.92-.37,3.55-1.11,4.89-.74,1.34-1.73,2.42-2.98,3.26-1.24.83-2.67,1.43-4.28,1.79-1.62.37-3.28.54-5,.54h-1.24l-1.95,14.3h-5.99Zm8.75-20.3h.98c2.22,0,3.92-.31,5.11-.92s1.78-1.72,1.78-3.33c0-.72-.14-1.32-.42-1.77-.28-.46-.68-.8-1.2-1.04-.52-.24-1.15-.39-1.89-.47-.74-.08-1.57-.12-2.49-.12h-.93l-.93,7.65Z"/>
          <path class="cls-1" d="m186.21,453.02l-.67,5.52h-11.72l.71-5.52h11.68Z"/>
          <path class="cls-1" d="m204.1,452.59c0-2.8.5-5.37,1.49-7.69.99-2.33,2.34-4.34,4.04-6.02,1.7-1.68,3.69-3,5.97-3.94,2.28-.95,4.71-1.42,7.28-1.42s4.98.5,7.12,1.49c2.15.99,3.9,2.24,5.26,3.75l-4.13,4.15c-.95-1-2.16-1.84-3.62-2.5s-3.17-.99-5.13-.99c-1.72,0-3.32.32-4.79.97-1.48.65-2.77,1.54-3.87,2.69s-1.96,2.52-2.6,4.11c-.64,1.59-.95,3.34-.95,5.26,0,1.57.25,3.01.75,4.32.5,1.3,1.22,2.43,2.13,3.37.92.95,2.04,1.68,3.35,2.22,1.32.54,2.79.8,4.42.8,1.78,0,3.4-.26,4.86-.78,1.46-.52,2.94-1.28,4.42-2.29l2.93,4.91c-1.87,1.42-3.83,2.45-5.9,3.09-2.07.65-4.31.97-6.71.97s-4.65-.4-6.66-1.2c-2.01-.8-3.74-1.93-5.17-3.38s-2.55-3.18-3.33-5.19-1.18-4.25-1.18-6.71Z"/>
          <path class="cls-1" d="m242.87,434.37h17.18l-.71,5.76h-11.19l-.98,7.22h11.28l-.71,5.76h-11.32l-1.2,9.39h11.46l-.76,5.76h-17.49l4.44-33.89Z"/>
          <path class="cls-1" d="m266.76,434.37h5.77c1.36,0,2.63.06,3.8.17,1.17.11,2.28.32,3.33.63,1.05.32,2.04.74,2.95,1.28.92.54,1.82,1.21,2.71,2.03,1.51,1.45,2.67,3.2,3.49,5.26.82,2.06,1.22,4.32,1.22,6.78,0,2.67-.47,5.21-1.42,7.6s-2.22,4.38-3.82,5.95c-1.48,1.45-3.16,2.51-5.04,3.19s-4.02,1.01-6.42,1.01h-11.37l4.79-33.89Zm2.09,27.95h2.89c1.78,0,3.35-.15,4.73-.45,1.38-.3,2.69-1,3.93-2.1,1.12-1.01,1.99-2.28,2.6-3.82.61-1.54.91-3.3.91-5.29,0-1.67-.24-3.14-.71-4.41-.47-1.27-1.15-2.35-2.04-3.23-.89-.88-1.95-1.55-3.2-2.01-1.24-.45-2.62-.68-4.13-.68h-1.87l-3.11,22Z"/>
          <path class="cls-1" d="m297.71,434.37h17.18l-.71,5.76h-11.19l-.98,7.22h11.28l-.71,5.76h-11.32l-1.2,9.39h11.46l-.76,5.76h-17.49l4.44-33.89Z"/>
          <path class="cls-1" d="m319.64,458.59c.92,1.51,1.87,2.65,2.87,3.42.99.77,2.05,1.16,3.17,1.16,1.04,0,1.9-.36,2.6-1.09.7-.72,1.04-1.59,1.04-2.6s-.27-1.9-.8-2.76c-.54-.87-1.32-1.85-2.35-2.95l-1.82-1.98c-1.42-1.54-2.59-3.07-3.51-4.6-.91-1.52-1.38-3.17-1.38-4.93,0-1.13.2-2.22.6-3.26.4-1.04.97-1.97,1.71-2.79.74-.82,1.63-1.47,2.69-1.96,1.05-.49,2.23-.73,3.53-.73,3.76,0,6.91,1.86,9.46,5.57l-4.35,4.11c-.86-1.13-1.69-2.04-2.49-2.74-.8-.69-1.64-1.04-2.53-1.04-.77,0-1.4.26-1.91.78s-.76,1.11-.76,1.77c0,1.26.83,2.77,2.49,4.53l2.31,2.5c.77.82,1.47,1.62,2.09,2.41s1.17,1.6,1.64,2.43c.48.83.84,1.71,1.09,2.62.25.91.38,1.92.38,3.02,0,1.35-.24,2.61-.71,3.78-.48,1.16-1.14,2.18-2,3.05-.86.87-1.88,1.54-3.06,2.03-1.18.49-2.5.73-3.95.73-4.35,0-7.89-2.17-10.61-6.51l4.57-3.96Z"/>
          <path class="cls-1" d="m357.11,434.37h5.77c1.36,0,2.63.06,3.8.17,1.17.11,2.28.32,3.33.63,1.05.32,2.04.74,2.95,1.28.92.54,1.82,1.21,2.71,2.03,1.51,1.45,2.67,3.2,3.49,5.26.82,2.06,1.22,4.32,1.22,6.78,0,2.67-.47,5.21-1.42,7.6s-2.22,4.38-3.82,5.95c-1.48,1.45-3.16,2.51-5.04,3.19s-4.02,1.01-6.42,1.01h-11.37l4.79-33.89Zm2.09,27.95h2.89c1.78,0,3.35-.15,4.73-.45,1.38-.3,2.69-1,3.93-2.1,1.12-1.01,1.99-2.28,2.6-3.82.61-1.54.91-3.3.91-5.29,0-1.67-.24-3.14-.71-4.41-.47-1.27-1.15-2.35-2.04-3.23-.89-.88-1.95-1.55-3.2-2.01-1.24-.45-2.62-.68-4.13-.68h-1.87l-3.11,22Z"/>
          <path class="cls-1" d="m383.84,453.54c0-2.8.47-5.41,1.4-7.84.93-2.42,2.23-4.54,3.9-6.35,1.67-1.81,3.65-3.23,5.93-4.27s4.77-1.56,7.46-1.56c2.19,0,4.21.39,6.06,1.18,1.85.79,3.44,1.88,4.77,3.28,1.33,1.4,2.38,3.08,3.13,5.03.75,1.95,1.13,4.09,1.13,6.42,0,2.61-.44,5.1-1.33,7.48-.89,2.38-2.15,4.46-3.77,6.26s-3.6,3.23-5.93,4.3c-2.32,1.07-4.92,1.6-7.79,1.6-2.31,0-4.39-.38-6.24-1.13-1.85-.76-3.42-1.81-4.71-3.16s-2.28-2.99-2.98-4.91c-.7-1.92-1.04-4.02-1.04-6.32Zm5.95-.38c0,1.45.21,2.79.65,4.01.43,1.23,1.04,2.28,1.84,3.16.8.88,1.78,1.57,2.93,2.07,1.15.5,2.45.76,3.9.76,1.81,0,3.47-.35,5-1.06,1.52-.71,2.85-1.68,3.98-2.9,1.12-1.23,2-2.65,2.64-4.27.63-1.62.95-3.34.95-5.17,0-1.54-.22-2.94-.67-4.2s-1.08-2.34-1.91-3.26c-.83-.91-1.82-1.62-2.98-2.12-1.16-.5-2.43-.76-3.82-.76-1.87,0-3.57.39-5.11,1.18s-2.86,1.82-3.95,3.09c-1.1,1.28-1.95,2.74-2.55,4.39-.61,1.65-.91,3.34-.91,5.07Z"/>
          <path class="cls-1" d="m425.27,434.37h5.24l11.55,23.04,3.06-23.04h5.86l-4.57,33.89h-5.11l-11.68-23.32-3.11,23.32h-5.73l4.49-33.89Z"/>
          <path class="cls-1" d="m470.65,434.37h6.13c1.57,0,2.99.21,4.26.61s2.37,1,3.29,1.77c.91.77,1.63,1.72,2.13,2.83s.76,2.37.76,3.75c0,.76-.1,1.51-.29,2.27s-.5,1.46-.91,2.12c-.41.66-.93,1.27-1.56,1.82-.62.55-1.36.98-2.22,1.3,2.04.79,3.48,1.87,4.31,3.23.83,1.37,1.24,2.87,1.24,4.51,0,1.32-.23,2.56-.69,3.73-.46,1.16-1.15,2.19-2.06,3.07-.92.88-2.06,1.58-3.42,2.1-1.36.52-2.96.78-4.79.78h-10.7l4.53-33.89Zm2.31,28.09h3.55c3.55,0,5.33-1.51,5.33-4.53,0-.88-.19-1.61-.56-2.17-.37-.56-.86-1.01-1.46-1.34s-1.32-.56-2.13-.68c-.82-.12-1.67-.19-2.55-.19h-1.02l-1.16,8.92Zm1.91-14.63h1.91c1.33,0,2.41-.31,3.24-.92s1.24-1.67,1.24-3.18c0-2.39-1.57-3.59-4.71-3.59h-.71l-.98,7.7Z"/>
          <path class="cls-1" d="m491.52,453.54c0-2.8.47-5.41,1.4-7.84.93-2.42,2.23-4.54,3.9-6.35,1.67-1.81,3.65-3.23,5.93-4.27s4.77-1.56,7.46-1.56c2.19,0,4.21.39,6.06,1.18,1.85.79,3.44,1.88,4.77,3.28,1.33,1.4,2.38,3.08,3.13,5.03.75,1.95,1.13,4.09,1.13,6.42,0,2.61-.44,5.1-1.33,7.48-.89,2.38-2.15,4.46-3.77,6.26s-3.6,3.23-5.93,4.3c-2.32,1.07-4.92,1.6-7.79,1.6-2.31,0-4.39-.38-6.24-1.13-1.85-.76-3.42-1.81-4.71-3.16s-2.28-2.99-2.98-4.91c-.7-1.92-1.04-4.02-1.04-6.32Zm5.95-.38c0,1.45.21,2.79.65,4.01.43,1.23,1.04,2.28,1.84,3.16.8.88,1.78,1.57,2.93,2.07,1.15.5,2.45.76,3.9.76,1.81,0,3.47-.35,5-1.06,1.52-.71,2.85-1.68,3.98-2.9,1.12-1.23,2-2.65,2.64-4.27.63-1.62.95-3.34.95-5.17,0-1.54-.22-2.94-.67-4.2s-1.08-2.34-1.91-3.26c-.83-.91-1.82-1.62-2.98-2.12-1.16-.5-2.43-.76-3.82-.76-1.87,0-3.57.39-5.11,1.18s-2.86,1.82-3.95,3.09c-1.1,1.28-1.95,2.74-2.55,4.39-.61,1.65-.91,3.34-.91,5.07Z"/>
          <path class="cls-1" d="m530.41,458.59c.92,1.51,1.87,2.65,2.87,3.42.99.77,2.05,1.16,3.17,1.16,1.04,0,1.9-.36,2.6-1.09.7-.72,1.04-1.59,1.04-2.6s-.27-1.9-.8-2.76c-.54-.87-1.32-1.85-2.35-2.95l-1.82-1.98c-1.42-1.54-2.59-3.07-3.51-4.6-.91-1.52-1.38-3.17-1.38-4.93,0-1.13.2-2.22.6-3.26.4-1.04.97-1.97,1.71-2.79.74-.82,1.63-1.47,2.69-1.96,1.05-.49,2.23-.73,3.53-.73,3.76,0,6.91,1.86,9.46,5.57l-4.35,4.11c-.86-1.13-1.69-2.04-2.49-2.74-.8-.69-1.64-1.04-2.53-1.04-.77,0-1.4.26-1.91.78s-.76,1.11-.76,1.77c0,1.26.83,2.77,2.49,4.53l2.31,2.5c.77.82,1.47,1.62,2.09,2.41s1.17,1.6,1.64,2.43c.48.83.84,1.71,1.09,2.62.25.91.38,1.92.38,3.02,0,1.35-.24,2.61-.71,3.78-.48,1.16-1.14,2.18-2,3.05-.86.87-1.88,1.54-3.06,2.03-1.18.49-2.5.73-3.95.73-4.35,0-7.89-2.17-10.61-6.51l4.57-3.96Z"/>
          <path class="cls-1" d="m550.44,452.59c0-2.8.5-5.37,1.49-7.69.99-2.33,2.34-4.34,4.04-6.02,1.7-1.68,3.69-3,5.97-3.94,2.28-.95,4.71-1.42,7.28-1.42s4.98.5,7.12,1.49c2.15.99,3.9,2.24,5.26,3.75l-4.13,4.15c-.95-1-2.16-1.84-3.62-2.5s-3.17-.99-5.13-.99c-1.72,0-3.32.32-4.79.97-1.48.65-2.77,1.54-3.87,2.69s-1.96,2.52-2.6,4.11c-.64,1.59-.95,3.34-.95,5.26,0,1.57.25,3.01.75,4.32.5,1.3,1.22,2.43,2.13,3.37.92.95,2.04,1.68,3.35,2.22,1.32.54,2.79.8,4.42.8,1.78,0,3.4-.26,4.86-.78,1.46-.52,2.94-1.28,4.42-2.29l2.93,4.91c-1.87,1.42-3.83,2.45-5.9,3.09-2.07.65-4.31.97-6.71.97s-4.65-.4-6.66-1.2c-2.01-.8-3.74-1.93-5.17-3.38s-2.55-3.18-3.33-5.19-1.18-4.25-1.18-6.71Z"/>
          <path class="cls-1" d="m583.21,453.54c0-2.8.47-5.41,1.4-7.84.93-2.42,2.23-4.54,3.9-6.35,1.67-1.81,3.65-3.23,5.93-4.27s4.77-1.56,7.46-1.56c2.19,0,4.21.39,6.06,1.18,1.85.79,3.44,1.88,4.77,3.28,1.33,1.4,2.38,3.08,3.13,5.03.75,1.95,1.13,4.09,1.13,6.42,0,2.61-.44,5.1-1.33,7.48-.89,2.38-2.15,4.46-3.77,6.26s-3.6,3.23-5.93,4.3c-2.32,1.07-4.92,1.6-7.79,1.6-2.31,0-4.39-.38-6.24-1.13-1.85-.76-3.42-1.81-4.71-3.16s-2.28-2.99-2.98-4.91c-.7-1.92-1.04-4.02-1.04-6.32Zm5.95-.38c0,1.45.21,2.79.65,4.01.43,1.23,1.04,2.28,1.84,3.16.8.88,1.78,1.57,2.93,2.07,1.15.5,2.45.76,3.9.76,1.81,0,3.47-.35,5-1.06,1.52-.71,2.85-1.68,3.98-2.9,1.12-1.23,2-2.65,2.64-4.27.63-1.62.95-3.34.95-5.17,0-1.54-.22-2.94-.67-4.2s-1.08-2.34-1.91-3.26c-.83-.91-1.82-1.62-2.98-2.12-1.16-.5-2.43-.76-3.82-.76-1.87,0-3.57.39-5.11,1.18s-2.86,1.82-3.95,3.09c-1.1,1.28-1.95,2.74-2.55,4.39-.61,1.65-.91,3.34-.91,5.07Z"/>
        </g>
        <g>
          <path class="cls-1" d="m59.95,169.88c-.24-48.65,65.59-91.07,161.78-112.07C92.86,75.86-.3,127.29,0,187.47c.37,74.56,143.96,134.3,320.76,133.41,151.57-.74,278.3-45.82,311.13-105.66-44.46,45.12-149.51,77.17-272.17,77.78h-2.21c-.49,0-.96.02-1.47.02-163.17.8-295.75-54.33-296.09-123.15Z"/>
          <path class="cls-1" d="m706.66,112.59c-6.31-6.65-13.65-12.48-20.88-18.07-19.69-15.21-41.12-28.16-63.35-39.31-34.25-17.17-70.63-29.95-107.87-38.84C464.64,4.45,413.13-.54,361.84.05c-76.35.88-152,14.3-226.01,32.3-11.23,2.73-22.43,5.61-33.59,8.61,1.03-.28-7.9,1.99-7.74,2.72s9.22-.98,8.16-.8c12.9-2.2,25.75-5.08,38.39-8.48.91-.24,8.2-2.18,3.52-.95,2.07-.54,4.15-1.08,6.23-1.6s4.13-1.04,6.19-1.55c4.45-1.11-.5.1-1.17.28,1.45-.39,2.92-.7,4.38-1.05,2.01-.48,4.13-.79,6.1-1.42-7.98,2.58-.54.13,1.44-.31,1.1-.24,8.01-1.8,3.25-.71-4.31.98-.44.1.65-.13,1.41-.29,2.83-.58,4.25-.87.69-.14,3.67-.72.12-.03-3.73.72.02,0,.95-.18,1.95-.38,3.91-.76,5.86-1.12,1.09-.2,8.1-1.78,2.77-.52,2.16-.51,4.41-.78,6.59-1.15,4.07-.7,8.15-1.36,12.23-2,2.75-.43-2.2.33.54-.08.8-.12,1.61-.24,2.41-.36,2.4-.35,4.8-.7,7.2-1.03,30.12-4.19,60.46-6.66,90.87-7.18,50.41-.87,100.99,3.59,150.16,14.88,36.89,8.47,72.97,20.72,107.05,37.23,22.71,11,44.61,23.86,64.84,38.98,5.93,4.43,11.73,9.06,17.28,13.96,2.25,1.98,4.7,5.38,7.31,6.84.11.06.2.21.29.3.83.87,8.31-.82,8.16-.8,6.45-1.07,12.9-2.42,19.28-3.84s12.8-2.86,19.11-4.64c.79-.22,7.84-2.61,7.74-2.72h0Z"/>
          <path class="cls-1" d="m527.85,160.35c.13,25.62-22.16,46.49-49.79,46.63-27.62.14-50.12-20.52-50.25-46.14-.12-25.61,22.18-46.49,49.79-46.63,27.62-.13,50.12,20.52,50.25,46.14Z"/>
        </g>
      </g>
      <polyline class="cls-1" points="470.93 346.58 458.11 359.39 448.2 359.39 460.89 346.7"/>
    </g>
  </g>
</svg>