<?xml version="1.0" encoding="UTF-8"?>
<svg id="Capa_2" data-name="Capa 2" xmlns="http://www.w3.org/2000/svg" viewBox="0 0 200.43 90.81">
  <defs>
    <style>
      .cls-1 {
        fill: #4b1e0b;
      }
    </style>
  </defs>
  <g id="Capa_2-2" data-name="Capa 2">
    <g>
      <g>
        <path class="cls-1" d="M41.81,.52c.51,0,.95,.17,1.32,.5,.37,.33,.56,.75,.56,1.26,0,.26-.06,.54-.18,.82l-7.5,17.56c-.18,.41-.44,.7-.77,.9-.34,.19-.67,.29-1.02,.29-.32-.02-.64-.13-.94-.32-.3-.19-.54-.47-.7-.84L25.07,3.07c-.06-.12-.1-.25-.12-.38-.02-.13-.03-.26-.03-.38,0-.59,.21-1.04,.64-1.35,.43-.31,.83-.47,1.22-.47,.77,0,1.33,.4,1.67,1.19l6.65,15.64-1.06,.03L40.14,1.67c.34-.77,.9-1.15,1.67-1.15Z"/>
        <path class="cls-1" d="M48.16,3.61c-.69,0-1.17-.11-1.46-.33-.28-.22-.43-.62-.43-1.19v-.58c0-.59,.16-.99,.47-1.2,.31-.21,.79-.32,1.44-.32,.71,0,1.2,.11,1.49,.33,.28,.22,.43,.62,.43,1.18v.58c0,.59-.15,.99-.46,1.2-.3,.21-.8,.32-1.49,.32Zm1.85,16.37c0,.53-.17,.97-.52,1.32-.34,.35-.78,.53-1.31,.53s-.96-.18-1.31-.53c-.34-.35-.52-.79-.52-1.32V7.44c0-.53,.17-.97,.52-1.32,.34-.35,.78-.53,1.31-.53s.96,.18,1.31,.53c.34,.35,.52,.79,.52,1.32v12.55Z"/>
        <path class="cls-1" d="M54.48,5.59c.38,0,.74,.1,1.06,.29,.32,.19,.57,.48,.73,.87l4.47,10.21-.67,.3,4.56-10.48c.34-.81,.88-1.19,1.61-1.15,.51,0,.92,.16,1.23,.47,.31,.31,.47,.7,.47,1.17,0,.14-.03,.29-.08,.45-.05,.16-.11,.32-.17,.46l-5.68,12.52c-.32,.73-.84,1.11-1.55,1.15-.38,.06-.75,0-1.11-.21-.35-.2-.62-.52-.8-.94l-5.65-12.52c-.04-.1-.09-.23-.14-.39-.05-.16-.08-.35-.08-.58,0-.36,.16-.72,.49-1.08,.32-.35,.76-.53,1.31-.53Z"/>
        <path class="cls-1" d="M72.4,3.61c-.69,0-1.17-.11-1.46-.33-.28-.22-.43-.62-.43-1.19v-.58c0-.59,.16-.99,.47-1.2,.31-.21,.79-.32,1.44-.32,.71,0,1.2,.11,1.49,.33,.28,.22,.43,.62,.43,1.18v.58c0,.59-.15,.99-.46,1.2-.3,.21-.8,.32-1.49,.32Zm1.85,16.37c0,.53-.17,.97-.52,1.32-.34,.35-.78,.53-1.3,.53s-.96-.18-1.31-.53c-.34-.35-.52-.79-.52-1.32V7.44c0-.53,.17-.97,.52-1.32,.34-.35,.78-.53,1.31-.53s.96,.18,1.3,.53c.34,.35,.52,.79,.52,1.32v12.55Z"/>
        <path class="cls-1" d="M79.81,21.84c-.53,0-.96-.18-1.31-.53-.34-.35-.52-.79-.52-1.32V7.44c0-.53,.17-.97,.52-1.32,.34-.35,.78-.53,1.31-.53s.96,.18,1.31,.53c.34,.35,.52,.79,.52,1.32v2.85l-.21-2.04c.22-.49,.51-.92,.87-1.29,.35-.37,.75-.69,1.2-.94,.45-.25,.92-.44,1.43-.56,.51-.12,1.01-.18,1.52-.18,.61,0,1.12,.17,1.53,.52,.42,.34,.62,.75,.62,1.21,0,.67-.17,1.15-.52,1.44-.34,.29-.72,.44-1.12,.44s-.73-.07-1.05-.21c-.31-.14-.67-.21-1.08-.21-.37,0-.73,.09-1.11,.26-.38,.17-.72,.44-1.03,.8-.31,.36-.57,.82-.76,1.35-.19,.54-.29,1.17-.29,1.9v7.2c0,.53-.17,.97-.52,1.32-.34,.35-.78,.53-1.31,.53Z"/>
      </g>
      <g>
        <path class="cls-1" d="M15.95,25.03c.53,.26,.83,.68,.93,1.25,.09,.57-.06,1.08-.44,1.55-.26,.36-.6,.57-1.02,.61-.42,.04-.84-.04-1.26-.24-.49-.22-1-.4-1.53-.52-.54-.12-1.1-.18-1.69-.18-1.09,0-2.07,.17-2.93,.52-.86,.34-1.59,.83-2.2,1.47-.61,.64-1.07,1.39-1.38,2.26-.31,.87-.47,1.83-.47,2.89,0,1.24,.18,2.31,.53,3.22,.35,.91,.84,1.67,1.47,2.28,.63,.61,1.37,1.06,2.22,1.35,.85,.29,1.77,.44,2.76,.44,.55,0,1.09-.05,1.64-.15,.55-.1,1.07-.28,1.58-.55,.42-.2,.84-.27,1.26-.21,.41,.06,.76,.27,1.05,.64,.41,.51,.55,1.03,.44,1.56-.11,.54-.42,.93-.93,1.17-.53,.26-1.07,.48-1.62,.65-.56,.17-1.12,.3-1.69,.4-.57,.09-1.14,.14-1.73,.14-1.46,0-2.84-.23-4.15-.7-1.31-.47-2.47-1.15-3.49-2.06-1.02-.91-1.83-2.05-2.42-3.42-.59-1.37-.88-2.95-.88-4.75,0-1.56,.27-3,.81-4.31,.54-1.32,1.29-2.46,2.28-3.42,.98-.96,2.14-1.71,3.48-2.25,1.34-.54,2.8-.8,4.38-.8,.89,0,1.76,.1,2.61,.3,.85,.2,1.65,.5,2.4,.88Z"/>
        <path class="cls-1" d="M35.21,23.96c.53,0,.95,.18,1.28,.53,.32,.35,.49,.79,.49,1.32v11c0,1.68-.36,3.17-1.08,4.46-.72,1.3-1.71,2.31-2.96,3.04-1.26,.73-2.71,1.09-4.37,1.09s-3.12-.36-4.39-1.09c-1.27-.73-2.26-1.74-2.98-3.04-.72-1.3-1.08-2.78-1.08-4.46v-11c0-.53,.18-.97,.55-1.32,.36-.35,.83-.53,1.4-.53,.47,0,.89,.18,1.26,.53,.37,.35,.56,.79,.56,1.32v11c0,1.01,.22,1.89,.65,2.63,.43,.74,1.01,1.31,1.73,1.72,.72,.41,1.48,.61,2.29,.61,.87,0,1.68-.2,2.43-.61,.75-.4,1.36-.98,1.82-1.72,.47-.74,.7-1.61,.7-2.63v-11c0-.53,.15-.97,.46-1.32,.3-.35,.72-.53,1.25-.53Z"/>
        <path class="cls-1" d="M53.25,41.7c.53,0,.97,.17,1.32,.5s.53,.76,.53,1.29-.18,.93-.53,1.26c-.35,.33-.79,.5-1.32,.5h-9.87c-.53,0-.97-.18-1.32-.53-.35-.35-.53-.79-.53-1.32V25.85c0-.53,.18-.97,.55-1.32,.37-.35,.83-.53,1.4-.53,.49,0,.92,.18,1.29,.53,.38,.35,.56,.79,.56,1.32v16.37l-.67-.52h8.6Z"/>
        <path class="cls-1" d="M56.04,27.49c-.53,0-.97-.16-1.32-.49-.35-.32-.53-.75-.53-1.28s.18-.95,.53-1.26c.35-.31,.79-.47,1.32-.47h13.49c.53,0,.97,.16,1.32,.49,.35,.32,.53,.75,.53,1.28s-.18,.95-.53,1.26c-.35,.32-.79,.47-1.32,.47h-13.49Zm6.71,17.77c-.57,0-1.03-.18-1.4-.53-.36-.35-.55-.79-.55-1.32V25.78h3.95v17.62c0,.53-.19,.97-.56,1.32s-.86,.53-1.44,.53Z"/>
        <path class="cls-1" d="M89.67,23.96c.53,0,.95,.18,1.28,.53,.32,.35,.49,.79,.49,1.32v11c0,1.68-.36,3.17-1.08,4.46-.72,1.3-1.71,2.31-2.96,3.04-1.26,.73-2.71,1.09-4.37,1.09s-3.12-.36-4.39-1.09c-1.27-.73-2.26-1.74-2.98-3.04-.72-1.3-1.08-2.78-1.08-4.46v-11c0-.53,.18-.97,.55-1.32,.36-.35,.83-.53,1.4-.53,.47,0,.88,.18,1.26,.53,.37,.35,.56,.79,.56,1.32v11c0,1.01,.22,1.89,.65,2.63,.43,.74,1.01,1.31,1.73,1.72,.72,.41,1.48,.61,2.29,.61,.87,0,1.68-.2,2.43-.61,.75-.4,1.36-.98,1.82-1.72,.47-.74,.7-1.61,.7-2.63v-11c0-.53,.15-.97,.46-1.32,.3-.35,.72-.53,1.25-.53Z"/>
        <path class="cls-1" d="M98.18,45.26c-.57,0-1.07-.18-1.52-.53-.45-.35-.67-.79-.67-1.32V25.85c0-.53,.18-.97,.53-1.32,.35-.35,.79-.53,1.32-.53h8.75c1.05,0,2.04,.28,2.96,.83,.92,.56,1.67,1.33,2.23,2.31s.85,2.11,.85,3.39c0,.77-.16,1.52-.47,2.25-.31,.73-.74,1.39-1.28,1.97-.54,.59-1.14,1.04-1.81,1.37l.03-.7c.57,.3,1.04,.66,1.41,1.08,.38,.41,.67,.86,.88,1.34,.21,.48,.34,.99,.38,1.53,.08,.51,.14,.95,.17,1.34,.03,.39,.09,.71,.18,.97,.09,.26,.27,.47,.53,.61,.45,.26,.72,.64,.84,1.14,.11,.5,0,.94-.35,1.32-.22,.26-.51,.43-.85,.5-.34,.07-.69,.07-1.03,0s-.63-.17-.85-.29c-.35-.2-.69-.5-1.03-.9-.34-.39-.62-.93-.83-1.59-.21-.67-.32-1.53-.32-2.58,0-.34-.06-.66-.18-.96-.12-.29-.29-.55-.52-.76-.22-.21-.51-.37-.85-.49-.34-.11-.75-.17-1.21-.17h-6.14l.46-.7v6.59c0,.53-.14,.97-.42,1.32-.28,.35-.68,.53-1.19,.53Zm1.19-10.87h7.08c.36,0,.72-.17,1.06-.5,.34-.33,.63-.79,.85-1.37,.22-.58,.33-1.21,.33-1.9,0-.89-.24-1.64-.71-2.23-.48-.6-.99-.9-1.53-.9h-7.02l.36-.97v8.6l-.42-.73Z"/>
        <path class="cls-1" d="M124.66,28.76l-6.56,15.43c-.14,.39-.36,.68-.65,.9-.29,.21-.61,.32-.96,.32-.55,0-.95-.15-1.22-.46-.26-.3-.39-.68-.39-1.12,0-.18,.03-.37,.09-.58l7.56-18.17c.16-.4,.41-.72,.74-.94,.34-.22,.69-.31,1.08-.27,.36,0,.7,.11,1.02,.32,.31,.21,.54,.51,.68,.9l7.47,17.8c.1,.26,.15,.51,.15,.73,0,.55-.18,.98-.53,1.31-.35,.32-.74,.49-1.17,.49-.37,0-.69-.11-.99-.33-.29-.22-.52-.53-.68-.91l-6.53-15.22,.88-.18Zm-5.62,11.73l1.67-3.49h8.2l.58,3.49h-10.45Z"/>
      </g>
      <g>
        <path class="cls-1" d="M44.97,50.34c.53,.26,.84,.68,.93,1.25,.09,.57-.06,1.08-.44,1.55-.26,.37-.6,.57-1.02,.61-.42,.04-.84-.04-1.26-.24-.49-.22-1-.4-1.53-.52-.54-.12-1.1-.18-1.69-.18-1.09,0-2.07,.17-2.93,.52-.86,.34-1.59,.84-2.2,1.47-.61,.64-1.07,1.39-1.38,2.26-.31,.87-.47,1.83-.47,2.89,0,1.24,.18,2.31,.53,3.22s.85,1.67,1.47,2.28c.63,.61,1.37,1.06,2.22,1.35,.85,.29,1.77,.44,2.76,.44,.55,0,1.09-.05,1.64-.15,.55-.1,1.07-.28,1.58-.55,.42-.2,.84-.27,1.26-.21,.41,.06,.76,.27,1.05,.64,.41,.51,.55,1.03,.44,1.56-.11,.54-.42,.93-.93,1.17-.53,.26-1.07,.48-1.63,.65-.56,.17-1.12,.3-1.69,.4s-1.14,.14-1.73,.14c-1.46,0-2.84-.23-4.15-.7-1.31-.47-2.47-1.16-3.49-2.07s-1.83-2.05-2.41-3.42c-.59-1.37-.88-2.95-.88-4.75,0-1.56,.27-3,.81-4.31,.54-1.32,1.29-2.46,2.28-3.42,.98-.96,2.14-1.71,3.48-2.25,1.34-.54,2.8-.8,4.37-.8,.89,0,1.76,.1,2.61,.3,.85,.2,1.65,.5,2.4,.88Z"/>
        <path class="cls-1" d="M51.32,70.57c-.57,0-1.07-.18-1.52-.53-.45-.35-.67-.79-.67-1.32v-17.56c0-.53,.18-.97,.53-1.32,.35-.35,.79-.53,1.32-.53h8.75c1.05,0,2.04,.28,2.96,.83,.92,.56,1.67,1.33,2.23,2.31,.57,.98,.85,2.11,.85,3.39,0,.77-.16,1.52-.47,2.25-.31,.73-.74,1.39-1.28,1.97-.54,.59-1.14,1.04-1.81,1.37l.03-.7c.57,.3,1.04,.66,1.41,1.08,.38,.41,.67,.86,.88,1.34,.21,.48,.34,.99,.38,1.54,.08,.51,.14,.95,.17,1.34,.03,.38,.09,.71,.18,.97,.09,.26,.27,.47,.53,.61,.45,.26,.72,.64,.84,1.14,.11,.5,0,.94-.35,1.32-.22,.26-.51,.43-.85,.5-.35,.07-.69,.07-1.03,0-.34-.07-.63-.17-.85-.29-.34-.2-.69-.5-1.03-.9-.34-.39-.62-.93-.84-1.59-.21-.67-.32-1.53-.32-2.58,0-.34-.06-.66-.18-.96-.12-.29-.29-.55-.52-.76-.22-.21-.51-.38-.85-.49-.34-.11-.75-.17-1.21-.17h-6.14l.46-.7v6.59c0,.53-.14,.97-.42,1.32-.28,.35-.68,.53-1.19,.53Zm1.19-10.88h7.08c.37,0,.72-.17,1.06-.5,.34-.33,.63-.79,.85-1.37,.22-.58,.33-1.21,.33-1.9,0-.89-.24-1.63-.71-2.23s-.99-.9-1.53-.9h-7.02l.36-.97v8.6l-.42-.73Z"/>
        <path class="cls-1" d="M71.85,49.31h10.18c.53,0,.97,.17,1.32,.5,.35,.33,.53,.76,.53,1.29s-.18,.92-.53,1.23c-.35,.31-.79,.47-1.32,.47h-8.51l.27-.52v5.92l-.24-.24h7.11c.53,0,.97,.17,1.32,.5,.35,.33,.53,.76,.53,1.29s-.18,.92-.53,1.23c-.35,.31-.79,.47-1.32,.47h-7.02l.15-.24v6.14l-.24-.27h8.48c.53,0,.97,.18,1.32,.53,.35,.35,.53,.76,.53,1.23,0,.51-.18,.92-.53,1.25-.35,.32-.79,.49-1.32,.49h-10.18c-.53,0-.97-.18-1.32-.53-.35-.35-.53-.79-.53-1.32v-17.56c0-.53,.18-.97,.53-1.32,.35-.35,.79-.53,1.32-.53Z"/>
        <path class="cls-1" d="M102.26,50.34c.53,.26,.84,.68,.93,1.25,.09,.57-.06,1.08-.44,1.55-.26,.37-.6,.57-1.02,.61-.42,.04-.83-.04-1.26-.24-.49-.22-1-.4-1.53-.52-.54-.12-1.1-.18-1.69-.18-1.09,0-2.07,.17-2.93,.52-.86,.34-1.59,.84-2.2,1.47-.61,.64-1.07,1.39-1.38,2.26-.31,.87-.47,1.83-.47,2.89,0,1.24,.18,2.31,.53,3.22s.85,1.67,1.47,2.28c.63,.61,1.37,1.06,2.22,1.35,.85,.29,1.77,.44,2.76,.44,.55,0,1.09-.05,1.64-.15,.55-.1,1.07-.28,1.58-.55,.43-.2,.85-.27,1.26-.21,.42,.06,.76,.27,1.05,.64,.41,.51,.55,1.03,.44,1.56-.11,.54-.42,.93-.93,1.17-.53,.26-1.07,.48-1.62,.65-.56,.17-1.12,.3-1.69,.4-.57,.09-1.14,.14-1.73,.14-1.46,0-2.84-.23-4.15-.7-1.31-.47-2.47-1.16-3.49-2.07-1.02-.91-1.83-2.05-2.42-3.42s-.88-2.95-.88-4.75c0-1.56,.27-3,.81-4.31,.54-1.32,1.29-2.46,2.28-3.42,.98-.96,2.14-1.71,3.48-2.25,1.34-.54,2.79-.8,4.37-.8,.89,0,1.76,.1,2.61,.3s1.65,.5,2.4,.88Z"/>
        <path class="cls-1" d="M108.27,49.31h10.18c.53,0,.97,.17,1.32,.5,.35,.33,.53,.76,.53,1.29s-.18,.92-.53,1.23c-.36,.31-.8,.47-1.32,.47h-8.5l.27-.52v5.92l-.24-.24h7.11c.53,0,.97,.17,1.32,.5,.35,.33,.53,.76,.53,1.29s-.18,.92-.53,1.23c-.36,.31-.8,.47-1.32,.47h-7.02l.15-.24v6.14l-.24-.27h8.47c.53,0,.97,.18,1.32,.53,.35,.35,.53,.76,.53,1.23,0,.51-.18,.92-.53,1.25-.36,.32-.8,.49-1.32,.49h-10.18c-.53,0-.97-.18-1.32-.53-.35-.35-.53-.79-.53-1.32v-17.56c0-.53,.18-.97,.53-1.32,.35-.35,.79-.53,1.32-.53Z"/>
        <path class="cls-1" d="M125.98,70.57c-.57,0-1.07-.18-1.52-.53-.45-.35-.67-.79-.67-1.32v-17.56c0-.53,.18-.97,.53-1.32,.35-.35,.79-.53,1.32-.53h8.75c1.05,0,2.04,.28,2.96,.83,.92,.56,1.67,1.33,2.23,2.31,.57,.98,.85,2.11,.85,3.39,0,.77-.16,1.52-.47,2.25-.31,.73-.74,1.39-1.28,1.97-.54,.59-1.14,1.04-1.81,1.37l.03-.7c.57,.3,1.04,.66,1.41,1.08,.38,.41,.67,.86,.88,1.34,.21,.48,.34,.99,.38,1.54,.08,.51,.14,.95,.17,1.34,.03,.38,.09,.71,.18,.97,.09,.26,.27,.47,.53,.61,.45,.26,.72,.64,.84,1.14,.11,.5,0,.94-.35,1.32-.22,.26-.51,.43-.85,.5-.34,.07-.69,.07-1.03,0-.34-.07-.63-.17-.85-.29-.35-.2-.69-.5-1.03-.9-.34-.39-.62-.93-.83-1.59-.21-.67-.32-1.53-.32-2.58,0-.34-.06-.66-.18-.96-.12-.29-.29-.55-.52-.76-.22-.21-.51-.38-.85-.49-.35-.11-.75-.17-1.22-.17h-6.14l.46-.7v6.59c0,.53-.14,.97-.42,1.32-.28,.35-.68,.53-1.18,.53Zm1.18-10.88h7.08c.36,0,.72-.17,1.06-.5,.34-.33,.63-.79,.85-1.37,.22-.58,.33-1.21,.33-1.9,0-.89-.24-1.63-.71-2.23-.48-.6-.99-.9-1.53-.9h-7.02l.36-.97v8.6l-.42-.73Z"/>
      </g>
      <g>
        <path class="cls-1" d="M152.22,68.18c1.42,0,2.69,.36,3.81,1.08,1.12,.72,2.01,1.71,2.67,2.96,.66,1.26,.99,2.71,.99,4.37s-.33,3.12-.99,4.39c-.66,1.27-1.54,2.26-2.64,2.98-1.1,.72-2.34,1.08-3.72,1.08-.81,0-1.57-.13-2.28-.4s-1.33-.6-1.87-1c-.54-.41-.95-.82-1.25-1.23-.29-.41-.44-.76-.44-1.05l.94-.4v7.99c0,.53-.17,.97-.52,1.32-.34,.35-.78,.53-1.31,.53s-.96-.17-1.31-.52-.52-.79-.52-1.34v-18.62c0-.53,.17-.97,.52-1.32,.34-.35,.78-.53,1.31-.53s.96,.18,1.31,.53c.34,.36,.52,.79,.52,1.32v1.49l-.52-.27c0-.26,.14-.58,.43-.96,.28-.38,.67-.75,1.15-1.12,.49-.38,1.05-.68,1.69-.93,.64-.24,1.31-.36,2.02-.36Zm-.46,3.34c-.89,0-1.67,.22-2.34,.67-.67,.45-1.19,1.05-1.56,1.81-.38,.76-.56,1.62-.56,2.6s.19,1.82,.56,2.6,.9,1.39,1.56,1.84c.67,.45,1.45,.67,2.34,.67s1.67-.22,2.32-.67c.66-.44,1.17-1.06,1.55-1.84s.56-1.65,.56-2.6-.19-1.84-.56-2.6c-.38-.76-.89-1.36-1.55-1.81-.66-.45-1.43-.67-2.32-.67Z"/>
        <path class="cls-1" d="M175.88,68.18c.53,0,.96,.17,1.31,.52,.34,.34,.52,.79,.52,1.34v12.85c0,.53-.17,.97-.52,1.32-.34,.35-.78,.53-1.31,.53s-.96-.18-1.31-.53c-.34-.35-.52-.79-.52-1.32v-1.49l.67,.27c0,.26-.14,.58-.42,.96s-.67,.74-1.15,1.11c-.49,.36-1.06,.67-1.72,.93-.66,.25-1.37,.38-2.14,.38-1.4,0-2.66-.36-3.8-1.08-1.13-.72-2.03-1.71-2.69-2.98-.66-1.27-.99-2.72-.99-4.36s.33-3.12,.99-4.39c.66-1.27,1.54-2.26,2.66-2.98,1.11-.72,2.35-1.08,3.71-1.08,.87,0,1.67,.13,2.4,.39,.73,.26,1.36,.6,1.9,1,.54,.41,.95,.82,1.25,1.23,.29,.41,.44,.76,.44,1.05l-1.09,.39v-2.22c0-.53,.17-.97,.52-1.32,.34-.35,.78-.53,1.31-.53Zm-6.14,13.52c.89,0,1.67-.22,2.34-.67,.67-.44,1.19-1.05,1.56-1.82,.37-.77,.56-1.63,.56-2.58s-.19-1.84-.56-2.61c-.38-.77-.9-1.38-1.56-1.82-.67-.45-1.45-.67-2.34-.67s-1.64,.22-2.31,.67c-.67,.45-1.19,1.05-1.56,1.82s-.56,1.64-.56,2.61,.19,1.81,.56,2.58,.9,1.38,1.56,1.82c.67,.45,1.44,.67,2.31,.67Z"/>
        <path class="cls-1" d="M185.09,82.88c0,.53-.17,.97-.52,1.32-.34,.35-.78,.53-1.31,.53s-.96-.18-1.31-.53c-.34-.35-.52-.79-.52-1.32v-12.55c0-.53,.17-.97,.52-1.32,.34-.35,.78-.53,1.31-.53s.96,.18,1.31,.53c.34,.36,.52,.79,.52,1.32v12.55Zm-1.67-15.43c-.16,0-.37-.09-.62-.26-.25-.17-.37-.42-.35-.74,0-.18,.06-.37,.18-.58l1.76-3.1c.18-.32,.41-.61,.7-.85,.28-.24,.61-.36,.97-.36,.57,0,.98,.15,1.25,.44,.26,.29,.38,.65,.37,1.08-.02,.2-.08,.42-.17,.64-.09,.22-.23,.45-.41,.67l-2.31,2.55c-.2,.22-.43,.36-.67,.42-.24,.06-.48,.09-.7,.09Z"/>
        <path class="cls-1" d="M187.88,82.21c-.2-.28-.29-.65-.27-1.09,.02-.45,.28-.83,.79-1.15,.32-.2,.67-.29,1.03-.26,.36,.03,.72,.22,1.06,.56,.59,.59,1.21,1.04,1.85,1.37,.65,.33,1.46,.49,2.43,.49,.3-.02,.64-.07,1-.14,.37-.07,.68-.23,.96-.49,.27-.25,.41-.64,.41-1.17,0-.44-.15-.8-.46-1.06-.3-.26-.7-.49-1.2-.67-.5-.18-1.05-.35-1.66-.52-.63-.18-1.27-.38-1.93-.61-.66-.22-1.26-.51-1.81-.87-.55-.35-.99-.83-1.34-1.41-.34-.59-.52-1.33-.52-2.22,0-1.01,.28-1.87,.85-2.58,.57-.71,1.3-1.25,2.2-1.64,.9-.38,1.85-.58,2.84-.58,.63,0,1.29,.08,1.97,.23,.69,.15,1.35,.4,1.97,.73,.63,.33,1.15,.78,1.58,1.32,.22,.3,.35,.67,.4,1.09,.04,.42-.15,.81-.58,1.15-.3,.24-.66,.35-1.06,.32s-.74-.17-1-.41c-.34-.45-.81-.8-1.38-1.06-.58-.26-1.24-.4-1.99-.4-.3,0-.63,.04-.99,.11-.35,.07-.66,.22-.93,.45-.26,.23-.39,.6-.39,1.11,0,.47,.15,.83,.46,1.11,.3,.27,.71,.5,1.23,.67,.52,.17,1.07,.34,1.66,.5,.61,.16,1.22,.35,1.85,.58,.63,.22,1.21,.52,1.73,.88,.53,.36,.95,.84,1.28,1.41,.32,.58,.49,1.31,.49,2.2,0,1.03-.3,1.91-.91,2.64-.61,.73-1.37,1.28-2.28,1.66-.91,.37-1.84,.56-2.8,.56-1.2,0-2.39-.21-3.58-.62-1.2-.42-2.19-1.15-2.98-2.2Z"/>
      </g>
      <g>
        <path class="cls-1" d="M93.18,73.51h.12c.84,.04,1.49,.44,1.95,1.2,.34,.67,.34,1.51,0,2.52-.08,.08-.19,.17-.32,.25l-.06-.07h-.06c-.05-.08-.08-.19-.13-.31v-.06c.25-.76,.25-1.45,0-2.08,0-.08-.09-.21-.25-.38h-.12c-.25-.13-.57-.13-.94,0-.34,.13-.71,.44-1.13,.94-.71,.96-1.31,2.29-1.77,3.96-.42,1.59-.58,2.98-.5,4.15,0,.55,.1,.97,.31,1.26,.25,.21,.52,.33,.81,.38,.51-.13,1.08-.46,1.7-1.01,.63-.63,1.34-1.47,2.14-2.52,.08-.13,.21-.3,.38-.5l1.95-3.21s.12-.08,.25-.13h.06l.06,.07c.09,.04,.15,.12,.19,.25v.13c-.71,1.26-1.54,2.52-2.46,3.78-.75,1.05-1.51,1.91-2.27,2.58-.55,.55-1.15,.92-1.82,1.13l-.06,.06c-.25,.04-.48,.06-.69,.06-.63,.04-1.2-.12-1.71-.5-.42-.33-.73-.82-.94-1.44-.3-1.13-.25-2.56,.12-4.28,.38-1.55,1.03-2.98,1.95-4.28,1.01-1.26,2.07-1.91,3.21-1.95Zm-1.08,.44v.13l-.06-.06v-.06h.06Zm1.2,.13l.06,.06-.06,.07h-.06l.06-.13Zm.75,.06c.13,.04,.19,.09,.19,.13-.05,0-.11-.02-.19-.06v-.07Zm.88,.63s.06,.09,.06,.13c-.04,.04-.06,0-.06-.13Zm.25,.44l.06,.06h-.06l-.06,.07s.02-.09,.06-.13Zm.38,6.04l-.06,.12,.06-.06v-.06Zm1.07-1.51h.06l-.06,.07h-.12l.06-.07h.06Zm.25-.38h-.06l-.13,.13h-.06l.06,.06,.19-.19Zm0,.19l-.06,.07,.06-.07Zm.63-1.45l.06,.13v.07c-.08-.04-.15-.07-.19-.07v-.06l.13-.06Z"/>
        <path class="cls-1" d="M101.98,73.27c.8,.04,1.45,.25,1.95,.63,.42,.42,.76,.94,1.01,1.57,.38,1.34,.36,2.88-.06,4.59-.12,.46-.25,.84-.38,1.13,1.3-.5,2.54-1.61,3.71-3.33l.19-.13c.08,.04,.15,.04,.19,0,.12,.17,.16,.31,.12,.44-1.47,2.18-2.96,3.44-4.47,3.78-.33,.84-.81,1.66-1.44,2.45-1.05,1.3-2.23,1.91-3.53,1.82-1.34-.13-2.22-.9-2.64-2.33-.34-1.34-.29-2.81,.12-4.41,.47-1.76,1.14-3.19,2.02-4.28,1.04-1.3,2.11-1.95,3.2-1.95Zm-5.16,7.05l.12,.06v.07h.12l-.06,.06h-.06l-.12,.06c0-.08-.02-.15-.07-.19l.07-.06Zm0,.44c.17,.17,.27,.23,.32,.19-.05,.04-.11,.08-.19,.13v-.07l-.06-.06s-.06-.1-.06-.19v0Zm.18,.38c.13,.08,.22,.15,.25,.19-.04,0-.11-.02-.19-.06l-.06-.07v-.06Zm.13-2.39s.12,.02,.25,.07v.19l-.12-.13-.12-.06v-.07Zm.32,2.33l.06,.06s-.02,.02-.19,.19h-.06c.08-.08,.15-.17,.19-.25Zm.69-3.97c0,.08-.02,.13-.07,.13h-.12c0-.09,.06-.13,.19-.13Zm.06,2.33c.08,.04,.08,.1,0,.19l-.06,.06-.13,.06c-.04-.08-.06-.15-.06-.19l.12,.13s.07-.13,.07-.25h.06Zm0,1.89v.19h-.13l.13-.13v-.06Zm-.06-2.58l.06,.25c-.08-.09-.11-.17-.06-.25Zm4.84-4.59c-.21,.04-.44,.15-.69,.32-.46,.34-.84,.69-1.13,1.07-.71,1.01-1.37,2.37-1.95,4.09-.55,1.55-.8,2.93-.75,4.15,.08,.63,.21,1.09,.38,1.38,.21,.3,.5,.48,.88,.57h.13c.84-.17,1.67-.73,2.52-1.7,.5-.67,.9-1.34,1.19-2.02-.8,0-1.13-.5-1.01-1.51,.13-.96,.51-1.55,1.14-1.76,.29-.04,.56,0,.81,.13,.12-1.22,.09-2.27-.12-3.15-.21-.63-.48-1.09-.82-1.39-.12-.12-.32-.19-.57-.19Zm-3.96,1.95c.05,.09,.11,.15,.19,.19h-.32l-.06,.13v-.13l-.06-.06v-.06c.12,0,.21-.02,.25-.07Zm0-.63s.02,.09,.07,.13c-.05,0-.11,.02-.19,.06,0-.04-.02-.1-.06-.19h.18Zm.32,.57h.13c-.05,.08-.05,.15,0,.19v.19c-.08,0-.17-.02-.25-.06l.06-.07v-.06l.06-.13v-.06Zm.19-.5l.06,.06s.02,.13-.06,.25c-.05,0-.06-.02-.06-.07,0-.09,.02-.17,.06-.25Zm.38-.63v.13s-.04-.08,0-.13Zm.06,.56c0,.13,.02,.21,.06,.25-.08,.13-.12,.13-.12,0-.04-.17-.02-.25,.06-.25Zm.25,1.01s-.06,.04-.19,0h.19Zm.06-2.39c.08,.13,.13,.25,.13,.38-.17-.04-.25-.13-.25-.25l.06-.07,.06-.06Zm.06,1.38c0,.09-.01,.15-.06,.19,0-.08,.02-.15,.06-.19Zm.19-.38h.06v.06l-.06,.07h-.06l.06-.13Zm.06,10.7l-.06,.07h-.06v-.07h.12Zm.69-10.89h-.06c-.04,.08-.06,.17-.06,.25h-.19l.13,.07c-.08-.04-.15-.07-.19-.07,.13,0,.19-.02,.19-.06-.05-.08,.02-.15,.18-.19Zm.13-.63h.06l-.13,.13-.06,.06-.06-.06h-.06c.08-.08,.17-.13,.25-.13Zm1.51,6.8l-.12,.19v-.13h.06l.06-.06Zm.06,.44h.07l.06,.07,.06-.07s.02,.08,.06,.13h-.18l-.07-.13Zm.57-2.07c0,.09-.02,.15-.06,.19,0-.08,.02-.15,.06-.19Zm.25,2.7s-.02,.06-.06,.06h.06v-.06Zm.06-7.93v.06h-.06l.06-.06Zm.13,5.16s.1,.11,.18,.19c0-.04-.02-.02-.06,.07l-.06,.06,.06,.06v.07l-.12-.07v-.12s-.08,.04-.13,0c-.04-.04-.02-.1,.06-.19l.07-.06Zm0-5.1s.06,.1,.06,.19h-.06s-.05-.1,0-.19Zm.38,4.72h.06l-.06,.06h-.06l.06-.06Zm.44-2.9v.19c.04,.09,.06,.15,.06,.19h-.12c0-.08-.02-.12-.06-.12l.12-.07h-.12v-.06l.12-.13Zm.31,5.1v.13l-.06,.06-.06-.12s.08-.02,.12-.07Zm1.01-.69v.13l-.06-.07,.06-.06Zm.88-.76l-.06,.13v-.06l.06-.07Zm.32-.19h.06l-.06,.07-.06-.07h.06Z"/>
        <path class="cls-1" d="M123.57,73.45c.21,0,.41,.04,.63,.13,.42,.21,.73,.56,.94,1.07,.13,.42,.17,.99,.13,1.7-.13,.96-.51,2.31-1.14,4.03-.67,1.89-1.07,3.15-1.19,3.78-.08,.42-.11,.8-.06,1.13,0,.13,.1,.25,.32,.38,.58,.04,1.24-.3,1.94-1.01,.71-.67,1.41-1.57,2.08-2.7,.12-.25,.29-.5,.5-.76l1.64-3.27c.08-.08,.19-.15,.31-.19h.13c.08,.08,.15,.19,.18,.31v.06h-.06l-.25,.57c-.21,.42-.49,.95-.84,1.61-.36,.65-.73,1.29-1.11,1.92-.75,1.22-1.47,2.16-2.14,2.83-.97,.84-1.78,1.24-2.46,1.19h-.06c-.67,.04-1.21-.13-1.64-.5-.34-.38-.55-.88-.63-1.51-.04-.88,.23-2.29,.82-4.22,.71-2.31,1.11-3.69,1.19-4.15,.08-.5,.11-.92,.07-1.26-.05-.04-.11-.1-.19-.19-.05-.04-.12-.07-.25-.07-.08,.04-.29,.19-.63,.44-.84,.71-1.67,1.64-2.51,2.77-.93,1.3-1.79,2.75-2.58,4.34-.05,.08-.06,.15-.06,.19-.08,.08-.17,.12-.25,.12h-2.01c-.13,0-.21-.08-.25-.25l.06-.06c.12-.55,.31-1.39,.57-2.52,.29-1.3,.5-2.22,.63-2.77,.12-.71,.16-1.28,.12-1.7-.04-.08-.11-.19-.18-.31-.09-.08-.22-.13-.38-.13-.21,.13-.4,.23-.56,.31-.76,.59-1.57,1.39-2.46,2.39-.71,1.01-1.13,1.61-1.26,1.82l-1.58,7.17c-.08,.12-.18,.21-.31,.25h-2.2c-.13-.04-.21-.15-.25-.32v-.06l2.9-12.21c.04-.12,.12-.21,.25-.25h2.07c.09,.04,.15,.15,.19,.32v.06l-.76,3.65c.05-.12,.17-.29,.38-.5,.08-.12,.15-.21,.19-.25,.8-1.01,1.66-1.85,2.58-2.52,.75-.54,1.44-.82,2.07-.82,.17,0,.4,.02,.69,.07,.55,.25,.91,.75,1.08,1.51,.08,.59,.04,1.41-.13,2.45-.04,.17-.18,.82-.44,1.95,.33-.71,.81-1.49,1.44-2.33,.92-1.26,1.78-2.21,2.58-2.83,.46-.38,.92-.65,1.38-.82,.21-.04,.42-.06,.63-.06h.13Z"/>
        <path class="cls-1" d="M134.13,73.27c.8,.04,1.45,.25,1.95,.63,.42,.42,.76,.94,1.01,1.57,.38,1.34,.36,2.88-.06,4.59-.12,.46-.25,.84-.38,1.13,1.3-.5,2.54-1.61,3.71-3.33l.19-.13c.08,.04,.15,.04,.19,0,.12,.17,.16,.31,.12,.44-1.47,2.18-2.96,3.44-4.47,3.78-.33,.84-.81,1.66-1.44,2.45-1.05,1.3-2.23,1.91-3.53,1.82-1.34-.13-2.22-.9-2.64-2.33-.34-1.34-.29-2.81,.12-4.41,.47-1.76,1.14-3.19,2.02-4.28,1.04-1.3,2.11-1.95,3.2-1.95Zm-5.15,7.05l.12,.06v.07h.12l-.06,.06h-.06l-.12,.06c0-.08-.02-.15-.07-.19l.07-.06Zm0,.44c.17,.17,.27,.23,.31,.19-.05,.04-.11,.08-.19,.13v-.07l-.06-.06s-.06-.1-.06-.19v0Zm.18,.38c.13,.08,.21,.15,.25,.19-.04,0-.11-.02-.19-.06l-.06-.07v-.06Zm.13-2.39s.12,.02,.25,.07v.19l-.12-.13-.12-.06v-.07Zm.31,2.33l.06,.06s-.02,.02-.19,.19h-.06c.08-.08,.15-.17,.19-.25Zm.69-3.97c0,.08-.02,.13-.07,.13h-.12c0-.09,.06-.13,.19-.13Zm.06,2.33c.08,.04,.08,.1,0,.19l-.06,.06-.13,.06c-.04-.08-.06-.15-.06-.19l.12,.13s.07-.13,.07-.25h.06Zm-.06-.7l.06,.25c-.08-.09-.11-.17-.06-.25Zm4.84-4.59c-.21,.04-.44,.15-.69,.32-.46,.34-.84,.69-1.13,1.07-.71,1.01-1.37,2.37-1.95,4.09-.55,1.55-.8,2.93-.75,4.15,.08,.63,.21,1.09,.38,1.38,.21,.3,.5,.48,.88,.57h.13c.84-.17,1.67-.73,2.52-1.7,.5-.67,.9-1.34,1.19-2.02-.8,0-1.13-.5-1.01-1.51,.13-.96,.51-1.55,1.14-1.76,.29-.04,.56,0,.81,.13,.12-1.22,.08-2.27-.12-3.15-.21-.63-.48-1.09-.82-1.39-.12-.12-.31-.19-.57-.19Zm-4.28,2.08l.07,.06v.13l-.19-.13,.06-.06h.06Zm.31-.13c.05,.09,.11,.15,.19,.19h-.32l-.06,.13v-.13l-.06-.06v-.06c.12,0,.21-.02,.25-.07Zm0-.63s.02,.09,.07,.13c-.05,0-.11,.02-.19,.06,0-.04-.02-.1-.06-.19h.18Zm.32,.57h.13c-.05,.08-.05,.15,0,.19v.19c-.09,0-.17-.02-.25-.06l.06-.07v-.06l.06-.13v-.06Zm.19-.5l.06,.06s.02,.13-.06,.25c-.05,0-.06-.02-.06-.07,0-.09,.01-.17,.06-.25Zm.38-.63v.13s-.04-.08,0-.13Zm.06,.56c0,.13,.02,.21,.06,.25-.09,.13-.12,.13-.12,0-.04-.17-.02-.25,.06-.25Zm.25,1.01s-.06,.04-.19,0h.19Zm.06-2.39c.08,.13,.13,.25,.13,.38-.17-.04-.25-.13-.25-.25l.06-.07,.06-.06Zm.06,1.38c0,.09-.01,.15-.06,.19,0-.08,.02-.15,.06-.19Zm.25,10.32l-.06,.07h-.06v-.07h.12Zm.69-10.89h-.06c-.04,.08-.06,.17-.06,.25h-.19l.13,.07c-.09-.04-.15-.07-.19-.07,.13,0,.19-.02,.19-.06-.05-.08,.02-.15,.18-.19Zm.13-.63h.06l-.13,.13-.06,.06-.06-.06h-.06c.08-.08,.17-.13,.25-.13Zm1.5,6.8l-.12,.19v-.13h.06l.06-.06Zm.06,.44h.07l.06,.07,.06-.07s.02,.08,.06,.13h-.18l-.07-.13Zm.57-2.07c0,.09-.02,.15-.06,.19,0-.08,.02-.15,.06-.19Zm.25,2.7s-.02,.06-.06,.06h.06v-.06Zm.06-7.93v.06h-.06l.06-.06Zm.13,5.16s.1,.11,.18,.19c0-.04-.02-.02-.06,.07l-.06,.06,.06,.06v.07l-.12-.07v-.12s-.08,.04-.13,0c-.04-.04-.02-.1,.06-.19l.07-.06Zm0-5.1s.06,.1,.06,.19h-.06s-.05-.1,0-.19Zm.38,4.72h.06l-.06,.06h-.06l.06-.06Zm.44-2.9v.19c.04,.09,.06,.15,.06,.19h-.12c0-.08-.02-.12-.06-.12l.12-.07h-.12v-.06l.12-.13Zm.32,5.1v.13l-.06,.06-.06-.12s.08-.02,.12-.07Zm1.01-.69v.13l-.06-.07,.06-.06Zm.88-.76l-.06,.13v-.06l.06-.07Zm.32-.19h.06l-.06,.07-.06-.07h.06Z"/>
      </g>
      <g>
        <path class="cls-1" d="M13.8,58.81c.74,.04,1.35,.35,1.84,.92,.45,.61,.57,1.27,.37,1.96-.41,1.43-1.53,2.31-3.37,2.63-.53,.08-1.06,.1-1.59,.06-.08,0-.14-.02-.18-.06-.04,.04-.06,.12-.06,.25-.04,.08-.06,.14-.06,.18-.45,1.63-.59,2.94-.43,3.92,.08,.57,.22,.98,.43,1.22,.24,.24,.51,.37,.8,.37h.06c1.55-.37,3.08-1.55,4.59-3.55,.41-.53,.8-1.09,1.16-1.68,.37-.59,.61-1.05,.74-1.38l.31-.49c.08-.12,.16-.18,.24-.18h.12c.08,.08,.14,.16,.18,.24l-.06,.06v.06l-1.41,2.57c-.29,.45-.57,.86-.86,1.23-1.92,2.49-3.84,3.76-5.76,3.8-.61,.04-1.14-.12-1.59-.49-.37-.37-.67-.84-.92-1.41-.29-1.06-.25-2.41,.12-4.04,.37-1.55,.98-2.92,1.84-4.1,1.02-1.31,2.12-2,3.31-2.08h.18Zm-5.51,8.15c.04,.08,.04,.16,0,.24v-.24Zm.31-1.84v0Zm.49,1.9c-.08,.16-.14,.22-.18,.18l-.06-.06,.06-.06v.12c.08-.04,.14-.1,.18-.18Zm0,.25v.25c.08,0,.14,.02,.18,.06l.06,.06-.24,.06s.1,.1,.18,.18c0,.04-.02,.06-.06,.06s-.06-.02-.06-.06c-.04,0-.06,.02-.06,.06-.04,0-.06-.04-.06-.12v-.18c0-.12,.02-.2,.06-.24v-.12Zm.18-.31l.06,.12-.12,.06c0-.08,.02-.14,.06-.18Zm.25-3.43l.06,.06c-.12,0-.18,.02-.18,.06v.12l-.06-.06v-.06s.1-.08,.18-.12Zm-.06,4.78l-.12,.12,.06-.06,.06-.06Zm.55-.92c-.04,.12-.06,.2-.06,.24-.04-.08-.12-.1-.25-.06,.04-.08,.14-.14,.31-.18Zm.12-3.8v.06h-.18c.08-.04,.14-.06,.18-.06Zm0,3.74v.12l-.06-.06,.06-.06Zm.55-6.25h.12c-.04,.08-.18,.1-.43,.06h-.06l.12-.06s.1-.04,.18,0h.06Zm.37,1.22h.06s-.08,.08-.12,.12c-.04,.08-.06,.14-.06,.18,0-.16,.02-.27,.06-.31h.06Zm.06-1.96v.12h-.06l-.06,.06,.12-.18Zm3.37-.67c-.33,.04-.59,.1-.8,.18-.41,.25-.78,.61-1.1,1.1-.57,.69-1.08,1.65-1.53,2.88,2.24,.08,3.67-.55,4.29-1.9,.04-.16,.08-.26,.12-.31,.12-.61,.02-1.14-.31-1.59-.16-.16-.27-.26-.31-.31-.12-.04-.25-.06-.37-.06Zm-2.88,1.78l.06,.06c.08,.08,.12,.14,.12,.18-.04,.04-.1,.04-.18,0h0v-.24Zm.49-1.78h.06s-.02,.08-.06,.12l.12,.06h-.12v.18c-.12,0-.18,.04-.18,.12h-.06c-.04-.12-.06-.2-.06-.25l-.06-.06s-.08-.04-.12,0l.12-.12,.12-.06h.12l-.06,.12h.06c.04-.08,.08-.12,.12-.12Zm-.12,.43h.12v.12l-.06,.06-.06-.12v.06l-.06-.06h.06v-.06Zm.43-.79v.06l-.06,.12-.06-.12h.06l.06-.06Zm.12,.86c.2,.04,.31,.04,.31,0l.06,.12-.12,.12-.06-.06c-.12,0-.16,0-.12,0l-.06-.06v.06l-.06,.06h-.06c.04-.12,.08-.2,.12-.24Zm.06-.37s-.02,.06-.06,.06l.06-.06Zm.12,.06v.25c-.04-.08-.08-.14-.12-.18l.06-.06h.06Zm.43-.49c.04,.08,.04,.18,0,.31,0-.04-.02-.08-.06-.12v-.12l.06-.06Zm0,.37h.06l.06,.12s-.08-.08-.12-.12Zm.06,4.23v.06h-.06l.06-.06Zm.31-4.29h.06v.12l-.06,.06v-.18Zm.55,3.86c-.12,.12-.18,.16-.18,.12h.06c0-.08,.04-.12,.12-.12Zm.49-.31h.06v.12l-.06,.06-.06-.18h.06Zm.61-3.55l-.06,.06v-.06h.06Zm.12,2.69l.06,.12,.06,.06v.06s-.12-.08-.25-.12h.06v-.06l.06-.06Zm.06-2.51s.04,.08,0,.12v-.06l-.12-.06h.12Zm.25,2.14v.06l.06,.12s-.1-.04-.18,0c.04-.08,.08-.14,.12-.18Zm.06-1.96s.04,.08,0,.12l.06,.12-.06,.06v.06l.06,.06s-.06,.04-.06,0l-.06-.12,.06,.06v-.37Zm0,.49v0Z"/>
        <path class="cls-1" d="M23.48,59.24c.2,.37,.24,.78,.12,1.22-.04,.21-.11,.45-.21,.74-.1,.29-.19,.49-.28,.61l-.12,.24c-.08,.08-.16,.12-.24,.12s-.12-.02-.12-.06c-.12-.08-.18-.16-.18-.25,.04-.08,.06-.14,.06-.18s.18-.49,.55-1.35c0-.41-.02-.65-.06-.74-.2-.2-.53-.33-.98-.37h-.61c-.08,0-.16,.04-.24,.12-.21,.08-.41,.18-.61,.31-.24,.33-.39,.67-.43,1.04,0,.61,.29,1.88,.86,3.8,.04,.16,.1,.39,.18,.67,.04,.29,.06,.49,.06,.61,.94-.61,2.41-1.53,4.41-2.76,.08-.04,.14-.06,.18-.06,.12,.04,.2,.08,.25,.12,0,.08,.02,.14,.06,.18-.08,.12-.12,.21-.12,.25-.25,.16-.74,.47-1.47,.92-1.39,.82-2.43,1.45-3.12,1.9,.2,.98,.27,1.74,.18,2.27-.16,.65-.47,1.21-.92,1.65-.57,.49-1.25,.78-2.02,.86h-.06c-.82,.04-1.41-.04-1.78-.25-.2-.16-.37-.29-.49-.37-.04-.2-.04-.41,0-.61,.12-.29,.39-.65,.8-1.1,.16-.12,.67-.51,1.53-1.16,.08-.08,.22-.22,.43-.43,.2-.16,.35-.27,.43-.31-.21-.73-.37-1.29-.49-1.65-.61-1.67-.86-2.96-.73-3.86,.16-.73,.45-1.29,.86-1.65,.49-.41,1.1-.71,1.84-.92,1.22-.24,2.06-.1,2.51,.43Zm-6.86,10.78l.06,.06v.18s-.06-.08-.06-.12c-.04,0-.06,.04-.06,.12-.04,.08-.06,.1-.06,.06v-.12l.12-.06-.06-.06,.06-.06Zm3-2.45c-.08,.04-.18,.12-.31,.25-.16,.12-.29,.2-.37,.24-.53,.37-1,.76-1.41,1.16-.37,.41-.59,.72-.67,.92v.12c0,.08,.06,.12,.18,.12,.04,0,.16,.04,.37,.12,.77-.12,1.35-.35,1.71-.67,.37-.33,.57-.69,.61-1.1,.04-.33,0-.71-.12-1.16Zm-1.29,3.06h.06l-.06,.06c-.08,.12-.14,.16-.18,.12,0-.12,.06-.18,.18-.18Zm.43-.31c.04,.12,0,.21-.12,.24,0-.04,.04-.12,.12-.24Zm.06,.31s.08,.12,.12,.24h-.24v-.12c.08,0,.12-.04,.12-.12Zm.55-3.18l-.06,.06v0l.06-.06Zm.43-.86s.04,.08,0,.12h-.06l-.06,.06v-.06l-.06-.06,.18-.06Zm.18-5.02v.12l-.12-.12h.12Zm.61,8.45h.06l-.06,.12c-.08,0-.14,.04-.18,.12,.08-.16,.14-.25,.18-.25Zm.55-2.02c.04,.08,.04,.16,0,.25-.04-.04-.06-.02-.06,.06h-.12c.08-.12,.14-.18,.18-.18v-.12Zm-.12-2.39h.06v.12l-.06-.12Zm.37,2.51v.12h-.12l.12-.12Zm1.65-8.82h.06v.06l-.06-.06Z"/>
      </g>
    </g>
  </g>
</svg>