<?xml version="1.0" encoding="UTF-8"?>
<svg id="Layer_2" data-name="Layer 2" xmlns="http://www.w3.org/2000/svg" viewBox="0 0 916.58 948.71">
  <defs>
    <style>
      .cls-1 {
        fill: #fff;
        stroke-width: 0px;
      }
    </style>
  </defs>
  <g id="Layer_1-2" data-name="Layer 1">
    <g>
      <g>
        <path class="cls-1" d="m447.37,3.27v10.47c12.92,3.89,20.17,7.08,20.17,7.08l-20.17,9.66v56.69c56.91-13.37,96.43-30.58,96.43-30.58-32.48,23.77-64.89,40.28-96.43,51.3v52.35h53.39c62.93-23.24,102.62-51.56,102.62-51.56-16.94,20.04-34.73,37.08-53.11,51.56h47.83v82.61c36.89-21.44,56.56-39.78,56.56-39.78-17.02,26.68-36.06,49.23-56.56,68.31v77.97c28.9-17.52,57.44-38.91,85.23-64.8,0,0-22.2,55.25-85.23,106.22v86.31c44.51-25.92,68.7-49.06,68.7-49.06-21.22,30.52-44.33,55.91-68.7,77.03v96.18h167.76V160.24h150.73V3.27h-469.21Z"/>
        <path class="cls-1" d="m128.2,92.61c-9.77-4.19-36.61,6.74-36.61,6.74l14.4,13.31c2.8-4.2,22.21-20.05,22.21-20.05Z"/>
        <path class="cls-1" d="m167.31,56.59s150.1-89.01,278.4-25.31l1.66-.79V13.74C401.8.03,285.61-22.28,167.31,56.59Z"/>
        <path class="cls-1" d="m62.3,207.41c-18.63-.8-38.2,10.04-38.2,10.04,7.96,4.45,15.83,8.63,23.67,12.71l14.53-22.74Z"/>
        <path class="cls-1" d="m25.65,307.24c-22.59,2.6-25.65,14.93-25.65,14.93,0,0,7,4.37,19.75,11.22.53-9.38,5.9-26.15,5.9-26.15Z"/>
        <path class="cls-1" d="m35.8,430.22c-23.51,8.69-23.83,21.49-23.83,21.49,11.59,6.79,23.06,13.13,34.43,19.09l-10.6-40.58Z"/>
        <path class="cls-1" d="m192.76,624.8c28.25-1.83,39.5.85,39.5.85-35.34-9.92-57.61-2.55-59.21-1.99.81.21,4.45,1.16,10.51,2.51,2.44-.32,4.34-1.07,9.19-1.37Z"/>
        <path class="cls-1" d="m173.06,623.67c166.63,100.89,312.55-6.01,312.55-6.01-128.83,41.73-263.74,17.05-302.04,8.52"/>
        <path class="cls-1" d="m172.86,623.62s.08.05.13.07c0,0,.04-.01.07-.02-.11-.03-.19-.05-.19-.05Z"/>
        <path class="cls-1" d="m91.6,99.35l-35.71,54.19s285.76,171.05,494.38,6.7h-49.51c-99.73,36.82-257.86,60.87-409.16-60.89Z"/>
        <path class="cls-1" d="m161.51,59.71l-19.85,12.6s140.84,93.17,305.7,35.57v-20.71c-81.25,19.09-197.97,30.36-285.86-27.46Z"/>
        <path class="cls-1" d="m24.09,217.45L3.2,281.88s379.98,189.56,594.89-10.5v-28.53c-90.89,52.82-286.4,124.43-550.33-12.69"/>
        <path class="cls-1" d="m0,322.17l2.98,79.38c324.06,128.93,503.1,63.62,595.11-10.79v-41.42c-240.04,145.54-505.07,23.43-578.35-15.95"/>
        <path class="cls-1" d="m11.97,451.7l40.94,80.22s325.08,163.82,545.19-26.88v-27.97c-98.26,57.23-295.73,128.04-551.7-6.28"/>
      </g>
      <g>
        <path class="cls-1" d="m15.91,916.12c0-16.9,10.6-31.44,30.74-31.44,7.62,0,13.66,2.28,20.06,7.79,2.37,2.19,2.63,6.04.26,8.5-2.36,2.1-5.96,1.84-8.06-.26-3.59-3.77-7.27-4.82-12.26-4.82-13.49,0-19.97,9.55-19.97,20.23s6.39,20.84,19.97,20.84c4.99,0,9.63-2.01,13.66-5.61,2.71-2.1,6.48-1.05,8.06,1.05,1.4,1.93,2.1,5.17-.96,8.23-6.13,5.69-13.49,6.83-20.76,6.83-21.19,0-30.74-14.45-30.74-31.36Z"/>
        <path class="cls-1" d="m80.71,946.86c-3.07,0-5.43-2.37-5.43-5.43v-49.75c0-3.15,2.36-5.43,5.43-5.43h31.44c8.06,0,7.88,11.39,0,11.39h-25.22v13.14h22.07c7.79,0,7.79,11.47,0,11.47h-22.07v13.14h26.71c7.97,0,8.58,11.47,0,11.47h-32.93Z"/>
        <path class="cls-1" d="m130.9,946.86c-2.89,0-6.04-1.58-6.04-5.43v-49.75c0-3.15,3.15-5.43,6.04-5.43h20.06c40.02,0,39.15,60.61.79,60.61h-20.84Zm5.52-49.92v39.24h14.54c23.65,0,24.7-39.24,0-39.24h-14.54Z"/>
        <path class="cls-1" d="m191.94,946.86c-3.07,0-5.43-2.37-5.43-5.43v-49.75c0-3.15,2.36-5.43,5.43-5.43h31.44c8.06,0,7.88,11.39,0,11.39h-25.22v13.14h22.07c7.79,0,7.79,11.47,0,11.47h-22.07v13.14h26.71c7.97,0,8.58,11.47,0,11.47h-32.93Z"/>
        <path class="cls-1" d="m235.03,899.39c2.01-16.99,27.68-20.06,39.76-10.77,5.96,4.82-.35,12.44-5.61,8.58-6.48-4.12-21.19-6.04-23.03,3.06-2.37,14.36,35.73,6.13,35.12,29.43-.61,22.25-32.84,22.77-44.93,12.79-2.89-2.36-2.8-6.22-1.23-8.58,2.28-2.28,4.82-3.06,7.79-.61,7.18,4.91,25.66,8.58,26.98-3.85-1.14-12.96-37.57-5.17-34.86-30.04Z"/>
        <path class="cls-1" d="m314.2,946.86c-2.89,0-6.04-1.58-6.04-5.43v-49.75c0-3.15,3.15-5.43,6.04-5.43h20.06c40.02,0,39.15,60.61.79,60.61h-20.84Zm5.52-49.92v39.24h14.54c23.65,0,24.7-39.24,0-39.24h-14.54Z"/>
        <path class="cls-1" d="m400.72,947.74c-16.2.7-33.02-10.07-33.02-31.53s16.82-32.14,33.02-32.14c15.33.79,31.35,11.39,31.35,32.14s-16.03,31.53-31.35,31.53Zm-.96-52.29c-9.81,0-20.49,6.92-20.49,20.76s10.69,20.76,20.49,20.76,20.84-7.01,20.84-20.76-10.77-20.76-20.84-20.76Z"/>
        <path class="cls-1" d="m438.47,892.39c0-3.15.7-6.22,5.25-6.22,3.15,0,3.85.79,6.22,3.07l28.99,36.26v-33.98c0-2.89,2.54-6.04,5.52-6.04,3.15,0,6.22,3.15,6.22,6.04v49.31c0,3.85-2.37,5.34-4.64,6.04-3.06,0-4.55-.7-7.09-3.06l-28.99-36.79v33.81c0,3.85-2.37,6.04-5.52,6.04s-5.96-2.19-5.96-6.04v-48.43Z"/>
        <path class="cls-1" d="m524.91,946.86c-3.15,0-5.34-2.37-5.34-5.43v-49.75c0-3.15,2.19-5.43,5.34-5.43h24.61c11.47,0,17.69,7.79,17.69,16.73,0,3.94-1.14,7.79-4.82,11.04,6.92,2.71,9.98,8.06,9.98,14.54,0,10.07-6.83,18.3-19.97,18.3h-27.5Zm24.61-49.92h-18.48v13.05h18.48c3.77,0,6.13-2.37,6.13-7.01,0-2.89-2.37-6.04-6.13-6.04Zm-18.48,39.24h21.37c10.16,0,10.16-15.5,0-15.5h-21.37v15.5Z"/>
        <path class="cls-1" d="m609.16,947.74c-16.2.7-33.02-10.07-33.02-31.53s16.82-32.14,33.02-32.14c15.33.79,31.35,11.39,31.35,32.14s-16.03,31.53-31.35,31.53Zm-.96-52.29c-9.81,0-20.49,6.92-20.49,20.76s10.69,20.76,20.49,20.76,20.84-7.01,20.84-20.76-10.77-20.76-20.84-20.76Z"/>
        <path class="cls-1" d="m645.77,899.39c2.01-16.99,27.68-20.06,39.76-10.77,5.96,4.82-.35,12.44-5.61,8.58-6.48-4.12-21.19-6.04-23.03,3.06-2.37,14.36,35.73,6.13,35.12,29.43-.61,22.25-32.84,22.77-44.93,12.79-2.89-2.36-2.8-6.22-1.23-8.58,2.28-2.28,4.82-3.06,7.79-.61,7.18,4.91,25.66,8.58,26.98-3.85-1.14-12.96-37.57-5.17-34.86-30.04Z"/>
        <path class="cls-1" d="m695.51,916.12c0-16.9,10.6-31.44,30.74-31.44,7.62,0,13.66,2.28,20.06,7.79,2.37,2.19,2.63,6.04.26,8.5-2.36,2.1-5.96,1.84-8.06-.26-3.59-3.77-7.27-4.82-12.26-4.82-13.49,0-19.97,9.55-19.97,20.23s6.39,20.84,19.97,20.84c4.99,0,9.63-2.01,13.66-5.61,2.71-2.1,6.48-1.05,8.06,1.05,1.4,1.93,2.1,5.17-.96,8.23-6.13,5.69-13.49,6.83-20.76,6.83-21.19,0-30.74-14.45-30.74-31.36Z"/>
        <path class="cls-1" d="m785.8,947.74c-16.2.7-33.02-10.07-33.02-31.53s16.82-32.14,33.02-32.14c15.33.79,31.35,11.39,31.35,32.14s-16.03,31.53-31.35,31.53Zm-.96-52.29c-9.81,0-20.49,6.92-20.49,20.76s10.69,20.76,20.49,20.76,20.84-7.01,20.84-20.76-10.77-20.76-20.84-20.76Z"/>
      </g>
      <path class="cls-1" d="m28.08,861.52c-6.54,0-11.59-5.05-11.59-11.59v-106.18c0-6.73,5.05-11.59,11.59-11.59h67.11c17.2,0,16.82,24.3,0,24.3h-53.84v28.04h47.11c16.64,0,16.64,24.49,0,24.49h-47.11v28.04h57.01c17.01,0,18.32,24.49,0,24.49H28.08Z"/>
      <path class="cls-1" d="m176.25,777.03l32.53-40.75c9.72-12.71,28.6,3.55,17.95,15.7-11.22,13.27-22.99,27.67-34.21,42.43l38.13,47.48c10.28,14.02-10.28,27.48-20.38,13.65l-34.39-44.12-33.83,45.05c-9.53,13.65-30.66-1.68-20-14.39l37.57-47.67c-11.78-14.77-23.18-29.16-34.58-42.43-11.78-14.02,10.09-28.41,18.69-15.33l32.52,40.38Z"/>
      <path class="cls-1" d="m239.81,743.38c0-6.17,4.86-12.9,12.71-12.9h43.18c24.3,0,46.17,16.26,46.17,47.48,0,29.54-21.87,45.98-46.17,45.98h-31.22v24.67c0,8.22-5.23,12.9-11.96,12.9-6.17,0-12.71-4.67-12.71-12.9v-105.24Zm24.67,10.65v46.55h31.22c12.52,0,22.43-11.03,22.43-22.62,0-13.08-9.91-23.93-22.43-23.93h-31.22Z"/>
      <path class="cls-1" d="m420.17,863.39c-34.58,1.5-70.47-21.5-70.47-67.29s35.89-68.6,70.47-68.6c32.71,1.68,66.92,24.3,66.92,68.6s-34.21,67.29-66.92,67.29Zm-2.06-111.6c-20.94,0-43.74,14.77-43.74,44.3s22.8,44.3,43.74,44.3,44.49-14.95,44.49-44.3-22.99-44.3-44.49-44.3Z"/>
      <path class="cls-1" d="m529.6,755.53h-32.71c-16.26,0-16.26-23.93,0-23.93h88.42c16.64,0,16.64,23.93,0,23.93h-31.03v94.4c0,16.26-24.67,16.64-24.67,0v-94.4Z"/>
      <path class="cls-1" d="m619.68,861.52c-6.54,0-11.59-5.05-11.59-11.59v-106.18c0-6.73,5.05-11.59,11.59-11.59h67.11c17.2,0,16.82,24.3,0,24.3h-53.84v28.04h47.11c16.64,0,16.64,24.49,0,24.49h-47.11v28.04h57.01c17.01,0,18.32,24.49,0,24.49h-70.28Z"/>
      <path class="cls-1" d="m705.16,795.91c0-36.08,22.62-67.11,65.61-67.11,16.26,0,29.16,4.86,42.81,16.64,5.05,4.67,5.61,12.9.56,18.13-5.05,4.49-12.71,3.93-17.2-.56-7.66-8.04-15.52-10.28-26.17-10.28-28.79,0-42.62,20.37-42.62,43.18s13.65,44.49,42.62,44.49c10.66,0,20.56-4.3,29.16-11.96,5.79-4.49,13.83-2.24,17.2,2.24,2.99,4.11,4.49,11.03-2.06,17.57-13.09,12.15-28.79,14.58-44.3,14.58-45.24,0-65.61-30.84-65.61-66.92Z"/>
    </g>
  </g>
</svg>