<?xml version="1.0" encoding="UTF-8"?>
<svg id="Capa_2" data-name="Capa 2" xmlns="http://www.w3.org/2000/svg" viewBox="0 0 410.3 199.79">
  <defs>
    <style>
      .cls-1 {
        fill: #4c276d;
      }

      .cls-1, .cls-2, .cls-3 {
        stroke-width: 0px;
      }

      .cls-2 {
        fill: #6f3293;
      }

      .cls-3 {
        fill: #fff;
      }
    </style>
  </defs>
  <g id="Layer_1" data-name="Layer 1">
    <g>
      <g>
        <g>
          <g>
            <path class="cls-2" d="m52.37,120.45c-3.37,0-6.85-.49-10.34-1.47-4.77-1.33-9.6-3.48-14.37-6.4-4.3-2.63-8.49-5.71-12.43-9.15-1.7-1.48-3.46-3.27-5.37-5.46-2.27-2.6-4.24-5.44-5.85-8.45-2.01-3.75-3.29-7.66-3.8-11.61-.93-7.26,1.46-14.35,6.57-19.46,2.7-2.7,5.75-4.81,9.07-6.29,1.37-.61,2.87-1.26,4.57-1.96.42-.18,1.15-.52,2.23-1.18h0s.59-.4,1.79-1.65c.36-.38.49-.58.49-.58.52-.83.84-1.42,1.02-1.78.55-1.09,1.07-2.1,1.56-3.05,1.29-2.5,2.91-4.74,4.81-6.67,3.28-3.33,7.57-5.5,12.39-6.26,1.21-.19,2.45-.29,3.7-.29,2.43,0,4.97.37,7.53,1.09,2.86.81,5.72,2.08,8.75,3.89,2.5,1.49,5.05,3.37,7.79,5.73,2.7,2.33,5.28,4.98,7.67,7.88,2.78,3.37,5.03,6.98,6.71,10.74,2.06,4.63,3.11,9.47,3.11,14.37,0,6.31-2.13,12.45-6.16,17.75-.92,1.22-1.91,2.33-2.95,3.35.13,5.04-1.33,9.96-4.28,14.34-4.27,6.33-10.34,10.45-17.57,11.92-2.15.43-4.37.65-6.62.65Z"/>
            <path class="cls-2" d="m60.67,53.13c1.95,1.68,3.79,3.58,5.53,5.69,1.74,2.11,3.12,4.3,4.14,6.6,1.03,2.3,1.54,4.63,1.54,7.02,0,2.39-.84,4.67-2.48,6.82-.88,1.16-1.84,2.07-2.89,2.64-1.05.57-2.05.98-3,1.24-.95.25-1.78.44-2.48.57-.7.13-1.17.35-1.41.67-.21.29-.06.88.46,1.78.52.9,1.05,1.98,1.59,3.23.54,1.26.9,2.62,1.06,4.08.16,1.46-.22,2.9-1.17,4.31-1.57,2.33-3.62,3.79-6.17,4.31-2.55.52-5.4.36-8.52-.51-3.12-.87-6.41-2.33-9.82-4.42-3.41-2.08-6.75-4.53-9.97-7.35-1.04-.9-2.25-2.14-3.64-3.73-1.38-1.59-2.57-3.3-3.54-5.11-.98-1.82-1.57-3.62-1.8-5.37-.23-1.76.26-3.22,1.43-4.39,1.14-1.14,2.35-1.99,3.65-2.56,1.29-.57,2.68-1.17,4.16-1.78,1.48-.61,3.05-1.43,4.73-2.46,1.67-1.02,3.46-2.54,5.38-4.54,1.11-1.16,2.03-2.32,2.76-3.48.73-1.16,1.35-2.25,1.87-3.28.52-1.02,1.01-1.98,1.47-2.88.46-.89,1.01-1.66,1.64-2.29.56-.57,1.34-.93,2.34-1.09.99-.16,2.15-.04,3.49.34,1.33.38,2.8,1.06,4.42,2.02,1.61.96,3.35,2.27,5.24,3.9Zm-4.17,11.48c-.52-.43-1.05-.69-1.6-.77-.55-.08-1.07-.07-1.55.05-.49.11-.91.29-1.27.54-.36.25-.65.49-.85.73-.99,1.15-1.56,2.18-1.71,3.08-.15.9.2,1.71,1.06,2.43.39.33.89.61,1.49.84.6.23,1.21.34,1.84.34.63,0,1.26-.14,1.89-.41.63-.27,1.19-.72,1.69-1.35.31-.38.49-.82.56-1.31.07-.49.05-.99-.05-1.51-.11-.52-.29-1.01-.54-1.48-.26-.47-.57-.86-.96-1.18Zm-15.73,13.21c-.67.76-1.04,1.45-1.12,2-.08.55.02.94.28,1.16.34.29.79.64,1.35,1.05.56.41,1.16.76,1.79,1.05.63.29,1.23.44,1.81.48.57.03,1.03-.16,1.36-.58.45-.56.64-1.15.58-1.77-.06-.62-.24-1.23-.54-1.82-.3-.59-.69-1.15-1.17-1.67-.48-.52-.95-.97-1.39-1.34-.44-.38-.81-.49-1.09-.35-.28.14-.94.74-1.87,1.8Z"/>
          </g>
          <g>
            <path class="cls-2" d="m93.27,147.51c-3.25,0-6.62-.38-10.01-1.13-4.83-1.06-9.62-2.84-14.23-5.29-4.15-2.2-7.96-4.68-11.31-7.37-4.05-3.24-7.33-6.9-9.76-10.87-3.03-4.94-4.6-10.27-4.68-15.82-.08-5.9,1.68-11.66,5.26-17.09.95-1.44,2.02-2.82,3.19-4.08.79-.86,1.53-1.57,2.12-2.14l.72-.7c.79-.77,1.69-1.65,2.72-2.56.72-.64,1.45-1.29,2.16-1.95.36-.34.72-.7,1.08-1.1.17-.52.35-1.06.54-1.59.37-1.1.77-2.18,1.18-3.23,1.04-2.67,2.44-5.06,4.17-7.1,3.59-4.25,7.93-7.2,12.89-8.77,2.27-.72,4.65-1.09,7.04-1.09.17,0,.33,0,.5,0,1.23-.96,2.63-1.87,4.25-2.7,2.52-1.29,5.26-2.33,8.16-3.11,2.64-.7,5.27-1.18,7.83-1.41,1.15-.1,2.21-.15,3.23-.15,2.72,0,5.17.37,7.47,1.12,2.62.85,5.06,2.17,7.27,3.93,2.27,1.8,4.15,3.98,5.6,6.47,1.45,2.49,2.43,5.23,2.88,8.12.57,3.65.21,7.44-1.06,10.98-.05.13-.1.27-.15.4.31.64.59,1.29.85,1.96,1.93,4.97,2.46,10.33,1.59,15.94-.38,2.56-1.2,5.11-2.46,7.6-.64,1.27-1.4,2.6-2.25,3.95-.49.78-.98,1.59-1.48,2.43-.12.2-.23.41-.33.62-.19,1.02-.36,2.1-.53,3.21-.25,1.71-.56,3.46-.91,5.2-.52,2.56-1.3,5.12-2.31,7.6-2.32,5.68-6.15,10.45-11.06,13.79-4.42,3-9.48,4.88-15.04,5.59-1.68.21-3.4.32-5.12.32Z"/>
            <path class="cls-2" d="m63.62,99.88c.42-.63.88-1.23,1.39-1.78.51-.55,1.08-1.09,1.62-1.62.86-.83,1.72-1.69,2.57-2.44.85-.75,1.69-1.51,2.52-2.28.83-.77,1.63-1.59,2.41-2.47.78-.88,1.52-1.87,2.22-2.96.36-.57.67-1.27.94-2.1.27-.83.55-1.69.85-2.56.3-.87.6-1.71.92-2.52.31-.81.69-1.47,1.13-1.98,1.36-1.61,2.88-2.68,4.55-3.21,1.67-.53,3.43-.21,5.33.94,2.22,1.34,3.46,3.12,3.75,5.39.29,2.27-.26,4.7-1.69,7.28-.48.86-1.02,1.62-1.64,2.27-.62.65-1.25,1.3-1.91,1.92-.66.63-1.3,1.27-1.93,1.91-.63.65-1.18,1.4-1.67,2.25-.53.93-.96,2.02-1.3,3.27-.33,1.25-.46,2.49-.36,3.72.09,1.23.42,2.39.99,3.49.56,1.1,1.46,1.97,2.68,2.61,1.26.66,2.48.89,3.65.68,1.16-.21,2.25-.67,3.25-1.37s1.87-1.57,2.63-2.59c.76-1.02,1.37-2.02,1.84-2.98.49-1,.84-2.03,1.05-3.07.21-1.04.39-2.07.52-3.1.14-1.03.32-2.06.55-3.1.22-1.04.59-2.05,1.09-3.05.5-1,1.13-2.02,1.89-3.06.76-1.04,1.61-1.94,2.54-2.71.93-.76,1.93-1.28,3-1.56,1.07-.28,2.17-.15,3.32.38,1.92.89,3.25,2.32,4.03,4.31.77,1.99.97,4.23.57,6.72-.09.64-.32,1.35-.72,2.13s-.87,1.62-1.44,2.52c-.56.9-1.13,1.84-1.71,2.81-.58.97-1.09,1.99-1.54,3.06-.43,1.03-.77,2.16-.99,3.4-.23,1.24-.44,2.55-.65,3.94-.21,1.39-.46,2.81-.75,4.26-.29,1.45-.73,2.9-1.33,4.35-.98,2.4-2.47,4.31-4.5,5.68-2.03,1.38-4.42,2.26-7.16,2.61-2.75.35-5.74.18-8.97-.53-3.23-.71-6.46-1.91-9.67-3.61-3.2-1.7-6.03-3.54-8.47-5.5-2.44-1.96-4.33-4.04-5.65-6.2-1.32-2.16-2-4.39-2.03-6.64-.03-2.26.74-4.56,2.29-6.91Zm51.84-27.06c-.27.76-.64,1.37-1.09,1.82-.45.45-.96.82-1.53,1.09-.57.27-1.17.48-1.81.61-.64.13-1.28.25-1.9.33-.71.1-1.53.2-2.45.31-.92.11-1.84.18-2.78.22-.94.04-1.84.02-2.72-.04-.87-.06-1.65-.22-2.29-.49-.45-.19-.88-.48-1.27-.82-.39-.35-.71-.76-.94-1.22-.23-.47-.36-.96-.4-1.47-.04-.51.05-1.05.28-1.58.41-.98,1.36-1.83,2.76-2.55,1.4-.72,2.92-1.29,4.58-1.73,1.65-.44,3.25-.73,4.8-.87,1.55-.14,2.72-.1,3.48.15.58.19,1.13.49,1.63.89.5.4.91.88,1.24,1.43.32.56.54,1.17.64,1.84.11.67.03,1.37-.22,2.08Z"/>
          </g>
          <g>
            <path class="cls-2" d="m138.65,165.88c-.98,0-1.97-.03-2.96-.09-4.23-.25-8.2-.91-11.82-1.94-1.95-.56-3.94-1.19-5.91-1.88-2.51-.88-4.98-1.95-7.32-3.18-2.6-1.37-5.03-2.96-7.23-4.75-2.77-2.24-5.14-4.89-7.05-7.88-1.64-2.54-2.87-5.37-3.66-8.4-.61-2.32-.99-4.72-1.13-7.11-.15-2.53-.02-5.09.38-7.6.4-2.49,1.04-4.88,1.91-7.09,1.8-4.57,4.77-8.39,8.59-11.13.17-3.22.89-6.5,2.16-9.81,2.18-5.69,6.09-10.28,11.32-13.26,3.48-1.98,7.28-3.3,11.3-3.92,2.01-.31,4.05-.46,6.08-.46,1.3,0,2.62.06,3.93.19,3.08.3,5.77.8,8.22,1.54,2.91.88,5.87,2,8.79,3.34,3.63,1.67,6.91,3.72,9.76,6.11,3.68,3.08,6.55,6.8,8.52,11.04,2.51,5.38,3.16,11.51,1.88,17.73-.32,1.57-.81,3.22-1.43,4.88-.32.84-.67,1.66-1.07,2.46.05.11.1.22.15.34,2.18,4.94,2.79,10.45,1.75,15.94-1.33,7.05-4.95,13.01-10.47,17.23-4.06,3.11-8.77,5.29-14,6.5-3.46.8-7.06,1.2-10.69,1.2Z"/>
            <path class="cls-2" d="m135.81,129.37c.37-1.33.13-2.59-.71-3.78-.84-1.19-1.96-2.38-3.37-3.58-1.41-1.2-2.92-2.47-4.53-3.82-1.61-1.35-3-2.87-4.18-4.54-1.17-1.67-1.96-3.51-2.37-5.5-.41-1.99-.13-4.21.82-6.68.69-1.79,1.83-3.13,3.39-4.02,1.57-.89,3.26-1.47,5.09-1.76,1.83-.28,3.67-.33,5.52-.15,1.85.18,3.44.46,4.77.86,2.15.65,4.29,1.46,6.45,2.46,2.16.99,4.06,2.17,5.69,3.54,1.64,1.37,2.89,2.98,3.75,4.83.86,1.85,1.06,4,.56,6.45-.14.66-.35,1.38-.64,2.16-.29.78-.68,1.5-1.15,2.16-.47.65-1.03,1.16-1.67,1.53-.64.37-1.38.46-2.2.27-.48-.11-1.03-.24-1.68-.42-.64-.17-1.23-.43-1.77-.76-.53-.33-.94-.76-1.23-1.26-.28-.51-.33-1.15-.13-1.93.38-1.52.13-2.68-.72-3.5-.86-.82-2.03-1.43-3.53-1.84-1.12-.31-1.97-.32-2.55-.02-.58.3-.97.77-1.15,1.41-.04.13-.05.26-.05.4,0,.14.02.26.03.36.24,1.37.88,2.7,1.92,3.99,1.04,1.28,2.28,2.56,3.71,3.82,1.43,1.26,2.93,2.52,4.49,3.78,1.56,1.25,2.97,2.58,4.21,3.98,1.24,1.4,2.22,2.9,2.93,4.49.7,1.59.89,3.35.52,5.29-.5,2.63-1.72,4.73-3.7,6.25-1.99,1.52-4.35,2.61-7.07,3.24-2.73.63-5.58.86-8.53.69-2.95-.18-5.6-.61-7.92-1.27-1.59-.46-3.24-.98-4.92-1.57-1.69-.59-3.31-1.29-4.87-2.11-1.56-.82-2.98-1.75-4.26-2.79-1.28-1.04-2.36-2.25-3.23-3.62-.61-.94-1.07-2.01-1.38-3.2-.31-1.19-.5-2.4-.58-3.63-.07-1.23-.01-2.45.18-3.67.19-1.22.49-2.33.88-3.32.74-1.87,1.97-3.13,3.68-3.82,1.71-.68,3.52-.67,5.47.03,2.12.76,3.87,1.8,5.25,3.13,1.38,1.33,2.5,2.73,3.36,4.22.56,1.02,1.03,1.81,1.4,2.36.37.56.72.99,1.05,1.3.33.31.65.53.98.67.33.14.7.27,1.1.39.5.14,1.04.15,1.62,0,.58-.14.99-.64,1.23-1.5Z"/>
          </g>
          <g>
            <path class="cls-2" d="m190.24,183.43c-.76,0-1.52-.02-2.27-.06-2.73-.14-5.53-.59-8.32-1.33-2.96-.78-5.74-1.87-8.28-3.24-3.96-2.14-7.16-5.31-9.27-9.19-.1-.19-.2-.38-.3-.56-5.17-1.48-9.6-4.18-12.94-7.92-3.37-3.77-5.63-8.19-6.72-13.14-.8-3.62-1.04-7.44-.72-11.33.22-2.59.54-5.11.95-7.47.22-1.22.44-2.44.68-3.66.34-1.7.66-3.13,1.03-4.49,1.12-4.14,2.97-8.31,5.49-12.39,2.4-3.89,5.31-7.39,8.64-10.41,3.5-3.17,7.43-5.72,11.68-7.56,4.28-1.86,8.79-2.8,13.42-2.8.97,0,1.96.04,2.93.12,5.02.42,9.64,1.86,13.74,4.28,3.56,2.1,6.73,4.8,9.43,8.05,2.32,2.79,4.33,5.94,5.97,9.36,1.45,3.01,2.65,6.16,3.57,9.35.92,3.16,1.6,6.37,2.02,9.53.42,3.14.64,6.15.64,8.97,0,4.1-.43,7.77-1.32,11.21-.55,2.12-1.29,4.12-2.21,6.02.31,1.45.47,2.95.45,4.48-.06,5.56-1.91,10.65-5.35,14.74-2.61,3.09-5.84,5.45-9.63,7.03-2.81,1.17-5.84,1.91-9.01,2.2-1.44.13-2.89.2-4.31.2Z"/>
            <path class="cls-2" d="m188.51,154.18c.43.29,1.01.54,1.75.73.74.19,1.55.36,2.44.51.89.15,1.79.31,2.71.5.91.18,1.76.4,2.52.67.77.26,1.39.58,1.86.97.47.39.7.89.7,1.52-.01,1.34-.38,2.44-1.1,3.3-.73.86-1.65,1.53-2.76,1.99-1.11.46-2.36.76-3.73.89-1.37.13-2.7.16-3.99.09-1.49-.08-3.04-.33-4.64-.75-1.6-.42-3.04-.98-4.31-1.67-.88-.48-1.55-1.12-1.98-1.92-.44-.8-.81-1.65-1.13-2.53-.32-.88-.66-1.75-1.03-2.59-.37-.85-.91-1.58-1.65-2.2-.32-.26-.75-.48-1.27-.65-.53-.17-1.1-.33-1.7-.47-.61-.14-1.19-.26-1.75-.35-.56-.09-1.02-.16-1.36-.21-2.53-.47-4.46-1.45-5.75-2.89-1.29-1.44-2.14-3.12-2.55-5-.42-1.88-.53-3.86-.36-5.94.17-2.08.42-4.02.74-5.82.19-1.1.4-2.2.62-3.29.22-1.09.46-2.2.75-3.27.7-2.58,1.88-5.12,3.42-7.61,1.54-2.48,3.34-4.65,5.4-6.52,2.06-1.87,4.3-3.32,6.74-4.38,2.44-1.06,4.97-1.47,7.64-1.24,2.31.2,4.33.8,6.09,1.84,1.76,1.04,3.33,2.38,4.71,4.04,1.38,1.66,2.57,3.53,3.58,5.62,1,2.1,1.85,4.28,2.51,6.57.66,2.28,1.16,4.59,1.47,6.91.31,2.32.48,4.51.48,6.57,0,2.5-.24,4.72-.74,6.67-.5,1.94-1.33,3.62-2.48,5.01-1.16,1.39-2.7,2.51-4.64,3.32-1.94.82-4.33,1.36-7.17,1.61Zm-13.73-25.39c-.28,2.4.1,4.36,1.19,5.87,1.08,1.51,3.1,2.43,6.02,2.67,2.78.24,4.76-.27,5.92-1.45,1.16-1.18,1.79-2.85,1.91-4.99.06-1.03,0-2.14-.18-3.33-.18-1.19-.51-2.3-1-3.31-.49-1.01-1.16-1.88-2.03-2.59-.86-.71-1.96-1.12-3.3-1.23-1.25-.11-2.37.07-3.35.53-.99.46-1.84,1.1-2.57,1.92-.73.82-1.32,1.74-1.75,2.77-.43,1.03-.72,2.08-.84,3.14Z"/>
          </g>
          <g>
            <path class="cls-2" d="m226.62,173.14c-1.8,0-3.58-.07-5.31-.22-5.13-.43-9.86-1.63-14.06-3.59-5.21-2.43-9.43-5.99-12.54-10.57-3.24-4.77-4.94-10.44-5.05-16.83-.03-1.7.07-3.39.31-5.06.16-1.15.36-2.14.52-2.94l.2-1c.21-1.08.44-2.3.77-3.61.23-.94.45-1.9.66-2.85.12-.53.21-1.1.29-1.69-.16-.57-.32-1.15-.47-1.73-.29-1.1-.57-2.21-.81-3.3-.61-2.73-.79-5.43-.53-8.03.54-5.43,2.37-10.26,5.45-14.32,4.26-5.63,10.72-8.95,18.19-9.35.52-.03,1.03-.04,1.52-.04,2.42,0,4.77.32,6.99.94,3.32-3.18,7.51-5.25,12.24-6.01,1.38-.22,2.79-.34,4.17-.34,5.26,0,10.37,1.64,14.76,4.73,4.32,3.04,7.73,7.18,10.12,12.3,1.1,2.31,1.84,4.87,2.19,7.61.18,1.4.3,2.92.36,4.51.03.93.08,1.88.14,2.86.01.24.04.49.08.74.42.97.88,1.96,1.37,2.99.74,1.54,1.45,3.16,2.14,4.81.99,2.4,1.78,4.94,2.32,7.55,1.25,5.98.77,12.04-1.39,17.53-1.94,4.95-5.04,9.34-9.21,13.04-3.62,3.22-7.94,5.85-12.86,7.82-4.55,1.83-9.46,3.04-14.58,3.6-2.71.3-5.39.45-7.98.45Z"/>
            <path class="cls-2" d="m207.72,141.62c-.01-.76.03-1.51.14-2.25.1-.74.26-1.5.41-2.25.23-1.17.45-2.37.72-3.47.27-1.1.53-2.2.77-3.3.24-1.1.43-2.24.58-3.4.14-1.16.19-2.4.15-3.69-.02-.67-.15-1.43-.39-2.27-.24-.84-.48-1.71-.72-2.59-.24-.89-.45-1.75-.64-2.6-.19-.84-.25-1.6-.18-2.27.21-2.1.83-3.84,1.88-5.21,1.04-1.37,2.62-2.1,4.77-2.22,2.51-.14,4.48.64,5.96,2.35,1.48,1.72,2.37,4.04,2.64,6.97.09.98.06,1.91-.07,2.8-.14.89-.3,1.78-.48,2.66-.19.89-.35,1.78-.5,2.66-.15.89-.18,1.82-.1,2.8.09,1.07.34,2.22.75,3.43.42,1.22,1,2.32,1.75,3.28.75.96,1.65,1.75,2.71,2.34,1.06.59,2.26.82,3.6.67,1.38-.16,2.49-.65,3.32-1.48.83-.82,1.45-1.81,1.87-2.95s.65-2.34.7-3.61c.05-1.27,0-2.44-.16-3.5-.16-1.1-.44-2.15-.84-3.13-.4-.98-.83-1.94-1.29-2.87-.45-.93-.88-1.89-1.27-2.87-.39-.98-.65-2.03-.8-3.14-.15-1.11-.2-2.31-.16-3.59.04-1.29.23-2.51.56-3.66.33-1.15.86-2.14,1.57-2.96.71-.83,1.68-1.33,2.9-1.53,2.06-.33,3.93.11,5.67,1.33,1.73,1.22,3.14,2.97,4.2,5.26.29.58.49,1.3.6,2.17.11.87.19,1.83.23,2.89.04,1.06.09,2.16.16,3.28.07,1.12.21,2.26.44,3.4.22,1.1.57,2.22,1.08,3.37.5,1.15,1.05,2.36,1.66,3.63.6,1.27,1.19,2.59,1.75,3.95.57,1.37,1.01,2.81,1.33,4.34.53,2.54.37,4.95-.52,7.22-.89,2.27-2.36,4.34-4.4,6.15-2.04,1.82-4.58,3.35-7.59,4.56-3.01,1.21-6.29,2.02-9.81,2.4-3.52.38-6.81.44-9.84.19-3.03-.25-5.68-.92-7.91-1.96-2.24-1.04-3.98-2.5-5.24-4.35-1.25-1.85-1.89-4.18-1.93-7Z"/>
          </g>
          <g>
            <path class="cls-2" d="m271.02,163.95c-1.99,0-3.95-.14-5.81-.43-5.36-.82-10.07-2.84-13.99-6.01-4.55-3.68-7.67-8.84-9.04-14.91-.83-3.7-.98-7.42-.42-11.05.27-1.75.6-3.55.98-5.34.1-.44.18-.89.26-1.33-.28-.67-.57-1.35-.87-2-.5-1.11-1-2.24-1.47-3.37-.79-1.88-1.43-3.84-1.91-5.84-1.31-5.51-.94-10.96,1.09-15.77,1.6-3.79,3.97-7.08,7.05-9.77,2.4-2.11,5.17-3.85,8.21-5.17,2-.87,3.97-1.59,5.87-2.15.72-.21,1.57-.46,2.53-.74l.51-.15c1.61-.47,3.33-.89,5.11-1.25,1.87-.38,3.79-.67,5.7-.85,1.12-.11,2.23-.17,3.32-.17,1.73,0,3.45.14,5.1.41,3.72.62,7.15,1.97,10.21,4.02,3.99,2.68,7.06,6.57,8.87,11.26,1.39,3.59,1.96,7.18,1.7,10.7.78,1.24,1.49,2.63,2.09,4.22.05.12.09.24.13.36.97.59,1.92,1.25,2.82,1.98,3.23,2.61,5.71,6.02,7.37,10.15,2.68,6.69,2.14,13.95-1.52,20.45-1.95,3.46-4.56,6.64-7.76,9.47-2.69,2.38-5.66,4.47-8.82,6.21-3.03,1.67-5.74,2.87-8.28,3.68-4.1,1.3-8.09,2.25-11.87,2.83-2.45.38-4.87.57-7.16.57Z"/>
            <path class="cls-2" d="m256.32,109.46c-.43-1.78-.36-3.3.17-4.55.53-1.26,1.3-2.32,2.3-3.2,1.01-.88,2.17-1.61,3.5-2.18,1.33-.58,2.6-1.05,3.82-1.41.83-.25,1.81-.53,2.95-.87,1.14-.33,2.35-.63,3.63-.89,1.28-.26,2.58-.45,3.89-.58,1.31-.13,2.55-.1,3.7.09,1.16.19,2.19.59,3.1,1.2.91.61,1.61,1.54,2.09,2.79.45,1.17.62,2.2.51,3.11-.12.91-.44,1.69-.96,2.34-.52.65-1.2,1.21-2,1.67-.81.46-1.69.86-2.64,1.19-1.07.37-2.15.69-3.21.95-1.06.26-2.14.56-3.22.9-.58.18-1.16.48-1.74.89-.58.41-.75,1.02-.5,1.83.34,1.11,1.02,1.78,2.07,2,1.04.22,2.72-.04,5.01-.8,1.19-.39,2.33-.77,3.44-1.13,1.1-.36,2.11-.58,3.01-.65.91-.07,1.7.08,2.39.44.69.36,1.23,1.04,1.61,2.05.36.96.31,1.85-.17,2.68-.48.82-1.2,1.56-2.17,2.22-.97.66-2.09,1.24-3.36,1.74-1.27.5-2.5.95-3.69,1.33-.92.3-1.65.65-2.18,1.05-.53.4-.92.8-1.19,1.21-.26.41-.41.8-.44,1.19-.03.38,0,.72.09,1.02.26.86.94,1.29,2.06,1.3,1.11,0,2.39-.22,3.83-.69,1.39-.45,2.71-1.07,3.94-1.85,1.23-.78,2.53-1.42,3.9-1.92.75-.27,1.6-.48,2.53-.62.93-.14,1.86-.11,2.77.09.92.19,1.77.61,2.57,1.26.8.64,1.45,1.59,1.95,2.83.62,1.53.46,3.15-.49,4.84-.96,1.69-2.28,3.3-3.99,4.81-1.7,1.51-3.57,2.82-5.57,3.92-2.01,1.11-3.69,1.86-5.03,2.28-3.3,1.04-6.37,1.77-9.17,2.2-2.81.43-5.31.47-7.49.14-2.18-.33-3.96-1.07-5.35-2.2-1.39-1.12-2.31-2.74-2.78-4.83-.34-1.53-.4-2.99-.19-4.39.21-1.4.47-2.81.78-4.24.31-1.42.55-2.85.72-4.27.17-1.42.07-2.87-.29-4.34-.27-1.08-.6-2.12-1-3.1-.4-.98-.82-1.95-1.25-2.9-.43-.95-.86-1.92-1.27-2.9-.41-.98-.74-1.99-.99-3.04Z"/>
          </g>
          <g>
            <path class="cls-2" d="m311.81,148.49c-1.82,0-3.63-.15-5.36-.45-4.43-.77-8.43-2.44-11.9-4.97-3.83-2.8-6.81-6.58-8.63-10.93-1.25-2.99-2.02-6.25-2.28-9.68-.12-1.53-.23-3.13-.36-4.81-.09-1.23-.23-2.52-.41-3.84h0s-.02-.08-.09-.24c-.54-.8-1.1-1.61-1.65-2.39-.66-.94-1.3-1.85-1.91-2.74-1.24-1.81-2.28-3.7-3.12-5.64-2.75-6.4-3.09-13.11-1.01-19.4,2.26-6.84,7.28-12.16,14.9-15.83,4.89-2.35,10.29-3.75,16.04-4.14,1.24-.09,2.5-.13,3.74-.13,3.96,0,7.95.44,11.87,1.32,5.32,1.19,10.38,3.17,15.04,5.88,5.68,3.3,10.3,7.7,13.74,13.07,9.48,14.8,8.13,26.99,5.33,34.62-3.89,10.58-12.82,19.5-25.82,25.8-3.86,1.87-7.68,3.17-11.35,3.85-2.31.43-4.59.65-6.77.65Z"/>
            <path class="cls-2" d="m297.82,83.86c2.86-1.37,5.99-2.16,9.46-2.4,3.47-.24,6.93.02,10.41.8,3.48.78,6.78,2.05,9.9,3.87,3.12,1.82,5.68,4.19,7.61,7.2,4.29,6.7,5.65,13.03,3.58,18.65-2.69,7.32-9.91,12.47-16.74,15.78-2.36,1.14-4.63,1.95-6.78,2.35-2.15.4-4.07.45-5.75.16-1.68-.29-3.12-.88-4.32-1.76-1.2-.88-2.07-1.98-2.62-3.3-.52-1.24-.83-2.61-.94-4.11-.12-1.5-.23-3.08-.35-4.73-.12-1.65-.3-3.32-.54-5.02-.24-1.7-.72-3.37-1.44-5-.45-1.02-.98-1.99-1.59-2.89-.61-.9-1.23-1.79-1.85-2.67-.62-.88-1.21-1.73-1.78-2.55-.57-.83-1.03-1.67-1.4-2.53-1-2.34-1.14-4.54-.46-6.6.68-2.06,2.54-3.76,5.58-5.23Zm13.81,11.52c-.91.47-1.57,1.24-2.01,2.31-.43,1.07-.32,2.29.36,3.64.58,1.16,1.26,2.32,2.04,3.48.78,1.16,1.48,2.33,2.08,3.53.58,1.16,1.4,1.88,2.48,2.17,1.07.28,2.29.07,3.64-.64,1.77-.93,2.91-2.25,3.4-3.92.49-1.67.2-3.42-.82-5.26-.59-1.05-1.38-1.98-2.35-2.79-.97-.81-2-1.47-3.08-1.98-1.07-.51-2.12-.82-3.14-.93-1.02-.11-1.88.01-2.59.38Z"/>
          </g>
          <g>
            <path class="cls-2" d="m351.13,126.14c-5.19-.04-14.99-1.79-22.36-13.1-1.92-2.96-3.19-6.26-3.76-9.84l-.38-2.38.1-.9c-.06-.62-.19-2.01-.19-2.01-.11-1.16-.24-2.32-.38-3.45-.11-.87-.26-1.74-.44-2.59-.21-.98-.36-1.47-.41-1.63-.22-.66-.5-1.34-.82-2.03-.51-1.09-1.03-2.17-1.54-3.22-.7-1.43-1.38-2.94-2.02-4.47-.85-2.03-1.55-4.21-2.16-6.65-.98-3.97-1.05-7.91-.22-11.71.7-3.21,1.97-6.24,3.76-9,1.32-2.02,2.87-3.92,4.63-5.65,1.26-1.24,2.57-2.4,3.89-3.47,1.49-1.2,3.14-2.41,5.04-3.69,2.26-1.53,4.6-2.86,6.98-3.96,3.21-1.48,6.49-2.44,9.76-2.83.98-.12,1.97-.18,2.94-.18,4.99,0,9.71,1.55,13.66,4.5,1.73,1.29,3.49,2.83,5.22,4.59.02.02.35.35,1.27,1.03,1.07.26,2.15.52,3.22.75,2.38.53,4.73,1.21,7,2.04,4.02,1.47,7.64,3.8,10.76,6.92,2.61,2.61,4.81,5.41,6.54,8.31,2.52,4.23,3.9,8.76,4.12,13.48.22,4.7-.75,9.36-2.86,13.86-1.91,4.05-4.85,7.88-8.76,11.38-2.86,2.57-6.01,4.5-9.34,5.73-1.23.45-2.47.82-3.71,1.09-.43,1.1-.93,2.17-1.51,3.22-1.86,3.37-4.38,6.23-7.49,8.49-6.72,4.9-13.56,7.39-20.32,7.39h-.19Z"/>
            <path class="cls-2" d="m340.13,58.12c1.13-.91,2.42-1.85,3.87-2.83,1.45-.98,2.91-1.82,4.41-2.51,1.5-.69,2.95-1.13,4.36-1.3,1.41-.17,2.63.12,3.65.88.94.7,2,1.62,3.13,2.77,1.13,1.15,2.61,2.34,4.4,3.59,1.33.93,2.78,1.63,4.34,2.03,1.56.4,3.13.77,4.73,1.12,1.59.35,3.15.8,4.68,1.36,1.53.56,2.93,1.46,4.19,2.73,1.55,1.55,2.82,3.14,3.79,4.78.98,1.64,1.51,3.33,1.59,5.06.08,1.73-.31,3.52-1.16,5.35-.86,1.82-2.35,3.71-4.47,5.61-1.18,1.06-2.37,1.8-3.55,2.24-1.18.44-2.31.63-3.36.59-1.06-.04-2.01-.29-2.86-.74-.85-.45-1.56-1.03-2.13-1.71-.31-.38-.63-.81-.94-1.31-.31-.49-.69-.89-1.14-1.19-.44-.3-.96-.43-1.56-.4-.59.03-1.29.37-2.1,1.03-1.66,1.35-2.54,2.47-2.61,3.38-.08.91.19,1.76.79,2.53.85,1.09,1.46,2.25,1.82,3.46.36,1.22.49,2.41.37,3.57-.12,1.16-.47,2.27-1.05,3.31-.58,1.05-1.35,1.93-2.32,2.63-3.65,2.66-6.93,3.94-9.75,3.92-2.81-.02-5.25-1.68-7.35-4.9-.54-.82-.89-1.77-1.06-2.83.01-.14.02-.21.04-.35-.12-1.15-.23-2.42-.36-3.78-.13-1.37-.28-2.73-.46-4.1-.18-1.36-.41-2.71-.69-4.03-.28-1.32-.6-2.53-.95-3.58-.48-1.44-1.03-2.77-1.59-3.96-.56-1.19-1.12-2.36-1.67-3.5-.56-1.14-1.09-2.31-1.59-3.51-.5-1.2-.92-2.54-1.28-3.99-.31-1.25-.35-2.43-.12-3.52s.66-2.1,1.27-3.03c.61-.93,1.32-1.8,2.15-2.62s1.67-1.57,2.54-2.26Zm15.04,21.52c.08.09.27.1.57-.03.3-.12.62-.28.96-.47.34-.19.67-.38,1-.59.33-.21.55-.36.66-.45.41-.33.88-.78,1.42-1.34.54-.56.71-1.09.59-1.54-.07-.28-.3-.66-.73-1.09-.42-.43-.89-.9-1.41-1.4-.51-.5-1.05-1.01-1.61-1.54-.56-.52-1.04-1.02-1.44-1.51-.91-1.1-1.74-1.73-2.48-1.9-.74-.17-1.25-.14-1.53.09-.18.14-.34.38-.49.7-.15.32-.25.71-.3,1.15-.05.45,0,.92.14,1.44.15.51.43,1.03.85,1.55.36.45.72,1.03,1.06,1.72.35.7.69,1.39,1.03,2.09.34.7.65,1.34.93,1.91.28.58.56.98.76,1.19Z"/>
          </g>
        </g>
        <g>
          <g>
            <path class="cls-2" d="m176.79,103.78c-4.52,0-8.76-.31-12.61-.92-5-.79-9.55-2.3-13.51-4.49-4.94-2.72-8.88-6.5-11.71-11.22-2.87-4.79-4.32-10.4-4.32-16.67,0-3.99.57-7.83,1.68-11.4.68-2.17,1.45-4.38,2.28-6.56.55-1.43,1.06-2.9,1.51-4.37,0-.03.06-.21.06-.63,0-.79-.04-1.56-.13-2.27-.16-1.24-.33-2.47-.52-3.63-.26-1.61-.51-3.2-.72-4.71-.32-2.26-.49-4.61-.49-6.95,0-6.16,1.53-11.58,4.56-16.12,2.63-3.93,6.01-7.06,10.05-9.3,3.37-1.87,7.08-3.13,11.02-3.73,2.71-.42,5.36-.63,7.88-.63,1.19,0,2.62.02,4.27.05,2.18.05,4.44.22,6.72.52,2.41.32,4.83.8,7.19,1.44,3.37.91,6.48,2.26,9.29,4.03,3.58,2.26,6.51,5.19,8.72,8.72,2.62,4.17,3.95,8.96,3.95,14.27,0,4.38-.83,8.38-2.47,11.9-.24.51-.49,1.01-.76,1.5.68,2.16,1.12,4.69,1.12,7.6,0,1.34-.11,2.66-.32,3.95,1.42,1.78,2.62,3.77,3.58,5.96,1.56,3.54,2.35,7.56,2.35,11.93,0,6.9-2.5,13.23-7.22,18.3-2.99,3.21-6.56,5.91-10.6,8-3.5,1.82-7.19,3.19-10.95,4.09-3.75.89-6.98,1.33-9.88,1.33Z"/>
            <path class="cls-2" d="m156.36,29.96c0-2.54.51-4.57,1.52-6.09,1.01-1.52,2.27-2.7,3.78-3.53,1.51-.84,3.17-1.39,4.99-1.67,1.82-.28,3.53-.42,5.15-.42,1.09,0,2.39.02,3.9.05,1.51.03,3.08.16,4.72.37,1.64.22,3.26.54,4.87.98,1.61.43,3.05,1.05,4.33,1.86,1.27.81,2.3,1.83,3.08,3.07.78,1.24,1.17,2.79,1.17,4.65,0,1.74-.26,3.16-.78,4.27-.52,1.12-1.21,1.97-2.07,2.56-.86.59-1.83.99-2.92,1.21-1.09.22-2.24.33-3.43.33-1.35,0-2.68-.06-3.98-.19-1.3-.12-2.63-.19-3.98-.19-.73,0-1.5.16-2.3.46-.81.31-1.21,1.05-1.21,2.23,0,1.61.55,2.77,1.64,3.49,1.09.71,3.04,1.07,5.85,1.07,1.45,0,2.86.02,4.21.05,1.35.03,2.53.22,3.55.56,1.01.34,1.82.91,2.42,1.72.6.81.9,1.95.9,3.44s-.42,2.56-1.25,3.39c-.83.84-1.88,1.46-3.16,1.86-1.27.4-2.68.65-4.21.74-1.53.09-3,.14-4.41.14-1.09,0-1.99.16-2.69.46-.7.31-1.26.68-1.68,1.12-.42.43-.7.9-.86,1.39-.16.5-.23.96-.23,1.39,0,1.24.58,2.09,1.75,2.56,1.17.46,2.59.7,4.25.7s3.2-.23,4.76-.7c1.56-.46,3.14-.7,4.76-.7.88,0,1.83.14,2.85.42,1.01.28,1.95.78,2.81,1.49.86.71,1.56,1.69,2.11,2.93.55,1.24.82,2.79.82,4.65,0,2.29-.79,4.29-2.38,5.99-1.59,1.7-3.48,3.13-5.69,4.27-2.21,1.15-4.48,2-6.82,2.56-2.34.56-4.24.84-5.69.84-3.59,0-6.85-.23-9.79-.7-2.94-.46-5.47-1.28-7.6-2.46-2.13-1.18-3.78-2.74-4.95-4.69s-1.75-4.41-1.75-7.39c0-2.17.29-4.17.86-5.99.57-1.83,1.21-3.65,1.91-5.48.7-1.83,1.34-3.67,1.91-5.53.57-1.86.86-3.84.86-5.95,0-1.55-.09-3.05-.27-4.51-.18-1.45-.39-2.9-.62-4.32-.23-1.42-.46-2.86-.66-4.32-.21-1.45-.31-2.93-.31-4.41Z"/>
          </g>
          <g>
            <path class="cls-2" d="m240.73,102.48c-4.98,0-9.68-1.31-13.78-3.82-1.48.85-3.06,1.56-4.72,2.11-3.27,1.08-6.94,1.61-11.21,1.61-12.7,0-19.39-6.71-22.26-10.71-3.73-5.22-5.63-11.88-5.63-19.8,0-3.98.4-7.95,1.18-11.81.59-2.93,1.25-5.87,1.96-8.74.59-2.38,1.13-4.82,1.63-7.25.3-1.5.46-3.06.46-4.64,0-.88-.08-1.71-.25-2.53-.66-3.19-1-6.47-1-9.74,0-6.62,2.02-12.7,5.84-17.61,4.81-6.17,11.78-9.56,19.63-9.56,5.77,0,11.2,1.83,15.85,5.31.87-.65,1.78-1.24,2.74-1.79,3.89-2.21,8.34-3.34,13.22-3.34,10.4,0,16.88,4.14,20.48,7.61,3.74,3.61,8.18,10.24,8.18,21.42,0,2.38-.23,4.77-.68,7.1-.31,1.58-.67,3.17-1.07,4.72-.21.8-.4,1.65-.56,2.5-.02.12-.04.25-.04.36,0,.52.04,1.05.12,1.55.2,1.27.43,2.53.67,3.74.33,1.69.63,3.33.88,4.89.39,2.38.59,4.8.59,7.2,0,4.75-.24,8.87-.75,12.6-.68,5.04-2.08,9.55-4.16,13.38-2.75,5.07-6.85,9.13-11.87,11.74-4.43,2.31-9.64,3.48-15.47,3.48Z"/>
            <path class="cls-2" d="m221.78,52.45c-.52-.68-.95-.91-1.29-.7-.34.22-.6.59-.78,1.12-.18.53-.3,1.1-.35,1.72-.05.62-.08,1.02-.08,1.21,0,1.3.13,2.57.39,3.81.26,1.24.55,2.48.86,3.72.31,1.24.6,2.48.86,3.72.26,1.24.39,2.51.39,3.81,0,2.48-.13,4.57-.39,6.27-.26,1.7-.78,3.1-1.56,4.18-.78,1.08-1.87,1.86-3.28,2.32-1.4.46-3.25.7-5.54.7-3.54,0-6.06-1.05-7.56-3.16-1.51-2.11-2.26-5.2-2.26-9.29,0-2.79.27-5.53.82-8.22.55-2.7,1.14-5.36,1.79-7.99.65-2.63,1.25-5.3,1.79-7.99.55-2.7.82-5.44.82-8.22,0-2.11-.21-4.17-.62-6.18-.42-2.01-.62-4.04-.62-6.09,0-2.6.67-4.77,2.03-6.51,1.35-1.73,3.14-2.6,5.38-2.6s4.16.82,5.93,2.46c1.77,1.64,3.4,3.7,4.91,6.18,1.51,2.48,2.87,5.17,4.09,8.09,1.22,2.91,2.35,5.61,3.39,8.08,1.04,2.48,2,4.54,2.89,6.18.88,1.64,1.74,2.46,2.57,2.46.36,0,.66-.15.9-.46.23-.31.41-.66.55-1.07.13-.4.22-.84.27-1.3.05-.46.08-.85.08-1.16,0-1.3-.14-2.6-.43-3.9-.29-1.3-.58-2.66-.9-4.09-.31-1.42-.61-2.93-.9-4.51-.29-1.58-.43-3.3-.43-5.16,0-1.49.14-2.93.43-4.32.29-1.39.77-2.63,1.44-3.72.68-1.08,1.59-1.95,2.73-2.6,1.14-.65,2.57-.98,4.29-.98,3.53,0,6.19.85,7.95,2.56,1.77,1.7,2.65,4.51,2.65,8.41,0,1.24-.12,2.46-.35,3.67-.23,1.21-.51,2.42-.82,3.62-.31,1.21-.58,2.43-.82,3.67-.23,1.24-.35,2.48-.35,3.72,0,1.49.12,2.96.35,4.41.23,1.46.49,2.91.78,4.37.29,1.46.55,2.9.78,4.32.23,1.43.35,2.85.35,4.27,0,3.9-.2,7.3-.58,10.18-.39,2.88-1.1,5.28-2.14,7.2-1.04,1.92-2.48,3.36-4.33,4.32-1.85.96-4.22,1.44-7.13,1.44-2.08,0-3.87-.63-5.38-1.9-1.51-1.27-2.81-2.9-3.9-4.88-1.09-1.98-2.03-4.2-2.81-6.64-.78-2.45-1.53-4.86-2.26-7.25-.73-2.38-1.44-4.58-2.14-6.6-.7-2.01-1.52-3.58-2.46-4.69Z"/>
          </g>
        </g>
      </g>
      <g>
        <g>
          <path class="cls-3" d="m60.67,53.13c1.95,1.68,3.79,3.58,5.53,5.69,1.74,2.11,3.12,4.3,4.14,6.6,1.03,2.3,1.54,4.63,1.54,7.02,0,2.39-.84,4.67-2.48,6.82-.88,1.16-1.84,2.07-2.89,2.64-1.05.57-2.05.98-3,1.24-.95.25-1.78.44-2.48.57-.7.13-1.17.35-1.41.67-.21.29-.06.88.46,1.78.52.9,1.05,1.98,1.59,3.23.54,1.26.9,2.62,1.06,4.08.16,1.46-.22,2.9-1.17,4.31-1.57,2.33-3.62,3.79-6.17,4.31-2.55.52-5.4.36-8.52-.51-3.12-.87-6.41-2.33-9.82-4.42-3.41-2.08-6.75-4.53-9.97-7.35-1.04-.9-2.25-2.14-3.64-3.73-1.38-1.59-2.57-3.3-3.54-5.11-.98-1.82-1.57-3.62-1.8-5.37-.23-1.76.26-3.22,1.43-4.39,1.14-1.14,2.35-1.99,3.65-2.56,1.29-.57,2.68-1.17,4.16-1.78,1.48-.61,3.05-1.43,4.73-2.46,1.67-1.02,3.46-2.54,5.38-4.54,1.11-1.16,2.03-2.32,2.76-3.48.73-1.16,1.35-2.25,1.87-3.28.52-1.02,1.01-1.98,1.47-2.88.46-.89,1.01-1.66,1.64-2.29.56-.57,1.34-.93,2.34-1.09.99-.16,2.15-.04,3.49.34,1.33.38,2.8,1.06,4.42,2.02,1.61.96,3.35,2.27,5.24,3.9Zm-4.17,11.48c-.52-.43-1.05-.69-1.6-.77-.55-.08-1.07-.07-1.55.05-.49.11-.91.29-1.27.54-.36.25-.65.49-.85.73-.99,1.15-1.56,2.18-1.71,3.08-.15.9.2,1.71,1.06,2.43.39.33.89.61,1.49.84.6.23,1.21.34,1.84.34.63,0,1.26-.14,1.89-.41.63-.27,1.19-.72,1.69-1.35.31-.38.49-.82.56-1.31.07-.49.05-.99-.05-1.51-.11-.52-.29-1.01-.54-1.48-.26-.47-.57-.86-.96-1.18Zm-15.73,13.21c-.67.76-1.04,1.45-1.12,2-.08.55.02.94.28,1.16.34.29.79.64,1.35,1.05.56.41,1.16.76,1.79,1.05.63.29,1.23.44,1.81.48.57.03,1.03-.16,1.36-.58.45-.56.64-1.15.58-1.77-.06-.62-.24-1.23-.54-1.82-.3-.59-.69-1.15-1.17-1.67-.48-.52-.95-.97-1.39-1.34-.44-.38-.81-.49-1.09-.35-.28.14-.94.74-1.87,1.8Z"/>
          <path class="cls-3" d="m63.62,99.88c.42-.63.88-1.23,1.39-1.78.51-.55,1.08-1.09,1.62-1.62.86-.83,1.72-1.69,2.57-2.44.85-.75,1.69-1.51,2.52-2.28.83-.77,1.63-1.59,2.41-2.47.78-.88,1.52-1.87,2.22-2.96.36-.57.67-1.27.94-2.1.27-.83.55-1.69.85-2.56.3-.87.6-1.71.92-2.52.31-.81.69-1.47,1.13-1.98,1.36-1.61,2.88-2.68,4.55-3.21,1.67-.53,3.43-.21,5.33.94,2.22,1.34,3.46,3.12,3.75,5.39.29,2.27-.26,4.7-1.69,7.28-.48.86-1.02,1.62-1.64,2.27-.62.65-1.25,1.3-1.91,1.92-.66.63-1.3,1.27-1.93,1.91-.63.65-1.18,1.4-1.67,2.25-.53.93-.96,2.02-1.3,3.27-.33,1.25-.46,2.49-.36,3.72.09,1.23.42,2.39.99,3.49.56,1.1,1.46,1.97,2.68,2.61,1.26.66,2.48.89,3.65.68,1.16-.21,2.25-.67,3.25-1.37s1.87-1.57,2.63-2.59c.76-1.02,1.37-2.02,1.84-2.98.49-1,.84-2.03,1.05-3.07.21-1.04.39-2.07.52-3.1.14-1.03.32-2.06.55-3.1.22-1.04.59-2.05,1.09-3.05.5-1,1.13-2.02,1.89-3.06.76-1.04,1.61-1.94,2.54-2.71.93-.76,1.93-1.28,3-1.56,1.07-.28,2.17-.15,3.32.38,1.92.89,3.25,2.32,4.03,4.31.77,1.99.97,4.23.57,6.72-.09.64-.32,1.35-.72,2.13s-.87,1.62-1.44,2.52c-.56.9-1.13,1.84-1.71,2.81-.58.97-1.09,1.99-1.54,3.06-.43,1.03-.77,2.16-.99,3.4-.23,1.24-.44,2.55-.65,3.94-.21,1.39-.46,2.81-.75,4.26-.29,1.45-.73,2.9-1.33,4.35-.98,2.4-2.47,4.31-4.5,5.68-2.03,1.38-4.42,2.26-7.16,2.61-2.75.35-5.74.18-8.97-.53-3.23-.71-6.46-1.91-9.67-3.61-3.2-1.7-6.03-3.54-8.47-5.5-2.44-1.96-4.33-4.04-5.65-6.2-1.32-2.16-2-4.39-2.03-6.64-.03-2.26.74-4.56,2.29-6.91Zm51.84-27.06c-.27.76-.64,1.37-1.09,1.82-.45.45-.96.82-1.53,1.09-.57.27-1.17.48-1.81.61-.64.13-1.28.25-1.9.33-.71.1-1.53.2-2.45.31-.92.11-1.84.18-2.78.22-.94.04-1.84.02-2.72-.04-.87-.06-1.65-.22-2.29-.49-.45-.19-.88-.48-1.27-.82-.39-.35-.71-.76-.94-1.22-.23-.47-.36-.96-.4-1.47-.04-.51.05-1.05.28-1.58.41-.98,1.36-1.83,2.76-2.55,1.4-.72,2.92-1.29,4.58-1.73,1.65-.44,3.25-.73,4.8-.87,1.55-.14,2.72-.1,3.48.15.58.19,1.13.49,1.63.89.5.4.91.88,1.24,1.43.32.56.54,1.17.64,1.84.11.67.03,1.37-.22,2.08Z"/>
          <path class="cls-3" d="m135.81,129.37c.37-1.33.13-2.59-.71-3.78-.84-1.19-1.96-2.38-3.37-3.58-1.41-1.2-2.92-2.47-4.53-3.82-1.61-1.35-3-2.87-4.18-4.54-1.17-1.67-1.96-3.51-2.37-5.5-.41-1.99-.13-4.21.82-6.68.69-1.79,1.83-3.13,3.39-4.02,1.57-.89,3.26-1.47,5.09-1.76,1.83-.28,3.67-.33,5.52-.15,1.85.18,3.44.46,4.77.86,2.15.65,4.29,1.46,6.45,2.46,2.16.99,4.06,2.17,5.69,3.54,1.64,1.37,2.89,2.98,3.75,4.83.86,1.85,1.06,4,.56,6.45-.14.66-.35,1.38-.64,2.16-.29.78-.68,1.5-1.15,2.16-.47.65-1.03,1.16-1.67,1.53-.64.37-1.38.46-2.2.27-.48-.11-1.03-.24-1.68-.42-.64-.17-1.23-.43-1.77-.76-.53-.33-.94-.76-1.23-1.26-.28-.51-.33-1.15-.13-1.93.38-1.52.13-2.68-.72-3.5-.86-.82-2.03-1.43-3.53-1.84-1.12-.31-1.97-.32-2.55-.02-.58.3-.97.77-1.15,1.41-.04.13-.05.26-.05.4,0,.14.02.26.03.36.24,1.37.88,2.7,1.92,3.99,1.04,1.28,2.28,2.56,3.71,3.82,1.43,1.26,2.93,2.52,4.49,3.78,1.56,1.25,2.97,2.58,4.21,3.98,1.24,1.4,2.22,2.9,2.93,4.49.7,1.59.89,3.35.52,5.29-.5,2.63-1.72,4.73-3.7,6.25-1.99,1.52-4.35,2.61-7.07,3.24-2.73.63-5.58.86-8.53.69-2.95-.18-5.6-.61-7.92-1.27-1.59-.46-3.24-.98-4.92-1.57-1.69-.59-3.31-1.29-4.87-2.11-1.56-.82-2.98-1.75-4.26-2.79-1.28-1.04-2.36-2.25-3.23-3.62-.61-.94-1.07-2.01-1.38-3.2-.31-1.19-.5-2.4-.58-3.63-.07-1.23-.01-2.45.18-3.67.19-1.22.49-2.33.88-3.32.74-1.87,1.97-3.13,3.68-3.82,1.71-.68,3.52-.67,5.47.03,2.12.76,3.87,1.8,5.25,3.13,1.38,1.33,2.5,2.73,3.36,4.22.56,1.02,1.03,1.81,1.4,2.36.37.56.72.99,1.05,1.3.33.31.65.53.98.67.33.14.7.27,1.1.39.5.14,1.04.15,1.62,0,.58-.14.99-.64,1.23-1.5Z"/>
          <path class="cls-3" d="m188.51,154.18c.43.29,1.01.54,1.75.73.74.19,1.55.36,2.44.51.89.15,1.79.31,2.71.5.91.18,1.76.4,2.52.67.77.26,1.39.58,1.86.97.47.39.7.89.7,1.52-.01,1.34-.38,2.44-1.1,3.3-.73.86-1.65,1.53-2.76,1.99-1.11.46-2.36.76-3.73.89-1.37.13-2.7.16-3.99.09-1.49-.08-3.04-.33-4.64-.75-1.6-.42-3.04-.98-4.31-1.67-.88-.48-1.55-1.12-1.98-1.92-.44-.8-.81-1.65-1.13-2.53-.32-.88-.66-1.75-1.03-2.59-.37-.85-.91-1.58-1.65-2.2-.32-.26-.75-.48-1.27-.65-.53-.17-1.1-.33-1.7-.47-.61-.14-1.19-.26-1.75-.35-.56-.09-1.02-.16-1.36-.21-2.53-.47-4.46-1.45-5.75-2.89-1.29-1.44-2.14-3.12-2.55-5-.42-1.88-.53-3.86-.36-5.94.17-2.08.42-4.02.74-5.82.19-1.1.4-2.2.62-3.29.22-1.09.46-2.2.75-3.27.7-2.58,1.88-5.12,3.42-7.61,1.54-2.48,3.34-4.65,5.4-6.52,2.06-1.87,4.3-3.32,6.74-4.38,2.44-1.06,4.97-1.47,7.64-1.24,2.31.2,4.33.8,6.09,1.84,1.76,1.04,3.33,2.38,4.71,4.04,1.38,1.66,2.57,3.53,3.58,5.62,1,2.1,1.85,4.28,2.51,6.57.66,2.28,1.16,4.59,1.47,6.91.31,2.32.48,4.51.48,6.57,0,2.5-.24,4.72-.74,6.67-.5,1.94-1.33,3.62-2.48,5.01-1.16,1.39-2.7,2.51-4.64,3.32-1.94.82-4.33,1.36-7.17,1.61Zm-13.73-25.39c-.28,2.4.1,4.36,1.19,5.87,1.08,1.51,3.1,2.43,6.02,2.67,2.78.24,4.76-.27,5.92-1.45,1.16-1.18,1.79-2.85,1.91-4.99.06-1.03,0-2.14-.18-3.33-.18-1.19-.51-2.3-1-3.31-.49-1.01-1.16-1.88-2.03-2.59-.86-.71-1.96-1.12-3.3-1.23-1.25-.11-2.37.07-3.35.53-.99.46-1.84,1.1-2.57,1.92-.73.82-1.32,1.74-1.75,2.77-.43,1.03-.72,2.08-.84,3.14Z"/>
          <path class="cls-3" d="m207.72,141.62c-.01-.76.03-1.51.14-2.25.1-.74.26-1.5.41-2.25.23-1.17.45-2.37.72-3.47.27-1.1.53-2.2.77-3.3.24-1.1.43-2.24.58-3.4.14-1.16.19-2.4.15-3.69-.02-.67-.15-1.43-.39-2.27-.24-.84-.48-1.71-.72-2.59-.24-.89-.45-1.75-.64-2.6-.19-.84-.25-1.6-.18-2.27.21-2.1.83-3.84,1.88-5.21,1.04-1.37,2.62-2.1,4.77-2.22,2.51-.14,4.48.64,5.96,2.35,1.48,1.72,2.37,4.04,2.64,6.97.09.98.06,1.91-.07,2.8-.14.89-.3,1.78-.48,2.66-.19.89-.35,1.78-.5,2.66-.15.89-.18,1.82-.1,2.8.09,1.07.34,2.22.75,3.43.42,1.22,1,2.32,1.75,3.28.75.96,1.65,1.75,2.71,2.34,1.06.59,2.26.82,3.6.67,1.38-.16,2.49-.65,3.32-1.48.83-.82,1.45-1.81,1.87-2.95s.65-2.34.7-3.61c.05-1.27,0-2.44-.16-3.5-.16-1.1-.44-2.15-.84-3.13-.4-.98-.83-1.94-1.29-2.87-.45-.93-.88-1.89-1.27-2.87-.39-.98-.65-2.03-.8-3.14-.15-1.11-.2-2.31-.16-3.59.04-1.29.23-2.51.56-3.66.33-1.15.86-2.14,1.57-2.96.71-.83,1.68-1.33,2.9-1.53,2.06-.33,3.93.11,5.67,1.33,1.73,1.22,3.14,2.97,4.2,5.26.29.58.49,1.3.6,2.17.11.87.19,1.83.23,2.89.04,1.06.09,2.16.16,3.28.07,1.12.21,2.26.44,3.4.22,1.1.57,2.22,1.08,3.37.5,1.15,1.05,2.36,1.66,3.63.6,1.27,1.19,2.59,1.75,3.95.57,1.37,1.01,2.81,1.33,4.34.53,2.54.37,4.95-.52,7.22-.89,2.27-2.36,4.34-4.4,6.15-2.04,1.82-4.58,3.35-7.59,4.56-3.01,1.21-6.29,2.02-9.81,2.4-3.52.38-6.81.44-9.84.19-3.03-.25-5.68-.92-7.91-1.96-2.24-1.04-3.98-2.5-5.24-4.35-1.25-1.85-1.89-4.18-1.93-7Z"/>
          <path class="cls-3" d="m256.32,109.46c-.43-1.78-.36-3.3.17-4.55.53-1.26,1.3-2.32,2.3-3.2,1.01-.88,2.17-1.61,3.5-2.18,1.33-.58,2.6-1.05,3.82-1.41.83-.25,1.81-.53,2.95-.87,1.14-.33,2.35-.63,3.63-.89,1.28-.26,2.58-.45,3.89-.58,1.31-.13,2.55-.1,3.7.09,1.16.19,2.19.59,3.1,1.2.91.61,1.61,1.54,2.09,2.79.45,1.17.62,2.2.51,3.11-.12.91-.44,1.69-.96,2.34-.52.65-1.2,1.21-2,1.67-.81.46-1.69.86-2.64,1.19-1.07.37-2.15.69-3.21.95-1.06.26-2.14.56-3.22.9-.58.18-1.16.48-1.74.89-.58.41-.75,1.02-.5,1.83.34,1.11,1.02,1.78,2.07,2,1.04.22,2.72-.04,5.01-.8,1.19-.39,2.33-.77,3.44-1.13,1.1-.36,2.11-.58,3.01-.65.91-.07,1.7.08,2.39.44.69.36,1.23,1.04,1.61,2.05.36.96.31,1.85-.17,2.68-.48.82-1.2,1.56-2.17,2.22-.97.66-2.09,1.24-3.36,1.74-1.27.5-2.5.95-3.69,1.33-.92.3-1.65.65-2.18,1.05-.53.4-.92.8-1.19,1.21-.26.41-.41.8-.44,1.19-.03.38,0,.72.09,1.02.26.86.94,1.29,2.06,1.3,1.11,0,2.39-.22,3.83-.69,1.39-.45,2.71-1.07,3.94-1.85,1.23-.78,2.53-1.42,3.9-1.92.75-.27,1.6-.48,2.53-.62.93-.14,1.86-.11,2.77.09.92.19,1.77.61,2.57,1.26.8.64,1.45,1.59,1.95,2.83.62,1.53.46,3.15-.49,4.84-.96,1.69-2.28,3.3-3.99,4.81-1.7,1.51-3.57,2.82-5.57,3.92-2.01,1.11-3.69,1.86-5.03,2.28-3.3,1.04-6.37,1.77-9.17,2.2-2.81.43-5.31.47-7.49.14-2.18-.33-3.96-1.07-5.35-2.2-1.39-1.12-2.31-2.74-2.78-4.83-.34-1.53-.4-2.99-.19-4.39.21-1.4.47-2.81.78-4.24.31-1.42.55-2.85.72-4.27.17-1.42.07-2.87-.29-4.34-.27-1.08-.6-2.12-1-3.1-.4-.98-.82-1.95-1.25-2.9-.43-.95-.86-1.92-1.27-2.9-.41-.98-.74-1.99-.99-3.04Z"/>
          <path class="cls-3" d="m297.82,83.86c2.86-1.37,5.99-2.16,9.46-2.4,3.47-.24,6.93.02,10.41.8,3.48.78,6.78,2.05,9.9,3.87,3.12,1.82,5.68,4.19,7.61,7.2,4.29,6.7,5.65,13.03,3.58,18.65-2.69,7.32-9.91,12.47-16.74,15.78-2.36,1.14-4.63,1.95-6.78,2.35-2.15.4-4.07.45-5.75.16-1.68-.29-3.12-.88-4.32-1.76-1.2-.88-2.07-1.98-2.62-3.3-.52-1.24-.83-2.61-.94-4.11-.12-1.5-.23-3.08-.35-4.73-.12-1.65-.3-3.32-.54-5.02-.24-1.7-.72-3.37-1.44-5-.45-1.02-.98-1.99-1.59-2.89-.61-.9-1.23-1.79-1.85-2.67-.62-.88-1.21-1.73-1.78-2.55-.57-.83-1.03-1.67-1.4-2.53-1-2.34-1.14-4.54-.46-6.6.68-2.06,2.54-3.76,5.58-5.23Zm13.81,11.52c-.91.47-1.57,1.24-2.01,2.31-.43,1.07-.32,2.29.36,3.64.58,1.16,1.26,2.32,2.04,3.48.78,1.16,1.48,2.33,2.08,3.53.58,1.16,1.4,1.88,2.48,2.17,1.07.28,2.29.07,3.64-.64,1.77-.93,2.91-2.25,3.4-3.92.49-1.67.2-3.42-.82-5.26-.59-1.05-1.38-1.98-2.35-2.79-.97-.81-2-1.47-3.08-1.98-1.07-.51-2.12-.82-3.14-.93-1.02-.11-1.88.01-2.59.38Z"/>
          <path class="cls-3" d="m340.13,58.12c1.13-.91,2.42-1.85,3.87-2.83,1.45-.98,2.91-1.82,4.41-2.51,1.5-.69,2.95-1.13,4.36-1.3,1.41-.17,2.63.12,3.65.88.94.7,2,1.62,3.13,2.77,1.13,1.15,2.61,2.34,4.4,3.59,1.33.93,2.78,1.63,4.34,2.03,1.56.4,3.13.77,4.73,1.12,1.59.35,3.15.8,4.68,1.36,1.53.56,2.93,1.46,4.19,2.73,1.55,1.55,2.82,3.14,3.79,4.78.98,1.64,1.51,3.33,1.59,5.06.08,1.73-.31,3.52-1.16,5.35-.86,1.82-2.35,3.71-4.47,5.61-1.18,1.06-2.37,1.8-3.55,2.24-1.18.44-2.31.63-3.36.59-1.06-.04-2.01-.29-2.86-.74-.85-.45-1.56-1.03-2.13-1.71-.31-.38-.63-.81-.94-1.31-.31-.49-.69-.89-1.14-1.19-.44-.3-.96-.43-1.56-.4-.59.03-1.29.37-2.1,1.03-1.66,1.35-2.54,2.47-2.61,3.38-.08.91.19,1.76.79,2.53.85,1.09,1.46,2.25,1.82,3.46.36,1.22.49,2.41.37,3.57-.12,1.16-.47,2.27-1.05,3.31-.58,1.05-1.35,1.93-2.32,2.63-3.65,2.66-6.93,3.94-9.75,3.92-2.81-.02-5.25-1.68-7.35-4.9-.54-.82-.89-1.77-1.06-2.83.01-.14.02-.21.04-.35-.12-1.15-.23-2.42-.36-3.78-.13-1.37-.28-2.73-.46-4.1-.18-1.36-.41-2.71-.69-4.03-.28-1.32-.6-2.53-.95-3.58-.48-1.44-1.03-2.77-1.59-3.96-.56-1.19-1.12-2.36-1.67-3.5-.56-1.14-1.09-2.31-1.59-3.51-.5-1.2-.92-2.54-1.28-3.99-.31-1.25-.35-2.43-.12-3.52s.66-2.1,1.27-3.03c.61-.93,1.32-1.8,2.15-2.62s1.67-1.57,2.54-2.26Zm15.04,21.52c.08.09.27.1.57-.03.3-.12.62-.28.96-.47.34-.19.67-.38,1-.59.33-.21.55-.36.66-.45.41-.33.88-.78,1.42-1.34.54-.56.71-1.09.59-1.54-.07-.28-.3-.66-.73-1.09-.42-.43-.89-.9-1.41-1.4-.51-.5-1.05-1.01-1.61-1.54-.56-.52-1.04-1.02-1.44-1.51-.91-1.1-1.74-1.73-2.48-1.9-.74-.17-1.25-.14-1.53.09-.18.14-.34.38-.49.7-.15.32-.25.71-.3,1.15-.05.45,0,.92.14,1.44.15.51.43,1.03.85,1.55.36.45.72,1.03,1.06,1.72.35.7.69,1.39,1.03,2.09.34.7.65,1.34.93,1.91.28.58.56.98.76,1.19Z"/>
        </g>
        <g>
          <path class="cls-3" d="m156.36,29.96c0-2.54.51-4.57,1.52-6.09,1.01-1.52,2.27-2.7,3.78-3.53,1.51-.84,3.17-1.39,4.99-1.67,1.82-.28,3.53-.42,5.15-.42,1.09,0,2.39.02,3.9.05,1.51.03,3.08.16,4.72.37,1.64.22,3.26.54,4.87.98,1.61.43,3.05,1.05,4.33,1.86,1.27.81,2.3,1.83,3.08,3.07.78,1.24,1.17,2.79,1.17,4.65,0,1.74-.26,3.16-.78,4.27-.52,1.12-1.21,1.97-2.07,2.56-.86.59-1.83.99-2.92,1.21-1.09.22-2.24.33-3.43.33-1.35,0-2.68-.06-3.98-.19-1.3-.12-2.63-.19-3.98-.19-.73,0-1.5.16-2.3.46-.81.31-1.21,1.05-1.21,2.23,0,1.61.55,2.77,1.64,3.49,1.09.71,3.04,1.07,5.85,1.07,1.45,0,2.86.02,4.21.05,1.35.03,2.53.22,3.55.56,1.01.34,1.82.91,2.42,1.72.6.81.9,1.95.9,3.44s-.42,2.56-1.25,3.39c-.83.84-1.88,1.46-3.16,1.86-1.27.4-2.68.65-4.21.74-1.53.09-3,.14-4.41.14-1.09,0-1.99.16-2.69.46-.7.31-1.26.68-1.68,1.12-.42.43-.7.9-.86,1.39-.16.5-.23.96-.23,1.39,0,1.24.58,2.09,1.75,2.56,1.17.46,2.59.7,4.25.7s3.2-.23,4.76-.7c1.56-.46,3.14-.7,4.76-.7.88,0,1.83.14,2.85.42,1.01.28,1.95.78,2.81,1.49.86.71,1.56,1.69,2.11,2.93.55,1.24.82,2.79.82,4.65,0,2.29-.79,4.29-2.38,5.99-1.59,1.7-3.48,3.13-5.69,4.27-2.21,1.15-4.48,2-6.82,2.56-2.34.56-4.24.84-5.69.84-3.59,0-6.85-.23-9.79-.7-2.94-.46-5.47-1.28-7.6-2.46-2.13-1.18-3.78-2.74-4.95-4.69s-1.75-4.41-1.75-7.39c0-2.17.29-4.17.86-5.99.57-1.83,1.21-3.65,1.91-5.48.7-1.83,1.34-3.67,1.91-5.53.57-1.86.86-3.84.86-5.95,0-1.55-.09-3.05-.27-4.51-.18-1.45-.39-2.9-.62-4.32-.23-1.42-.46-2.86-.66-4.32-.21-1.45-.31-2.93-.31-4.41Z"/>
          <path class="cls-3" d="m221.78,52.45c-.52-.68-.95-.91-1.29-.7-.34.22-.6.59-.78,1.12-.18.53-.3,1.1-.35,1.72-.05.62-.08,1.02-.08,1.21,0,1.3.13,2.57.39,3.81.26,1.24.55,2.48.86,3.72.31,1.24.6,2.48.86,3.72.26,1.24.39,2.51.39,3.81,0,2.48-.13,4.57-.39,6.27-.26,1.7-.78,3.1-1.56,4.18-.78,1.08-1.87,1.86-3.28,2.32-1.4.46-3.25.7-5.54.7-3.54,0-6.06-1.05-7.56-3.16-1.51-2.11-2.26-5.2-2.26-9.29,0-2.79.27-5.53.82-8.22.55-2.7,1.14-5.36,1.79-7.99.65-2.63,1.25-5.3,1.79-7.99.55-2.7.82-5.44.82-8.22,0-2.11-.21-4.17-.62-6.18-.42-2.01-.62-4.04-.62-6.09,0-2.6.67-4.77,2.03-6.51,1.35-1.73,3.14-2.6,5.38-2.6s4.16.82,5.93,2.46c1.77,1.64,3.4,3.7,4.91,6.18,1.51,2.48,2.87,5.17,4.09,8.09,1.22,2.91,2.35,5.61,3.39,8.08,1.04,2.48,2,4.54,2.89,6.18.88,1.64,1.74,2.46,2.57,2.46.36,0,.66-.15.9-.46.23-.31.41-.66.55-1.07.13-.4.22-.84.27-1.3.05-.46.08-.85.08-1.16,0-1.3-.14-2.6-.43-3.9-.29-1.3-.58-2.66-.9-4.09-.31-1.42-.61-2.93-.9-4.51-.29-1.58-.43-3.3-.43-5.16,0-1.49.14-2.93.43-4.32.29-1.39.77-2.63,1.44-3.72.68-1.08,1.59-1.95,2.73-2.6,1.14-.65,2.57-.98,4.29-.98,3.53,0,6.19.85,7.95,2.56,1.77,1.7,2.65,4.51,2.65,8.41,0,1.24-.12,2.46-.35,3.67-.23,1.21-.51,2.42-.82,3.62-.31,1.21-.58,2.43-.82,3.67-.23,1.24-.35,2.48-.35,3.72,0,1.49.12,2.96.35,4.41.23,1.46.49,2.91.78,4.37.29,1.46.55,2.9.78,4.32.23,1.43.35,2.85.35,4.27,0,3.9-.2,7.3-.58,10.18-.39,2.88-1.1,5.28-2.14,7.2-1.04,1.92-2.48,3.36-4.33,4.32-1.85.96-4.22,1.44-7.13,1.44-2.08,0-3.87-.63-5.38-1.9-1.51-1.27-2.81-2.9-3.9-4.88-1.09-1.98-2.03-4.2-2.81-6.64-.78-2.45-1.53-4.86-2.26-7.25-.73-2.38-1.44-4.58-2.14-6.6-.7-2.01-1.52-3.58-2.46-4.69Z"/>
        </g>
      </g>
      <g>
        <path class="cls-2" d="m223.37,183.38h.07c2.55-.25,4.59.27,6.12,1.54,1.7,1.41,2.65,3.21,2.85,5.39.21,2.19-.39,4.14-1.79,5.83-1.27,1.54-3.17,2.43-5.72,2.67h-.07s0,.03,0,.03l-.87.08-1.46-15.49.87-.08v.02Zm.08.89l1.29,13.68h.07c2.3-.22,4-1.01,5.12-2.36,1.25-1.5,1.78-3.23,1.59-5.18-.18-1.94-1.03-3.54-2.53-4.79-1.35-1.12-3.17-1.57-5.47-1.35h-.07Z"/>
        <path class="cls-1" d="m223.25,199.79l-1.61-17.06,2.46-.23v.04c2.43-.1,4.43.5,5.97,1.78,1.85,1.54,2.91,3.53,3.14,5.93.23,2.4-.44,4.56-1.97,6.41-1.27,1.54-3.13,2.51-5.52,2.86v.02s-2.46.25-2.46.25Zm1.07-14.79l1.14,12.05c1.74-.29,3.02-.95,3.87-1.98,1.12-1.35,1.58-2.86,1.41-4.6-.16-1.74-.9-3.13-2.25-4.26-1.03-.86-2.44-1.26-4.17-1.21Z"/>
      </g>
      <g>
        <path class="cls-2" d="m259.2,181.69l.1.87-6.86.78.73,6.42,6.86-.78.1.87-6.86.78.73,6.42,6.86-.78.1.87-7.73.88-1.77-15.46,7.73-.88Z"/>
        <polygon class="cls-1" points="252.55 198.91 250.6 181.88 259.9 180.82 260.18 183.26 253.32 184.04 253.87 188.9 260.73 188.11 261.01 190.55 254.15 191.34 254.71 196.19 261.57 195.4 261.84 197.84 252.55 198.91"/>
      </g>
      <g>
        <path class="cls-2" d="m281.55,194.04l-3.92-15.06.85-.22,3.7,14.21,5.83-1.52.22.85-6.68,1.74Z"/>
        <polygon class="cls-1" points="280.99 195.01 276.67 178.42 279.05 177.8 282.75 192.01 288.58 190.49 289.2 192.87 280.99 195.01"/>
      </g>
      <g>
        <path class="cls-2" d="m323.91,180.05l.85.27c-.81,1.88-2.16,3.25-4.03,4.1-2.01.91-4.04.98-6.09.2-2.05-.78-3.54-2.17-4.44-4.17-.91-2-.97-4.03-.2-6.09.77-2.06,2.16-3.54,4.17-4.45,1.87-.85,3.78-.95,5.73-.32l-.35.82c-1.71-.53-3.38-.42-5.01.31-1.78.8-3.01,2.12-3.7,3.95-.69,1.83-.63,3.63.17,5.41.81,1.78,2.12,3.02,3.95,3.71,1.83.69,3.63.63,5.41-.17,1.64-.74,2.82-1.93,3.55-3.56Z"/>
        <path class="cls-1" d="m317.45,185.94c-1.03,0-2.07-.19-3.1-.58-2.25-.85-3.89-2.39-4.89-4.59-.99-2.19-1.07-4.44-.22-6.69.85-2.25,2.39-3.9,4.59-4.89,2.05-.93,4.17-1.05,6.3-.35l.83.27-.98,2.27-.68-.21c-1.53-.47-2.99-.38-4.45.28-1.59.72-2.67,1.87-3.29,3.51-.62,1.64-.57,3.21.15,4.8.72,1.6,1.87,2.68,3.51,3.3,1.64.62,3.21.57,4.8-.15,1.47-.66,2.5-1.7,3.15-3.16l.29-.64,2.35.74-.35.8c-.89,2.06-2.38,3.58-4.43,4.5-1.19.54-2.39.81-3.6.81Z"/>
      </g>
      <g>
        <path class="cls-2" d="m343.38,158.94c2.03.86,3.45,2.32,4.28,4.36.82,2.04.8,4.08-.06,6.11-.86,2.03-2.32,3.45-4.36,4.28-2.04.82-4.08.8-6.11-.06s-3.45-2.32-4.28-4.36c-.82-2.04-.8-4.08.06-6.11.86-2.03,2.32-3.45,4.36-4.28,2.04-.82,4.08-.8,6.11.06Zm-5.78.77c-1.82.73-3.11,2-3.87,3.8s-.78,3.61-.05,5.42c.73,1.82,2,3.11,3.8,3.88,1.8.77,3.61.79,5.43.06,1.82-.73,3.11-2,3.87-3.8.77-1.8.78-3.61.05-5.43-.73-1.82-2-3.11-3.8-3.87-1.8-.77-3.61-.78-5.42-.05Z"/>
        <path class="cls-1" d="m340.24,175.08c-1.15,0-2.29-.24-3.43-.73-2.22-.94-3.8-2.56-4.7-4.79-.9-2.24-.88-4.49.07-6.71.94-2.22,2.56-3.8,4.79-4.7,2.23-.9,4.49-.88,6.71.07h0c2.22.95,3.8,2.56,4.7,4.79.9,2.24.88,4.5-.07,6.72-.94,2.22-2.56,3.8-4.79,4.7-1.09.44-2.19.66-3.28.66Zm.01-15.12c-.78,0-1.56.16-2.36.48-1.63.66-2.75,1.76-3.44,3.37-.69,1.61-.7,3.19-.05,4.82.66,1.63,1.76,2.76,3.38,3.45,1.61.69,3.19.71,4.82.05,1.63-.66,2.75-1.76,3.44-3.38.69-1.62.7-3.2.05-4.83-.66-1.63-1.76-2.75-3.37-3.44-.83-.35-1.64-.53-2.46-.53Z"/>
      </g>
      <g>
        <path class="cls-2" d="m366.17,160.77l-8.37-13.11.74-.47,7.9,12.37,5.08-3.25.47.74-5.82,3.72Z"/>
        <polygon class="cls-1" points="365.93 161.86 356.7 147.42 358.77 146.1 366.67 158.47 371.76 155.23 373.08 157.3 365.93 161.86"/>
      </g>
      <g>
        <path class="cls-2" d="m386.45,129.87c2.03.86,3.46,2.32,4.28,4.36.82,2.04.8,4.08-.06,6.11-.86,2.03-2.32,3.45-4.36,4.28-2.04.82-4.08.8-6.11-.06-2.03-.86-3.46-2.32-4.28-4.36-.82-2.04-.8-4.08.06-6.11.86-2.03,2.32-3.45,4.36-4.28,2.04-.82,4.08-.8,6.11.06Zm-5.77.77c-1.82.73-3.11,2-3.87,3.8s-.78,3.61-.05,5.42c.73,1.82,2,3.11,3.8,3.88,1.8.77,3.61.79,5.43.06,1.82-.73,3.11-2,3.87-3.8.77-1.8.78-3.61.05-5.43-.73-1.82-2-3.11-3.8-3.87-1.8-.77-3.61-.78-5.42-.05Z"/>
        <path class="cls-1" d="m383.31,146.01c-1.15,0-2.29-.24-3.43-.73-2.22-.95-3.8-2.56-4.7-4.79-.9-2.23-.88-4.49.07-6.71.94-2.22,2.56-3.8,4.79-4.7,2.23-.9,4.49-.88,6.71.07h0c2.22.95,3.8,2.56,4.7,4.79.9,2.24.88,4.5-.07,6.71-.94,2.22-2.56,3.8-4.79,4.7-1.09.44-2.19.66-3.28.66Zm-2.35-14.64c-1.63.66-2.75,1.76-3.44,3.37-.69,1.62-.7,3.19-.05,4.82.66,1.63,1.76,2.76,3.38,3.45,1.62.69,3.19.71,4.82.05,1.63-.66,2.75-1.76,3.44-3.38.69-1.62.7-3.2.05-4.83-.66-1.63-1.76-2.75-3.37-3.44-1.61-.69-3.19-.7-4.82-.05h0Z"/>
      </g>
      <g>
        <path class="cls-2" d="m401.7,122.55c-.06.06-.12.12-.19.18l-1.99,1.74,3.56,4.06-.66.58-10.25-11.7,3.07-2.69c1-.66,2.08-.95,3.25-.87,1.4.09,2.56.66,3.48,1.72.93,1.06,1.34,2.29,1.25,3.69-.06.97-.36,1.83-.89,2.57l6.34,1.79-.81.71-6.17-1.78Zm-8.29-5.05l5.53,6.31,1.99-1.74c.87-.76,1.34-1.72,1.42-2.88.08-1.16-.27-2.17-1.03-3.04-.76-.87-1.72-1.34-2.88-1.42-1.16-.07-2.17.27-3.03,1.03l-1.99,1.74Z"/>
        <path class="cls-1" d="m402.34,130.23l-11.3-12.89,3.75-3.28c1.14-.75,2.4-1.09,3.74-1,1.61.11,2.96.77,4.03,1.99,1.07,1.22,1.55,2.65,1.45,4.26-.05.73-.21,1.41-.49,2.03l6.78,1.92-2.23,1.96-6.16-1.77-1.27,1.11,3.56,4.06-1.85,1.62Zm-7.82-12.65l4.49,5.12,1.39-1.22c.71-.62,1.09-1.39,1.15-2.33.06-.95-.21-1.76-.84-2.47-.63-.71-1.39-1.09-2.34-1.15-.95-.06-1.75.21-2.46.84l-1.39,1.22Z"/>
      </g>
    </g>
  </g>
</svg>